<?xml version="1.0" encoding="UTF-8"?>
<svg id="Web" xmlns="http://www.w3.org/2000/svg" xmlns:xlink="http://www.w3.org/1999/xlink" version="1.1" viewBox="0 0 267 705">
  <defs>
    <clipPath id="clippath">
      <rect x="-2.192" width="271.419" height="705.083" fill="none" stroke-width="0"/>
    </clipPath>
    <clipPath id="clippath-1">
      <polygon points="226.831 535.678 231.784 535.678 231.784 547.289 226.831 547.289 226.831 535.678" fill="none" stroke-width="0"/>
    </clipPath>
    <radialGradient id="radial-gradient" cx="134.194" cy="539.922" fx="134.194" fy="539.922" r="26.766" gradientUnits="userSpaceOnUse">
      <stop offset="0" stop-color="#fff" stop-opacity="0"/>
      <stop offset=".252" stop-color="#fff" stop-opacity=".033"/>
      <stop offset="1" stop-color="#fff"/>
    </radialGradient>
    <radialGradient id="radial-gradient-2" cx="134.194" cy="539.922" fx="134.194" fy="539.922" r="42.224" gradientUnits="userSpaceOnUse">
      <stop offset="0" stop-color="#fff" stop-opacity="0"/>
      <stop offset="1" stop-color="#fff"/>
    </radialGradient>
  </defs>
  <g clip-path="url(#clippath)">
    <g>
      <rect x="-17.415" y="-12.517" width="291.265" height="723.934" fill="#191919" stroke-width="0"/>
      <rect id="path_curve_joint" data-name="path curve joint" x="122.949" y="428.79" width="20.218" height="9.573" fill="#f7f7f7" stroke-width="0"/>
      <g>
        <path d="M133.549,431.581c-59.805,0-108.286,48.481-108.286,108.286s48.481,108.286,108.286,108.286,108.286-48.481,108.286-108.286-48.481-108.286-108.286-108.286ZM133.549,632.775c-51.312,0-92.909-41.597-92.909-92.909s41.597-92.909,92.909-92.909,92.909,41.597,92.909,92.909-41.597,92.909-92.909,92.909Z" fill="#f7f7f7" stroke-width="0"/>
        <g opacity=".05">
          <path d="M133.549,431.581c59.805,0,108.286,48.481,108.286,108.286s-48.481,108.286-108.286,108.286-108.286-48.481-108.286-108.286,48.481-108.286,108.286-108.286M133.549,632.775c51.312,0,92.909-41.597,92.909-92.909s-41.597-92.909-92.909-92.909-92.909,41.597-92.909,92.909,41.597,92.909,92.909,92.909M133.549,431.081c-29.058,0-56.376,11.316-76.923,31.863-20.547,20.547-31.863,47.866-31.863,76.923s11.316,56.376,31.863,76.923c20.547,20.547,47.865,31.863,76.923,31.863s56.376-11.316,76.923-31.863c20.547-20.547,31.863-47.865,31.863-76.923s-11.316-56.376-31.863-76.923c-20.547-20.547-47.865-31.863-76.923-31.863h0ZM133.549,632.275c-50.954,0-92.409-41.454-92.409-92.409s41.454-92.409,92.409-92.409,92.409,41.454,92.409,92.409-41.454,92.409-92.409,92.409h0Z" fill="#231f20" stroke-width="0"/>
        </g>
      </g>
      <line x1="133.549" y1="432.162" x2="133.549" y2="446.993" fill="none" isolation="isolate" stroke="#c6c6c6" stroke-miterlimit="10" stroke-width="2"/>
      <g id="Duck_Ramp" data-name="Duck Ramp">
        <path d="M232.703,535.678l-9.951-24.66s3.087,17.537,3.087,31.02c0,12.068-6.182,34.901-6.182,34.901l13.046-29.649v-11.611Z" fill="#b7b7b7" stroke-width="0"/>
        <polygon points="226.831 535.678 231.784 535.678 231.784 547.289 226.831 547.289 226.831 535.678" fill="#898785" stroke-width="0"/>
        <g clip-path="url(#clippath-1)">
          <g>
            <line x1="216.555" y1="543.51" x2="229.99" y2="530.075" fill="none" stroke="#ffb600" stroke-miterlimit="10"/>
            <line x1="217.938" y1="544.894" x2="231.373" y2="531.459" fill="none" stroke="#ffb600" stroke-miterlimit="10"/>
            <line x1="219.321" y1="546.277" x2="232.756" y2="532.842" fill="none" stroke="#ffb600" stroke-miterlimit="10"/>
            <line x1="220.705" y1="547.66" x2="234.14" y2="534.225" fill="none" stroke="#ffb600" stroke-miterlimit="10"/>
            <line x1="222.088" y1="549.044" x2="235.523" y2="535.609" fill="none" stroke="#ffb600" stroke-miterlimit="10"/>
            <line x1="223.471" y1="550.427" x2="236.907" y2="536.992" fill="none" stroke="#ffb600" stroke-miterlimit="10"/>
            <line x1="224.855" y1="551.81" x2="238.29" y2="538.375" fill="none" stroke="#ffb600" stroke-miterlimit="10"/>
            <line x1="226.238" y1="553.194" x2="239.673" y2="539.759" fill="none" stroke="#ffb600" stroke-miterlimit="10"/>
          </g>
        </g>
      </g>
      <g id="Fountain">
        <circle cx="133.549" cy="539.866" r="93.726" fill="#595959" stroke="#000" stroke-miterlimit="10" stroke-width="1.5"/>
        <g id="unisplotch_grad" data-name="unisplotch grad" opacity=".7">
          <circle cx="134.194" cy="539.922" r="5.911" fill="#fff" stroke-width="0"/>
          <path d="M130.107,515.993c-.729-4.654-7.514-2.635-5.58,1.661l7.001,13.316-1.422-14.977h0ZM111.428,531.497l13.682,6.257-15.033-.595c-4.688-.472-3.044-7.358,1.351-5.663h0ZM115.514,555.425l12.26-8.72-8.032,12.722c-2.753,3.823-7.894-1.043-4.228-4.002h0ZM138.28,563.851l-1.422-14.977,7.001,13.316c1.935,4.296-4.85,6.315-5.58,1.661h0ZM156.96,548.347l-13.682-6.257,15.033.595c4.688.472,3.044,7.358-1.351,5.663h0ZM152.873,524.418l-12.26,8.72,8.032-12.721c2.753-3.824,7.894,1.043,4.228,4.001h0Z" fill="url(#radial-gradient)" stroke-width="0"/>
          <path d="M106.853,510.039l16.92,20.02-20.922-15.792c-3.318-2.726,1.093-7.393,4.001-4.228h0ZM94.644,548.659l25.798-4.643-24.137,10.223c-4.02,1.51-5.856-4.643-1.661-5.58h0ZM121.985,578.541l8.878-24.664-3.215,26.015c-.702,4.237-6.949,2.75-5.663-1.351h0ZM161.535,569.804l-16.92-20.02,20.922,15.792c3.317,2.726-1.092,7.393-4.002,4.228h0ZM173.743,531.185l-25.798,4.643,24.137-10.223c4.02-1.51,5.856,4.643,1.661,5.58h0ZM146.402,501.302l-8.878,24.663,3.215-26.015c.702-4.236,6.949-2.75,5.663,1.351h0Z" fill="url(#radial-gradient-2)" stroke-width="0"/>
        </g>
      </g>
      <g id="rose_garden" data-name="rose garden">
        <path d="M4.714,666.128v-92.954c0-2.802,2.272-5.074,5.074-5.074h9.367c2.149,0,4.061,1.346,4.78,3.371.824,2.324,2.068,5.673,3.657,9.484,2.791,6.695,6.205,14.575,9.511,19.453,3.611,5.327,8.918,12.809,14.436,18.689,3.21,3.42,6.233,6.043,8.086,7.558,1.182.966,1.865,2.404,1.865,3.93v34.71c0,2.767-2.217,5.024-4.984,5.074l-46.628.834c-2.838.051-5.165-2.236-5.165-5.074Z" fill="#3f3f3f" isolation="isolate" stroke-width="0"/>
        <path d="M89.537,669.247h-5.827c-1.156,0-2.078-.964-2.028-2.118l.959-21.965c.063-1.437,1.557-2.357,2.866-1.76,3.429,1.564,9.376,4.207,13.636,5.735,1.321.474,2.154,1.777,2.044,3.177l-.522,6.642c-.457,5.808-5.303,10.289-11.129,10.289Z" fill="#3f3f3f" isolation="isolate" stroke-width="0"/>
        <path d="M178.117,669.445h5.827c1.156,0,2.078-.964,2.028-2.118l-.959-21.965c-.063-1.437-1.557-2.357-2.866-1.76-3.278,1.495-8.856,3.976-13.062,5.527-1.654.61-2.708,2.234-2.57,3.992l.474,6.036c.457,5.808,5.303,10.289,11.129,10.289Z" fill="#3f3f3f" isolation="isolate" stroke-width="0"/>
        <path d="M206.708,663.364v-32.487c0-1.415.587-2.762,1.626-3.722,3.188-2.948,10.266-9.606,13.928-13.923,2.205-2.599,5.324-6.677,8.091-11.135,3.281-5.287,6.187-11.066,8.161-14.927,2.2-4.303,4.134-9.83,5.302-13.463.721-2.245,2.896-3.688,5.246-3.494l9.647.799c2.631.218,4.655,2.417,4.655,5.057v87.295c0,2.802-2.272,5.074-5.074,5.074h-46.507c-2.802,0-5.074-2.271-5.074-5.074Z" fill="#3f3f3f" isolation="isolate" stroke-width="0"/>
        <path d="M4.721,507.991l.14-91.014c.004-2.799,2.275-5.067,5.074-5.067h86.583c2.578,0,4.662,2.101,4.641,4.679l-.091,11.352c-.015,1.921-1.209,3.636-3.009,4.307-4.733,1.765-14.452,5.661-24.419,11.278-8.691,4.898-17.324,12.865-22.665,18.098-5.584,5.472-12.489,14.321-17.422,23.342-5.242,9.586-8.713,19.498-10.287,24.449-.612,1.925-2.4,3.224-4.419,3.224h-9.485c-2.566,0-4.645-2.082-4.641-4.648Z" fill="#3f3f3f" isolation="isolate" stroke-width="0"/>
        <path d="M246.819,512.439c-2.377.12-4.516-1.42-5.145-3.716-1.32-4.814-4.05-13.398-8.644-22.01-5.524-10.355-13.643-20.444-19.621-26.274-6.806-6.638-17.65-15.134-28.642-20.889-10.769-5.638-20.466-7.262-20.466-7.865l.116-14.741c.022-2.787,2.287-5.035,5.074-5.035h82.812c6.191,0,11.207,5.024,11.198,11.215l-.13,83.663c-.004,2.7-2.122,4.924-4.819,5.06l-11.733.591Z" fill="#3f3f3f" isolation="isolate" stroke-width="0"/>
        <path d="M13.594,738.512l36.511-54.659c1.283-1.921,3.441-3.075,5.752-3.075h6v45.782l-28.642,39.692-19.621-27.74Z" fill="#3f3f3f" isolation="isolate" stroke-width="0"/>
        <path d="M80.124,726.895v-18.714c0-14.885,12.067-26.952,26.952-26.952h52.15c14.853,0,26.894,12.041,26.894,26.894v18.773c0,14.885-12.067,26.952-26.952,26.952h-52.092c-14.885,0-26.952-12.067-26.952-26.952Z" fill="#3f3f3f" isolation="isolate" stroke-width="0"/>
        <polygon points="205.065 684.386 205.065 740.09 226.49 754.298 257.387 754.298 214.311 683.935 205.065 684.386" fill="#3f3f3f" isolation="isolate" stroke-width="0"/>
      </g>
      <g opacity=".25">
        <path d="M23.107,56.548h.023v-7.236h.864v8.496h-1.08l-4.944-7.308h-.023v7.308h-.864v-8.496h1.08l4.944,7.236Z" fill="#fff" stroke-width="0"/>
        <path d="M27.115,57.04h4.548v.768h-5.412v-8.496h5.268v.768h-4.403v2.916h4.116v.768h-4.116v3.276Z" fill="#fff" stroke-width="0"/>
        <path d="M42.799,50.848c-.297-.312-.648-.554-1.057-.726-.407-.172-.876-.258-1.403-.258-.545,0-1.034.1-1.471.299-.436.2-.806.469-1.109.809-.305.339-.538.732-.702,1.18s-.246.918-.246,1.414.082.967.246,1.414.397.838.702,1.174c.304.335.674.603,1.109.803.437.2.926.3,1.471.3.479,0,.92-.052,1.319-.156.4-.104.725-.236.973-.396v-2.58h-1.98v-.768h2.844v3.838c-.464.281-.964.489-1.5.625-.536.137-1.092.205-1.668.205-.64,0-1.231-.112-1.775-.336-.544-.224-1.013-.534-1.404-.93s-.698-.866-.918-1.41-.33-1.14-.33-1.788.112-1.244.336-1.788c.224-.544.534-1.014.93-1.41.396-.396.864-.706,1.404-.93s1.126-.336,1.758-.336c.681,0,1.272.102,1.776.305s.936.486,1.296.847l-.6.6Z" fill="#fff" stroke-width="0"/>
        <path d="M46.566,57.808h-.864v-8.496h2.496c.416,0,.802.04,1.158.12.355.08.664.21.924.39.26.18.462.414.605.702.145.288.217.64.217,1.056,0,.312-.057.596-.168.852-.112.256-.265.478-.456.666-.192.188-.42.338-.685.45-.264.112-.552.184-.864.216l2.484,4.044h-1.056l-2.353-3.972h-1.439v3.972ZM46.566,53.092h1.5c.695,0,1.231-.126,1.607-.378.376-.252.564-.63.564-1.134,0-.28-.052-.516-.156-.708-.104-.192-.248-.348-.432-.468-.185-.12-.408-.208-.672-.264-.265-.056-.557-.084-.876-.084h-1.536v3.036Z" fill="#fff" stroke-width="0"/>
        <path d="M52.831,57.808h-.948l3.672-8.496h.84l3.648,8.496h-.96l-.937-2.232h-4.392l-.924,2.232ZM54.079,54.784h3.743l-1.872-4.512-1.871,4.512Z" fill="#fff" stroke-width="0"/>
        <path d="M67.314,56.548h.023v-7.236h.864v8.496h-1.08l-4.944-7.308h-.023v7.308h-.864v-8.496h1.08l4.944,7.236Z" fill="#fff" stroke-width="0"/>
        <path d="M73.182,57.808h-.863v-7.728h-2.845v-.768h6.553v.768h-2.845v7.728Z" fill="#fff" stroke-width="0"/>
        <path d="M81.162,57.04h3.96v.768h-4.824v-8.496h.864v7.728Z" fill="#fff" stroke-width="0"/>
        <path d="M92.442,56.548h.023v-7.236h.864v8.496h-1.08l-4.944-7.308h-.023v7.308h-.864v-8.496h1.08l4.944,7.236Z" fill="#fff" stroke-width="0"/>
      </g>
      <g opacity=".25">
        <path d="M13.481,407.278h.017v-4.824h.576v5.664h-.721l-3.296-4.872h-.016v4.872h-.576v-5.664h.72l3.296,4.824Z" fill="#fff" stroke-width="0"/>
        <path d="M16.154,407.606h3.032v.512h-3.608v-5.664h3.512v.512h-2.936v1.944h2.744v.512h-2.744v2.184Z" fill="#fff" stroke-width="0"/>
        <path d="M24.13,408.118h-.576v-5.152h-1.896v-.512h4.368v.512h-1.896v5.152Z" fill="#fff" stroke-width="0"/>
        <path d="M26.873,402.454h.576v2.456h3.088v-2.456h.576v5.664h-.576v-2.68h-3.088v2.68h-.576v-5.664Z" fill="#fff" stroke-width="0"/>
        <path d="M34.705,408.262c-.427,0-.775-.073-1.048-.22-.272-.146-.488-.332-.648-.556-.159-.224-.271-.468-.332-.732-.061-.264-.092-.514-.092-.748v-3.552h.576v3.488c0,.229.026.452.08.668.054.216.14.408.26.576s.279.304.477.408.439.156.728.156.53-.052.729-.156c.197-.104.355-.24.476-.408s.207-.36.26-.576c.054-.216.08-.439.08-.668v-3.488h.576v3.552c0,.234-.03.484-.092.748-.062.264-.172.508-.332.732-.16.224-.378.409-.652.556-.274.147-.623.22-1.044.22Z" fill="#fff" stroke-width="0"/>
        <path d="M38.873,408.118h-.576v-5.664h1.664c.277,0,.534.027.771.08s.443.14.616.26c.174.12.309.276.404.468s.144.427.144.704c0,.208-.037.397-.111.568-.075.171-.177.319-.305.444-.128.125-.279.226-.456.3-.176.075-.367.123-.575.144l1.655,2.696h-.703l-1.568-2.648h-.96v2.648ZM38.873,404.974h1c.464,0,.821-.084,1.072-.252.25-.168.376-.42.376-.756,0-.187-.035-.344-.104-.472s-.165-.232-.288-.312-.271-.139-.448-.176c-.176-.038-.37-.056-.584-.056h-1.023v2.024Z" fill="#fff" stroke-width="0"/>
        <path d="M45.833,403.366c-.123-.171-.28-.308-.472-.412-.192-.104-.425-.156-.696-.156-.139,0-.28.021-.424.064-.145.042-.275.108-.393.196s-.212.199-.284.332c-.071.133-.107.291-.107.472s.034.331.104.448c.069.118.161.217.275.3.114.083.244.15.391.204.146.054.3.107.459.16.196.064.395.133.594.208.2.075.38.172.539.292s.29.272.391.456c.102.184.152.417.152.7s-.055.526-.162.732c-.108.205-.248.375-.42.508-.173.133-.369.232-.591.296-.221.064-.443.096-.668.096-.17,0-.341-.018-.512-.052s-.333-.086-.488-.156c-.154-.069-.299-.157-.432-.264-.134-.106-.251-.229-.352-.368l.495-.368c.123.203.295.372.517.508.221.136.481.204.78.204.144,0,.29-.022.439-.068s.284-.115.404-.208.219-.208.296-.344c.077-.136.116-.294.116-.476,0-.197-.039-.361-.116-.492s-.18-.24-.308-.328c-.129-.088-.275-.161-.44-.22s-.339-.118-.52-.176c-.188-.059-.371-.125-.553-.2-.181-.075-.344-.172-.487-.292-.145-.12-.261-.268-.349-.444-.088-.176-.132-.392-.132-.648,0-.272.055-.506.164-.704.109-.197.252-.36.428-.488s.371-.221.584-.28c.214-.059.424-.088.632-.088.385,0,.713.068.984.204.272.136.478.297.616.484l-.456.368Z" fill="#fff" stroke-width="0"/>
        <path d="M49.417,408.118h-.576v-5.152h-1.896v-.512h4.368v.512h-1.896v5.152Z" fill="#fff" stroke-width="0"/>
        <path d="M57.761,405.286c0,.432-.074.83-.224,1.192-.149.363-.356.676-.62.94-.264.264-.576.471-.936.62-.36.149-.751.224-1.172.224s-.812-.075-1.173-.224c-.359-.149-.672-.356-.936-.62-.264-.264-.471-.577-.62-.94-.149-.362-.224-.76-.224-1.192s.074-.829.224-1.192.356-.676.62-.94c.264-.264.576-.471.936-.62.36-.149.751-.224,1.173-.224s.812.075,1.172.224c.359.149.672.356.936.62.264.264.471.577.62.94s.224.76.224,1.192ZM57.153,405.29c0-.33-.054-.644-.16-.942s-.262-.561-.464-.787c-.203-.226-.449-.406-.74-.539s-.617-.2-.979-.2-.689.066-.98.2-.537.313-.74.539c-.202.226-.357.488-.464.787s-.16.612-.16.942.054.645.16.942c.106.298.262.56.464.783.203.224.449.402.74.535.291.133.617.199.98.199s.688-.066.979-.199c.291-.133.537-.312.74-.535.202-.224.357-.485.464-.783.106-.298.16-.612.16-.942Z" fill="#fff" stroke-width="0"/>
        <path d="M62.977,407.278h.017v-4.824h.576v5.664h-.721l-3.296-4.872h-.016v4.872h-.576v-5.664h.72l3.296,4.824Z" fill="#fff" stroke-width="0"/>
        <path d="M67.648,407.606h2.64v.512h-3.216v-5.664h.576v5.152Z" fill="#fff" stroke-width="0"/>
        <path d="M75.168,407.278h.017v-4.824h.576v5.664h-.721l-3.296-4.872h-.016v4.872h-.576v-5.664h.72l3.296,4.824Z" fill="#fff" stroke-width="0"/>
      </g>
      <g>
        <rect x="-8.394" y="72.086" width="22.644" height="41.722" fill="#3f3f3f" isolation="isolate" stroke-width="0"/>
        <rect x="43.929" y="-1.667" width="73.028" height="37.162" fill="#3f3f3f" isolation="isolate" stroke-width="0"/>
        <rect x="-36.921" y="-2.142" width="73.028" height="37.637" fill="#3f3f3f" isolation="isolate" stroke-width="0"/>
        <rect x="151.795" y="-.411" width="120.251" height="35.906" fill="#3f3f3f" isolation="isolate" stroke-width="0"/>
        <path d="M199.082,130.727h82.549v-58.157h-71.98c-5.837,0-10.569,4.732-10.569,10.569v47.588Z" fill="#3f3f3f" isolation="isolate" stroke-width="0"/>
        <g isolation="isolate">
          <g>
            <path d="M277.007,313.961l-74.931.282-3.721,3.985-51.544.13v39.75h11.125v31.229c0,5.193,4.21,9.402,9.402,9.402h109.669v-84.778Z" fill="#3f3f3f" stroke-width="0"/>
            <path d="M88.863,318.021h-7.886c.231,3.313-1.09,7.33-3.884,10.846-3.853,4.849-9.265,7.197-13.207,6.084v10.049H-8.732v53.74h109.257c5.435,0,9.842-4.406,9.842-9.842v-30.584h6.876v-40.293h-28.379Z" fill="#3f3f3f" stroke-width="0"/>
          </g>
          <g>
            <path d="M277.007,313.961l-74.931.282-3.721,3.985-51.544.13v39.75h11.125v31.229c0,5.193,4.21,9.402,9.402,9.402h109.669v-84.778Z" fill="#3f3f3f" isolation="isolate" stroke-width="0"/>
            <path d="M88.863,318.021h-7.886c.231,3.313-1.09,7.33-3.884,10.846-3.853,4.849-9.265,7.197-13.207,6.084v10.049H-8.732v53.74h109.257c5.435,0,9.842-4.406,9.842-9.842v-30.584h6.876v-40.293h-28.379Z" fill="#3f3f3f" isolation="isolate" stroke-width="0"/>
          </g>
        </g>
        <path d="M191.872,82.942c0-5.746-4.658-10.405-10.405-10.405h-21.665c-7.174,0-12.99,5.816-12.99,12.99v25.003h19.35v22.56h25.71v-50.149Z" fill="#3f3f3f" isolation="isolate" stroke-width="0"/>
        <path d="M73.81,82.413v50.565h26.95v-22.449h16.482v-24.905c0-7.227-5.859-13.086-13.086-13.086h-20.47c-5.454,0-9.876,4.422-9.876,9.876Z" fill="#3f3f3f" isolation="isolate" stroke-width="0"/>
        <polygon points="100.985 159.533 100.985 146.284 74.148 146.284 74.148 285.884 89.145 285.884 89.032 308.065 117.242 308.065 117.242 159.533 100.985 159.533" fill="#3f3f3f" isolation="isolate" stroke-width="0"/>
        <polygon points="166.246 146.284 166.246 159.872 146.812 159.872 146.812 308.065 179.355 308.065 179.355 285.884 191.985 285.884 191.985 146.284 166.246 146.284" fill="#3f3f3f" isolation="isolate" stroke-width="0"/>
        <polygon points="218.174 124.182 218.174 148.426 199.754 148.426 199.754 285.963 243.912 285.963 243.912 124.182 218.174 124.182" fill="#3f3f3f" isolation="isolate" stroke-width="0"/>
        <path d="M33.022,72.424h24.411c4.479,0,8.115,3.636,8.115,8.115v205.344h-32.527V72.424h0Z" fill="#3f3f3f" isolation="isolate" stroke-width="0"/>
        <path d="M57.523,328.195h2.762c-.231-3.313,1.09-7.33,3.884-10.846,3.853-4.849,9.265-7.197,13.207-6.084v-1.006s2.899-.524,2.899-.524l11.361.006.056-1.894-9.538.389-2.537,2.023h-3.637l-2.269-2.023-11.855-.145v2.711h-4.334v17.394Z" fill="#3f3f3f" isolation="isolate" stroke-width="0"/>
        <polyline points="55.158 308.236 73.712 308.236 75.981 310.258 79.618 310.258 82.155 308.236 89.005 308.236 89.032 285.884 74.148 285.884" fill="none" stroke="#4c4c4c" stroke-miterlimit="10" stroke-width=".8"/>
        <polyline points="207.294 308.558 194.626 308.558 192.357 310.581 188.72 310.581 186.183 308.558 179.333 308.558 179.333 285.963 191.986 285.963" fill="none" stroke="#4c4c4c" stroke-miterlimit="10" stroke-width=".8"/>
        <line x1="203.768" y1="285.963" x2="199.754" y2="285.963" fill="none" stroke="#4c4c4c" stroke-miterlimit="10" stroke-width=".8"/>
        <line x1="56.684" y1="285.884" x2="65.549" y2="285.884" fill="none" stroke="#4c4c4c" stroke-miterlimit="10" stroke-width=".8"/>
      </g>
      <polygon id="mgh" points="279.939 354.218 279.262 89.35 216.341 89.35 216.341 94.3 209.97 94.3 209.97 98.078 206.982 98.078 206.982 97.063 203.712 97.063 203.712 128.975 203.317 128.975 203.317 148.877 203.937 148.877 203.937 151.584 206.474 151.584 206.474 150.907 209.97 150.907 209.97 247.482 208.053 247.482 208.053 281.599 209.97 281.599 209.97 284.643 203.768 284.643 203.768 303.017 213.127 303.017 213.127 312.27 216.341 312.27 216.341 314.215 214.283 314.215 214.283 344.323 216.341 344.323 216.341 354.218 279.939 354.218" fill="#0a0a0a" stroke-width="0"/>
      <g id="Combined_Alt" data-name="Combined Alt">
        <rect id="start_course_ALT" data-name="start course ALT" x="122.946" y="36.809" width="20.218" height="395.418" fill="#f7f7f7" stroke-width="0"/>
        <rect x="122.902" y="211.045" width="20.297" height="2" fill="#40cbc4" stroke-width="0"/>
        <g id="full_start" data-name="full start">
          <g>
            <polygon points="154.395 235.492 154.395 215.926 149.991 213.384 154.892 213.359 223.796 213.359 223.796 235.492 154.395 235.492" fill="#f7f7f7" stroke-width="0"/>
            <path d="M223.295,213.859v21.134h-68.4v-19.354l-3.054-1.763,3.054-.016h68.4M224.295,212.859h-69.4l-3.059.016-3.694.019,3.199,1.847,2.554,1.475v19.777h70.4v-23.134h0Z" fill="#0a0a0a" stroke-width="0"/>
          </g>
          <g>
            <path d="M159.769,218.157v1.606h3.014v1.551h-3.014v3.025h-1.859v-7.788h5.126v1.606h-3.267Z" fill="#0a0a0a" stroke-width="0"/>
            <path d="M170.667,222.684c-.157.385-.383.715-.676.99-.294.275-.647.49-1.062.644-.415.154-.875.231-1.381.231-.514,0-.976-.077-1.386-.231-.411-.154-.759-.369-1.045-.644s-.506-.605-.66-.99c-.154-.385-.231-.812-.231-1.282v-4.851h1.87v4.697c0,.212.027.414.083.605.055.19.139.361.253.511.113.15.264.27.451.357.187.088.412.132.676.132s.49-.044.677-.132c.188-.088.339-.207.457-.357.117-.15.201-.321.253-.511.051-.191.076-.393.076-.605v-4.697h1.882v4.851c0,.469-.079.896-.237,1.282Z" fill="#0a0a0a" stroke-width="0"/>
            <path d="M172.55,224.339v-7.788h1.893v6.149h3.014v1.639h-4.906Z" fill="#0a0a0a" stroke-width="0"/>
            <path d="M178.381,224.339v-7.788h1.893v6.149h3.014v1.639h-4.906Z" fill="#0a0a0a" stroke-width="0"/>
            <path d="M191.03,218.575c-.161-.205-.372-.368-.633-.489-.26-.121-.511-.182-.753-.182-.125,0-.252.011-.38.033s-.244.064-.347.126-.188.143-.258.242c-.07.099-.104.226-.104.38,0,.132.027.242.082.33.055.088.136.165.242.231.106.066.232.126.379.181.147.055.312.112.495.17.265.088.539.186.825.292.286.106.546.248.781.424.234.176.429.394.583.654s.23.585.23.974c0,.447-.082.834-.247,1.161s-.387.596-.666.808c-.278.213-.598.371-.956.473-.359.103-.73.154-1.111.154-.558,0-1.097-.098-1.617-.292-.521-.194-.953-.471-1.298-.831l1.232-1.254c.19.235.441.431.753.589s.621.236.93.236c.139,0,.274-.015.407-.044.132-.029.247-.077.346-.143.1-.066.178-.154.237-.264.059-.11.088-.242.088-.396,0-.146-.037-.271-.11-.374-.073-.103-.178-.196-.313-.28-.136-.084-.305-.161-.506-.231-.202-.07-.431-.145-.688-.226-.249-.081-.493-.176-.731-.286-.238-.11-.451-.251-.638-.423-.188-.172-.338-.381-.451-.627-.114-.246-.171-.544-.171-.896,0-.433.088-.803.265-1.111.176-.308.406-.561.692-.759.286-.198.608-.343.968-.435.359-.091.723-.137,1.089-.137.44,0,.89.081,1.348.242.459.162.86.4,1.205.715l-1.199,1.265Z" fill="#0a0a0a" stroke-width="0"/>
            <path d="M197.012,218.157v6.182h-1.881v-6.182h-2.2v-1.606h6.281v1.606h-2.2Z" fill="#0a0a0a" stroke-width="0"/>
            <path d="M204.734,224.339l-.605-1.529h-3.014l-.572,1.529h-2.046l3.268-7.788h1.825l3.234,7.788h-2.09ZM202.645,218.63l-.99,2.673h1.958l-.968-2.673Z" fill="#0a0a0a" stroke-width="0"/>
            <path d="M211.795,224.339l-1.69-3.091h-.642v3.091h-1.837v-7.788h2.971c.373,0,.738.039,1.094.116.355.077.675.207.957.39.282.184.508.426.677.726.169.301.253.675.253,1.122,0,.528-.143.972-.429,1.331s-.683.616-1.188.77l2.035,3.333h-2.2ZM211.718,218.939c0-.183-.038-.332-.116-.446-.077-.113-.177-.202-.298-.264-.122-.062-.258-.104-.409-.126s-.297-.033-.437-.033h-1.006v1.815h.896c.154,0,.313-.013.476-.039.162-.025.309-.071.441-.137s.241-.161.326-.286c.085-.125.127-.286.127-.484Z" fill="#0a0a0a" stroke-width="0"/>
            <path d="M218.404,218.157v6.182h-1.881v-6.182h-2.2v-1.606h6.281v1.606h-2.2Z" fill="#0a0a0a" stroke-width="0"/>
            <path d="M158.954,228.956l.009.016c.079-.048.187-.085.319-.112.134-.027.262-.04.384-.04.246,0,.477.044.692.132.216.088.404.211.564.368.159.157.285.345.376.564.09.219.136.456.136.712,0,.283-.05.54-.148.772s-.235.431-.412.596c-.176.166-.383.293-.619.384-.238.091-.495.136-.772.136-.283,0-.544-.047-.784-.14s-.446-.223-.62-.388c-.173-.166-.309-.363-.407-.592-.1-.229-.148-.477-.148-.744,0-.309.051-.589.152-.84.101-.25.234-.506.399-.768l1.48-2.336h.92l-1.521,2.28ZM158.307,230.628c0,.166.027.321.084.468.056.147.136.273.24.38.104.106.228.192.371.256.145.064.305.096.48.096s.335-.029.476-.088c.142-.059.265-.143.368-.252.104-.109.185-.237.24-.384.056-.147.084-.308.084-.484,0-.17-.028-.328-.084-.472s-.134-.27-.232-.376c-.099-.107-.22-.189-.363-.248-.145-.059-.305-.088-.48-.088s-.337.029-.483.088c-.147.059-.272.141-.376.248-.104.106-.185.232-.24.376-.057.144-.084.304-.084.48Z" fill="#0a0a0a" stroke-width="0"/>
            <path d="M165.886,227.363h-2.336l-.048,1.481c.106-.038.226-.065.355-.081.131-.016.255-.024.372-.024.272,0,.524.042.756.125.232.083.433.202.601.356.168.155.3.344.396.565.097.222.145.469.145.742,0,.299-.051.569-.152.81-.102.241-.24.445-.416.613s-.384.299-.624.393c-.24.093-.501.14-.784.14-.442,0-.815-.103-1.119-.308-.305-.205-.534-.481-.688-.828l.704-.28c.091.229.233.414.428.552.194.139.42.208.676.208.166,0,.32-.029.465-.088.144-.059.269-.141.376-.248.106-.106.19-.234.252-.384.061-.149.092-.314.092-.496,0-.213-.036-.398-.108-.556-.072-.157-.169-.287-.292-.388-.122-.102-.264-.176-.424-.224s-.328-.072-.504-.072c-.214,0-.432.029-.656.088-.224.059-.424.133-.6.224l.08-3.008h3.056v.688Z" fill="#0a0a0a" stroke-width="0"/>
            <path d="M168.368,231.859c0,.139-.051.261-.152.368-.102.106-.229.16-.384.16-.149,0-.276-.052-.38-.156-.104-.104-.156-.225-.156-.364,0-.144.051-.268.152-.372.101-.104.229-.156.384-.156.154,0,.282.051.384.152.102.102.152.224.152.368Z" fill="#0a0a0a" stroke-width="0"/>
            <path d="M171.474,230.051l-.008-.008c-.08.048-.189.085-.328.112-.063.011-.129.02-.195.028-.066.008-.129.012-.188.012-.25,0-.481-.044-.694-.132s-.399-.211-.559-.368c-.16-.157-.285-.345-.376-.564-.09-.219-.136-.456-.136-.712,0-.283.05-.54.148-.772.098-.232.235-.431.411-.596.175-.165.383-.293.622-.384.24-.091.498-.136.774-.136s.535.047.774.14.446.223.619.388c.173.165.309.362.407.592s.147.478.147.744c0,.309-.051.589-.151.84-.102.251-.231.507-.392.768l-1.477,2.336h-.918l1.517-2.288ZM172.127,228.387c0-.165-.028-.321-.084-.468-.057-.146-.137-.275-.24-.384-.104-.109-.229-.196-.372-.26-.145-.064-.304-.096-.48-.096-.176,0-.336.031-.479.092-.145.061-.269.145-.372.252-.104.106-.184.235-.24.384-.056.149-.084.312-.084.488,0,.17.028.328.084.472.057.144.135.27.236.376.102.107.224.189.368.248.144.059.304.088.479.088s.338-.029.484-.088c.146-.059.271-.141.376-.248.104-.106.184-.232.24-.376.056-.144.084-.304.084-.48Z" fill="#0a0a0a" stroke-width="0"/>
            <path d="M177.407,227.38l-2.272,4.96h-.888l2.36-4.976h-2.809v-.688h3.608v.704Z" fill="#0a0a0a" stroke-width="0"/>
            <path d="M179.6,228.655c.211-.141.46-.212.748-.212.256,0,.486.059.692.176.205.118.366.312.483.584.128-.245.307-.433.536-.564.229-.13.48-.196.752-.196.245,0,.456.042.632.124.177.083.323.193.44.332s.204.301.26.488c.057.187.084.387.084.6v2.352h-.752v-2.104c0-.155-.013-.301-.04-.44-.026-.139-.071-.261-.136-.368-.064-.106-.149-.192-.256-.256s-.243-.096-.408-.096c-.171,0-.317.036-.439.108-.123.072-.224.165-.301.28s-.133.244-.168.388c-.034.144-.052.291-.052.44v2.048h-.752v-2.256c0-.149-.014-.285-.04-.408-.026-.123-.072-.228-.136-.316-.064-.088-.146-.157-.248-.208s-.227-.076-.376-.076c-.277,0-.508.114-.692.34-.184.227-.275.529-.275.908v2.016h-.752v-2.976c0-.101-.003-.232-.009-.392-.005-.16-.013-.301-.023-.424h.712c.011.096.019.204.023.324.006.12.009.22.009.3h.023c.097-.203.249-.375.46-.516Z" fill="#0a0a0a" stroke-width="0"/>
            <path d="M189.844,229.588h1.775v.656h-1.775v1.776h-.656v-1.776h-1.776v-.656h1.776v-1.776h.656v1.776Z" fill="#0a0a0a" stroke-width="0"/>
            <path d="M198.355,232.339h-3.695v-.744l2.256-2.24c.17-.176.316-.36.439-.552s.185-.408.185-.648c0-.149-.027-.284-.08-.404-.054-.12-.126-.223-.216-.308-.091-.085-.198-.15-.32-.196-.123-.045-.254-.068-.393-.068-.287,0-.525.092-.712.276-.187.184-.304.42-.352.708l-.76-.128c.031-.213.1-.412.204-.596.104-.184.235-.344.396-.48.16-.136.346-.241.556-.316.211-.075.437-.112.677-.112.234,0,.46.035.676.104s.406.171.572.304c.165.133.297.301.396.504s.148.435.148.696c0,.182-.024.35-.072.504s-.113.301-.196.44-.18.271-.292.396c-.112.125-.229.249-.352.372l-1.84,1.792h2.775v.696Z" fill="#0a0a0a" stroke-width="0"/>
            <path d="M201.858,232.339h-.769v-4.72l-1.072.896-.456-.536,1.607-1.304h.689v5.664Z" fill="#0a0a0a" stroke-width="0"/>
            <path d="M206.078,230.051l-.008-.008c-.08.048-.189.085-.328.112-.063.011-.129.02-.195.028-.066.008-.129.012-.188.012-.25,0-.481-.044-.694-.132s-.399-.211-.559-.368c-.16-.157-.285-.345-.376-.564-.09-.219-.136-.456-.136-.712,0-.283.05-.54.148-.772.098-.232.235-.431.411-.596.175-.165.383-.293.622-.384.24-.091.498-.136.774-.136s.535.047.774.14.446.223.619.388c.173.165.309.362.407.592s.147.478.147.744c0,.309-.051.589-.151.84-.102.251-.231.507-.392.768l-1.477,2.336h-.918l1.517-2.288ZM206.731,228.387c0-.165-.028-.321-.084-.468-.057-.146-.137-.275-.24-.384-.104-.109-.229-.196-.372-.26-.145-.064-.304-.096-.48-.096-.176,0-.336.031-.479.092-.145.061-.269.145-.372.252-.104.106-.184.235-.24.384-.056.149-.084.312-.084.488,0,.17.028.328.084.472.057.144.135.27.236.376.102.107.224.189.368.248.144.059.304.088.479.088s.338-.029.484-.088c.146-.059.271-.141.376-.248.104-.106.184-.232.24-.376.056-.144.084-.304.084-.48Z" fill="#0a0a0a" stroke-width="0"/>
          </g>
          <g id="Header_M" data-name="Header M">
            <g id="Icon">
              <g id="Jets">
                <line x1="212.631" y1="229.374" x2="213.568" y2="229.161" fill="none" stroke="#0a0a0a" stroke-linecap="round" stroke-linejoin="round" stroke-width=".481"/>
                <line x1="210.189" y1="229.9" x2="211.126" y2="229.688" fill="none" stroke="#0a0a0a" stroke-linecap="round" stroke-linejoin="round" stroke-width=".481"/>
                <line x1="212.119" y1="228.8" x2="212.403" y2="227.882" fill="none" stroke="#0a0a0a" stroke-linecap="round" stroke-linejoin="round" stroke-width=".481"/>
                <line x1="211.354" y1="231.179" x2="211.638" y2="230.261" fill="none" stroke="#0a0a0a" stroke-linecap="round" stroke-linejoin="round" stroke-width=".481"/>
                <line x1="211.366" y1="228.957" x2="210.714" y2="228.252" fill="none" stroke="#0a0a0a" stroke-linecap="round" stroke-linejoin="round" stroke-width=".481"/>
                <line x1="213.043" y1="230.809" x2="212.391" y2="230.104" fill="none" stroke="#0a0a0a" stroke-linecap="round" stroke-linejoin="round" stroke-width=".481"/>
              </g>
              <circle cx="211.878" cy="229.531" r=".267" fill="#0a0a0a" stroke-width="0"/>
              <path d="M211.878,226.65c-1.58,0-2.88,1.3-2.88,2.88s1.3,2.88,2.88,2.88,2.88-1.3,2.88-2.88c0-1.18-.725-2.246-1.823-2.679" fill="none" stroke="#0a0a0a" stroke-miterlimit="10" stroke-width=".55"/>
              <polyline points="213.204 228.351 212.874 226.726 214.499 226.395" fill="none" stroke="#0a0a0a" stroke-miterlimit="10" stroke-width=".55"/>
            </g>
          </g>
        </g>
        <g>
          <rect x="126.581" y="306.688" width="14.52" height="20.625" fill="#f7f7f7" stroke-width="0"/>
          <g>
            <line x1="133.92" y1="309.909" x2="133.813" y2="324.092" fill="none" stroke="#cecece" stroke-miterlimit="10" stroke-width=".5"/>
            <polyline points="137.591 320.371 133.813 324.092 130.091 320.314" fill="none" stroke="#cecece" stroke-miterlimit="10" stroke-width=".5"/>
          </g>
        </g>
        <g>
          <rect x="126.581" y="113.615" width="14.52" height="20.625" fill="#f7f7f7" stroke-width="0"/>
          <g>
            <line x1="133.92" y1="116.836" x2="133.813" y2="131.019" fill="none" stroke="#cecece" stroke-miterlimit="10" stroke-width=".5"/>
            <polyline points="137.591 127.297 133.813 131.019 130.091 127.24" fill="none" stroke="#cecece" stroke-miterlimit="10" stroke-width=".5"/>
          </g>
        </g>
        <g>
          <path d="M104.996,641.303l-.695-.186,1.595-5.981-1.518.723-.297-.596,2.121-.966.618.165-1.824,6.841Z" fill="#bcbcbc" stroke-width="0"/>
          <path d="M110.843,639.496l-.015-.024c-.122.056-.281.086-.48.091s-.386-.012-.562-.05c-.3-.064-.566-.177-.802-.337-.234-.16-.427-.353-.575-.58-.149-.227-.249-.483-.3-.771-.05-.287-.042-.587.026-.9.068-.319.188-.602.356-.849.169-.246.375-.442.618-.588.243-.145.513-.242.81-.291s.608-.038.935.033c.325.07.613.189.864.355.25.167.456.366.617.599.161.232.268.496.32.79.053.294.044.602-.024.921-.077.358-.211.677-.401.957-.189.28-.399.542-.63.785l-2.543,2.632-.811-.175,2.597-2.601ZM111.927,637.745c.048-.221.056-.438.022-.65-.032-.211-.103-.402-.209-.572-.106-.169-.245-.315-.417-.438-.171-.122-.371-.208-.599-.257-.229-.049-.445-.053-.652-.013-.207.041-.394.116-.561.227-.167.11-.31.255-.426.435-.117.179-.2.38-.248.602s-.057.436-.026.644c.03.208.097.396.2.565.104.169.243.313.418.433.176.12.381.205.615.256.234.05.456.058.665.021.21-.037.396-.11.56-.222s.303-.255.416-.432.193-.376.241-.598Z" fill="#bcbcbc" stroke-width="0"/>
          <path d="M117.096,643.732l-4.463-.717.118-.741,3.328-2.433c.122-.088.244-.185.366-.291.121-.105.232-.217.332-.336.101-.119.186-.249.256-.39.069-.141.117-.29.143-.448.032-.204.026-.394-.02-.57-.047-.176-.124-.333-.234-.468-.109-.136-.243-.248-.401-.338-.157-.089-.329-.149-.513-.179-.376-.06-.71.006-1.005.198-.294.192-.507.464-.637.814l-.679-.251c.085-.236.209-.449.371-.639s.349-.346.561-.467c.212-.122.443-.206.694-.253.251-.047.515-.049.791-.004.282.045.544.129.784.252s.442.28.605.472.282.417.357.675c.075.258.087.545.036.861-.035.224-.101.426-.193.607-.094.181-.205.349-.334.503-.13.155-.276.299-.438.431-.163.132-.333.262-.509.389l-2.919,2.094,3.702.595-.101.632Z" fill="#bcbcbc" stroke-width="0"/>
          <path d="M119.58,643.551c-.017.139-.082.257-.194.354-.113.097-.249.135-.407.116-.159-.02-.281-.09-.367-.211s-.12-.251-.103-.391c.017-.139.082-.257.194-.354.113-.097.249-.136.407-.116.159.02.281.09.367.211.086.122.12.252.103.391Z" fill="#bcbcbc" stroke-width="0"/>
          <path d="M122.834,640.335l.309.026c.227.019.44.014.644-.016.204-.03.385-.089.543-.18s.287-.215.388-.374.16-.354.181-.587c.017-.199-.005-.383-.063-.552-.06-.169-.149-.317-.269-.444-.12-.127-.262-.229-.426-.307s-.339-.125-.524-.14c-.3-.025-.569.022-.811.142-.241.12-.442.31-.605.571l-.581-.371c.252-.36.555-.617.909-.771s.747-.212,1.179-.176c.279.024.54.088.782.192.241.104.451.244.629.42s.312.386.403.631c.091.245.123.521.098.826-.036.418-.182.759-.438,1.021-.257.263-.564.426-.925.489v.02c.396.121.717.344.96.669.244.325.345.727.305,1.205-.029.339-.116.634-.261.886-.146.252-.329.46-.551.625-.221.166-.474.285-.758.357-.283.073-.578.096-.884.07-.519-.044-.96-.207-1.323-.489-.364-.282-.626-.664-.786-1.146l.699-.191c.091.349.268.63.53.843.263.213.573.334.933.365.199.017.396-.001.592-.055s.369-.139.523-.257c.153-.117.281-.265.384-.444s.163-.388.184-.627c.022-.266-.01-.494-.097-.686-.088-.191-.213-.351-.376-.479-.163-.127-.353-.226-.567-.294s-.438-.113-.671-.132l-.31-.026.053-.618Z" fill="#bcbcbc" stroke-width="0"/>
          <path d="M130.983,638.4l-3.09,6.308-.81-.031,3.171-6.325-3.468-.131.024-.64,4.196.158-.024.66Z" fill="#bcbcbc" stroke-width="0"/>
          <path d="M133.111,640.297c.273-.175.58-.266.92-.273.127-.002.259.008.396.032.138.024.271.073.403.147s.253.173.366.298c.112.125.21.286.294.484.154-.323.367-.572.641-.748.273-.175.6-.267.979-.274.594-.012,1.042.156,1.346.504.304.347.461.811.473,1.391l.057,2.87-.68.013-.052-2.589c-.01-.493-.109-.888-.298-1.184-.189-.296-.504-.44-.944-.432-.246.005-.454.059-.622.162-.168.104-.302.238-.401.403-.101.166-.172.352-.215.559-.042.208-.062.421-.057.641l.049,2.49-.68.013-.054-2.729c-.005-.227-.025-.433-.062-.619s-.099-.343-.185-.471c-.086-.128-.203-.226-.351-.293-.148-.067-.336-.098-.562-.094-.159.003-.32.043-.482.12s-.306.191-.434.343c-.127.153-.228.345-.304.576-.075.231-.109.504-.104.817l.048,2.399-.681.014-.071-3.649c-.003-.126-.01-.29-.02-.49-.011-.2-.024-.379-.041-.54l.649-.013c.017.126.029.266.039.419.009.153.015.28.017.38h.021c.128-.276.328-.502.602-.678Z" fill="#bcbcbc" stroke-width="0"/>
          <path d="M143.734,644.334l-.678.061-.675-7.53.678-.061.675,7.53Z" fill="#bcbcbc" stroke-width="0"/>
          <path d="M149.87,641.255c.046.351.026.682-.058.996s-.222.593-.411.839c-.19.247-.43.45-.718.612-.289.162-.614.266-.979.312-.356.046-.695.027-1.016-.056-.319-.083-.603-.22-.849-.41-.247-.19-.45-.426-.61-.708-.161-.282-.264-.598-.31-.949-.045-.35-.025-.682.059-.996.084-.313.221-.593.411-.839.19-.246.43-.45.718-.612.288-.161.611-.265.968-.311.364-.047.706-.029,1.025.054.32.083.604.22.85.41.246.19.449.426.61.708s.264.598.309.948ZM149.156,641.347c-.033-.258-.105-.495-.218-.713-.112-.217-.255-.4-.429-.55-.174-.149-.376-.259-.607-.33-.231-.071-.482-.089-.753-.054-.271.035-.508.116-.71.243-.202.126-.368.284-.499.473-.13.188-.222.401-.275.64-.053.239-.062.487-.029.745s.105.496.218.713.255.401.429.55.374.258.602.326c.228.068.477.085.747.05.271-.035.51-.114.716-.238s.374-.28.504-.468c.131-.188.223-.402.275-.641.054-.239.063-.487.03-.745Z" fill="#bcbcbc" stroke-width="0"/>
          <path d="M155.834,640.171c.064.347.063.68-.002.997-.066.318-.188.605-.363.862-.176.256-.402.474-.682.651-.278.178-.599.3-.958.368-.354.066-.693.067-1.018.002s-.614-.185-.871-.361-.474-.4-.649-.672c-.177-.272-.297-.582-.362-.93-.065-.347-.064-.68.002-.997.065-.317.187-.604.362-.861s.403-.474.682-.651c.279-.178.596-.3.949-.366.36-.067.702-.068,1.026-.004.324.065.615.186.872.361.256.176.473.399.649.672.176.272.297.582.362.929ZM155.126,640.303c-.048-.255-.134-.489-.258-.699-.125-.211-.277-.386-.46-.525-.182-.139-.39-.237-.625-.295-.234-.058-.486-.062-.755-.011s-.5.145-.694.283c-.195.138-.352.305-.472.5-.119.195-.198.414-.238.655-.04.241-.035.49.013.745.048.256.134.489.258.7.124.21.277.386.459.524.183.139.389.236.619.291s.48.058.749.007.503-.143.701-.278c.198-.136.357-.301.477-.497s.199-.414.238-.655c.04-.242.036-.49-.012-.746Z" fill="#bcbcbc" stroke-width="0"/>
          <path d="M159.047,644.292l-.66.165-1.714-6.87.659-.165.196.786.029-.007c.113-.344.308-.632.584-.862.275-.23.575-.386.898-.466.355-.089.693-.107,1.012-.057.318.051.606.158.863.32s.479.375.664.638c.186.263.32.562.404.899s.105.664.065.983c-.041.319-.136.611-.286.875-.151.264-.354.494-.612.688-.257.195-.563.336-.919.425-.323.081-.661.084-1.013.011s-.657-.229-.915-.467l-.029.007.772,3.095ZM161.285,638.848c-.062-.252-.161-.48-.294-.684-.134-.204-.294-.37-.48-.499s-.398-.215-.637-.259c-.237-.043-.492-.032-.764.036-.252.063-.474.168-.664.315-.189.147-.342.323-.456.526s-.187.428-.219.673c-.031.245-.015.497.05.755.064.259.168.489.312.69.143.201.312.364.508.486.195.123.412.205.648.245.237.041.481.029.734-.034.271-.067.502-.175.692-.322.189-.147.337-.321.441-.522.104-.201.168-.423.189-.666s0-.49-.062-.742Z" fill="#bcbcbc" stroke-width="0"/>
        </g>
        <g id="ramp">
          <g>
            <polygon points="187.762 547.599 187.762 535.64 219.897 535.64 219.897 539.501 223.451 541.552 219.897 543.604 219.897 547.599 187.762 547.599" fill="#f7f7f7" stroke-width="0"/>
            <path d="M219.397,536.14v3.649l3.054,1.763-3.054,1.763v3.783h-31.135v-10.958h31.135M220.397,535.14h-33.135v12.958h33.135v-4.206l2.554-1.475,1.5-.866-1.5-.866-2.554-1.475v-4.072h0Z" fill="#0a0a0a" stroke-width="0"/>
          </g>
          <g>
            <g>
              <path d="M194.143,544.929l-1.385-2.529h-.523v2.529h-1.504v-6.372h2.43c.307,0,.605.032.896.095s.551.169.783.319c.23.15.414.348.553.594s.207.552.207.918c0,.432-.117.795-.352,1.089-.232.294-.557.504-.971.63l1.664,2.727h-1.799ZM194.078,540.51c0-.15-.031-.271-.094-.365-.064-.093-.145-.165-.244-.216-.1-.051-.211-.085-.336-.104-.123-.018-.242-.027-.357-.027h-.822v1.485h.732c.127,0,.256-.01.389-.031s.254-.059.361-.113c.109-.054.199-.132.268-.234.07-.102.104-.234.104-.396Z" fill="#0a0a0a" stroke-width="0"/>
              <path d="M201.48,544.929l-.494-1.251h-2.467l-.467,1.251h-1.674l2.672-6.372h1.494l2.646,6.372h-1.711ZM199.771,540.258l-.811,2.187h1.602l-.791-2.187Z" fill="#0a0a0a" stroke-width="0"/>
              <path d="M209.699,544.929l.035-4.509h-.025l-1.656,4.509h-1.08l-1.611-4.509h-.027l.037,4.509h-1.449v-6.372h2.189l1.451,4.086h.035l1.387-4.086h2.227v6.372h-1.512Z" fill="#0a0a0a" stroke-width="0"/>
              <path d="M217.516,540.519c0,.372-.07.686-.207.94-.139.255-.324.461-.559.617-.234.156-.504.27-.811.342-.305.072-.623.108-.953.108h-.766v2.403h-1.539v-6.372h2.34c.348,0,.674.035.977.104.303.069.566.18.793.333.225.153.4.354.531.603.129.249.193.557.193.922ZM215.977,540.528c0-.15-.031-.273-.09-.369-.061-.096-.143-.171-.244-.225-.102-.054-.217-.09-.346-.108s-.264-.027-.4-.027h-.676v1.503h.648c.145,0,.281-.012.414-.036.131-.024.25-.066.355-.126s.188-.14.248-.238c.059-.099.09-.224.09-.374Z" fill="#0a0a0a" stroke-width="0"/>
            </g>
            <g>
              <path d="M194.143,544.929l-1.385-2.529h-.523v2.529h-1.504v-6.372h2.43c.307,0,.605.032.896.095s.551.169.783.319c.23.15.414.348.553.594s.207.552.207.918c0,.432-.117.795-.352,1.089-.232.294-.557.504-.971.63l1.664,2.727h-1.799ZM194.078,540.51c0-.15-.031-.271-.094-.365-.064-.093-.145-.165-.244-.216-.1-.051-.211-.085-.336-.104-.123-.018-.242-.027-.357-.027h-.822v1.485h.732c.127,0,.256-.01.389-.031s.254-.059.361-.113c.109-.054.199-.132.268-.234.07-.102.104-.234.104-.396Z" fill="#333232" stroke-width="0"/>
              <path d="M201.48,544.929l-.494-1.251h-2.467l-.467,1.251h-1.674l2.672-6.372h1.494l2.646,6.372h-1.711ZM199.771,540.258l-.811,2.187h1.602l-.791-2.187Z" fill="#333232" stroke-width="0"/>
              <path d="M209.699,544.929l.035-4.509h-.025l-1.656,4.509h-1.08l-1.611-4.509h-.027l.037,4.509h-1.449v-6.372h2.189l1.451,4.086h.035l1.387-4.086h2.227v6.372h-1.512Z" fill="#333232" stroke-width="0"/>
              <path d="M217.516,540.519c0,.372-.07.686-.207.94-.139.255-.324.461-.559.617-.234.156-.504.27-.811.342-.305.072-.623.108-.953.108h-.766v2.403h-1.539v-6.372h2.34c.348,0,.674.035.977.104.303.069.566.18.793.333.225.153.4.354.531.603.129.249.193.557.193.922ZM215.977,540.528c0-.15-.031-.273-.09-.369-.061-.096-.143-.171-.244-.225-.102-.054-.217-.09-.346-.108s-.264-.027-.4-.027h-.676v1.503h.648c.145,0,.281-.012.414-.036.131-.024.25-.066.355-.126s.188-.14.248-.238c.059-.099.09-.224.09-.374Z" fill="#333232" stroke-width="0"/>
            </g>
          </g>
        </g>
        <g id="loop_arrows" data-name="loop arrows">
          <g>
            <g>
              <polyline points="29.078 529.52 33.784 526.103 37.201 530.81" fill="none" stroke="#7f7f7f" stroke-miterlimit="10" stroke-width=".5"/>
              <polyline points="29.083 553.447 33.79 556.864 37.207 552.158" fill="none" stroke="#7f7f7f" stroke-miterlimit="10" stroke-width=".5"/>
              <path d="M33.775,526.135c-.761,4.993-1.157,10.107-1.157,15.313s.396,10.32,1.157,15.313" fill="none" stroke="#7f7f7f" stroke-miterlimit="10" stroke-width=".5"/>
            </g>
            <g>
              <polyline points="237.687 562.636 232.323 564.883 230.076 559.519" fill="none" stroke="#7f7f7f" stroke-miterlimit="10" stroke-width=".5"/>
              <polyline points="237.687 520.463 232.304 518.262 230.103 523.645" fill="none" stroke="#7f7f7f" stroke-miterlimit="10" stroke-width=".5"/>
              <path d="M232.339,564.855c1.885-4.686,4.657-18.129,4.657-23.335s-2.729-18.492-4.654-23.161" fill="none" stroke="#7f7f7f" stroke-miterlimit="10" stroke-width=".5"/>
            </g>
          </g>
          <g>
            <g>
              <polyline points="29.078 529.52 33.784 526.103 37.201 530.81" fill="none" stroke="#cecece" stroke-miterlimit="10" stroke-width=".5"/>
              <polyline points="29.083 553.447 33.79 556.864 37.207 552.158" fill="none" stroke="#cecece" stroke-miterlimit="10" stroke-width=".5"/>
              <path d="M33.775,526.135c-.761,4.993-1.157,10.107-1.157,15.313s.396,10.32,1.157,15.313" fill="none" stroke="#cecece" stroke-miterlimit="10" stroke-width=".5"/>
            </g>
            <g>
              <polyline points="237.687 562.636 232.323 564.883 230.076 559.519" fill="none" stroke="#cecece" stroke-miterlimit="10" stroke-width=".5"/>
              <polyline points="237.687 520.463 232.304 518.262 230.103 523.645" fill="none" stroke="#cecece" stroke-miterlimit="10" stroke-width=".5"/>
              <path d="M232.339,564.855c1.885-4.686,4.657-18.129,4.657-23.335s-2.729-18.492-4.654-23.161" fill="none" stroke="#cecece" stroke-miterlimit="10" stroke-width=".5"/>
            </g>
          </g>
        </g>
        <g id="half_start" data-name="half start">
          <g>
            <polygon points="154.528 59.087 154.528 39.739 150.124 37.196 155.025 37.171 227.077 37.171 227.077 59.087 154.528 59.087" fill="#f7f7f7" stroke-width="0"/>
            <path d="M226.577,37.671v20.916h-71.549v-19.137l-3.054-1.763,3.054-.016h71.549M227.577,36.671h-72.549l-3.059.016-3.694.019,3.199,1.847,2.554,1.475v19.559h73.549v-22.916h0Z" fill="#0a0a0a" stroke-width="0"/>
          </g>
          <g>
            <path d="M162.929,48.189v-3.256h-3.036v3.256h-1.881v-7.788h1.881v2.948h3.036v-2.948h1.881v7.788h-1.881Z" fill="#0a0a0a" stroke-width="0"/>
            <path d="M171.854,48.189l-.605-1.529h-3.014l-.572,1.529h-2.046l3.268-7.788h1.825l3.234,7.788h-2.09ZM169.765,42.48l-.99,2.673h1.958l-.968-2.673Z" fill="#0a0a0a" stroke-width="0"/>
            <path d="M174.746,48.189v-7.788h1.893v6.148h3.014v1.64h-4.906Z" fill="#0a0a0a" stroke-width="0"/>
            <path d="M182.436,42.006v1.606h3.014v1.551h-3.014v3.025h-1.859v-7.788h5.126v1.605h-3.267Z" fill="#0a0a0a" stroke-width="0"/>
            <path d="M193.776,42.424c-.161-.205-.372-.368-.633-.489-.26-.121-.511-.182-.753-.182-.125,0-.252.012-.38.033-.128.022-.244.064-.347.127s-.188.143-.258.241c-.07.1-.104.226-.104.38,0,.132.027.242.082.33s.136.165.242.231c.106.065.232.126.379.181.147.056.312.112.495.171.265.088.539.186.825.291.286.106.546.248.781.424.234.176.429.395.583.654.154.261.23.585.23.974,0,.447-.082.835-.247,1.161s-.387.596-.666.808c-.278.213-.598.371-.956.474-.359.103-.73.154-1.111.154-.558,0-1.097-.098-1.617-.292s-.953-.471-1.298-.83l1.232-1.255c.19.235.441.432.753.589.312.158.621.236.93.236.139,0,.274-.015.407-.044.132-.029.247-.077.346-.143.1-.066.178-.154.237-.265.059-.109.088-.241.088-.396,0-.146-.037-.271-.11-.374s-.178-.196-.313-.28-.305-.161-.506-.231c-.202-.069-.431-.145-.688-.226-.249-.08-.493-.176-.731-.286-.238-.109-.451-.251-.638-.423-.188-.173-.338-.382-.451-.627-.114-.246-.171-.545-.171-.896,0-.433.088-.804.265-1.111.176-.308.406-.561.692-.759s.608-.343.968-.435.723-.138,1.089-.138c.44,0,.89.081,1.348.242.459.161.86.399,1.205.715l-1.199,1.265Z" fill="#0a0a0a" stroke-width="0"/>
            <path d="M199.758,42.006v6.183h-1.881v-6.183h-2.2v-1.605h6.281v1.605h-2.2Z" fill="#0a0a0a" stroke-width="0"/>
            <path d="M207.48,48.189l-.605-1.529h-3.014l-.572,1.529h-2.046l3.268-7.788h1.825l3.234,7.788h-2.09ZM205.391,42.48l-.99,2.673h1.958l-.968-2.673Z" fill="#0a0a0a" stroke-width="0"/>
            <path d="M214.54,48.189l-1.69-3.091h-.642v3.091h-1.837v-7.788h2.971c.373,0,.738.038,1.094.115s.675.207.957.391.508.426.677.726c.169.301.253.675.253,1.122,0,.528-.143.972-.429,1.331s-.683.616-1.188.771l2.035,3.333h-2.2ZM214.463,42.787c0-.183-.038-.332-.116-.445-.077-.113-.177-.202-.298-.264-.122-.062-.258-.104-.409-.127-.151-.021-.297-.033-.437-.033h-1.006v1.815h.896c.154,0,.313-.013.476-.039.162-.025.309-.071.441-.137.133-.066.241-.161.326-.286s.127-.286.127-.484Z" fill="#0a0a0a" stroke-width="0"/>
            <path d="M221.15,42.006v6.183h-1.881v-6.183h-2.2v-1.605h6.281v1.605h-2.2Z" fill="#0a0a0a" stroke-width="0"/>
            <path d="M160.233,56.189h-.769v-4.721l-1.072.896-.456-.536,1.607-1.304h.689v5.664Z" fill="#0a0a0a" stroke-width="0"/>
            <path d="M165.744,56.189h-3.695v-.744l2.256-2.24c.17-.176.316-.36.439-.552.123-.192.185-.408.185-.648,0-.148-.027-.283-.08-.403-.054-.12-.126-.223-.216-.309-.091-.085-.198-.15-.32-.195-.123-.046-.254-.068-.393-.068-.287,0-.525.092-.712.276-.187.184-.304.42-.352.708l-.76-.129c.031-.213.1-.411.204-.596.104-.184.235-.344.396-.479.16-.137.346-.241.556-.316.211-.074.437-.112.677-.112.234,0,.46.035.676.104s.406.171.572.304c.165.134.297.302.396.504.099.203.148.435.148.696,0,.182-.024.35-.072.504-.048.155-.113.302-.196.44s-.18.271-.292.396-.229.249-.352.372l-1.84,1.792h2.775v.696Z" fill="#0a0a0a" stroke-width="0"/>
            <path d="M169.279,53.901l-.008-.008c-.08.048-.189.085-.328.111-.063.011-.129.021-.195.028s-.129.012-.188.012c-.25,0-.481-.044-.694-.132s-.399-.211-.559-.368c-.16-.157-.285-.345-.376-.563-.09-.219-.136-.456-.136-.712,0-.283.05-.54.148-.772.098-.231.235-.431.411-.596.175-.165.383-.293.622-.384.24-.091.498-.137.774-.137s.535.047.774.141c.239.093.446.223.619.388s.309.362.407.592.147.478.147.744c0,.31-.051.59-.151.84-.102.251-.231.507-.392.769l-1.477,2.336h-.918l1.517-2.288ZM169.933,52.236c0-.165-.028-.321-.084-.468-.057-.146-.137-.275-.24-.385-.104-.108-.229-.195-.372-.26-.145-.063-.304-.096-.48-.096-.176,0-.336.03-.479.092-.145.062-.269.146-.372.252-.104.106-.184.235-.24.384-.056.149-.084.312-.084.488,0,.171.028.328.084.472.057.145.135.27.236.376.102.107.224.189.368.248.144.06.304.089.479.089s.338-.029.484-.089c.146-.059.271-.141.376-.248.104-.106.184-.231.24-.376.056-.144.084-.304.084-.479Z" fill="#0a0a0a" stroke-width="0"/>
            <path d="M172.29,55.708c0,.139-.051.262-.152.368s-.229.16-.384.16c-.149,0-.276-.052-.38-.156-.104-.104-.156-.225-.156-.364,0-.144.051-.268.152-.372.101-.104.229-.155.384-.155.154,0,.282.051.384.151.102.102.152.225.152.368Z" fill="#0a0a0a" stroke-width="0"/>
            <path d="M175.301,56.189h-.769v-4.721l-1.072.896-.456-.536,1.607-1.304h.689v5.664Z" fill="#0a0a0a" stroke-width="0"/>
            <path d="M180.628,51.229l-2.272,4.96h-.888l2.36-4.977h-2.809v-.688h3.608v.704Z" fill="#0a0a0a" stroke-width="0"/>
            <path d="M182.82,52.504c.211-.141.46-.212.748-.212.256,0,.486.059.692.176.205.118.366.312.483.584.128-.245.307-.433.536-.563s.48-.196.752-.196c.245,0,.456.042.632.124.177.083.323.193.44.332s.204.302.26.488c.057.187.084.387.084.6v2.353h-.752v-2.104c0-.154-.013-.301-.04-.439-.026-.139-.071-.262-.136-.368s-.149-.192-.256-.256c-.106-.064-.243-.097-.408-.097-.171,0-.317.036-.439.108-.123.072-.224.165-.301.28-.077.114-.133.244-.168.388-.034.144-.052.291-.052.44v2.048h-.752v-2.256c0-.149-.014-.285-.04-.408s-.072-.229-.136-.316c-.064-.088-.146-.157-.248-.208s-.227-.076-.376-.076c-.277,0-.508.114-.692.341-.184.227-.275.529-.275.907v2.017h-.752v-2.977c0-.101-.003-.231-.009-.392-.005-.16-.013-.302-.023-.424h.712c.011.096.019.204.023.324.006.119.009.22.009.3h.023c.097-.203.249-.375.46-.517Z" fill="#0a0a0a" stroke-width="0"/>
            <path d="M193.065,53.437h1.775v.655h-1.775v1.776h-.656v-1.776h-1.776v-.655h1.776v-1.776h.656v1.776Z" fill="#0a0a0a" stroke-width="0"/>
            <path d="M200.425,56.189h-.769v-4.721l-1.072.896-.456-.536,1.607-1.304h.689v5.664Z" fill="#0a0a0a" stroke-width="0"/>
            <path d="M204.256,50.38c.336,0,.625.078.868.232.242.154.442.366.6.636s.273.586.349.948c.074.362.111.749.111,1.16,0,.416-.037.804-.111,1.164-.075.359-.191.675-.349.943-.157.27-.357.481-.6.637-.243.154-.532.231-.868.231s-.627-.077-.872-.231c-.245-.155-.446-.367-.604-.637-.157-.269-.273-.584-.349-.943-.074-.36-.111-.748-.111-1.164,0-.411.037-.798.111-1.16.075-.362.191-.679.349-.948s.358-.481.604-.636.536-.232.872-.232ZM204.256,51.028c-.234,0-.427.076-.576.228-.149.152-.265.345-.348.576-.083.232-.14.484-.172.756-.032.272-.048.528-.048.769s.016.496.048.768c.032.272.089.523.172.752.083.229.198.42.348.572s.342.228.576.228c.229,0,.417-.075.564-.228.146-.152.263-.343.348-.572.085-.229.145-.479.176-.752.032-.271.048-.527.048-.768s-.016-.496-.048-.769c-.031-.271-.091-.523-.176-.756-.085-.231-.201-.424-.348-.576-.147-.151-.335-.228-.564-.228Z" fill="#0a0a0a" stroke-width="0"/>
            <path d="M209.635,53.901l-.008-.008c-.08.048-.189.085-.328.111-.063.011-.129.021-.195.028s-.129.012-.188.012c-.25,0-.481-.044-.694-.132s-.399-.211-.559-.368c-.16-.157-.285-.345-.376-.563-.09-.219-.136-.456-.136-.712,0-.283.05-.54.148-.772.098-.231.235-.431.411-.596.175-.165.383-.293.622-.384.24-.091.498-.137.774-.137s.535.047.774.141c.239.093.446.223.619.388s.309.362.407.592.147.478.147.744c0,.31-.051.59-.151.84-.102.251-.231.507-.392.769l-1.477,2.336h-.918l1.517-2.288ZM210.288,52.236c0-.165-.028-.321-.084-.468-.057-.146-.137-.275-.24-.385-.104-.108-.229-.195-.372-.26-.145-.063-.304-.096-.48-.096-.176,0-.336.03-.479.092-.145.062-.269.146-.372.252-.104.106-.184.235-.24.384-.056.149-.084.312-.084.488,0,.171.028.328.084.472.057.145.135.27.236.376.102.107.224.189.368.248.144.06.304.089.479.089s.338-.029.484-.089c.146-.059.271-.141.376-.248.104-.106.184-.231.24-.376.056-.144.084-.304.084-.479Z" fill="#0a0a0a" stroke-width="0"/>
          </g>
          <g id="icon">
            <g id="Icon-2" data-name="Icon">
              <g id="Jets-2" data-name="Jets">
                <line x1="215.935" y1="53.295" x2="216.872" y2="53.082" fill="none" stroke="#0a0a0a" stroke-linecap="round" stroke-linejoin="round" stroke-width=".481"/>
                <line x1="213.492" y1="53.821" x2="214.43" y2="53.609" fill="none" stroke="#0a0a0a" stroke-linecap="round" stroke-linejoin="round" stroke-width=".481"/>
                <line x1="215.422" y1="52.722" x2="215.707" y2="51.804" fill="none" stroke="#0a0a0a" stroke-linecap="round" stroke-linejoin="round" stroke-width=".481"/>
                <line x1="214.657" y1="55.1" x2="214.942" y2="54.182" fill="none" stroke="#0a0a0a" stroke-linecap="round" stroke-linejoin="round" stroke-width=".481"/>
                <line x1="214.67" y1="52.879" x2="214.017" y2="52.173" fill="none" stroke="#0a0a0a" stroke-linecap="round" stroke-linejoin="round" stroke-width=".481"/>
                <line x1="216.347" y1="54.731" x2="215.694" y2="54.025" fill="none" stroke="#0a0a0a" stroke-linecap="round" stroke-linejoin="round" stroke-width=".481"/>
              </g>
              <circle cx="215.182" cy="53.452" r=".267" fill="#0a0a0a" stroke-width="0"/>
              <path d="M215.182,50.572c-1.58,0-2.88,1.3-2.88,2.88s1.3,2.88,2.88,2.88,2.88-1.3,2.88-2.88c0-1.18-.725-2.246-1.823-2.679" fill="none" stroke="#0a0a0a" stroke-miterlimit="10" stroke-width=".55"/>
              <polyline points="216.508 52.272 216.178 50.647 217.803 50.317" fill="none" stroke="#0a0a0a" stroke-miterlimit="10" stroke-width=".55"/>
            </g>
          </g>
        </g>
        <rect x="122.888" y="34.809" width="20.297" height="2" fill="#bd81c6" stroke-width="0"/>
      </g>
      <g>
        <g>
          <polygon points="111.937 450.982 131.497 450.982 133.549 447.428 135.601 450.982 155.161 450.982 155.161 464.742 111.937 464.742 111.937 450.982" fill="#f7f7f7" stroke-width="0"/>
          <path d="M133.549,448.428l1.763,3.054h19.348s0,12.76,0,12.76h-42.223s0-12.76,0-12.76h19.348l1.763-3.054M133.549,446.427l-.866,1.5-1.475,2.554h-19.771v14.76h43.223s1,0,1,0v-14.76h-19.771s-1.475-2.554-1.475-2.554l-.866-1.5h0Z" fill="#0a0a0a" stroke-width="0"/>
        </g>
        <g>
          <path d="M117.518,455.746v1.606h3.014v1.551h-3.014v3.025h-1.859v-7.788h5.126v1.606h-3.267Z" fill="#0a0a0a" stroke-width="0"/>
          <path d="M122.058,461.928v-7.788h1.893v7.788h-1.893Z" fill="#0a0a0a" stroke-width="0"/>
          <path d="M130.612,461.928l-3.135-5.093h-.033l.044,5.093h-1.826v-7.788h2.146l3.124,5.082h.033l-.045-5.082h1.826v7.788h-2.134Z" fill="#0a0a0a" stroke-width="0"/>
          <path d="M134.459,461.928v-7.788h1.893v7.788h-1.893Z" fill="#0a0a0a" stroke-width="0"/>
          <path d="M142.178,456.164c-.161-.205-.372-.368-.633-.489-.26-.121-.511-.182-.753-.182-.125,0-.252.011-.38.033s-.244.064-.347.126-.188.143-.258.242c-.07.099-.104.226-.104.38,0,.132.027.242.082.33.055.088.136.165.242.231.106.066.232.126.38.181.146.055.312.112.494.17.265.088.539.186.825.292.286.106.547.248.781.424.234.176.429.394.583.654s.23.585.23.974c0,.447-.082.834-.247,1.161s-.387.596-.665.808c-.279.213-.599.371-.957.473-.359.103-.73.154-1.111.154-.558,0-1.097-.098-1.617-.292-.521-.194-.953-.471-1.298-.831l1.232-1.254c.19.235.441.431.753.589s.622.236.93.236c.139,0,.275-.015.407-.044s.247-.077.347-.143c.099-.066.177-.154.236-.264.059-.11.088-.242.088-.396,0-.146-.037-.271-.11-.374-.073-.103-.178-.196-.313-.28-.136-.084-.305-.161-.506-.231-.202-.07-.431-.145-.688-.226-.249-.081-.493-.176-.731-.286-.238-.11-.451-.251-.638-.423-.188-.172-.338-.381-.451-.627-.114-.246-.171-.544-.171-.896,0-.433.088-.803.265-1.111.176-.308.406-.561.692-.759.286-.198.608-.343.968-.435.359-.091.723-.137,1.09-.137.439,0,.889.081,1.347.242.459.162.86.4,1.205.715l-1.199,1.265Z" fill="#0a0a0a" stroke-width="0"/>
          <path d="M149.561,461.928v-3.256h-3.036v3.256h-1.881v-7.788h1.881v2.948h3.036v-2.948h1.881v7.788h-1.881Z" fill="#0a0a0a" stroke-width="0"/>
        </g>
      </g>
      <g id="aid">
        <polygon points="171.057 440.338 172.555 436.921 179.671 439.979 178.173 443.396 171.057 440.338" fill="#b7b7b7" stroke-width="0"/>
        <g>
          <g>
            <polygon points="174.997 432.642 171.903 432.642 171.903 421.005 205.311 421.005 205.311 432.642 178.741 432.642 176.869 435.885 174.997 432.642" fill="#f7f7f7" stroke-width="0"/>
            <path d="M204.812,421.506v10.637h-26.36l-1.583,2.742-1.583-2.742h-2.883v-10.637h32.409M205.812,420.506h-34.409v12.637h3.305l1.295,2.242.866,1.5.866-1.5,1.295-2.242h26.782v-12.637h0Z" fill="#0a0a0a" stroke-width="0"/>
          </g>
          <path d="M196.996,428.359c0,1.269-1.029,2.298-2.298,2.298s-2.298-1.029-2.298-2.298,2.298-4.647,2.298-4.647c0,0,2.298,3.378,2.298,4.647Z" fill="#00c5e5" stroke-width="0"/>
          <g>
            <path d="M179.049,430.137l-.494-1.251h-2.467l-.468,1.251h-1.674l2.673-6.372h1.494l2.646,6.372h-1.71ZM177.339,425.466l-.81,2.187h1.602l-.792-2.187Z" fill="#0a0a0a" stroke-width="0"/>
            <path d="M181.29,430.137v-6.372h1.548v6.372h-1.548Z" fill="#0a0a0a" stroke-width="0"/>
            <path d="M190.102,426.933c0,.558-.104,1.04-.311,1.445-.207.405-.48.738-.819.999-.339.261-.722.453-1.147.576s-.858.185-1.296.185h-2.376v-6.372h2.304c.45,0,.894.053,1.332.158.438.105.828.279,1.17.522.342.243.618.568.828.977.21.408.315.912.315,1.512ZM188.499,426.933c0-.36-.059-.658-.176-.896-.116-.237-.272-.426-.468-.567s-.417-.241-.666-.301-.506-.09-.77-.09h-.765v3.726h.729c.276,0,.542-.031.797-.094s.479-.167.675-.311.352-.336.468-.576c.117-.24.176-.537.176-.891Z" fill="#0a0a0a" stroke-width="0"/>
          </g>
          <path d="M198.996,429.662c.508-.363.995-.881,1.382-1.526.723-1.234.882-2.574.494-3.423,0,0-.123-.172-.08-.391.043-.19-.632-.256-.878-.489l.174-.453c.312.255.688.475,1.097.531,1.017.14,1.312,1.125,1.312,1.125.33.95.304,2.015-.092,2.996s-1.103,1.775-2.004,2.23c0,0-1.032.508-1.674.21,0,0-.111-.03-.108-.192,0-.169-.068-.151-.019-.236.049-.085.1-.181.395-.382Z" fill="#f2d60c" stroke-width="0"/>
        </g>
      </g>
      <g opacity=".5">
        <g>
          <path d="M95.778,700.552h-.864v-8.496h2.496c.416,0,.802.04,1.158.12.355.08.664.21.924.39.26.18.462.414.605.702.145.288.217.64.217,1.056,0,.312-.057.596-.168.852-.112.256-.265.478-.456.666-.192.188-.42.338-.685.45-.264.112-.552.184-.864.216l2.484,4.044h-1.056l-2.353-3.972h-1.439v3.972ZM95.778,695.837h1.5c.695,0,1.231-.126,1.607-.378.376-.252.564-.63.564-1.134,0-.28-.052-.516-.156-.708-.104-.192-.248-.348-.432-.468-.185-.12-.408-.208-.672-.264-.265-.056-.557-.084-.876-.084h-1.536v3.036Z" fill="#fff" stroke-width="0"/>
          <path d="M102.042,700.552h-.948l3.672-8.496h.84l3.648,8.496h-.96l-.937-2.232h-4.392l-.924,2.232ZM103.29,697.528h3.743l-1.872-4.512-1.871,4.512Z" fill="#fff" stroke-width="0"/>
          <path d="M111.366,700.552h-.864v-8.496h.864v8.496Z" fill="#fff" stroke-width="0"/>
          <path d="M119.646,699.293h.023v-7.236h.864v8.496h-1.08l-4.944-7.308h-.023v7.308h-.864v-8.496h1.08l4.944,7.236Z" fill="#fff" stroke-width="0"/>
          <path d="M123.653,700.552h-.864v-8.496h.864v8.496Z" fill="#fff" stroke-width="0"/>
          <path d="M126.773,699.784h4.548v.768h-5.412v-8.496h5.268v.768h-4.403v2.916h4.116v.768h-4.116v3.276Z" fill="#fff" stroke-width="0"/>
          <path d="M133.878,700.552h-.864v-8.496h2.496c.416,0,.802.04,1.158.12.355.08.664.21.924.39.26.18.462.414.605.702.145.288.217.64.217,1.056,0,.312-.057.596-.168.852-.112.256-.265.478-.456.666-.192.188-.42.338-.685.45-.264.112-.552.184-.864.216l2.484,4.044h-1.056l-2.353-3.972h-1.439v3.972ZM133.878,695.837h1.5c.695,0,1.231-.126,1.607-.378.376-.252.564-.63.564-1.134,0-.28-.052-.516-.156-.708-.104-.192-.248-.348-.432-.468-.185-.12-.408-.208-.672-.264-.265-.056-.557-.084-.876-.084h-1.536v3.036Z" fill="#fff" stroke-width="0"/>
          <path d="M145.59,699.436h.023l2.76-7.38h.924l-3.252,8.496h-.911l-3.24-8.496h.936l2.761,7.38Z" fill="#fff" stroke-width="0"/>
          <path d="M151.325,700.552h-.864v-8.496h.864v8.496Z" fill="#fff" stroke-width="0"/>
          <path d="M157.697,693.424c-.185-.256-.42-.462-.708-.618-.288-.156-.636-.234-1.044-.234-.208,0-.42.032-.636.096-.217.064-.412.162-.589.294-.176.132-.317.298-.426.498-.107.2-.162.436-.162.708s.052.496.155.672c.104.176.242.326.413.45.172.125.367.227.587.306.219.08.448.16.688.24.296.096.593.2.892.312.3.112.568.258.809.438.239.18.435.408.586.684.151.276.228.626.228,1.05s-.081.79-.243,1.098c-.161.308-.371.562-.63.762-.258.2-.554.348-.885.444-.332.096-.666.144-1.002.144-.257,0-.513-.026-.769-.078-.256-.052-.5-.13-.731-.234-.232-.104-.448-.236-.648-.396-.2-.16-.376-.344-.528-.552l.744-.552c.185.304.442.558.774.762s.722.306,1.17.306c.216,0,.436-.034.66-.102.224-.068.426-.172.605-.312.181-.14.328-.312.444-.516s.174-.442.174-.714c0-.296-.058-.542-.174-.738-.116-.196-.271-.36-.462-.492-.192-.132-.412-.242-.66-.33s-.508-.176-.78-.264c-.28-.088-.556-.188-.828-.3-.271-.112-.516-.258-.731-.438-.216-.18-.391-.402-.522-.666-.132-.264-.197-.588-.197-.972,0-.408.081-.76.245-1.056.164-.295.379-.54.643-.732.264-.192.556-.332.876-.42.319-.088.636-.132.948-.132.575,0,1.067.102,1.476.306.408.204.716.446.924.726l-.684.552Z" fill="#fff" stroke-width="0"/>
          <path d="M162.856,700.552h-.863v-7.728h-2.845v-.768h6.553v.768h-2.845v7.728Z" fill="#fff" stroke-width="0"/>
          <path d="M166.193,700.552h-.948l3.672-8.496h.84l3.648,8.496h-.96l-.937-2.232h-4.392l-.924,2.232ZM167.441,697.528h3.743l-1.872-4.512-1.871,4.512Z" fill="#fff" stroke-width="0"/>
        </g>
      </g>
      <g>
        <g>
          <line x1="245.098" y1="694.041" x2="252.653" y2="677.202" fill="none" stroke="#fff" stroke-miterlimit="10" stroke-width="1.304"/>
          <polyline points="246.203 679.657 252.653 677.202 255.107 683.652" fill="none" stroke="#fff" stroke-miterlimit="10" stroke-width="1.304"/>
        </g>
        <g isolation="isolate">
          <path d="M243.369,699.912l-.448-3.424-.017-.008-1.181,2.694-.962-.432,1.841-4.103,1.13.507.445,3.416.017.008,1.178-2.688.962.432-1.841,4.103-1.124-.504Z" fill="#f7f7f7" stroke-width="0"/>
        </g>
      </g>
      <g>
        <path d="M133.567,434.113c-1.395,0-2.529-1.135-2.529-2.53s1.135-2.529,2.529-2.529,2.53,1.135,2.53,2.529-1.135,2.53-2.53,2.53Z" fill="#000" stroke-width="0"/>
        <path d="M133.567,429.554c1.121,0,2.03.909,2.03,2.03s-.909,2.03-2.03,2.03-2.03-.909-2.03-2.03.909-2.03,2.03-2.03M133.567,428.554c-1.67,0-3.03,1.359-3.03,3.03s1.359,3.03,3.03,3.03,3.03-1.359,3.03-3.03-1.359-3.03-3.03-3.03h0Z" fill="#f7f7f7" stroke-width="0"/>
      </g>
      <g opacity=".25">
        <path d="M13.482,678.256h.017v-4.824h.576v5.664h-.721l-3.296-4.872h-.016v4.872h-.576v-5.664h.72l3.296,4.824Z" fill="#fff" stroke-width="0"/>
        <path d="M16.155,678.584h3.032v.512h-3.608v-5.664h3.512v.512h-2.936v1.944h2.744v.512h-2.744v2.184Z" fill="#fff" stroke-width="0"/>
        <path d="M22.891,678.584h2.64v.512h-3.216v-5.664h.576v5.152Z" fill="#fff" stroke-width="0"/>
        <path d="M26.971,678.584h3.032v.512h-3.608v-5.664h3.512v.512h-2.936v1.944h2.744v.512h-2.744v2.184Z" fill="#fff" stroke-width="0"/>
        <path d="M32.499,678.304h.016l1.416-4.872h.688l1.416,4.872h.016l1.384-4.872h.608l-1.672,5.664h-.672l-1.425-4.864h-.016l-1.424,4.864h-.672l-1.672-5.664h.607l1.4,4.872Z" fill="#fff" stroke-width="0"/>
        <path d="M39.482,679.096h-.576v-5.664h.576v5.664Z" fill="#fff" stroke-width="0"/>
        <path d="M43.73,674.344c-.123-.171-.28-.308-.472-.412-.192-.104-.425-.156-.696-.156-.139,0-.28.021-.424.064-.145.042-.275.108-.393.196s-.212.199-.284.332c-.071.133-.107.291-.107.472s.034.331.104.448c.069.118.161.217.275.3.114.083.244.15.391.204.146.054.3.107.459.16.196.064.395.133.594.208.2.075.38.172.539.292s.29.272.391.456c.102.184.152.417.152.7s-.055.526-.162.732c-.108.205-.248.375-.42.508-.173.133-.369.232-.591.296-.221.064-.443.096-.668.096-.17,0-.341-.018-.512-.052s-.333-.086-.488-.156c-.154-.069-.299-.157-.432-.264-.134-.106-.251-.229-.352-.368l.495-.368c.123.203.295.372.517.508.221.136.481.204.78.204.144,0,.29-.022.439-.068s.284-.115.404-.208.219-.208.296-.344c.077-.136.116-.294.116-.476,0-.197-.039-.361-.116-.492s-.18-.24-.308-.328c-.129-.088-.275-.161-.44-.22s-.339-.118-.52-.176c-.188-.059-.371-.125-.553-.2-.181-.075-.344-.172-.487-.292-.145-.12-.261-.268-.349-.444-.088-.176-.132-.392-.132-.648,0-.272.055-.506.164-.704.109-.197.252-.36.428-.488s.371-.221.584-.28c.214-.059.424-.088.632-.088.385,0,.713.068.984.204.272.136.478.297.616.484l-.456.368Z" fill="#fff" stroke-width="0"/>
        <path d="M48.074,678.584h2.64v.512h-3.216v-5.664h.576v5.152Z" fill="#fff" stroke-width="0"/>
        <path d="M55.594,678.256h.017v-4.824h.576v5.664h-.721l-3.296-4.872h-.016v4.872h-.576v-5.664h.72l3.296,4.824Z" fill="#fff" stroke-width="0"/>
      </g>
      <g id="To_RS_compact" data-name="To RS compact">
        <rect x="78.874" y="9.558" width="109.759" height="14.298" fill="#000" fill-opacity=".2" stroke-width="0"/>
        <g opacity=".5">
          <line x1="85.607" y1="21.184" x2="85.607" y2="13.144" fill="none" stroke="#efefef" stroke-miterlimit="10" stroke-width=".75"/>
          <polyline points="82.528 16.177 85.607 13.144 88.639 16.223" fill="none" stroke="#efefef" stroke-miterlimit="10" stroke-width=".75"/>
        </g>
        <g opacity=".5">
          <path d="M96.723,21.184h-.863v-7.728h-2.845v-.768h6.553v.768h-2.845v7.728Z" fill="#efefef" stroke-width="0"/>
          <path d="M108.879,16.936c0,.648-.112,1.244-.336,1.788-.225.544-.534,1.014-.931,1.41-.396.396-.863.706-1.403.93-.54.224-1.127.336-1.759.336s-1.218-.112-1.758-.336c-.54-.224-1.008-.534-1.403-.93-.396-.396-.707-.866-.931-1.41s-.336-1.14-.336-1.788.112-1.244.336-1.788c.224-.544.534-1.014.931-1.41.396-.396.863-.706,1.403-.93s1.126-.336,1.758-.336,1.219.112,1.759.336,1.008.534,1.403.93c.396.396.706.866.931,1.41.224.544.336,1.14.336,1.788ZM107.967,16.942c0-.495-.08-.966-.24-1.414s-.392-.84-.696-1.18c-.304-.34-.674-.609-1.109-.809-.437-.2-.927-.299-1.471-.299s-1.033.1-1.47.299c-.436.2-.806.469-1.11.809-.304.339-.535.732-.695,1.18s-.24.918-.24,1.414.08.967.24,1.414.392.838.695,1.174c.305.335.675.603,1.11.803.437.2.926.3,1.47.3s1.034-.1,1.471-.3c.436-.2.806-.467,1.109-.803.305-.335.536-.727.696-1.174s.24-.918.24-1.414Z" fill="#efefef" stroke-width="0"/>
          <path d="M114.543,21.184h-.864v-8.496h2.496c.416,0,.802.04,1.158.12.355.08.664.21.924.39.26.18.462.414.605.702.145.288.217.64.217,1.056,0,.312-.057.596-.168.852-.112.256-.265.478-.456.666-.192.188-.42.338-.685.45-.264.112-.552.184-.863.216l2.483,4.044h-1.056l-2.353-3.972h-1.439v3.972ZM114.543,16.468h1.5c.696,0,1.231-.126,1.607-.378.376-.252.564-.63.564-1.134,0-.28-.052-.516-.156-.708-.104-.192-.248-.348-.432-.468-.185-.12-.408-.208-.672-.264-.265-.056-.557-.084-.876-.084h-1.536v3.036Z" fill="#efefef" stroke-width="0"/>
          <path d="M121.731,20.416h4.548v.768h-5.412v-8.496h5.269v.768h-4.404v2.916h4.116v.768h-4.116v3.276Z" fill="#efefef" stroke-width="0"/>
          <path d="M127.971,12.688h2.82c.527,0,1.058.088,1.59.264s1.012.442,1.439.798c.429.356.774.8,1.038,1.332.265.532.396,1.15.396,1.854,0,.712-.132,1.332-.396,1.86-.264.528-.609.97-1.038,1.326-.428.356-.907.622-1.439.798-.532.176-1.062.264-1.59.264h-2.82v-8.496ZM128.835,20.416h1.716c.64,0,1.198-.1,1.674-.3.476-.2.87-.462,1.183-.786.312-.324.546-.694.701-1.11.156-.416.234-.844.234-1.284s-.078-.868-.234-1.284c-.155-.416-.39-.786-.701-1.11-.312-.324-.707-.586-1.183-.786-.476-.2-1.034-.3-1.674-.3h-1.716v6.96Z" fill="#efefef" stroke-width="0"/>
          <path d="M144.171,14.056c-.185-.256-.42-.462-.708-.618-.288-.156-.636-.234-1.044-.234-.208,0-.42.032-.636.096-.217.064-.412.162-.589.294-.176.132-.317.298-.426.498-.107.2-.162.436-.162.708s.052.496.155.672c.104.176.242.326.413.45.172.125.367.227.587.306.219.08.448.16.688.24.296.096.593.2.892.312.3.112.568.258.809.438.239.18.435.408.586.684.151.276.228.626.228,1.05s-.081.79-.243,1.098c-.161.308-.371.562-.63.762-.258.2-.553.348-.885.444-.332.096-.666.144-1.002.144-.257,0-.513-.026-.769-.078-.256-.052-.5-.13-.731-.234-.232-.104-.448-.236-.648-.396-.2-.16-.376-.344-.528-.552l.744-.552c.185.304.442.558.774.762s.722.306,1.17.306c.216,0,.436-.034.66-.102.224-.068.426-.172.605-.312.181-.14.328-.312.444-.516s.174-.442.174-.714c0-.296-.058-.542-.174-.738-.116-.196-.271-.36-.462-.492-.192-.132-.412-.242-.66-.33s-.508-.176-.78-.264c-.28-.088-.556-.188-.828-.3-.271-.112-.516-.258-.731-.438-.216-.18-.39-.402-.522-.666-.132-.264-.197-.588-.197-.972,0-.408.081-.76.245-1.056.164-.295.379-.54.643-.732.264-.192.556-.332.876-.42.319-.088.636-.132.948-.132.575,0,1.067.102,1.476.306.408.204.716.446.924.726l-.684.552Z" fill="#efefef" stroke-width="0"/>
          <path d="M155.522,21.184h-4.86c-.616,0-1.186-.108-1.71-.324-.523-.216-.978-.518-1.361-.906-.385-.388-.685-.848-.9-1.38s-.324-1.114-.324-1.746.108-1.214.324-1.746c.216-.532.516-.992.9-1.38.384-.388.838-.69,1.361-.906.524-.216,1.094-.324,1.71-.324.608,0,1.174.108,1.698.324.523.215.978.517,1.362.904.384.387.684.847.899,1.378s.324,1.112.324,1.743c0,.751-.166,1.436-.498,2.055s-.83,1.121-1.494,1.503v.024h2.568v.78ZM147.278,16.828c0,.479.078.933.234,1.363.155.431.378.812.666,1.142.288.331.642.594,1.062.79s.895.293,1.422.293c.521,0,.99-.098,1.41-.293s.776-.458,1.068-.79c.292-.331.518-.711.678-1.142.16-.43.24-.885.24-1.363s-.08-.933-.24-1.363-.386-.812-.678-1.142c-.292-.331-.648-.594-1.068-.79s-.89-.293-1.41-.293c-.527,0-1.002.098-1.422.293s-.773.458-1.062.79c-.288.331-.511.711-.666,1.142-.156.431-.234.885-.234,1.363Z" fill="#efefef" stroke-width="0"/>
          <path d="M160.07,21.4c-.64,0-1.164-.11-1.571-.33-.408-.22-.732-.498-.973-.834-.24-.336-.406-.702-.498-1.098s-.138-.77-.138-1.122v-5.328h.864v5.232c0,.344.04.678.12,1.002.079.324.21.612.39.864s.418.456.714.612c.296.156.66.234,1.092.234s.796-.078,1.092-.234c.296-.156.534-.36.715-.612.18-.252.31-.54.39-.864.08-.324.12-.658.12-1.002v-5.232h.864v5.328c0,.352-.047.726-.139,1.122s-.258.762-.498,1.098c-.239.336-.565.614-.978.834-.412.22-.935.33-1.566.33Z" fill="#efefef" stroke-width="0"/>
          <path d="M165.255,21.184h-.948l3.672-8.496h.84l3.648,8.496h-.96l-.937-2.232h-4.392l-.924,2.232ZM166.503,18.16h3.743l-1.871-4.512-1.872,4.512Z" fill="#efefef" stroke-width="0"/>
          <path d="M174.579,21.184h-.864v-8.496h2.496c.416,0,.802.04,1.158.12.355.08.664.21.924.39.26.18.462.414.605.702.145.288.217.64.217,1.056,0,.312-.057.596-.168.852-.112.256-.265.478-.456.666-.192.188-.42.338-.685.45-.264.112-.552.184-.863.216l2.483,4.044h-1.056l-2.353-3.972h-1.439v3.972ZM174.579,16.468h1.5c.696,0,1.231-.126,1.607-.378.376-.252.564-.63.564-1.134,0-.28-.052-.516-.156-.708-.104-.192-.248-.348-.432-.468-.185-.12-.408-.208-.672-.264-.265-.056-.557-.084-.876-.084h-1.536v3.036Z" fill="#efefef" stroke-width="0"/>
          <path d="M181.767,20.416h4.548v.768h-5.412v-8.496h5.269v.768h-4.404v2.916h4.116v.768h-4.116v3.276Z" fill="#efefef" stroke-width="0"/>
        </g>
      </g>
      <polygon points="57.741 130.284 57.741 129.028 55.831 129.028 55.186 128.603 55.186 89.35 41.052 89.35 41.052 87.422 35.527 87.422 35.527 85.956 33.44 85.956 33.44 84.49 13.538 84.49 13.538 85.956 11.451 85.956 11.451 87.422 5.925 87.422 5.925 89.35 -9.409 89.35 -9.409 353.513 55.186 353.513 55.186 303.009 56.684 303.009 56.684 300.218 55.186 300.218 55.186 287.279 56.684 287.279 56.684 284.488 55.186 284.488 55.186 281.655 57.572 281.655 57.572 253.324 55.186 253.324 55.186 244.218 57.741 244.218 57.741 241.793 55.186 241.793 55.186 232.66 57.741 232.66 57.741 230.236 55.186 230.236 55.186 220.876 57.741 220.876 57.741 218.452 55.186 218.452 55.186 209.262 57.741 209.262 57.741 206.837 55.186 206.837 55.186 197.647 57.741 197.647 57.741 195.223 55.186 195.223 55.186 185.863 57.741 185.863 57.741 183.439 55.186 183.439 55.186 174.418 57.741 174.418 57.741 148.942 59.094 147.975 59.094 131.174 57.741 130.284" fill="#0a0a0a" stroke-width="0"/>
      <g id="Scale">
        <g>
          <path d="M36.234,144.198v182.269h-4.008v-182.269h4.008M36.937,143.496h-5.413v183.673h5.413v-183.673h0Z" fill="#fff" stroke-width="0"/>
          <rect x="31.525" y="296.557" width="2.706" height="30.612" fill="#fff" stroke-width="0"/>
          <rect x="34.231" y="265.945" width="2.706" height="30.612" fill="#fff" stroke-width="0"/>
          <polygon points="31.525 204.72 31.525 235.333 31.525 265.945 34.231 265.945 34.231 235.333 34.231 204.72 31.525 204.72" fill="#fff" fill-rule="evenodd" stroke-width="0"/>
          <polygon points="34.231 143.496 34.231 174.108 34.231 204.72 36.937 204.72 36.937 174.108 36.937 143.496 34.231 143.496" fill="#fff" fill-rule="evenodd" stroke-width="0"/>
        </g>
        <path d="M19.409,327.174c0-.439.108-.807.325-1.103.216-.296.5-.534.85-.713s.748-.308,1.195-.384c.446-.077.899-.115,1.359-.115s.912.038,1.355.115.84.205,1.189.384c.351.18.632.417.846.713.213.296.319.664.319,1.103,0,.446-.106.817-.319,1.113-.214.296-.495.534-.846.713-.35.18-.746.306-1.189.379-.443.073-.896.109-1.355.109s-.913-.037-1.359-.109c-.447-.073-.846-.2-1.195-.379s-.634-.417-.85-.713c-.217-.296-.325-.667-.325-1.113ZM20.019,327.174c0,.314.097.575.29.783.193.207.44.371.74.491.3.121.635.204,1.005.251s.732.07,1.085.07.714-.023,1.08-.07c.367-.047.698-.13.995-.251.297-.12.54-.284.73-.491.189-.208.284-.468.284-.783,0-.308-.095-.565-.284-.772-.19-.207-.434-.371-.73-.491-.297-.121-.628-.206-.995-.256-.366-.05-.727-.076-1.08-.076s-.715.025-1.085.076c-.37.05-.705.135-1.005.256-.3.12-.547.284-.74.491-.193.208-.29.465-.29.772Z" fill="#fff" stroke-width="0"/>
        <g>
          <path d="M26.669,298.558v.72h-6.19l1.091,1.28-.5.44-1.48-1.8v-.64h7.08Z" fill="#fff" stroke-width="0"/>
          <path d="M19.409,293.877c0-.439.108-.807.325-1.103.216-.296.5-.534.85-.713s.748-.308,1.195-.384c.446-.077.899-.115,1.359-.115s.912.038,1.355.115.84.205,1.189.384c.351.18.632.417.846.713.213.296.319.664.319,1.103,0,.446-.106.817-.319,1.113-.214.296-.495.534-.846.713-.35.18-.746.306-1.189.379-.443.073-.896.109-1.355.109s-.913-.037-1.359-.109c-.447-.073-.846-.2-1.195-.379s-.634-.417-.85-.713c-.217-.296-.325-.667-.325-1.113ZM20.019,293.877c0,.314.097.575.29.783.193.207.44.371.74.491.3.121.635.204,1.005.251s.732.07,1.085.07.714-.023,1.08-.07c.367-.047.698-.13.995-.251.297-.12.54-.284.73-.491.189-.208.284-.468.284-.783,0-.308-.095-.565-.284-.772-.19-.207-.434-.371-.73-.491-.297-.121-.628-.206-.995-.256-.366-.05-.727-.076-1.08-.076s-.715.025-1.085.076c-.37.05-.705.135-1.005.256-.3.12-.547.284-.74.491-.193.208-.29.465-.29.772Z" fill="#fff" stroke-width="0"/>
        </g>
        <g>
          <path d="M26.668,266.668v4.52h-.75l-2.93-2.9c-.106-.106-.222-.211-.346-.315-.123-.103-.251-.195-.385-.275-.133-.08-.274-.143-.425-.19-.15-.046-.305-.07-.465-.07-.207,0-.394.037-.561.11-.166.073-.308.175-.425.305-.116.13-.206.28-.27.45s-.096.349-.096.535c0,.38.119.7.355.96.236.26.538.427.905.5l-.141.71c-.246-.046-.477-.135-.689-.265-.214-.13-.396-.29-.55-.48s-.273-.405-.36-.645c-.087-.24-.13-.5-.13-.78,0-.287.041-.559.125-.815.083-.257.206-.481.37-.672.163-.192.366-.345.609-.46.244-.115.525-.173.846-.173.227,0,.437.032.63.095.193.063.376.146.55.25.173.103.338.225.495.365.156.14.312.287.465.44l2.53,2.55v-3.75h.64Z" fill="#fff" stroke-width="0"/>
          <path d="M19.408,263.096c0-.439.108-.807.325-1.103.216-.296.5-.534.85-.713s.748-.308,1.195-.384c.446-.077.899-.115,1.359-.115s.912.038,1.355.115.84.205,1.189.384c.351.18.632.417.846.713.213.296.319.664.319,1.103,0,.446-.106.817-.319,1.113-.214.296-.495.534-.846.713-.35.18-.746.306-1.189.379-.443.073-.896.109-1.355.109s-.913-.037-1.359-.109c-.447-.073-.846-.2-1.195-.379s-.634-.417-.85-.713c-.217-.296-.325-.667-.325-1.113ZM20.018,263.096c0,.314.097.575.29.783.193.207.44.371.74.491.3.121.635.204,1.005.251s.732.07,1.085.07.714-.023,1.08-.07c.367-.047.698-.13.995-.251.297-.12.54-.284.73-.491.189-.208.284-.468.284-.783,0-.308-.095-.565-.284-.772-.19-.207-.434-.371-.73-.491-.297-.121-.628-.206-.995-.256-.366-.05-.727-.076-1.08-.076s-.715.025-1.085.076c-.37.05-.705.135-1.005.256-.3.12-.547.284-.74.491-.193.208-.29.465-.29.772Z" fill="#fff" stroke-width="0"/>
        </g>
        <g>
          <path d="M24.318,206.225v-1.04h.64v1.04h1.71v.7h-1.71v3.24h-.7l-4.67-3v-.94h4.73ZM20.398,206.925v.02l3.92,2.47v-2.49h-3.92Z" fill="#fff" stroke-width="0"/>
          <path d="M19.408,201.757c0-.439.108-.807.325-1.103.216-.296.5-.534.85-.713s.748-.308,1.195-.384c.446-.077.899-.115,1.359-.115s.912.038,1.355.115.84.205,1.189.384c.351.18.632.417.846.713.213.296.319.664.319,1.103,0,.446-.106.817-.319,1.113-.214.296-.495.534-.846.713-.35.18-.746.306-1.189.379-.443.073-.896.109-1.355.109s-.913-.037-1.359-.109c-.447-.073-.846-.2-1.195-.379s-.634-.417-.85-.713c-.217-.296-.325-.667-.325-1.113ZM20.018,201.757c0,.314.097.575.29.783.193.207.44.371.74.491.3.121.635.204,1.005.251s.732.07,1.085.07.714-.023,1.08-.07c.367-.047.698-.13.995-.251.297-.12.54-.284.73-.491.189-.208.284-.468.284-.783,0-.308-.095-.565-.284-.772-.19-.207-.434-.371-.73-.491-.297-.121-.628-.206-.995-.256-.366-.05-.727-.076-1.08-.076s-.715.025-1.085.076c-.37.05-.705.135-1.005.256-.3.12-.547.284-.74.491-.193.208-.29.465-.29.772Z" fill="#fff" stroke-width="0"/>
        </g>
        <g>
          <path d="M22.679,147.3l.021-.02c-.08-.107-.144-.257-.19-.45s-.07-.38-.07-.56c0-.307.054-.591.16-.855.107-.263.255-.492.445-.685s.42-.345.69-.455c.27-.11.564-.165.885-.165.333,0,.637.057.91.17s.507.273.699.48c.194.207.346.45.455.73.11.28.165.586.165.92s-.055.64-.165.92c-.109.28-.261.523-.455.73-.192.207-.426.367-.699.48s-.577.17-.91.17c-.367,0-.707-.063-1.021-.19-.312-.126-.613-.276-.899-.45l-3.11-1.93v-.83l3.09,1.99ZM24.619,147.99c.233,0,.448-.039.645-.115.197-.077.367-.185.511-.325.143-.14.256-.307.34-.5.083-.193.125-.407.125-.64s-.042-.447-.125-.64c-.084-.193-.197-.36-.34-.5-.144-.14-.313-.248-.511-.325-.196-.076-.411-.115-.645-.115-.227,0-.438.037-.635.11-.197.074-.367.179-.511.315-.143.137-.255.304-.335.5-.08.197-.12.415-.12.655s.04.458.12.655c.08.197.192.364.335.5.144.137.313.242.511.315.196.074.408.11.635.11Z" fill="#fff" stroke-width="0"/>
          <path d="M19.409,140.584c0-.439.108-.807.325-1.103.216-.296.5-.534.85-.713s.748-.308,1.195-.384c.446-.077.899-.115,1.359-.115s.912.038,1.355.115.84.205,1.189.384c.351.18.632.417.846.713.213.296.319.664.319,1.103,0,.446-.106.817-.319,1.113-.214.296-.495.534-.846.713-.35.18-.746.306-1.189.379-.443.073-.896.109-1.355.109s-.913-.037-1.359-.109c-.447-.073-.846-.2-1.195-.379s-.634-.417-.85-.713c-.217-.296-.325-.667-.325-1.113ZM20.019,140.584c0,.314.097.575.29.783.193.207.44.371.74.491.3.121.635.204,1.005.251s.732.07,1.085.07.714-.023,1.08-.07c.367-.047.698-.13.995-.251.297-.12.54-.284.73-.491.189-.208.284-.468.284-.783,0-.308-.095-.565-.284-.772-.19-.207-.434-.371-.73-.491-.297-.121-.628-.206-.995-.256-.366-.05-.727-.076-1.08-.076s-.715.025-1.085.076c-.37.05-.705.135-1.005.256-.3.12-.547.284-.74.491-.193.208-.29.465-.29.772Z" fill="#fff" stroke-width="0"/>
        </g>
        <g>
          <path d="M32.055,133.797c-.17-.276-.255-.585-.255-.925,0-.126.014-.258.04-.395s.078-.27.154-.4c.077-.13.179-.25.306-.36.127-.11.29-.205.49-.285-.32-.16-.565-.378-.735-.655-.17-.276-.255-.605-.255-.985,0-.593.177-1.039.53-1.335.353-.297.819-.445,1.399-.445h2.87v.68h-2.59c-.493,0-.891.092-1.19.275-.3.184-.45.495-.45.935,0,.247.051.455.15.625s.231.307.396.41c.163.104.348.178.555.225.207.046.42.07.64.07h2.49v.68h-2.73c-.227,0-.433.017-.619.05-.187.034-.346.092-.476.175-.13.083-.229.199-.3.345s-.105.333-.105.56c0,.16.037.322.11.485.073.164.186.31.335.44.15.13.34.235.57.315.229.08.502.12.814.12h2.4v.68h-3.65c-.126,0-.29.003-.489.01-.2.007-.38.017-.54.03v-.65c.126-.014.267-.023.42-.03.153-.006.279-.01.38-.01v-.02c-.273-.133-.495-.338-.665-.615Z" fill="#fff" stroke-width="0"/>
          <path d="M34.119,121.922h.15c.054,0,.11.003.17.01v3.88c.233-.006.453-.053.66-.14.207-.086.387-.207.54-.36s.275-.333.365-.54.135-.43.135-.67c0-.354-.082-.658-.245-.915-.163-.256-.352-.452-.564-.585l.399-.51c.354.28.606.589.76.925s.23.698.23,1.085c0,.347-.062.668-.186.965-.123.297-.295.552-.515.765s-.479.382-.78.505c-.3.124-.626.185-.979.185s-.68-.06-.98-.18c-.3-.12-.56-.286-.779-.5-.221-.213-.392-.463-.516-.75-.123-.286-.185-.596-.185-.93,0-.367.062-.69.185-.97.124-.28.29-.513.5-.7s.455-.329.735-.425c.28-.096.58-.145.899-.145ZM33.899,122.611c-.439.02-.805.162-1.095.425s-.436.638-.436,1.125c0,.227.042.437.125.63.084.193.197.363.341.51.144.146.307.263.489.35.184.087.375.137.575.15v-3.19Z" fill="#fff" stroke-width="0"/>
          <path d="M32.489,118.234v1.32h2.73c.173,0,.316-.017.43-.05.113-.033.202-.082.266-.145.063-.063.106-.139.13-.225.023-.087.035-.18.035-.28,0-.093-.014-.191-.04-.295-.027-.103-.063-.202-.11-.295l.59-.03c.047.12.082.245.105.375.022.13.034.271.034.425,0,.126-.017.26-.05.4s-.097.27-.189.39c-.094.12-.221.218-.38.295-.16.077-.37.115-.631.115h-2.92v.97h-.569v-.97h-1.32v-.68h1.32v-1.32h.569Z" fill="#fff" stroke-width="0"/>
          <path d="M34.119,112.878h.15c.054,0,.11.003.17.01v3.88c.233-.006.453-.053.66-.14.207-.086.387-.207.54-.36s.275-.333.365-.54.135-.43.135-.67c0-.354-.082-.658-.245-.915-.163-.256-.352-.452-.564-.585l.399-.51c.354.28.606.589.76.925s.23.698.23,1.085c0,.347-.062.668-.186.965-.123.297-.295.552-.515.765s-.479.382-.78.505c-.3.124-.626.185-.979.185s-.68-.06-.98-.18c-.3-.12-.56-.286-.779-.5-.221-.213-.392-.463-.516-.75-.123-.286-.185-.596-.185-.93,0-.367.062-.69.185-.97.124-.28.29-.513.5-.7s.455-.329.735-.425c.28-.096.58-.145.899-.145ZM33.899,113.568c-.439.02-.805.162-1.095.425s-.436.638-.436,1.125c0,.227.042.437.125.63.084.193.197.363.341.51.144.146.307.263.489.35.184.087.375.137.575.15v-3.19Z" fill="#fff" stroke-width="0"/>
          <path d="M32.46,111.375c-.2.007-.38.017-.54.03v-.65c.126-.014.267-.023.42-.03.153-.006.279-.01.38-.01v-.02c-.273-.133-.495-.333-.665-.6s-.255-.566-.255-.9c0-.087.003-.165.01-.235.007-.07.021-.142.04-.215l.65.09c-.014.04-.027.107-.04.2-.014.093-.021.187-.021.28,0,.18.033.354.1.52.067.167.172.312.314.435.144.124.326.224.549.3s.49.115.803.115h2.395v.68h-3.65c-.126,0-.29.003-.489.01Z" fill="#fff" stroke-width="0"/>
          <path d="M33.029,105.041c-.193.1-.352.252-.475.455-.123.204-.186.435-.186.695,0,.12.014.24.04.36.027.12.07.227.131.32.06.093.137.168.229.225.094.057.203.085.33.085.22,0,.389-.09.505-.27.117-.18.215-.463.295-.85.113-.553.278-.961.495-1.225.217-.263.509-.395.875-.395.267,0,.492.052.675.155.184.104.334.238.45.405.117.167.2.355.25.565.05.21.075.422.075.635,0,.354-.073.697-.22,1.03-.146.333-.377.607-.69.82l-.4-.54c.207-.12.381-.297.521-.53.14-.233.21-.49.21-.77,0-.146-.014-.286-.04-.42-.026-.133-.073-.25-.14-.35-.067-.1-.152-.18-.255-.24-.104-.06-.232-.09-.386-.09-.246,0-.432.118-.555.355-.123.236-.238.578-.345,1.025-.033.14-.075.289-.125.445-.051.157-.124.302-.221.435-.096.133-.218.244-.364.33-.146.087-.33.13-.551.13-.239,0-.444-.046-.614-.14-.17-.093-.311-.218-.42-.375-.11-.156-.192-.335-.245-.535-.054-.2-.08-.407-.08-.62,0-.327.073-.643.22-.95.146-.306.354-.536.62-.69l.39.52Z" fill="#fff" stroke-width="0"/>
        </g>
      </g>
      <g opacity=".2">
        <g>
          <path d="M81.224,592.504l1.854,1.691c.34.31.642.667.905,1.07s.44.833.53,1.289c.089.456.068.929-.062,1.419-.131.489-.421.981-.87,1.473-.418.458-.863.773-1.337.946s-.944.239-1.413.199c-.47-.04-.923-.167-1.359-.38s-.825-.475-1.165-.785l-1.854-1.691,4.771-5.231ZM78.9,598.479c.241.22.508.412.802.576.292.164.598.266.916.308s.645.003.979-.116c.335-.119.663-.356.987-.71.341-.375.558-.736.65-1.084.093-.349.103-.679.029-.989-.073-.311-.208-.601-.404-.87-.197-.269-.416-.514-.657-.734l-.775-.708-3.303,3.62.776.708Z" fill="#fff" stroke-width="0"/>
          <path d="M86.847,597.504l1.961,1.485c.267.201.503.424.71.669.208.245.36.504.458.779.098.274.126.559.086.855s-.173.593-.398.89c-.31.41-.678.656-1.104.738-.427.083-.874.019-1.341-.193l-.389,3.645-1.212-.917.504-3.382-.733-.555-1.812,2.392-1.004-.761,4.273-5.645ZM86.831,601.318c.144.109.295.207.455.294.159.088.318.146.478.173.158.028.315.016.473-.037.157-.053.3-.164.429-.334.116-.154.178-.306.183-.457.006-.15-.022-.295-.085-.434-.062-.139-.152-.271-.271-.395-.12-.124-.243-.234-.371-.331l-.908-.688-1.202,1.586.821.622Z" fill="#fff" stroke-width="0"/>
          <path d="M94.194,607.976c-.227.362-.492.649-.799.863-.307.213-.631.354-.973.424s-.694.067-1.058-.006c-.362-.074-.717-.218-1.062-.434-.345-.216-.63-.471-.854-.764-.226-.294-.383-.611-.474-.951-.09-.339-.105-.693-.045-1.06.061-.367.204-.731.43-1.093l2.375-3.799,1.068.668-2.348,3.756c-.11.175-.196.363-.259.564s-.084.401-.063.603c.02.201.089.398.208.59.12.193.307.369.562.527.254.159.494.25.72.273.225.023.433,0,.622-.071s.36-.178.514-.322c.152-.144.284-.304.394-.479l2.348-3.757,1.068.668-2.374,3.799Z" fill="#fff" stroke-width="0"/>
          <path d="M97.73,604.88l1.775.854-.521,5.33.026.013,3.82-3.744,1.785.858-3.069,6.38-1.127-.542,2.467-5.127-.018-.009-4.404,4.196-.793-.381.556-6.047-.018-.009-2.467,5.128-1.081-.521,3.068-6.38Z" fill="#fff" stroke-width="0"/>
          <path d="M105.96,608.692l1.19.415-.942,2.7,3.125,1.09.942-2.7,1.189.415-2.332,6.685-1.189-.415,1.034-2.965-3.125-1.09-1.035,2.965-1.189-.415,2.332-6.685Z" fill="#fff" stroke-width="0"/>
          <path d="M112.86,610.997l4.55,1.137-.267,1.067-3.327-.831-.437,1.746,3.153.788-.257,1.029-3.153-.788-.484,1.94,3.502.875-.271,1.087-4.725-1.181,1.716-6.869Z" fill="#fff" stroke-width="0"/>
          <path d="M118.754,612.391l1.242.213-1.007,5.875,2.967.508-.189,1.104-4.209-.721,1.196-6.979Z" fill="#fff" stroke-width="0"/>
          <path d="M123.729,613.193l1.253.129-.613,5.928,2.994.31-.115,1.114-4.248-.44.729-7.042Z" fill="#fff" stroke-width="0"/>
          <path d="M128.753,613.675l4.688.149-.035,1.1-3.429-.109-.057,1.799,3.248.104-.033,1.059-3.249-.103-.063,1.999,3.608.115-.035,1.119-4.868-.154.226-7.077Z" fill="#fff" stroke-width="0"/>
          <path d="M134.775,613.814l2.457-.111c.333-.015.658.005.975.061.315.056.599.158.85.307.25.149.454.35.612.603s.246.566.263.939c.023.513-.103.938-.377,1.273-.275.336-.66.572-1.154.708l2.029,3.051-1.518.069-1.774-2.923-.919.042.136,2.997-1.259.057-.32-7.073ZM137.201,616.757c.18-.008.358-.03.537-.064s.338-.092.479-.172c.14-.08.253-.19.34-.331s.126-.318.116-.531c-.009-.193-.06-.35-.151-.469s-.206-.212-.343-.28-.29-.11-.462-.129c-.171-.019-.336-.025-.496-.018l-1.139.052.09,1.988,1.029-.046Z" fill="#fff" stroke-width="0"/>
          <path d="M143.297,613.21l4.517-.696.168,1.087-3.271.504.296,1.917,3.084-.476.161,1.048-3.084.475.455,2.945-1.246.192-1.079-6.998Z" fill="#fff" stroke-width="0"/>
          <path d="M149.277,615.869c-.138-.549-.171-1.069-.098-1.558s.234-.93.483-1.322c.248-.393.576-.729.983-1.01s.876-.488,1.406-.621c.536-.135,1.053-.175,1.547-.12.495.055.946.196,1.354.423.408.228.76.54,1.055.937.296.396.513.87.65,1.419.135.537.165,1.05.093,1.539-.073.489-.234.935-.484,1.338-.249.403-.578.75-.986,1.042-.408.292-.88.504-1.417.639-.53.133-1.042.167-1.536.102s-.944-.217-1.352-.455c-.407-.238-.758-.556-1.054-.953-.295-.396-.51-.863-.645-1.4ZM150.605,615.536c.093.369.234.692.425.971.189.279.419.505.686.678.267.174.56.288.88.341.318.054.653.037,1.002-.051.35-.087.654-.231.913-.43.26-.199.466-.438.619-.717.153-.279.248-.586.284-.922s.008-.688-.085-1.056c-.089-.356-.229-.671-.418-.947s-.416-.5-.68-.675-.557-.29-.881-.346c-.323-.056-.662-.04-1.019.049-.355.089-.661.235-.916.436-.255.202-.458.441-.608.72s-.243.583-.28.916-.011.676.078,1.032Z" fill="#fff" stroke-width="0"/>
          <path d="M163.643,612.507c.146.401.21.788.19,1.16-.02.373-.107.715-.263,1.028s-.373.589-.654.831c-.28.241-.612.432-.994.572s-.758.208-1.128.205-.717-.073-1.041-.21c-.323-.137-.611-.342-.864-.615-.252-.273-.452-.61-.599-1.011l-1.54-4.207,1.184-.433,1.522,4.16c.071.194.167.377.287.55.119.173.265.313.436.421s.369.174.595.198c.225.024.479-.016.76-.119.282-.104.501-.237.658-.4.156-.164.265-.342.326-.535.061-.193.081-.394.062-.603-.021-.209-.065-.411-.137-.605l-1.522-4.16,1.183-.433,1.54,4.207Z" fill="#fff" stroke-width="0"/>
          <path d="M163.384,607.771l1.502-.73,5.276,3.328.018-.008-2.316-4.767,1.133-.551,3.095,6.368-1.438.7-5.413-3.451-.019.009,2.392,4.92-1.134.551-3.095-6.368Z" fill="#fff" stroke-width="0"/>
          <path d="M172.028,604.517l-1.857,1.122-.568-.942,4.793-2.895.568.941-1.857,1.122,3.092,5.119-1.078.651-3.092-5.119Z" fill="#fff" stroke-width="0"/>
          <path d="M176.286,600.452l.887-.633,6.598,3.987-1.172.837-1.479-.935-2.498,1.785.421,1.69-1.147.819-1.609-7.551ZM180.134,603.086l-2.561-1.709.771,2.988,1.79-1.279Z" fill="#fff" stroke-width="0"/>
          <path d="M180.153,597.539l.975-.799,4.489,5.474-.974.799-4.49-5.474Z" fill="#fff" stroke-width="0"/>
          <path d="M182.328,595.798l1.214-1.146,6.031,1.594.015-.014-3.639-3.853.915-.865,4.862,5.147-1.163,1.099-6.199-1.669-.015.014,3.757,3.977-.916.865-4.862-5.147Z" fill="#fff" stroke-width="0"/>
        </g>
      </g>
    </g>
  </g>
</svg>