<svg xmlns="http://www.w3.org/2000/svg" xmlns:xlink="http://www.w3.org/1999/xlink" viewBox="0 0 267.52 694.8"><defs><style>.a,.l,.n,.t,.u,.v{fill:none;}.b{clip-path:url(#a);}.c{fill:#191919;}.d,.q{fill:#fff;}.e{opacity:0.05;}.f{fill:#231f20;}.g,.r{opacity:0.2;}.h{opacity:0.5;}.i,.j{fill:#3f3f3f;}.i,.r,.w{isolation:isolate;}.k{fill-opacity:0.5;}.l{stroke:#7f7f7f;stroke-width:0.52px;}.l,.n,.t,.u,.v{stroke-miterlimit:10;}.m{fill:#7f7f7f;}.n{stroke:#00b1dc;stroke-width:1.5px;}.o{fill:#0c040c;}.p,.q{fill-rule:evenodd;}.s{opacity:0.2;}.t,.u{stroke:#bfbfbf;stroke-width:0.5px;}.t{stroke-dasharray:3.16 5.27;}.v{stroke:#fff;stroke-width:1.3px;}.x{opacity:0.4;}</style><clipPath id="a"><rect class="a" x="0.05" y="0.06" width="267.44" height="694.76"/></clipPath></defs><g class="b"><rect class="c" x="-14.94" y="-12.28" width="287" height="713.33"/><rect class="d" x="125.31" y="62.58" width="16.85" height="368.45"/><path class="d" d="M133.81,426.25A105.77,105.77,0,1,0,239.57,532,105.77,105.77,0,0,0,133.81,426.25Zm0,197.31A91.55,91.55,0,1,1,225.36,532,91.54,91.54,0,0,1,133.81,623.56Z"/><g class="e"><path class="f" d="M133.81,426.25A105.77,105.77,0,1,1,28.05,532,105.76,105.76,0,0,1,133.81,426.25m0,197.31A91.55,91.55,0,1,0,42.26,532a91.54,91.54,0,0,0,91.55,91.54m0-197.81A106.27,106.27,0,1,0,240.07,532,106.38,106.38,0,0,0,133.81,425.75Zm0,197.31a91,91,0,1,1,91.05-91,91.14,91.14,0,0,1-91.05,91Z"/></g><g class="g"><path class="d" d="M76.2,575.07l2.09,2.62a5.07,5.07,0,0,1,.81,1.43,3.82,3.82,0,0,1,.25,1.56,3.69,3.69,0,0,1-.44,1.58,4.5,4.5,0,0,1-1.24,1.46,4,4,0,0,1-1.73.85,3.89,3.89,0,0,1-1.7,0,4.73,4.73,0,0,1-1.52-.64,5.29,5.29,0,0,1-1.18-1.07l-2-2.47Zm-3.92,6.52a5.36,5.36,0,0,0,1,.94,3.09,3.09,0,0,0,1.07.54,2.39,2.39,0,0,0,1.16,0,3,3,0,0,0,1.2-.62,3.24,3.24,0,0,0,.88-1,2.3,2.3,0,0,0,.29-1.08,2.77,2.77,0,0,0-.24-1.1,4.77,4.77,0,0,0-.67-1.1l-.86-1.08-4.5,3.6Z"/><path class="d" d="M81.73,581.8l2.08,2.1a5.81,5.81,0,0,1,.75.92,3.25,3.25,0,0,1,.44,1,2.07,2.07,0,0,1,0,1,2.43,2.43,0,0,1-.66,1,2.36,2.36,0,0,1-1.46.72,2.11,2.11,0,0,1-1.56-.5l-1.08,4.25L78.92,591l1.18-3.93-.78-.79-2.56,2.54-1.06-1.08Zm-.66,4.45.47.44a2.21,2.21,0,0,0,.52.32,1,1,0,0,0,1.14-.28,1,1,0,0,0,.32-.53,1.06,1.06,0,0,0,0-.53,2,2,0,0,0-.29-.5l-.39-.45-.92-.93-1.64,1.62Z"/><path class="d" d="M88.66,595.32a3.37,3.37,0,0,1-1.08.9,3,3,0,0,1-1.22.36,3.05,3.05,0,0,1-1.26-.17,3.78,3.78,0,0,1-1.2-.67,4.18,4.18,0,0,1-.9-1,3.45,3.45,0,0,1-.42-1.2,3.05,3.05,0,0,1,.11-1.27,3.54,3.54,0,0,1,.68-1.24l3.4-4.16,1.17.95-3.37,4.13a2.27,2.27,0,0,0-.34.57,1.58,1.58,0,0,0-.15.69,1.62,1.62,0,0,0,.15.73,1.94,1.94,0,0,0,.59.72,2,2,0,0,0,.82.43,1.73,1.73,0,0,0,.75,0,1.91,1.91,0,0,0,.65-.29,2.6,2.6,0,0,0,.48-.45l3.37-4.12,1.18.95Z"/><path class="d" d="M93.2,592.06l2,1.21L94,599.52,99,595.66l1.94,1.2-4.46,7.23-1.22-.76,3.7-6,0,0L93.08,602l-.9-.56,1.51-7.36h0l-3.71,6-1.22-.76Z"/><path class="d" d="M102.32,597.48l1.38.61-1.36,3.1,3.63,1.6,1.37-3.09,1.38.61-3.44,7.77-1.38-.61,1.51-3.42-3.63-1.61-1.51,3.42-1.38-.61Z"/><path class="d" d="M110.15,600.81l5.37,1.69-.41,1.31-3.93-1.24-.62,2,3.71,1.17-.41,1.31-3.72-1.18-.69,2.2,4.13,1.3-.41,1.31-5.57-1.76Z"/><path class="d" d="M116.9,602.83l1.48.32-1.52,7,3.53.77-.29,1.33-5-1.08Z"/><path class="d" d="M122.68,604l1.5.19-.94,7.07,3.58.48-.18,1.35-5.08-.67Z"/><path class="d" d="M128.5,604.76l5.62.25-.06,1.37-4.11-.19-.1,2.09,3.9.18-.06,1.36-3.9-.18-.11,2.3,4.33.2-.06,1.37-5.84-.27Z"/><path class="d" d="M135.54,605l3-.14a5.77,5.77,0,0,1,1.18.06,3,3,0,0,1,1,.34,2,2,0,0,1,.75.71,2.45,2.45,0,0,1,.32,1.17,2.41,2.41,0,0,1-.44,1.57,2.16,2.16,0,0,1-1.42.83l2.43,3.64-1.82.09-2.14-3.5-1.1.05.17,3.59-1.51.08Zm2.85,3.47c.22,0,.43,0,.65-.06a2.07,2.07,0,0,0,.58-.17,1.11,1.11,0,0,0,.43-.37,1.09,1.09,0,0,0,.13-.66,1.07,1.07,0,0,0-.18-.6,1,1,0,0,0-.43-.32,1.64,1.64,0,0,0-.56-.12,3.9,3.9,0,0,0-.59,0l-1.31.06.11,2.3Z"/><path class="d" d="M146.14,604.14l5.39-1,.25,1.35-3.9.73.41,2.2,3.68-.7.26,1.34-3.68.7.66,3.47-1.49.28Z"/><path class="d" d="M153.26,607.19a5,5,0,0,1-.23-1.87,4.22,4.22,0,0,1,.47-1.64,4.16,4.16,0,0,1,1.09-1.28,5.13,5.13,0,0,1,1.63-.84,4.93,4.93,0,0,1,1.83-.25,3.91,3.91,0,0,1,1.63.43,4.21,4.21,0,0,1,1.31,1.08,5.07,5.07,0,0,1,1.08,3.49,4.18,4.18,0,0,1-.48,1.62,4.24,4.24,0,0,1-1.1,1.3,5,5,0,0,1-1.64.86,4.83,4.83,0,0,1-1.82.23,4.08,4.08,0,0,1-2.92-1.5A4.68,4.68,0,0,1,153.26,607.19Zm1.48-.56a3.83,3.83,0,0,0,.58,1.14,2.9,2.9,0,0,0,.86.78,2.77,2.77,0,0,0,1.07.36,3,3,0,0,0,1.21-.13,3,3,0,0,0,1.08-.58,2.82,2.82,0,0,0,.68-.9,2.85,2.85,0,0,0,.28-1.13,3.81,3.81,0,0,0-.17-1.27,3.5,3.5,0,0,0-.55-1.07,3.06,3.06,0,0,0-.86-.75,2.75,2.75,0,0,0-1.07-.34,2.84,2.84,0,0,0-1.21.13,3,3,0,0,0-1.08.57,2.78,2.78,0,0,0-.68.89,2.94,2.94,0,0,0-.29,1.1A3.6,3.6,0,0,0,154.74,606.63Z"/><path class="d" d="M169.93,602.1a3.5,3.5,0,0,1,.34,1.37,3.06,3.06,0,0,1-.23,1.25,3,3,0,0,1-.7,1,3.84,3.84,0,0,1-1.14.78,3.92,3.92,0,0,1-1.33.35,3.34,3.34,0,0,1-1.27-.16,3.16,3.16,0,0,1-1.09-.66,3.63,3.63,0,0,1-.8-1.15l-2.23-4.9,1.38-.62,2.2,4.85a2.6,2.6,0,0,0,.36.55,1.81,1.81,0,0,0,.55.44,1.58,1.58,0,0,0,.73.19,2,2,0,0,0,.9-.2,1.93,1.93,0,0,0,.75-.55,1.64,1.64,0,0,0,.34-.67,1.7,1.7,0,0,0,0-.71,2.9,2.9,0,0,0-.18-.63l-2.21-4.85,1.38-.63Z"/><path class="d" d="M169,596.55l1.71-1,6.81,3.23h0l-3.3-5.38,1.29-.8,4.44,7.25-1.64,1-7-3.36h0l3.4,5.56-1.29.79Z"/><path class="d" d="M178.92,591.64l-2,1.6-.84-1.08,5.31-4.12.84,1.08-2.06,1.6,4.37,5.63-1.19.92Z"/><path class="d" d="M183.25,586.24l.95-.89,8.48,3.71-1.27,1.18-1.9-.88-2.69,2.52.76,1.94L186.35,595Zm5,2.53-3.32-1.63,1.39,3.44Z"/><path class="d" d="M187.25,582.28l1-1.12,6.27,5.74-1,1.12Z"/><path class="d" d="M189.4,580l1.23-1.59,7.51.62v0l-5-3.87.93-1.19,6.71,5.2-1.17,1.52L191.9,580v0l5.15,4-.93,1.19Z"/><path class="a" d="M207.28,532.16a74.47,74.47,0,0,1-148.94,0"/></g><g class="h"><path d="M80,618.69l-.72-.44,3.14-5.11h0l-1.65.25-.1-.79,2.42-.31.63.38Z"/><path d="M84.23,621.12l-.74-.41,2.88-5.26h0l-1.63.33-.14-.78,2.4-.44.64.36Z"/><path d="M87.78,619a8.23,8.23,0,0,1,.63-1.09,3.86,3.86,0,0,1,.84-.91,2.6,2.6,0,0,1,1-.48,2,2,0,0,1,1.23.2,2,2,0,0,1,.93.83,2.48,2.48,0,0,1,.29,1.11,3.82,3.82,0,0,1-.18,1.23,7.68,7.68,0,0,1-.44,1.17,11.26,11.26,0,0,1-.63,1.09,4.33,4.33,0,0,1-.84.91,2.64,2.64,0,0,1-1.05.48,2,2,0,0,1-1.22-.21,1.9,1.9,0,0,1-.93-.82,2.35,2.35,0,0,1-.29-1.11,4.1,4.1,0,0,1,.17-1.23A8.9,8.9,0,0,1,87.78,619Zm.76.36c-.07.16-.15.33-.23.53a5.64,5.64,0,0,0-.21.62,4.53,4.53,0,0,0-.13.64,2.13,2.13,0,0,0,0,.62,1.3,1.3,0,0,0,.22.53,1.11,1.11,0,0,0,.48.38,1.13,1.13,0,0,0,.6.13,1.39,1.39,0,0,0,.55-.16,2.16,2.16,0,0,0,.49-.38,5.17,5.17,0,0,0,.42-.51,6.26,6.26,0,0,0,.34-.55l.27-.51c.07-.16.15-.33.23-.53a6.45,6.45,0,0,0,.21-.62,4.53,4.53,0,0,0,.13-.64,2.13,2.13,0,0,0,0-.62,1.46,1.46,0,0,0-.22-.53,1.18,1.18,0,0,0-.48-.39,1.12,1.12,0,0,0-.6-.12,1.3,1.3,0,0,0-.55.16,2,2,0,0,0-.49.38,5,5,0,0,0-.42.5,5.46,5.46,0,0,0-.34.55A5.27,5.27,0,0,0,88.54,619.37Z"/><path d="M97.31,618.86l.73.28-2.75,7-.73-.28Z"/><path d="M98.24,623a2.13,2.13,0,0,1,1-.24,3.14,3.14,0,0,1,1,.16,2,2,0,0,1,1.25,1,2.07,2.07,0,0,1,0,1.56l-.65,1.9-.12.4c0,.14-.06.27-.08.39l-.71-.24a1.59,1.59,0,0,1,.08-.35l.1-.33h0a1.77,1.77,0,0,1-1.73.28,2.5,2.5,0,0,1-.61-.31,1.6,1.6,0,0,1-.43-.43,1.28,1.28,0,0,1-.21-.53,1.17,1.17,0,0,1,.06-.61,1.35,1.35,0,0,1,.58-.77,1.92,1.92,0,0,1,.86-.22,3.78,3.78,0,0,1,1,.13,8.08,8.08,0,0,1,.9.27l.29.09,0-.13a1,1,0,0,0,0-.83,1.24,1.24,0,0,0-.72-.52,2.35,2.35,0,0,0-.74-.13,1.86,1.86,0,0,0-.74.16Zm1.54,2.46a3,3,0,0,0-1.19-.19.72.72,0,0,0-.64.51.66.66,0,0,0,.08.69,1.26,1.26,0,0,0,.63.41,1.29,1.29,0,0,0,.6.09,1.33,1.33,0,0,0,.5-.15,1.26,1.26,0,0,0,.39-.34,1.87,1.87,0,0,0,.27-.48l.1-.28Z"/><path d="M103.46,624.08l.75.21L104,625h0a2.48,2.48,0,0,1,.88-.36,2,2,0,0,1,1,0,2.54,2.54,0,0,1,.92.44,2.25,2.25,0,0,1,.6.71,2.39,2.39,0,0,1,.28.88,2.85,2.85,0,0,1-.09,1,2.65,2.65,0,0,1-.44.89,2.53,2.53,0,0,1-.69.62,2.27,2.27,0,0,1-.85.3,2.5,2.5,0,0,1-.94-.07,2.16,2.16,0,0,1-1-.57,1.76,1.76,0,0,1-.49-.83h0l-.83,3-.75-.21Zm.12,2.47a1.85,1.85,0,0,0-.07.69,1.47,1.47,0,0,0,.17.62,1.61,1.61,0,0,0,.41.5,1.72,1.72,0,0,0,.62.31,1.65,1.65,0,0,0,1.3-.16,1.64,1.64,0,0,0,.47-.44,2,2,0,0,0,.3-.63,2.08,2.08,0,0,0,.07-.69,1.84,1.84,0,0,0-.17-.62,1.64,1.64,0,0,0-.41-.5,1.69,1.69,0,0,0-.63-.31,1.65,1.65,0,0,0-.69-.06,1.86,1.86,0,0,0-.61.22,1.64,1.64,0,0,0-.47.44A1.82,1.82,0,0,0,103.58,626.55Z"/><path d="M108.84,629.09a1.76,1.76,0,0,0,.39.56,1.28,1.28,0,0,0,.64.31,1.5,1.5,0,0,0,.37,0,1,1,0,0,0,.35,0,.66.66,0,0,0,.28-.17.64.64,0,0,0,.15-.62.83.83,0,0,0-.18-.25,1.55,1.55,0,0,0-.28-.2l-.34-.17a6.27,6.27,0,0,1-.58-.29,1.9,1.9,0,0,1-.46-.34,1.18,1.18,0,0,1-.28-.45,1.21,1.21,0,0,1,0-.6,1.19,1.19,0,0,1,.28-.56,1.37,1.37,0,0,1,.48-.33,2,2,0,0,1,.6-.13,2.38,2.38,0,0,1,.65,0,2.06,2.06,0,0,1,.86.4,1.47,1.47,0,0,1,.51.78l-.73.27a1.22,1.22,0,0,0-.3-.48,1.15,1.15,0,0,0-.55-.28,1.66,1.66,0,0,0-.32,0,1.07,1.07,0,0,0-.32.05.82.82,0,0,0-.25.16.56.56,0,0,0-.15.26.43.43,0,0,0,0,.27.79.79,0,0,0,.22.23,1.82,1.82,0,0,0,.34.22,3.91,3.91,0,0,0,.41.2,3.45,3.45,0,0,1,.54.28,1.63,1.63,0,0,1,.42.35,1.07,1.07,0,0,1,.24.46,1.4,1.4,0,0,1,0,.61,1.33,1.33,0,0,1-.3.62,1.43,1.43,0,0,1-.52.36,2.2,2.2,0,0,1-.64.12,3.08,3.08,0,0,1-.68-.07,2.76,2.76,0,0,1-1-.41,1.84,1.84,0,0,1-.61-.84Z"/><path d="M115.77,629.37a2.54,2.54,0,0,1,.33-1,2.58,2.58,0,0,1,.62-.69,2.5,2.5,0,0,1,.86-.39,2.83,2.83,0,0,1,1,0,2.77,2.77,0,0,1,1,.32,2.34,2.34,0,0,1,.71.61,2.53,2.53,0,0,1,.41.84,2.66,2.66,0,0,1,0,1,2.49,2.49,0,0,1-.33,1,2.32,2.32,0,0,1-.62.7,2.45,2.45,0,0,1-.85.39,2.67,2.67,0,0,1-1,0,2.71,2.71,0,0,1-1-.31,2.36,2.36,0,0,1-.71-.61,2.32,2.32,0,0,1-.41-.85A2.6,2.6,0,0,1,115.77,629.37Zm.83.12a2.26,2.26,0,0,0,0,.69,1.5,1.5,0,0,0,.26.59,1.61,1.61,0,0,0,.46.44,1.57,1.57,0,0,0,.66.23,1.62,1.62,0,0,0,.7,0,1.54,1.54,0,0,0,.57-.29,1.43,1.43,0,0,0,.41-.5,1.71,1.71,0,0,0,.21-.66,1.77,1.77,0,0,0,0-.69,1.49,1.49,0,0,0-.25-.59,1.41,1.41,0,0,0-.47-.44,1.85,1.85,0,0,0-1.35-.2,1.53,1.53,0,0,0-.58.3,1.78,1.78,0,0,0-.41.49A2.29,2.29,0,0,0,116.6,629.49Z"/><path d="M122.59,628.56l-1-.1.07-.66,1,.1.11-1a3.5,3.5,0,0,1,.15-.77,1.77,1.77,0,0,1,.33-.59,1.34,1.34,0,0,1,.56-.35,2,2,0,0,1,.8-.07l.31.06a1.14,1.14,0,0,1,.27.12l-.17.69a1.38,1.38,0,0,0-.52-.15.88.88,0,0,0-.48.06.59.59,0,0,0-.28.26,1.28,1.28,0,0,0-.15.43c0,.17,0,.36-.06.56l-.09.87,1.13.12-.06.65-1.13-.11-.39,4-.78-.07Z"/><path d="M130.87,633.1l-.84,0,.19-6h0l-1.31,1-.48-.62,2-1.48.73,0Z"/><path d="M136,630.15l0,0a1.47,1.47,0,0,1-.46.17,3,3,0,0,1-.48.06,2.43,2.43,0,0,1-.86-.15,2.08,2.08,0,0,1-.69-.44,2.21,2.21,0,0,1-.45-.7,2.57,2.57,0,0,1-.18-.9,2.27,2.27,0,0,1,.17-.93,2.1,2.1,0,0,1,.49-.71,2.34,2.34,0,0,1,.75-.45,3.13,3.13,0,0,1,.93-.17,3.19,3.19,0,0,1,.94.14,2.46,2.46,0,0,1,.76.43,1.94,1.94,0,0,1,.51.69,2.27,2.27,0,0,1,.19.93,2.64,2.64,0,0,1,0,.57,2.83,2.83,0,0,1-.13.5,4,4,0,0,1-.21.47l-.26.46-1.83,3h-1Zm-.75-.52a1.73,1.73,0,0,0,.6-.11,1.52,1.52,0,0,0,.48-.31,1.38,1.38,0,0,0,.31-.47,1.44,1.44,0,0,0,.11-.63,1.41,1.41,0,0,0-.13-.62,1.36,1.36,0,0,0-.82-.76,1.68,1.68,0,0,0-.6-.1,1.73,1.73,0,0,0-.6.12,1.37,1.37,0,0,0-.48.31,1.49,1.49,0,0,0-.32.48,1.66,1.66,0,0,0,0,1.24,1.45,1.45,0,0,0,.34.46,1.35,1.35,0,0,0,.49.3A1.64,1.64,0,0,0,135.27,629.63Z"/><path d="M138.59,629.5a8.76,8.76,0,0,1,0-1.25,3.64,3.64,0,0,1,.29-1.21,2.42,2.42,0,0,1,.67-.93,2,2,0,0,1,1.17-.43A2,2,0,0,1,142,626a2.45,2.45,0,0,1,.8.83,4.18,4.18,0,0,1,.45,1.15,9.51,9.51,0,0,1,.18,1.24,8.87,8.87,0,0,1,0,1.26,4.14,4.14,0,0,1-.29,1.2,2.44,2.44,0,0,1-.68.93,2.2,2.2,0,0,1-2.38.16,2.39,2.39,0,0,1-.79-.82,3.69,3.69,0,0,1-.45-1.16A8.12,8.12,0,0,1,138.59,629.5Zm.84-.06c0,.17,0,.37.06.58s.07.42.12.64a4.48,4.48,0,0,0,.2.62,2.14,2.14,0,0,0,.32.53,1.55,1.55,0,0,0,.45.36,1.17,1.17,0,0,0,.61.1,1.21,1.21,0,0,0,.59-.19,1.18,1.18,0,0,0,.39-.41,2.1,2.1,0,0,0,.25-.57,4.5,4.5,0,0,0,.11-.64c0-.22,0-.44,0-.65a5.24,5.24,0,0,0,0-.58c0-.17,0-.37-.06-.58a5,5,0,0,0-.11-.64,4.52,4.52,0,0,0-.21-.62,2.11,2.11,0,0,0-.31-.53,1.37,1.37,0,0,0-.45-.35,1.28,1.28,0,0,0-1.2.08,1.42,1.42,0,0,0-.4.41,2.08,2.08,0,0,0-.24.57,3.44,3.44,0,0,0-.12.64c0,.22,0,.44,0,.65S139.42,629.27,139.43,629.44Z"/><path d="M145.42,631.35a.61.61,0,0,1,.44.13.56.56,0,0,1,.22.41.55.55,0,0,1-.13.44.62.62,0,0,1-.4.22.64.64,0,0,1-.43-.13.55.55,0,0,1-.23-.4.6.6,0,0,1,.13-.45A.62.62,0,0,1,145.42,631.35Z"/><path d="M150.73,625.44l-1.88,6.64-.94.14,1.93-6.65-3.38.5-.12-.78,4.28-.62Z"/><path d="M152.06,628a8.24,8.24,0,0,1-.14-1.25,3.79,3.79,0,0,1,.12-1.23,2.49,2.49,0,0,1,.55-1,2,2,0,0,1,1.1-.58,2,2,0,0,1,1.24.11,2.47,2.47,0,0,1,.9.71,4.22,4.22,0,0,1,.59,1.09,7.43,7.43,0,0,1,.35,1.21,8.09,8.09,0,0,1,.15,1.24,3.88,3.88,0,0,1-.13,1.24,2.56,2.56,0,0,1-.55,1,2,2,0,0,1-1.1.57,2,2,0,0,1-1.24-.1,2.39,2.39,0,0,1-.89-.72,3.82,3.82,0,0,1-.6-1.09A8.46,8.46,0,0,1,152.06,628Zm.83-.17c0,.17.08.36.13.57s.12.41.2.61a3.59,3.59,0,0,0,.29.59,1.84,1.84,0,0,0,.38.49,1.36,1.36,0,0,0,.49.29,1.17,1.17,0,0,0,.62,0,1.12,1.12,0,0,0,.56-.26,1.45,1.45,0,0,0,.34-.46,1.91,1.91,0,0,0,.16-.59,4.87,4.87,0,0,0,0-.66c0-.22,0-.43-.06-.64s-.06-.41-.09-.58-.08-.35-.14-.56a5,5,0,0,0-.2-.62,4.53,4.53,0,0,0-.28-.59A2.06,2.06,0,0,0,155,625a1.42,1.42,0,0,0-.5-.3,1.13,1.13,0,0,0-.61,0,1.17,1.17,0,0,0-.56.26,1.28,1.28,0,0,0-.34.46,1.9,1.9,0,0,0-.17.6,3.5,3.5,0,0,0,0,.65c0,.22,0,.44,0,.65S152.85,627.68,152.89,627.85Z"/><path d="M158.17,626.74q-.09-.3-.18-.57c-.06-.17-.12-.34-.16-.48l.71-.2.12.36c0,.12.08.24.11.37h0a1.14,1.14,0,0,1,.13-.38,1.72,1.72,0,0,1,.25-.37,2.33,2.33,0,0,1,.38-.31,2.05,2.05,0,0,1,.5-.22,2,2,0,0,1,.64-.08,1.55,1.55,0,0,1,.47.11,1,1,0,0,1,.33.2l.23.23a2,2,0,0,1,.4-.79,1.52,1.52,0,0,1,.78-.47,2.2,2.2,0,0,1,.85-.09,1.32,1.32,0,0,1,.63.22,1.55,1.55,0,0,1,.46.52,4.14,4.14,0,0,1,.31.76l.76,2.73-.75.21-.75-2.69a2.89,2.89,0,0,0-.18-.44A1.2,1.2,0,0,0,164,625a1,1,0,0,0-.42-.18,1.28,1.28,0,0,0-.57,0,1.08,1.08,0,0,0-.42.23,1,1,0,0,0-.3.37,1.27,1.27,0,0,0-.13.49,1.43,1.43,0,0,0,.06.57l.73,2.6-.75.21-.72-2.55a2.18,2.18,0,0,0-.5-1,.77.77,0,0,0-.75-.13,1.61,1.61,0,0,0-.6.3,1.29,1.29,0,0,0-.33.48,1.75,1.75,0,0,0-.1.62,3.36,3.36,0,0,0,.12.73l.61,2.19-.75.21Z"/><path d="M167.71,619.61l.73-.28,2.66,7.08-.73.28Z"/><path d="M171.64,623.73a2.45,2.45,0,0,1-.22-1,2.3,2.3,0,0,1,.17-.91,2.25,2.25,0,0,1,.53-.78,2.68,2.68,0,0,1,.85-.56,2.74,2.74,0,0,1,1-.23,2.35,2.35,0,0,1,1.71.67,2.75,2.75,0,0,1,.78,1.84,2.3,2.3,0,0,1-.17.91,2.25,2.25,0,0,1-.53.78,2.86,2.86,0,0,1-.85.56,2.72,2.72,0,0,1-1,.22,2.29,2.29,0,0,1-1.71-.66A2.52,2.52,0,0,1,171.64,623.73Zm.77-.33a2.13,2.13,0,0,0,.37.58,1.78,1.78,0,0,0,.53.38,1.61,1.61,0,0,0,.63.13,1.71,1.71,0,0,0,.68-.15,1.85,1.85,0,0,0,.58-.39,1.47,1.47,0,0,0,.33-.55,1.34,1.34,0,0,0,.09-.63,1.87,1.87,0,0,0-.16-.68,2,2,0,0,0-.37-.58,1.56,1.56,0,0,0-1.16-.51,1.69,1.69,0,0,0-.68.14,1.87,1.87,0,0,0-.58.4,1.51,1.51,0,0,0-.33.54,1.41,1.41,0,0,0-.09.64A1.92,1.92,0,0,0,172.41,623.4Z"/><path d="M177.32,621.26a2.67,2.67,0,0,1-.29-1,2.37,2.37,0,0,1,.59-1.74,2.78,2.78,0,0,1,.81-.61,2.81,2.81,0,0,1,1-.29,2.38,2.38,0,0,1,.93.09,2.33,2.33,0,0,1,.81.46,2.59,2.59,0,0,1,.63.81,2.55,2.55,0,0,1,.28,1,2.59,2.59,0,0,1-.11.93,2.41,2.41,0,0,1-.48.81,2.87,2.87,0,0,1-1.78.9,2.45,2.45,0,0,1-.94-.09,2.53,2.53,0,0,1-.81-.46A2.49,2.49,0,0,1,177.32,621.26Zm.75-.38a1.93,1.93,0,0,0,.41.56,1.47,1.47,0,0,0,.55.33,1.49,1.49,0,0,0,.63.1,1.7,1.7,0,0,0,.67-.19,1.73,1.73,0,0,0,.55-.43,1.56,1.56,0,0,0,.3-.57,1.53,1.53,0,0,0,0-.64,1.86,1.86,0,0,0-.2-.66,1.83,1.83,0,0,0-.42-.56,1.41,1.41,0,0,0-.54-.34,1.54,1.54,0,0,0-.64-.1,1.94,1.94,0,0,0-.67.19,1.6,1.6,0,0,0-.85,1,1.53,1.53,0,0,0,0,.64A1.87,1.87,0,0,0,178.07,620.88Z"/><path d="M181.82,616.3l.67-.4.35.58h0a2.1,2.1,0,0,1,.34-.88,2,2,0,0,1,.69-.66,2.69,2.69,0,0,1,1-.36,2.39,2.39,0,0,1,.93,0,2.33,2.33,0,0,1,.83.42,2.55,2.55,0,0,1,.66.75,2.76,2.76,0,0,1,.34.93,2.42,2.42,0,0,1,0,.93,2.19,2.19,0,0,1-.38.82,2.32,2.32,0,0,1-.69.63,2.17,2.17,0,0,1-1.09.32,1.81,1.81,0,0,1-.95-.22h0l1.59,2.67-.68.4Zm1.87,1.61a1.79,1.79,0,0,0,.45.53,1.6,1.6,0,0,0,.56.3,1.57,1.57,0,0,0,.65,0,1.55,1.55,0,0,0,.65-.23,1.58,1.58,0,0,0,.52-.47,1.62,1.62,0,0,0,.27-.58,1.78,1.78,0,0,0,0-.65,1.81,1.81,0,0,0-.25-.64,1.67,1.67,0,0,0-.45-.53,1.45,1.45,0,0,0-.57-.31,1.57,1.57,0,0,0-1.29.19,1.62,1.62,0,0,0-.79,1,1.53,1.53,0,0,0,0,.64A1.86,1.86,0,0,0,183.69,617.91Z"/></g><path class="i" d="M6.86,656.43v-91.6a5,5,0,0,1,5-5h9.23a5,5,0,0,1,4.71,3.33c.81,2.29,2,5.59,3.6,9.34,2.75,6.6,6.12,14.36,9.37,19.17A155.77,155.77,0,0,0,53,610.08a83.33,83.33,0,0,0,8,7.45,5,5,0,0,1,1.83,3.87v34.21a5,5,0,0,1-4.91,5L12,661.43A5,5,0,0,1,6.86,656.43Z"/><path class="i" d="M90.44,659.5H84.7a2,2,0,0,1-2-2.09l1-21.64A2,2,0,0,1,86.47,634c3.38,1.54,9.24,4.14,13.44,5.65a3.06,3.06,0,0,1,2,3.13l-.51,6.54A11,11,0,0,1,90.44,659.5Z"/><path class="i" d="M177.72,659.7h5.75a2,2,0,0,0,2-2.09L184.52,636a2,2,0,0,0-2.83-1.74c-3.23,1.47-8.72,3.92-12.87,5.45a3.86,3.86,0,0,0-2.53,3.93l.47,5.95A11,11,0,0,0,177.72,659.7Z"/><path class="j" d="M205.9,653.7v-32a4.94,4.94,0,0,1,1.6-3.66c3.14-2.91,10.11-9.47,13.72-13.72a95.67,95.67,0,0,0,8-11c3.24-5.2,6.1-10.9,8-14.7a95.8,95.8,0,0,0,5.23-13.27,5,5,0,0,1,5.17-3.44l9.5.78a5,5,0,0,1,4.59,5v86a5,5,0,0,1-5,5H210.9A5,5,0,0,1,205.9,653.7Z"/><path class="i" d="M6.87,500.61,7,410.92a5,5,0,0,1,5-5H97.32a4.57,4.57,0,0,1,4.57,4.61l-.09,11.19a4.55,4.55,0,0,1-3,4.24,176.24,176.24,0,0,0-24.06,11.12c-8.57,4.82-17.07,12.67-22.34,17.83a105.4,105.4,0,0,0-17.16,23A141.83,141.83,0,0,0,25.14,502a4.55,4.55,0,0,1-4.35,3.18H11.44A4.57,4.57,0,0,1,6.87,500.61Z"/><path class="j" d="M245.42,505a5,5,0,0,1-5.07-3.66,108.28,108.28,0,0,0-8.52-21.69,115,115,0,0,0-19.33-25.89,130,130,0,0,0-28.22-20.58c-10.61-5.56-20.17-7.16-20.17-7.75l.11-14.53a5,5,0,0,1,5-5h81.6a11,11,0,0,1,11,11.05l-.13,82.44a5,5,0,0,1-4.75,5Z"/><path class="i" d="M15.61,727.75l36-53.86a6.81,6.81,0,0,1,5.66-3h5.92V716L34.94,755.08Z"/><path class="i" d="M81.17,716.3V697.86a26.55,26.55,0,0,1,26.55-26.55h51.39a26.49,26.49,0,0,1,26.5,26.5V716.3a26.56,26.56,0,0,1-26.56,26.56H107.72A26.56,26.56,0,0,1,81.17,716.3Z"/><polygon class="i" points="204.28 674.42 204.28 729.31 225.39 743.31 255.83 743.31 213.39 673.97 204.28 674.42"/><g class="h"><path class="d" d="M25.09,55.76h0V48.52H26V57H24.9L20,49.71h0V57h-.87v-8.5h1.08Z"/><path class="d" d="M29.1,56.25h4.54V57H28.23v-8.5H33.5v.77H29.1v2.92h4.11V53H29.1Z"/><path class="d" d="M44.78,50.06a3.14,3.14,0,0,0-1.06-.73,3.57,3.57,0,0,0-1.4-.26,3.51,3.51,0,0,0-1.47.3,3.25,3.25,0,0,0-1.11.81,3.42,3.42,0,0,0-.7,1.18,4.13,4.13,0,0,0,0,2.83,3.29,3.29,0,0,0,.7,1.17,3.25,3.25,0,0,0,1.11.81,3.51,3.51,0,0,0,1.47.3,5.42,5.42,0,0,0,1.32-.16,3.26,3.26,0,0,0,1-.4V53.33h-2v-.76h2.84V56.4A5.54,5.54,0,0,1,44,57a6.51,6.51,0,0,1-1.66.2,4.74,4.74,0,0,1-1.78-.33,4.17,4.17,0,0,1-2.32-2.34,4.75,4.75,0,0,1-.33-1.79A4.57,4.57,0,0,1,38.22,51a4.23,4.23,0,0,1,.93-1.41,4.39,4.39,0,0,1,1.4-.93,4.63,4.63,0,0,1,1.76-.33,4.75,4.75,0,0,1,1.77.3,3.76,3.76,0,0,1,1.3.85Z"/><path class="d" d="M48.55,57h-.87v-8.5h2.5a5.3,5.3,0,0,1,1.16.12,2.64,2.64,0,0,1,.92.39,2,2,0,0,1,.61.7,2.41,2.41,0,0,1,.21,1.06,2.11,2.11,0,0,1-.16.85,2.28,2.28,0,0,1-.46.67,2.12,2.12,0,0,1-.68.45,3.08,3.08,0,0,1-.87.21L53.4,57H52.34l-2.35-4H48.55Zm0-4.72h1.5a2.84,2.84,0,0,0,1.61-.38,1.28,1.28,0,0,0,.56-1.13,1.41,1.41,0,0,0-.16-.71,1.21,1.21,0,0,0-.43-.47,2,2,0,0,0-.67-.26,4,4,0,0,0-.88-.08H48.55Z"/><path class="d" d="M54.81,57h-1l3.68-8.5h.84L62,57h-1l-.93-2.23H55.74Zm1.25-3H59.8l-1.87-4.51Z"/><path class="d" d="M69.3,55.76h0V48.52h.86V57H69.1l-4.94-7.31h0V57h-.87v-8.5h1.08Z"/><path class="d" d="M75.16,57H74.3V49.29H71.46v-.77H78v.77H75.16Z"/><path class="d" d="M83.14,56.25h4V57H82.28v-8.5h.86Z"/><path class="d" d="M94.42,55.76h0V48.52h.86V57H94.23l-4.94-7.31h0V57H88.4v-8.5h1.08Z"/></g><rect class="j" x="-6.06" y="71.09" width="22.31" height="41.11"/><rect class="j" x="45.5" y="-1.59" width="71.96" height="36.62"/><rect class="j" x="-34.17" y="-2.06" width="71.96" height="37.09"/><rect class="j" x="151.79" y="-0.35" width="118.49" height="35.38"/><path class="j" d="M198.38,128.87h66.4V71.56h-56A10.42,10.42,0,0,0,198.38,82Z"/><path class="j" d="M275.17,309.42l-73.84.28-3.66,3.92-50.79.13v39.17h11v30.77A9.26,9.26,0,0,0,167.1,393H275.17V309.42Z"/><path class="i" d="M89.78,313.42H82a16.19,16.19,0,0,1-3.83,10.69c-3.8,4.77-9.13,7.09-13,6V340H-6.39V393H101.27a9.69,9.69,0,0,0,9.69-9.69V353.12h6.78v-39.7Z"/><path class="j" d="M191.28,81.78A10.25,10.25,0,0,0,181,71.53H159.68a12.8,12.8,0,0,0-12.8,12.8V109h19.06V131.2h25.34Z"/><path class="j" d="M74.94,81.26v49.83H101.5V109h16.24V84.43a12.89,12.89,0,0,0-12.89-12.9H84.67A9.73,9.73,0,0,0,74.94,81.26Z"/><polygon class="j" points="101.72 157.25 101.72 144.2 75.28 144.2 75.28 281.31 90.06 281.31 89.94 303.61 117.74 303.61 117.74 157.25 101.72 157.25"/><polygon class="j" points="166.03 144.2 166.03 157.59 146.88 157.59 146.88 303.61 178.94 303.61 178.94 281.75 191.39 281.75 191.39 144.2 166.03 144.2"/><polygon class="j" points="217.19 122.42 217.19 146.31 199.04 146.31 199.04 281.83 242.55 281.83 242.55 122.42 217.19 122.42"/><path class="j" d="M34.75,71.42H58.69a8.12,8.12,0,0,1,8.12,8.12V281.75a0,0,0,0,1,0,0H34.75a0,0,0,0,1,0,0V71.42A0,0,0,0,1,34.75,71.42Z"/><rect class="k" x="85.69" y="23" width="96.09" height="14.09"/><line class="l" x1="133.77" y1="21.72" x2="133.77" y2="3.53"/><polyline class="l" points="128.93 8.3 133.78 3.53 138.55 8.38"/><path class="m" d="M90.58,34.45h-.86V26.73H86.88V26h6.55v.77H90.58Z"/><path class="m" d="M102.74,30.21A4.52,4.52,0,0,1,102.4,32a4,4,0,0,1-.93,1.41,4.09,4.09,0,0,1-1.4.93,4.73,4.73,0,0,1-3.52,0,4.18,4.18,0,0,1-1.4-.93A4,4,0,0,1,94.22,32a4.86,4.86,0,0,1,0-3.57A4,4,0,0,1,95.15,27a4.18,4.18,0,0,1,1.4-.93,4.73,4.73,0,0,1,3.52,0,4.09,4.09,0,0,1,1.4.93,4,4,0,0,1,.93,1.41A4.53,4.53,0,0,1,102.74,30.21Zm-.91,0a4.18,4.18,0,0,0-.24-1.41,3.42,3.42,0,0,0-.7-1.18,3.25,3.25,0,0,0-1.11-.81,3.45,3.45,0,0,0-1.47-.3,3.51,3.51,0,0,0-1.47.3,3.46,3.46,0,0,0-1.11.81A3.56,3.56,0,0,0,95,28.8a4.29,4.29,0,0,0,0,2.83,3.32,3.32,0,0,0,1.8,2,3.51,3.51,0,0,0,1.47.3,3.45,3.45,0,0,0,1.47-.3,3.37,3.37,0,0,0,1.11-.8,3.47,3.47,0,0,0,.7-1.17A4.19,4.19,0,0,0,101.83,30.21Z"/><path class="m" d="M108.4,34.45h-.86V26H110a5.2,5.2,0,0,1,1.15.12,2.61,2.61,0,0,1,.93.39,1.77,1.77,0,0,1,.6.7,2.28,2.28,0,0,1,.22,1.06,2.15,2.15,0,0,1-.17.85,2,2,0,0,1-.45.66,2.17,2.17,0,0,1-.69.45,2.66,2.66,0,0,1-.86.22l2.48,4h-1l-2.36-4H108.4Zm0-4.71h1.5a2.88,2.88,0,0,0,1.61-.38,1.27,1.27,0,0,0,.57-1.13,1.52,1.52,0,0,0-.16-.71,1.29,1.29,0,0,0-.43-.47,1.91,1.91,0,0,0-.67-.26,4,4,0,0,0-.88-.09H108.4Z"/><path class="m" d="M115.59,33.69h4.55v.76h-5.41V26H120v.77h-4.41v2.91h4.12v.77h-4.12Z"/><path class="m" d="M121.83,26h2.82a5.19,5.19,0,0,1,1.59.26,4.43,4.43,0,0,1,1.44.8,4,4,0,0,1,1,1.33,4.52,4.52,0,0,1,0,3.72,4,4,0,0,1-1,1.32,4.43,4.43,0,0,1-1.44.8,4.9,4.9,0,0,1-1.59.26h-2.82Zm.87,7.73h1.71a4.34,4.34,0,0,0,1.68-.3,3.59,3.59,0,0,0,1.18-.79,3.22,3.22,0,0,0,.7-1.11,3.53,3.53,0,0,0,.23-1.28,3.58,3.58,0,0,0-.23-1.29,3.42,3.42,0,0,0-.7-1.11,3.57,3.57,0,0,0-1.18-.78,4.34,4.34,0,0,0-1.68-.3H122.7Z"/><path class="m" d="M138,27.33a1.94,1.94,0,0,0-.71-.62,2.08,2.08,0,0,0-1-.24,2.43,2.43,0,0,0-.64.1,1.76,1.76,0,0,0-.58.29,1.59,1.59,0,0,0-.43.5,1.46,1.46,0,0,0-.16.71,1.33,1.33,0,0,0,.15.67,1.51,1.51,0,0,0,.42.45,2.14,2.14,0,0,0,.58.31l.69.24c.3.09.59.2.89.31a3.16,3.16,0,0,1,.81.44,2.15,2.15,0,0,1,.59.68,2.21,2.21,0,0,1,.22,1,2.35,2.35,0,0,1-.24,1.1,2.23,2.23,0,0,1-.63.76,2.72,2.72,0,0,1-.88.45,3.69,3.69,0,0,1-1.77.06,3.74,3.74,0,0,1-.74-.23,3.27,3.27,0,0,1-.64-.4,2.76,2.76,0,0,1-.53-.55l.74-.55a2.27,2.27,0,0,0,.78.76,2.22,2.22,0,0,0,1.17.31,2.28,2.28,0,0,0,.66-.11,1.72,1.72,0,0,0,.6-.31,1.84,1.84,0,0,0,.45-.51,1.65,1.65,0,0,0,0-1.46,1.57,1.57,0,0,0-.47-.49,2.91,2.91,0,0,0-.66-.33l-.78-.26c-.28-.09-.55-.19-.82-.3a2.74,2.74,0,0,1-.74-.44,2,2,0,0,1-.52-.67,2.39,2.39,0,0,1,0-2,2.29,2.29,0,0,1,.64-.74,2.86,2.86,0,0,1,.88-.42,3.88,3.88,0,0,1,.95-.13,3.19,3.19,0,0,1,1.47.31,2.51,2.51,0,0,1,.93.72Z"/><path class="m" d="M149.38,34.45h-4.86a4.41,4.41,0,0,1-1.71-.32,4.22,4.22,0,0,1-1.36-.91,4.13,4.13,0,0,1-.9-1.38,4.68,4.68,0,0,1-.32-1.74,4.74,4.74,0,0,1,.32-1.75,4.34,4.34,0,0,1,.9-1.38,4,4,0,0,1,1.36-.9,4.42,4.42,0,0,1,1.71-.33,4.33,4.33,0,0,1,1.7.33,3.85,3.85,0,0,1,1.36.9,4,4,0,0,1,.9,1.38,4.49,4.49,0,0,1,.33,1.74,4.33,4.33,0,0,1-.5,2.06,3.77,3.77,0,0,1-1.49,1.5v0h2.56Zm-8.24-4.35a4.09,4.09,0,0,0,.23,1.36A3.61,3.61,0,0,0,142,32.6a3.1,3.1,0,0,0,1.06.79,3.28,3.28,0,0,0,1.42.3,3.24,3.24,0,0,0,1.41-.3A3.14,3.14,0,0,0,147,32.6a3.64,3.64,0,0,0,.68-1.14,3.85,3.85,0,0,0,.24-1.36,4,4,0,0,0-.24-1.37,3.64,3.64,0,0,0-.68-1.14,3.28,3.28,0,0,0-1.07-.79,3.38,3.38,0,0,0-1.41-.29,3.43,3.43,0,0,0-1.42.29,3.24,3.24,0,0,0-1.06.79,3.61,3.61,0,0,0-.67,1.14A4.19,4.19,0,0,0,141.14,30.1Z"/><path class="m" d="M153.93,34.67a3.29,3.29,0,0,1-1.57-.33,2.83,2.83,0,0,1-1-.83,3.12,3.12,0,0,1-.5-1.1,5.12,5.12,0,0,1-.14-1.12V26h.87v5.23a4.15,4.15,0,0,0,.12,1,2.55,2.55,0,0,0,.39.87,2,2,0,0,0,.71.61,2.41,2.41,0,0,0,1.09.23,2.38,2.38,0,0,0,1.09-.23,2.06,2.06,0,0,0,.72-.61,2.55,2.55,0,0,0,.39-.87,4.15,4.15,0,0,0,.12-1V26h.86v5.33a4.57,4.57,0,0,1-.14,1.12,3.1,3.1,0,0,1-.49,1.1,2.87,2.87,0,0,1-1,.83A3.32,3.32,0,0,1,153.93,34.67Z"/><path class="m" d="M159.12,34.45h-1L161.84,26h.84l3.65,8.49h-1l-.94-2.23H160Zm1.24-3h3.75l-1.87-4.51Z"/><path class="m" d="M168.44,34.45h-.86V26h2.49a5.3,5.3,0,0,1,1.16.12,2.56,2.56,0,0,1,.92.39,1.8,1.8,0,0,1,.61.7,2.41,2.41,0,0,1,.22,1.06,2.15,2.15,0,0,1-.17.85,2.06,2.06,0,0,1-.46.66,2.12,2.12,0,0,1-.68.45,2.71,2.71,0,0,1-.87.22l2.49,4h-1.06l-2.35-4h-1.44Zm0-4.71h1.5a2.9,2.9,0,0,0,1.61-.38,1.28,1.28,0,0,0,.56-1.13,1.52,1.52,0,0,0-.15-.71,1.32,1.32,0,0,0-.44-.47,1.77,1.77,0,0,0-.67-.26,3.88,3.88,0,0,0-.87-.09h-1.54Z"/><path class="m" d="M175.63,33.69h4.55v.76h-5.42V26H180v.77h-4.4v2.91h4.11v.77h-4.11Z"/><line class="n" x1="125.31" y1="61.83" x2="142.16" y2="61.83"/><polygon class="o" points="59.11 128.43 59.11 127.19 57.23 127.19 56.59 126.78 56.59 88.1 42.67 88.1 42.67 86.2 37.22 86.2 37.22 84.75 35.17 84.75 35.17 83.31 15.55 83.31 15.55 88.1 -7.06 88.1 -7.06 348.39 56.59 348.39 56.59 298.63 58.07 298.63 58.07 295.88 56.59 295.88 56.59 283.13 58.07 283.13 58.07 280.38 56.59 280.38 56.59 277.58 58.94 277.58 58.94 249.67 56.59 249.67 56.59 240.7 59.11 240.7 59.11 238.31 56.59 238.31 56.59 229.31 59.11 229.31 59.11 226.92 56.59 226.92 56.59 217.7 59.11 217.7 59.11 215.31 56.59 215.31 56.59 206.25 59.11 206.25 59.11 203.86 56.59 203.86 56.59 194.81 59.11 194.81 59.11 192.42 56.59 192.42 56.59 183.2 59.11 183.2 59.11 180.81 56.59 180.81 56.59 171.92 59.11 171.92 59.11 146.82 60.44 145.86 60.44 129.31 59.11 128.43"/><polyline class="p" points="35.95 218.32 36.21 218.32 36.21 166.13"/><polyline class="p" points="35.95 218.32 35.95 166.13 36.21 166.13"/><polyline class="p" points="36.21 218.32 38.28 218.32 38.28 166.13"/><path class="d" d="M37.88,142.15V321.73H34V142.15h3.9m.7-.7h-5.3v181h5.3v-181Z"/><rect class="d" x="33.28" y="292.27" width="2.67" height="30.16"/><rect class="d" x="35.94" y="262.11" width="2.67" height="30.16"/><polygon class="q" points="33.28 201.78 33.28 231.94 33.28 262.11 35.95 262.11 35.95 231.94 35.95 201.78 33.28 201.78"/><polygon class="q" points="35.91 141.45 35.91 171.61 35.91 201.78 38.58 201.78 38.58 171.61 38.58 141.45 35.91 141.45"/><path class="d" d="M21.23,322.44a1.83,1.83,0,0,1,.33-1.11,2.38,2.38,0,0,1,.85-.71,4,4,0,0,1,1.19-.38,7.77,7.77,0,0,1,2.72,0,4,4,0,0,1,1.19.38,2.34,2.34,0,0,1,.84.71,2.09,2.09,0,0,1,0,2.22,2.25,2.25,0,0,1-.84.71,4,4,0,0,1-1.19.38,8.46,8.46,0,0,1-2.72,0,4,4,0,0,1-1.19-.38,2.28,2.28,0,0,1-.85-.71A1.83,1.83,0,0,1,21.23,322.44Zm.61,0a1.12,1.12,0,0,0,.29.78,2,2,0,0,0,.74.49,3.83,3.83,0,0,0,1,.25A8,8,0,0,0,25,324,7.83,7.83,0,0,0,26,324a3.76,3.76,0,0,0,1-.25,2,2,0,0,0,.73-.49,1.12,1.12,0,0,0,.28-.78,1.07,1.07,0,0,0-.28-.77,2,2,0,0,0-.73-.5,4.18,4.18,0,0,0-1-.25,7.85,7.85,0,0,0-1.08-.08,8.09,8.09,0,0,0-1.08.08,4.27,4.27,0,0,0-1,.25,2.06,2.06,0,0,0-.74.5A1.08,1.08,0,0,0,21.84,322.44Z"/><path class="d" d="M28.49,294.27V295H22.3l1.09,1.28-.5.44-1.48-1.8v-.64Z"/><path class="d" d="M21.23,289.59a1.78,1.78,0,0,1,.33-1.1,2.31,2.31,0,0,1,.85-.72,4.26,4.26,0,0,1,1.19-.38,7.77,7.77,0,0,1,2.72,0,4.26,4.26,0,0,1,1.19.38,2.27,2.27,0,0,1,.84.72,1.77,1.77,0,0,1,.32,1.1,1.8,1.8,0,0,1-.32,1.11,2.16,2.16,0,0,1-.84.71,4,4,0,0,1-1.19.38,8.46,8.46,0,0,1-2.72,0,4,4,0,0,1-1.19-.38,2.19,2.19,0,0,1-.85-.71A1.81,1.81,0,0,1,21.23,289.59Zm.61,0a1.12,1.12,0,0,0,.29.78,2,2,0,0,0,.74.49,3.83,3.83,0,0,0,1,.25,8,8,0,0,0,1.08.07,7.83,7.83,0,0,0,1.08-.07,3.76,3.76,0,0,0,1-.25,2,2,0,0,0,.73-.49,1.12,1.12,0,0,0,.28-.78,1.07,1.07,0,0,0-.28-.77,2,2,0,0,0-.73-.5,4.18,4.18,0,0,0-1-.25A7.85,7.85,0,0,0,25,288a8.09,8.09,0,0,0-1.08.08,4.27,4.27,0,0,0-1,.25,2.06,2.06,0,0,0-.74.5A1.08,1.08,0,0,0,21.84,289.59Z"/><path class="d" d="M28.49,262.83v4.52h-.75l-2.93-2.9c-.1-.11-.22-.21-.34-.32a3.39,3.39,0,0,0-.39-.27,1.59,1.59,0,0,0-.42-.19,1.49,1.49,0,0,0-.47-.07,1.3,1.3,0,0,0-.56.11,1.15,1.15,0,0,0-.42.3,1.29,1.29,0,0,0-.27.45,1.4,1.4,0,0,0-.1.54,1.36,1.36,0,0,0,.36,1,1.64,1.64,0,0,0,.9.5l-.14.71a2.25,2.25,0,0,1-.69-.27,2.29,2.29,0,0,1-.55-.48,2.35,2.35,0,0,1-.36-.64,2.2,2.2,0,0,1-.13-.78,2.47,2.47,0,0,1,.13-.82,1.83,1.83,0,0,1,.37-.67,1.67,1.67,0,0,1,.61-.46,2,2,0,0,1,.84-.17,2.08,2.08,0,0,1,.63.09,3.07,3.07,0,0,1,.55.25,3.59,3.59,0,0,1,.5.37c.15.14.31.28.46.44l2.53,2.55v-3.75Z"/><path class="d" d="M21.23,259.26a1.83,1.83,0,0,1,.33-1.11,2.38,2.38,0,0,1,.85-.71,4,4,0,0,1,1.19-.38,7.77,7.77,0,0,1,2.72,0,4,4,0,0,1,1.19.38,2.34,2.34,0,0,1,.84.71,2.09,2.09,0,0,1,0,2.22,2.34,2.34,0,0,1-.84.71,4,4,0,0,1-1.19.38,8.46,8.46,0,0,1-2.72,0,4,4,0,0,1-1.19-.38,2.38,2.38,0,0,1-.85-.71A1.83,1.83,0,0,1,21.23,259.26Zm.61,0a1.12,1.12,0,0,0,.29.78,2,2,0,0,0,.74.49,4.27,4.27,0,0,0,1,.25,8,8,0,0,0,1.08.07,7.94,7.94,0,0,0,1.08-.07,4.18,4.18,0,0,0,1-.25,2,2,0,0,0,.73-.49,1.23,1.23,0,0,0,0-1.56A2.13,2.13,0,0,0,27,258a4.18,4.18,0,0,0-1-.25,8,8,0,0,0-1.08-.08,8.09,8.09,0,0,0-1.08.08,4.27,4.27,0,0,0-1,.25,2.17,2.17,0,0,0-.74.49A1.12,1.12,0,0,0,21.84,259.26Z"/><path class="d" d="M26.14,203.28v-1h.64v1h1.71v.7H26.78v3.24h-.7l-4.67-3v-.94Zm-3.92.7v0l3.92,2.47V204Z"/><path class="d" d="M21.23,198.82a1.83,1.83,0,0,1,.33-1.11,2.38,2.38,0,0,1,.85-.71,4.27,4.27,0,0,1,1.19-.39,8.46,8.46,0,0,1,2.72,0,4.27,4.27,0,0,1,1.19.39,2.34,2.34,0,0,1,.84.71,2.09,2.09,0,0,1,0,2.22,2.34,2.34,0,0,1-.84.71,4,4,0,0,1-1.19.38,8.46,8.46,0,0,1-2.72,0,4,4,0,0,1-1.19-.38,2.38,2.38,0,0,1-.85-.71A1.83,1.83,0,0,1,21.23,198.82Zm.61,0a1.12,1.12,0,0,0,.29.78,2.17,2.17,0,0,0,.74.49,4.27,4.27,0,0,0,1,.25,8,8,0,0,0,1.08.07,7.94,7.94,0,0,0,1.08-.07,4.18,4.18,0,0,0,1-.25,2.13,2.13,0,0,0,.73-.49,1.23,1.23,0,0,0,0-1.56,2,2,0,0,0-.73-.49,4.71,4.71,0,0,0-1-.26,7.94,7.94,0,0,0-1.08-.07,8,8,0,0,0-1.08.07,4.81,4.81,0,0,0-1,.26,2,2,0,0,0-.74.49A1.12,1.12,0,0,0,21.84,198.82Z"/><path class="d" d="M24.5,145.25l0,0a1.19,1.19,0,0,1-.19-.45,2.77,2.77,0,0,1-.07-.56,2.38,2.38,0,0,1,.16-.85,2.29,2.29,0,0,1,.45-.69,2.06,2.06,0,0,1,.69-.45,2.3,2.3,0,0,1,.88-.17,2.38,2.38,0,0,1,.91.17,2.08,2.08,0,0,1,.7.48,2.21,2.21,0,0,1,.46.73,2.51,2.51,0,0,1,.16.92,2.47,2.47,0,0,1-.16.92,2.11,2.11,0,0,1-.46.73,1.83,1.83,0,0,1-.7.48,2.21,2.21,0,0,1-.91.17,2.68,2.68,0,0,1-1-.19,5.4,5.4,0,0,1-.9-.45l-3.11-1.93v-.83Zm1.94.69a1.93,1.93,0,0,0,.65-.11,1.72,1.72,0,0,0,.51-.33,1.54,1.54,0,0,0,.46-1.14,1.69,1.69,0,0,0-.12-.64,1.77,1.77,0,0,0-.34-.5,1.69,1.69,0,0,0-.51-.32,1.71,1.71,0,0,0-.65-.12,1.85,1.85,0,0,0-.63.11,1.48,1.48,0,0,0-.51.32,1.35,1.35,0,0,0-.34.5,1.67,1.67,0,0,0-.12.65A1.76,1.76,0,0,0,25,145a1.35,1.35,0,0,0,.34.5,1.45,1.45,0,0,0,.51.31A1.64,1.64,0,0,0,26.44,145.94Z"/><path class="d" d="M21.23,138.54a1.83,1.83,0,0,1,.33-1.11,2.38,2.38,0,0,1,.85-.71,4,4,0,0,1,1.19-.38,7.77,7.77,0,0,1,2.72,0,4,4,0,0,1,1.19.38,2.34,2.34,0,0,1,.84.71,2.09,2.09,0,0,1,0,2.22,2.25,2.25,0,0,1-.84.71,4,4,0,0,1-1.19.38,8.46,8.46,0,0,1-2.72,0,4,4,0,0,1-1.19-.38,2.28,2.28,0,0,1-.85-.71A1.83,1.83,0,0,1,21.23,138.54Zm.61,0a1.12,1.12,0,0,0,.29.78,2,2,0,0,0,.74.49,3.83,3.83,0,0,0,1,.25,8,8,0,0,0,1.08.07,7.83,7.83,0,0,0,1.08-.07,3.76,3.76,0,0,0,1-.25,2,2,0,0,0,.73-.49,1.12,1.12,0,0,0,.28-.78,1.07,1.07,0,0,0-.28-.77,2,2,0,0,0-.73-.5,4.18,4.18,0,0,0-1-.25,7.85,7.85,0,0,0-1.08-.08,8.09,8.09,0,0,0-1.08.08,4.27,4.27,0,0,0-1,.25,2.06,2.06,0,0,0-.74.5A1.08,1.08,0,0,0,21.84,138.54Z"/><path class="d" d="M33.73,131.86a1.72,1.72,0,0,1-.25-.92,1.87,1.87,0,0,1,0-.4,1.22,1.22,0,0,1,.15-.4,1.49,1.49,0,0,1,.31-.36,1.62,1.62,0,0,1,.49-.28,1.76,1.76,0,0,1-.74-.66,1.83,1.83,0,0,1-.25-1,1.63,1.63,0,0,1,.53-1.34,2.08,2.08,0,0,1,1.4-.44h2.87v.68H35.69a2.28,2.28,0,0,0-1.19.27,1,1,0,0,0-.45.94,1.21,1.21,0,0,0,.15.62,1.18,1.18,0,0,0,.39.41,2,2,0,0,0,.56.23,3.3,3.3,0,0,0,.64.07h2.49V130H35.55a2.94,2.94,0,0,0-.62.05,1.3,1.3,0,0,0-.48.17.79.79,0,0,0-.3.35,1.28,1.28,0,0,0-.1.56,1.05,1.05,0,0,0,.11.48,1.24,1.24,0,0,0,.33.44,1.73,1.73,0,0,0,.57.32,2.49,2.49,0,0,0,.82.12h2.4v.68H34.14a4.39,4.39,0,0,0-.54,0v-.65a2.58,2.58,0,0,1,.42,0h.38v0A1.6,1.6,0,0,1,33.73,131.86Z"/><path class="d" d="M35.8,120h.32v3.88a2.1,2.1,0,0,0,.66-.14,1.65,1.65,0,0,0,.9-.9,1.67,1.67,0,0,0,.14-.67,1.63,1.63,0,0,0-.25-.92,1.83,1.83,0,0,0-.56-.58l.4-.51a2.58,2.58,0,0,1,.76.92,2.66,2.66,0,0,1,.23,1.09,2.35,2.35,0,0,1-.19,1,2.25,2.25,0,0,1-.51.77,2.56,2.56,0,0,1-1.76.69,2.59,2.59,0,0,1-1-.18,2.43,2.43,0,0,1-.78-.5,2.59,2.59,0,0,1-.52-.75,2.41,2.41,0,0,1-.18-.93,2.43,2.43,0,0,1,.18-1,2,2,0,0,1,.5-.7,2.18,2.18,0,0,1,.74-.43A2.93,2.93,0,0,1,35.8,120Zm-.22.69a1.71,1.71,0,0,0-1.1.42,1.46,1.46,0,0,0-.43,1.13,1.68,1.68,0,0,0,.12.63,2,2,0,0,0,.34.51,2.09,2.09,0,0,0,.49.35,2,2,0,0,0,.58.15Z"/><path class="d" d="M34.17,116.32v1.32H36.9a1.75,1.75,0,0,0,.43,0,.51.51,0,0,0,.26-.15.38.38,0,0,0,.13-.22.86.86,0,0,0,0-.28,1.55,1.55,0,0,0,0-.29,2.09,2.09,0,0,0-.11-.3l.59,0a2.54,2.54,0,0,1,.1.37,2,2,0,0,1,0,.43,1.9,1.9,0,0,1-.05.4,1.18,1.18,0,0,1-.19.39,1,1,0,0,1-.38.29,1.41,1.41,0,0,1-.63.12H34.17v1H33.6v-1H32.28v-.68H33.6v-1.32Z"/><path class="d" d="M35.8,111h.32v3.88a1.66,1.66,0,0,0,.66-.14,1.6,1.6,0,0,0,.54-.36,1.7,1.7,0,0,0,.36-.54,1.64,1.64,0,0,0,.14-.67,1.61,1.61,0,0,0-.25-.91,1.87,1.87,0,0,0-.56-.59l.4-.51a2.52,2.52,0,0,1,.76.93,2.65,2.65,0,0,1,.23,1.08,2.4,2.4,0,0,1-.19,1,2.21,2.21,0,0,1-.51.76,2.29,2.29,0,0,1-.78.51,2.63,2.63,0,0,1-1,.18,2.59,2.59,0,0,1-1-.18,2.27,2.27,0,0,1-.78-.5,2.26,2.26,0,0,1-.7-1.68,2.47,2.47,0,0,1,.18-1,2.12,2.12,0,0,1,.5-.7,2.34,2.34,0,0,1,.74-.42A2.66,2.66,0,0,1,35.8,111Zm-.22.69a1.72,1.72,0,0,0-1.1.43,1.43,1.43,0,0,0-.43,1.12,1.61,1.61,0,0,0,.12.63,1.69,1.69,0,0,0,.34.51,1.64,1.64,0,0,0,.49.35,1.51,1.51,0,0,0,.58.15Z"/><path class="d" d="M34.14,109.48c-.2,0-.38,0-.54,0v-.65a2.58,2.58,0,0,1,.42,0h.38v0a1.69,1.69,0,0,1-.67-.6,1.65,1.65,0,0,1-.25-.9,1.77,1.77,0,0,1,0-.24.78.78,0,0,1,0-.21l.65.09a.62.62,0,0,0,0,.2,1.27,1.27,0,0,0,0,.28,1.34,1.34,0,0,0,.1.52,1.08,1.08,0,0,0,.31.43,1.53,1.53,0,0,0,.55.3,2.36,2.36,0,0,0,.8.12h2.4v.68H34.14Z"/><path class="d" d="M34.71,103.16a1.29,1.29,0,0,0-.48.45,1.38,1.38,0,0,0-.18.7,1.47,1.47,0,0,0,0,.36.83.83,0,0,0,.13.32.61.61,0,0,0,.23.22.58.58,0,0,0,.33.09.55.55,0,0,0,.5-.27,2.48,2.48,0,0,0,.3-.85,3,3,0,0,1,.49-1.23,1.09,1.09,0,0,1,.88-.39,1.38,1.38,0,0,1,.67.15,1.28,1.28,0,0,1,.45.41,1.5,1.5,0,0,1,.25.56,2.8,2.8,0,0,1,.08.64,2.65,2.65,0,0,1-.22,1,2,2,0,0,1-.69.82l-.4-.54a1.55,1.55,0,0,0,.52-.53,1.49,1.49,0,0,0,.21-.77,1.87,1.87,0,0,0,0-.42,1.22,1.22,0,0,0-.14-.35.75.75,0,0,0-.26-.24.74.74,0,0,0-.38-.09.61.61,0,0,0-.56.35,4.56,4.56,0,0,0-.34,1c0,.14-.08.29-.13.44a1.4,1.4,0,0,1-.22.44,1.27,1.27,0,0,1-.36.33,1.15,1.15,0,0,1-.55.13,1.32,1.32,0,0,1-.62-.14,1.18,1.18,0,0,1-.42-.38,1.51,1.51,0,0,1-.24-.53,2.15,2.15,0,0,1-.08-.62,2.13,2.13,0,0,1,.22-1,1.5,1.5,0,0,1,.62-.69Z"/><polygon class="o" points="278.05 349.08 277.39 88.1 215.39 88.1 215.39 92.97 209.11 92.97 209.11 96.7 206.16 96.7 206.16 95.7 202.94 95.7 202.94 127.14 202.56 127.14 202.56 146.75 203.17 146.75 203.17 149.42 205.66 149.42 205.66 148.75 209.11 148.75 209.11 243.91 207.22 243.91 207.22 277.53 209.11 277.53 209.11 280.53 203 280.53 203 298.63 212.22 298.63 212.22 307.75 215.39 307.75 215.39 309.67 213.36 309.67 213.36 339.33 215.39 339.33 215.39 349.08 278.05 349.08"/><line class="n" x1="133.81" y1="425.89" x2="133.81" y2="440.5"/><g class="r"><circle class="d" cx="133.81" cy="532.02" r="90.55" transform="translate(-389.1 366.14) rotate(-58.28)"/><path d="M133.81,442.47A89.55,89.55,0,1,1,44.26,532a89.65,89.65,0,0,1,89.55-89.55m0-2A91.55,91.55,0,1,0,225.36,532a91.55,91.55,0,0,0-91.55-91.55Z"/></g><g class="s"><path class="d" d="M129.49,509.33l1.66,14.2-6.38-12.79a2.5,2.5,0,1,1,4.72-1.41Z"/><path class="d" d="M111.9,524.34,125,530l-14.26-.87a2.5,2.5,0,1,1,1.14-4.79Z"/><path class="d" d="M116.1,547.07l11.47-8.53-7.89,11.92a2.5,2.5,0,1,1-3.58-3.39Z"/><path class="d" d="M137.89,554.81l-1.66-14.2,6.38,12.79a2.5,2.5,0,1,1-4.72,1.41Z"/><path class="d" d="M155.48,539.8l-13.13-5.66,14.27.87a2.5,2.5,0,1,1-1.14,4.79Z"/><path class="d" d="M151.28,517.07l-11.47,8.53,7.89-11.92a2.5,2.5,0,1,1,3.58,3.39Z"/><path class="d" d="M107.4,503.79l16.35,18.87L104,507.37a2.47,2.47,0,1,1,3.39-3.58Z"/><path class="d" d="M96.05,540.7,120.57,536l-23.11,9.46a2.48,2.48,0,1,1-1.41-4.73Z"/><path class="d" d="M122.35,569l8.16-23.6-3.37,24.74a2.47,2.47,0,1,1-4.79-1.14Z"/><path class="d" d="M160,560.35l-16.35-18.87,19.74,15.29a2.47,2.47,0,1,1-3.39,3.58Z"/><path class="d" d="M171.32,523.44l-24.51,4.73,23.11-9.46a2.48,2.48,0,1,1,1.4,4.73Z"/><path class="d" d="M145,495.16l-8.16,23.6L140.24,494a2.47,2.47,0,1,1,4.79,1.14Z"/><circle class="d" cx="133.69" cy="532.07" r="5.64"/></g><line class="t" x1="133.74" y1="62.58" x2="133.74" y2="426.09"/><rect class="d" x="128" y="213.58" width="13.33" height="46.96"/><g class="h"><path d="M137.43,254.69v.71h-6.19l1.09,1.29-.5.44-1.48-1.81v-.63Z"/><path d="M137.43,247.44V252h-.75l-2.93-2.9a3.59,3.59,0,0,0-.35-.32,3.28,3.28,0,0,0-.38-.27,1.66,1.66,0,0,0-.43-.19,1.43,1.43,0,0,0-.46-.07,1.25,1.25,0,0,0-.56.11,1.19,1.19,0,0,0-.43.3,1.68,1.68,0,0,0-.27.45,1.61,1.61,0,0,0-.09.54,1.4,1.4,0,0,0,.35,1,1.67,1.67,0,0,0,.91.5l-.14.71a2.07,2.07,0,0,1-.69-.27,2.11,2.11,0,0,1-.55-.48,2.35,2.35,0,0,1-.36-.64,2.2,2.2,0,0,1-.13-.78,2.76,2.76,0,0,1,.12-.82,2.07,2.07,0,0,1,.37-.67,1.85,1.85,0,0,1,.61-.46,1.93,1.93,0,0,1,.85-.17,2.08,2.08,0,0,1,.63.09,2.73,2.73,0,0,1,.55.25,2.87,2.87,0,0,1,.49.37c.16.14.32.28.47.44l2.53,2.55v-3.75Z"/><path d="M130.17,243.77a1.84,1.84,0,0,1,.32-1.1,2.39,2.39,0,0,1,.85-.72,4.57,4.57,0,0,1,1.2-.38,7.64,7.64,0,0,1,1.36-.11,7.53,7.53,0,0,1,1.35.11,4.49,4.49,0,0,1,1.19.38,2.39,2.39,0,0,1,.85.72,2.07,2.07,0,0,1,0,2.21,2.39,2.39,0,0,1-.85.72,4.16,4.16,0,0,1-1.19.38,8.58,8.58,0,0,1-1.35.11,8.71,8.71,0,0,1-1.36-.11,4.22,4.22,0,0,1-1.2-.38,2.39,2.39,0,0,1-.85-.72A1.85,1.85,0,0,1,130.17,243.77Zm.61,0a1.11,1.11,0,0,0,.29.78,2,2,0,0,0,.74.49,4.18,4.18,0,0,0,1,.26,10.3,10.3,0,0,0,1.09.07,10.11,10.11,0,0,0,1.08-.07,4,4,0,0,0,1-.26,1.92,1.92,0,0,0,.73-.49,1.18,1.18,0,0,0,0-1.55,1.92,1.92,0,0,0-.73-.49,4,4,0,0,0-1-.26,8,8,0,0,0-1.08-.07,8.19,8.19,0,0,0-1.09.07,4.18,4.18,0,0,0-1,.26,2,2,0,0,0-.74.49A1.1,1.1,0,0,0,130.78,243.77Z"/><path d="M137,239a.53.53,0,0,1,.37.15.53.53,0,0,1,0,.78.53.53,0,0,1-.37.15.55.55,0,0,1-.38-.15.56.56,0,0,1,0-.78A.55.55,0,0,1,137,239Z"/><path d="M131,233.52v2.95l2.19.05a3.89,3.89,0,0,1-.12-.49,2.77,2.77,0,0,1,0-.49,2.51,2.51,0,0,1,.16-.92,2.36,2.36,0,0,1,.45-.73,2.22,2.22,0,0,1,.71-.48,2.36,2.36,0,0,1,.9-.16,2.61,2.61,0,0,1,.94.16,2.24,2.24,0,0,1,.75.48,2.15,2.15,0,0,1,.5.74,2.49,2.49,0,0,1,.18,1,2.36,2.36,0,0,1-.35,1.3,2.42,2.42,0,0,1-.94.82l-.29-.65a1.59,1.59,0,0,0,.7-.58,1.52,1.52,0,0,0,.26-.85,1.63,1.63,0,0,0-.13-.67,1.45,1.45,0,0,0-.35-.52,1.49,1.49,0,0,0-.53-.35,1.85,1.85,0,0,0-.67-.12,1.8,1.8,0,0,0-.71.13,1.54,1.54,0,0,0-.53.37,1.59,1.59,0,0,0-.34.56,1.94,1.94,0,0,0-.12.7,2.76,2.76,0,0,0,.1.75,3.41,3.41,0,0,0,.29.71l-3.65-.06v-3.61Z"/><path d="M130.17,229.57a1.84,1.84,0,0,1,.32-1.1,2.39,2.39,0,0,1,.85-.72,4.22,4.22,0,0,1,1.2-.38,7.64,7.64,0,0,1,1.36-.11,7.53,7.53,0,0,1,1.35.11,4.16,4.16,0,0,1,1.19.38,2.39,2.39,0,0,1,.85.72,2.07,2.07,0,0,1,0,2.21,2.39,2.39,0,0,1-.85.72,4.16,4.16,0,0,1-1.19.38,8.58,8.58,0,0,1-1.35.11,8.71,8.71,0,0,1-1.36-.11,4.22,4.22,0,0,1-1.2-.38,2.39,2.39,0,0,1-.85-.72A1.85,1.85,0,0,1,130.17,229.57Zm.61,0a1.11,1.11,0,0,0,.29.78,2,2,0,0,0,.74.49,4.18,4.18,0,0,0,1,.26,10.3,10.3,0,0,0,1.09.07,10.11,10.11,0,0,0,1.08-.07,4,4,0,0,0,1-.26,1.92,1.92,0,0,0,.73-.49,1.18,1.18,0,0,0,0-1.55,1.92,1.92,0,0,0-.73-.49,4,4,0,0,0-1-.26,8,8,0,0,0-1.08-.07,8.19,8.19,0,0,0-1.09.07,4.18,4.18,0,0,0-1,.26,2,2,0,0,0-.74.49A1.1,1.1,0,0,0,130.78,229.57Z"/><path d="M132.88,224.48a1.72,1.72,0,0,1-.25-.92,1.87,1.87,0,0,1,0-.4,1.29,1.29,0,0,1,.46-.76,1.75,1.75,0,0,1,.49-.28,1.76,1.76,0,0,1-.74-.66,1.83,1.83,0,0,1-.25-1,1.66,1.66,0,0,1,.53-1.34,2.08,2.08,0,0,1,1.4-.44h2.87v.68h-2.59a2.3,2.3,0,0,0-1.19.27,1,1,0,0,0-.45.94,1.21,1.21,0,0,0,.15.62,1.18,1.18,0,0,0,.39.41,2,2,0,0,0,.56.23,3.39,3.39,0,0,0,.64.07h2.49v.68H134.7a3,3,0,0,0-.62.05,1.3,1.3,0,0,0-.48.17.79.79,0,0,0-.3.35,1.28,1.28,0,0,0-.1.56,1.05,1.05,0,0,0,.11.48,1.24,1.24,0,0,0,.33.44,1.73,1.73,0,0,0,.57.32,2.53,2.53,0,0,0,.82.12h2.4v.68h-4.14a4.39,4.39,0,0,0-.54,0v-.65a2.77,2.77,0,0,1,.42,0h.38v0A1.66,1.66,0,0,1,132.88,224.48Z"/></g><rect class="d" x="127.48" y="129.99" width="12.51" height="20.21"/><line class="u" x1="133.82" y1="132.48" x2="133.71" y2="147.71"/><polyline class="u" points="137.76 143.71 133.71 147.71 129.71 143.65"/><rect class="d" x="127.05" y="331.46" width="13.37" height="21.61"/><line class="u" x1="133.82" y1="333.91" x2="133.71" y2="349.14"/><polyline class="u" points="137.76 345.14 133.71 349.14 129.71 345.08"/><polygon class="d" points="112.51 466.17 112.51 444.1 131.78 444.1 133.81 440.59 135.83 444.1 155.11 444.1 155.11 466.17 112.51 466.17"/><path d="M133.81,441.59l1.74,3h19.06v21.07H113V444.6h19.06l1.74-3m0-2-.87,1.5-1.45,2.51H112v23.07h43.6V443.6H136.12l-1.45-2.51-.86-1.5Z"/><path d="M116.57,448.86v1.75h3.29v1.69h-3.29v3.3h-2v-8.49h5.6v1.75Z"/><path d="M121.46,455.6v-8.49h2.06v8.49Z"/><path d="M130.67,455.6l-3.42-5.55h0l0,5.55h-2v-8.49h2.34l3.41,5.54h0l-.05-5.54h2v8.49Z"/><path d="M134.75,455.6v-8.49h2.07v8.49Z"/><path d="M143.06,449.31a1.88,1.88,0,0,0-.7-.53,1.94,1.94,0,0,0-.82-.2,2,2,0,0,0-.41,0,1,1,0,0,0-.38.14.77.77,0,0,0-.28.26.69.69,0,0,0-.12.41.73.73,0,0,0,.09.36,1,1,0,0,0,.27.26,2.26,2.26,0,0,0,.41.19c.16.06.34.13.54.19l.9.32a3.17,3.17,0,0,1,.85.46,2.42,2.42,0,0,1,.64.71,2.07,2.07,0,0,1,.25,1.07,2.75,2.75,0,0,1-.27,1.26,2.49,2.49,0,0,1-.72.88,3,3,0,0,1-1.05.52,4.42,4.42,0,0,1-1.21.17,5,5,0,0,1-1.76-.32,3.66,3.66,0,0,1-1.42-.91l1.35-1.36a2.44,2.44,0,0,0,.82.64,2.26,2.26,0,0,0,1,.26,2.12,2.12,0,0,0,.44-.05,1,1,0,0,0,.38-.16.73.73,0,0,0,.26-.29.94.94,0,0,0,.1-.43.71.71,0,0,0-.12-.41,1.26,1.26,0,0,0-.34-.3,2.68,2.68,0,0,0-.56-.25l-.75-.25a7.77,7.77,0,0,1-.8-.31,2.77,2.77,0,0,1-.69-.46,2.16,2.16,0,0,1-.49-.69,2.23,2.23,0,0,1-.19-1,2.43,2.43,0,0,1,.29-1.21,2.59,2.59,0,0,1,.75-.83,3.5,3.5,0,0,1,1.06-.47,4.79,4.79,0,0,1,1.19-.15,4.56,4.56,0,0,1,1.47.26,3.84,3.84,0,0,1,1.31.78Z"/><path d="M151,455.6v-3.55h-3.31v3.55h-2.05v-8.49h2.05v3.21H151v-3.21h2v8.49Z"/><path d="M116.79,463.09h3v.51h-3.61v-5.66h3.51v.51h-2.93v1.94h2.74v.52h-2.74Z"/><path d="M120.88,463.6h-.55v-6.05h.55Z"/><path d="M125.14,461.62v.12a.57.57,0,0,1,0,.13H122a1.32,1.32,0,0,0,.11.53,1.3,1.3,0,0,0,.29.43,1.45,1.45,0,0,0,.43.3,1.4,1.4,0,0,0,.54.1,1.35,1.35,0,0,0,.73-.19,1.56,1.56,0,0,0,.47-.45l.41.32a2.13,2.13,0,0,1-.74.6,2,2,0,0,1-.87.19,2,2,0,0,1-1.39-.56,2.05,2.05,0,0,1-.4-.63,2,2,0,0,1-.15-.78,2.21,2.21,0,0,1,.14-.78,1.91,1.91,0,0,1,.41-.63,2,2,0,0,1,.59-.41,1.86,1.86,0,0,1,.75-.15,1.94,1.94,0,0,1,.78.15,1.51,1.51,0,0,1,.55.4,1.58,1.58,0,0,1,.34.59A2.09,2.09,0,0,1,125.14,461.62Zm-.55-.18a1.36,1.36,0,0,0-.34-.87,1.13,1.13,0,0,0-.9-.35,1.31,1.31,0,0,0-.91.37,1.33,1.33,0,0,0-.28.39,1.25,1.25,0,0,0-.12.46Z"/><path d="M127.25,463.6h-.6l-1.53-3.74h.61l1.21,3.17h0l1.22-3.17h.59Z"/><path d="M129.93,460.24a.44.44,0,0,1-.12.3.42.42,0,0,1-.32.13.4.4,0,0,1-.31-.13.44.44,0,0,1,0-.6.4.4,0,0,1,.31-.13.42.42,0,0,1,.32.13A.44.44,0,0,1,129.93,460.24Zm0,3a.44.44,0,0,1-.12.3.42.42,0,0,1-.32.13.4.4,0,0,1-.31-.13.44.44,0,0,1,0-.6.4.4,0,0,1,.31-.13.42.42,0,0,1,.32.13A.44.44,0,0,1,129.93,463.22Z"/><path d="M133.2,460.39h.25a2.1,2.1,0,0,0,.51-.06,1.24,1.24,0,0,0,.42-.18.89.89,0,0,0,.29-.32,1.16,1.16,0,0,0,0-.92,1,1,0,0,0-.24-.34,1.07,1.07,0,0,0-.36-.21,1.26,1.26,0,0,0-.43-.08,1.19,1.19,0,0,0-.63.17,1.16,1.16,0,0,0-.45.5l-.49-.26a1.78,1.78,0,0,1,.68-.68,2,2,0,0,1,.92-.22,2.2,2.2,0,0,1,.64.1,1.62,1.62,0,0,1,.53.3,1.21,1.21,0,0,1,.36.47,1.51,1.51,0,0,1,.14.65,1.28,1.28,0,0,1-.28.85,1.34,1.34,0,0,1-.71.45v0a1.44,1.44,0,0,1,.82.46,1.41,1.41,0,0,1,.32.94,1.67,1.67,0,0,1-.15.73,1.62,1.62,0,0,1-.39.53,1.77,1.77,0,0,1-.58.34,2.06,2.06,0,0,1-.7.12,2,2,0,0,1-1.09-.3,1.89,1.89,0,0,1-.71-.86l.55-.2a1.17,1.17,0,0,0,.48.63,1.34,1.34,0,0,0,.77.23,1.44,1.44,0,0,0,.46-.08,1.22,1.22,0,0,0,.4-.24,1.29,1.29,0,0,0,.28-.38,1.21,1.21,0,0,0,.1-.52,1.13,1.13,0,0,0-.12-.54,1,1,0,0,0-.33-.35,1.52,1.52,0,0,0-.47-.2,2.51,2.51,0,0,0-.55-.06h-.25Z"/><path d="M139,461.72h.83v.51H139v1.37h-.56v-1.37h-2.59v-.56l2.4-3.73H139Zm-.56-3.13h0l-2,3.13h2Z"/><path d="M141,463.22a.44.44,0,0,1-.12.3.37.37,0,0,1-.31.13.39.39,0,0,1-.31-.13.44.44,0,0,1,0-.6.39.39,0,0,1,.31-.13.37.37,0,0,1,.31.13A.44.44,0,0,1,141,463.22Z"/><path d="M145.08,463.6h-3.62V463l2.32-2.34a3.33,3.33,0,0,0,.25-.28,1.6,1.6,0,0,0,.22-.31,1,1,0,0,0,.15-.34,1.15,1.15,0,0,0,.06-.37,1.13,1.13,0,0,0-.09-.45,1.16,1.16,0,0,0-.24-.34,1.31,1.31,0,0,0-.36-.21,1.26,1.26,0,0,0-.43-.08,1.12,1.12,0,0,0-.77.29,1.29,1.29,0,0,0-.4.72l-.57-.11a1.55,1.55,0,0,1,.22-.55,1.61,1.61,0,0,1,.38-.44,1.55,1.55,0,0,1,.52-.29,1.8,1.8,0,0,1,.62-.11,2.27,2.27,0,0,1,.65.1,1.57,1.57,0,0,1,.54.3,1.41,1.41,0,0,1,.37.49,1.57,1.57,0,0,1,.14.67,1.65,1.65,0,0,1-.08.51,2.48,2.48,0,0,1-.2.44,2.19,2.19,0,0,1-.29.39c-.11.13-.23.25-.35.38l-2,2h3Z"/><path d="M146.84,460a1.36,1.36,0,0,1,.74-.21l.32,0a1.44,1.44,0,0,1,.32.13,1.05,1.05,0,0,1,.28.24,1.22,1.22,0,0,1,.23.39,1.36,1.36,0,0,1,.53-.58,1.42,1.42,0,0,1,.78-.21,1.3,1.3,0,0,1,1.07.43,1.66,1.66,0,0,1,.36,1.12v2.29h-.55v-2.07a1.76,1.76,0,0,0-.22-.95.79.79,0,0,0-.74-.36,1,1,0,0,0-.5.12.9.9,0,0,0-.33.31,1.51,1.51,0,0,0-.18.45,2.1,2.1,0,0,0-.06.51v2h-.54v-2.18a3.75,3.75,0,0,0,0-.5,1.31,1.31,0,0,0-.14-.38.73.73,0,0,0-.28-.24,1.13,1.13,0,0,0-.45-.08.92.92,0,0,0-.38.09,1,1,0,0,0-.36.26,1.67,1.67,0,0,0-.25.46,2.08,2.08,0,0,0-.09.65v1.92h-.55v-2.92c0-.1,0-.23,0-.39s0-.3,0-.43h.52a3.25,3.25,0,0,1,0,.33c0,.13,0,.23,0,.31h0A1.19,1.19,0,0,1,146.84,460Z"/><g class="h"><path class="d" d="M96,690.35h-.87v-8.5h2.5a5.3,5.3,0,0,1,1.16.12,2.64,2.64,0,0,1,.92.39,2,2,0,0,1,.61.7,2.41,2.41,0,0,1,.21,1.06,2.11,2.11,0,0,1-.16.85,2.28,2.28,0,0,1-.46.67,2.12,2.12,0,0,1-.68.45,3.08,3.08,0,0,1-.87.21l2.49,4.05H99.83l-2.35-4H96Zm0-4.72h1.5a2.78,2.78,0,0,0,1.6-.38,1.27,1.27,0,0,0,.57-1.13,1.41,1.41,0,0,0-.16-.71,1.21,1.21,0,0,0-.43-.47,2,2,0,0,0-.67-.26,4.06,4.06,0,0,0-.88-.08H96Z"/><path class="d" d="M102.3,690.35h-1l3.67-8.5h.84l3.65,8.5h-1l-.93-2.23h-4.4Zm1.25-3h3.74l-1.87-4.51Z"/><path class="d" d="M111.63,690.35h-.87v-8.5h.87Z"/><path class="d" d="M119.91,689.09h0v-7.24h.86v8.5h-1.08L114.77,683h0v7.31h-.87v-8.5H115Z"/><path class="d" d="M123.91,690.35h-.86v-8.5h.86Z"/><path class="d" d="M127,689.58h4.55v.77h-5.41v-8.5h5.27v.77H127v2.92h4.12v.76H127Z"/><path class="d" d="M134.14,690.35h-.87v-8.5h2.5a5.36,5.36,0,0,1,1.16.12,2.64,2.64,0,0,1,.92.39,2,2,0,0,1,.61.7,2.41,2.41,0,0,1,.21,1.06,2.11,2.11,0,0,1-.16.85,2.28,2.28,0,0,1-.46.67,2.06,2.06,0,0,1-.69.45,2.93,2.93,0,0,1-.86.21l2.48,4.05h-1l-2.35-4h-1.44Zm0-4.72h1.5a2.78,2.78,0,0,0,1.6-.38,1.27,1.27,0,0,0,.57-1.13,1.41,1.41,0,0,0-.16-.71,1.29,1.29,0,0,0-.43-.47,2,2,0,0,0-.67-.26,4.06,4.06,0,0,0-.88-.08h-1.53Z"/><path class="d" d="M145.85,689.23h0l2.76-7.38h.93l-3.25,8.5h-.92l-3.24-8.5h.94Z"/><path class="d" d="M151.59,690.35h-.87v-8.5h.87Z"/><path class="d" d="M158,683.22a2.13,2.13,0,0,0-.71-.62,2.25,2.25,0,0,0-1-.23,2.41,2.41,0,0,0-.64.09,2.05,2.05,0,0,0-.59.3,1.46,1.46,0,0,0-.42.5,1.42,1.42,0,0,0-.17.7,1.27,1.27,0,0,0,.16.68,1.58,1.58,0,0,0,.41.45,2.51,2.51,0,0,0,.59.3l.69.24.89.31a3.5,3.5,0,0,1,.81.44,2.06,2.06,0,0,1,.58.69,2.15,2.15,0,0,1,.23,1,2.31,2.31,0,0,1-.24,1.09,2.27,2.27,0,0,1-.63.77,2.75,2.75,0,0,1-.89.44,3.4,3.4,0,0,1-1,.14,4,4,0,0,1-.77-.07,3.67,3.67,0,0,1-.73-.24,2.88,2.88,0,0,1-.65-.39,3.14,3.14,0,0,1-.53-.56l.75-.55a2.16,2.16,0,0,0,.77.76,2.13,2.13,0,0,0,1.17.31,2.16,2.16,0,0,0,.66-.1,1.85,1.85,0,0,0,.61-.31,1.69,1.69,0,0,0,.44-.52,1.55,1.55,0,0,0,0-1.45,1.44,1.44,0,0,0-.46-.49,2.27,2.27,0,0,0-.66-.33l-.78-.27c-.28-.09-.56-.19-.83-.3a2.84,2.84,0,0,1-.73-.44,2,2,0,0,1-.52-.66,2.46,2.46,0,0,1,0-2,2.18,2.18,0,0,1,.65-.73,2.7,2.7,0,0,1,.87-.42,3.51,3.51,0,0,1,1-.13,3.34,3.34,0,0,1,1.48.3,2.59,2.59,0,0,1,.92.73Z"/><path class="d" d="M163.12,690.35h-.87v-7.73h-2.84v-.77H166v.77h-2.84Z"/><path class="d" d="M166.45,690.35h-.94l3.67-8.5H170l3.65,8.5h-1l-.94-2.23h-4.39Zm1.25-3h3.74l-1.87-4.51Z"/></g><line class="v" x1="243.72" y1="23.85" x2="251.17" y2="7.26"/><polyline class="v" points="244.81 9.68 251.17 7.26 253.59 13.61"/><g class="w"><path class="d" d="M241.74,30.1l-.45-3.37h0l-1.17,2.66-.94-.43,1.81-4,1.11.5.44,3.36h0l1.16-2.65.95.43-1.82,4Z"/></g><polygon class="d" points="146.54 84.48 146.54 64.68 142.18 62.16 147.04 62.14 188.15 62.14 188.15 84.48 146.54 84.48"/><path d="M187.65,62.64V84H147V64.39l-3-1.74h43.62m1-1H144l-3.7,0,3.2,1.85L146,65V85h42.61V61.64Z"/><path d="M153.93,67.16a1.93,1.93,0,0,0-.69-.53,1.91,1.91,0,0,0-1.24-.16,1,1,0,0,0-.38.14.86.86,0,0,0-.28.26.76.76,0,0,0-.11.41.64.64,0,0,0,.09.36.92.92,0,0,0,.26.26,2.76,2.76,0,0,0,.42.19c.16.06.34.13.54.19l.9.32a3.32,3.32,0,0,1,.85.46,2.39,2.39,0,0,1,.63.71,2.07,2.07,0,0,1,.26,1.07,2.75,2.75,0,0,1-.27,1.26,2.52,2.52,0,0,1-.73.88,2.91,2.91,0,0,1-1,.52,4.55,4.55,0,0,1-1.22.17,5.07,5.07,0,0,1-1.76-.32,3.66,3.66,0,0,1-1.42-.91l1.35-1.36a2.54,2.54,0,0,0,.82.64,2.26,2.26,0,0,0,1,.26,2.22,2.22,0,0,0,.45,0,1.18,1.18,0,0,0,.38-.16.79.79,0,0,0,.25-.29.83.83,0,0,0,.1-.43.71.71,0,0,0-.12-.41,1.12,1.12,0,0,0-.34-.3,2.58,2.58,0,0,0-.55-.25l-.75-.25a7,7,0,0,1-.8-.31,3,3,0,0,1-.7-.46,2.16,2.16,0,0,1-.49-.69,2.38,2.38,0,0,1-.19-1,2.43,2.43,0,0,1,.29-1.21,2.62,2.62,0,0,1,.76-.83,3.34,3.34,0,0,1,1-.47,4.85,4.85,0,0,1,1.19-.15,4.56,4.56,0,0,1,1.47.26,4,4,0,0,1,1.32.78Z"/><path d="M160.41,66.71v6.74h-2V66.71H156V65h6.85v1.75Z"/><path d="M168.83,73.45l-.66-1.67h-3.28l-.63,1.67H162L165.59,65h2l3.53,8.49Zm-2.28-6.23-1.08,2.92h2.14Z"/><path d="M176.49,73.45l-1.85-3.37H174v3.37h-2V65h3.24a6,6,0,0,1,1.2.12,3.31,3.31,0,0,1,1,.43,2.25,2.25,0,0,1,.74.79,2.53,2.53,0,0,1,.27,1.22A2.3,2.3,0,0,1,178,69a2.63,2.63,0,0,1-1.3.84l2.22,3.63Zm-.08-5.89a.91.91,0,0,0-.13-.49.81.81,0,0,0-.33-.28,1.26,1.26,0,0,0-.44-.14,2.74,2.74,0,0,0-.48,0h-1.1v2h1a3.12,3.12,0,0,0,.52,0,1.69,1.69,0,0,0,.48-.15,1,1,0,0,0,.36-.31A1,1,0,0,0,176.41,67.56Z"/><path d="M183.65,66.71v6.74H181.6V66.71h-2.4V65h6.86v1.75Z"/><path d="M149.9,80.94h3v.51h-3.61V75.79h3.51v.51H149.9v1.94h2.74v.52H149.9Z"/><path d="M154,81.45h-.54v-6H154Z"/><path d="M158.42,79.47v.12a.57.57,0,0,1,0,.13h-3.1a1.32,1.32,0,0,0,.11.53,1.17,1.17,0,0,0,.29.43,1.33,1.33,0,0,0,.43.3,1.37,1.37,0,0,0,.54.1,1.35,1.35,0,0,0,.73-.19,1.56,1.56,0,0,0,.47-.45l.4.32a2,2,0,0,1-1.6.79,2,2,0,0,1-.78-.15,2,2,0,0,1-.61-.41,2.05,2.05,0,0,1-.4-.63,2,2,0,0,1-.15-.78,2.21,2.21,0,0,1,.14-.78,2.05,2.05,0,0,1,.4-.63,1.94,1.94,0,0,1,.6-.41,2,2,0,0,1,1.52,0,1.54,1.54,0,0,1,.56.4,1.58,1.58,0,0,1,.34.59A2.09,2.09,0,0,1,158.42,79.47Zm-.55-.18a1.36,1.36,0,0,0-.34-.87,1.13,1.13,0,0,0-.9-.35,1.25,1.25,0,0,0-.51.1,1.09,1.09,0,0,0-.4.27,1.24,1.24,0,0,0-.29.39,1.47,1.47,0,0,0-.11.46Z"/><path d="M160.61,81.45H160l-1.53-3.74h.61l1.22,3.17h0l1.23-3.17h.58Z"/><path d="M163.42,78.09a.44.44,0,0,1-.12.3.43.43,0,0,1-.62,0,.44.44,0,0,1,0-.6.43.43,0,0,1,.62,0A.44.44,0,0,1,163.42,78.09Zm0,3a.44.44,0,0,1-.12.3.43.43,0,0,1-.62,0,.43.43,0,0,1,0-.6.43.43,0,0,1,.62,0A.44.44,0,0,1,163.42,81.07Z"/><path d="M168.48,79.57h.83v.51h-.83v1.37h-.56V80.08h-2.59v-.56l2.4-3.73h.75Zm-.56-3.13h0l-2,3.13h2Z"/><path d="M171.53,75.64a1.48,1.48,0,0,1,.88.26,1.89,1.89,0,0,1,.57.68,3.09,3.09,0,0,1,.31,1,6.59,6.59,0,0,1,.09,1.09,6.38,6.38,0,0,1-.09,1.08,3,3,0,0,1-.31,1,1.81,1.81,0,0,1-.57.68,1.64,1.64,0,0,1-1.77,0,1.81,1.81,0,0,1-.57-.68,2.79,2.79,0,0,1-.3-1,6.38,6.38,0,0,1-.09-1.08,6.59,6.59,0,0,1,.09-1.09,2.85,2.85,0,0,1,.3-1,1.89,1.89,0,0,1,.57-.68A1.49,1.49,0,0,1,171.53,75.64Zm0,.49a.92.92,0,0,0-.63.23,1.83,1.83,0,0,0-.39.6,3.12,3.12,0,0,0-.2.8,6.47,6.47,0,0,0-.06.87,6.33,6.33,0,0,0,.06.86,3.23,3.23,0,0,0,.2.8,1.74,1.74,0,0,0,.39.58,1,1,0,0,0,1.25,0,1.74,1.74,0,0,0,.39-.58,3.74,3.74,0,0,0,.21-.8,6.33,6.33,0,0,0,.06-.86,6.47,6.47,0,0,0-.06-.87,3.59,3.59,0,0,0-.21-.8,1.83,1.83,0,0,0-.39-.6A.91.91,0,0,0,171.53,76.13Z"/><path d="M174.77,81.07a.44.44,0,0,1-.12.3.43.43,0,0,1-.62,0,.43.43,0,0,1,0-.6.43.43,0,0,1,.62,0A.44.44,0,0,1,174.77,81.07Z"/><path d="M179.08,81.45h-3.62v-.6l2.32-2.34a3.33,3.33,0,0,0,.25-.28,1.6,1.6,0,0,0,.22-.31,1,1,0,0,0,.15-.34,1.15,1.15,0,0,0,.06-.37,1.13,1.13,0,0,0-.09-.45,1.16,1.16,0,0,0-.24-.34,1.31,1.31,0,0,0-.36-.21,1.26,1.26,0,0,0-.43-.08,1.12,1.12,0,0,0-.77.29,1.26,1.26,0,0,0-.4.72L175.6,77a1.55,1.55,0,0,1,.22-.55,1.48,1.48,0,0,1,.38-.44,1.55,1.55,0,0,1,.52-.29,1.8,1.8,0,0,1,.62-.11,2.27,2.27,0,0,1,.65.1,1.57,1.57,0,0,1,.54.3,1.41,1.41,0,0,1,.37.49,1.57,1.57,0,0,1,.14.67,1.7,1.7,0,0,1-.08.51,2.48,2.48,0,0,1-.2.44,2.19,2.19,0,0,1-.29.39c-.11.13-.23.25-.35.38l-2,2h3Z"/><path d="M180.79,77.82a1.38,1.38,0,0,1,.74-.21l.32,0a1.08,1.08,0,0,1,.32.13,1.28,1.28,0,0,1,.29.24,1.21,1.21,0,0,1,.22.39,1.42,1.42,0,0,1,1.32-.79,1.28,1.28,0,0,1,1.06.43,1.66,1.66,0,0,1,.36,1.12v2.29h-.54V79.38a1.85,1.85,0,0,0-.22-.95.82.82,0,0,0-.75-.36,1,1,0,0,0-.5.12.9.9,0,0,0-.33.31,1.51,1.51,0,0,0-.18.45,2.1,2.1,0,0,0-.05.51v2h-.55V79.27a2.6,2.6,0,0,0,0-.5,1.07,1.07,0,0,0-.14-.38.78.78,0,0,0-.27-.24,1.17,1.17,0,0,0-.45-.08.92.92,0,0,0-.39.09.87.87,0,0,0-.35.26,1.27,1.27,0,0,0-.25.46,1.81,1.81,0,0,0-.1.65v1.92h-.54V78.53c0-.1,0-.23,0-.39s0-.3,0-.43h.52q0,.15,0,.33c0,.13,0,.23,0,.31h0A1.25,1.25,0,0,1,180.79,77.82Z"/><g class="x"><polygon class="d" points="172.09 432.54 173.57 429.17 180.58 432.18 179.1 435.55 172.09 432.54"/></g><polygon class="d" points="174.65 426.37 171.59 426.37 171.59 412.05 196.32 412.05 196.32 426.37 178.34 426.37 176.49 429.57 174.65 426.37"/><path d="M195.82,412.55v13.32H178.05l-1.56,2.7-1.56-2.7h-2.84V412.55h23.73m1-1H171.09v15.32h3.27l1.27,2.2.86,1.5.87-1.5,1.27-2.2h18.19V411.55Z"/><path d="M180.5,422.42,180,421h-2.74l-.52,1.39h-1.86l3-7.08h1.66l2.94,7.08Zm-1.9-5.19-.9,2.43h1.78Z"/><path d="M183,422.42v-7.08h1.72v7.08Z"/><path d="M192.78,418.86a3.47,3.47,0,0,1-.35,1.6,3.2,3.2,0,0,1-.91,1.11,3.71,3.71,0,0,1-1.27.64,5.12,5.12,0,0,1-1.44.21h-2.64v-7.08h2.56a6.72,6.72,0,0,1,1.48.17,3.83,3.83,0,0,1,1.3.58,3,3,0,0,1,.92,1.09A3.67,3.67,0,0,1,192.78,418.86Zm-1.78,0a2.28,2.28,0,0,0-.2-1,1.7,1.7,0,0,0-.52-.63,2.26,2.26,0,0,0-.74-.33,3.41,3.41,0,0,0-.85-.1h-.85v4.14h.81a3.66,3.66,0,0,0,.88-.11,2.14,2.14,0,0,0,.75-.34,1.73,1.73,0,0,0,.52-.64A2.27,2.27,0,0,0,191,418.86Z"/><circle cx="133.83" cy="426.1" r="2.5"/><path class="d" d="M133.83,424.1a2,2,0,1,1-2,2,2,2,0,0,1,2-2m0-1a3,3,0,1,0,3,3,3,3,0,0,0-3-3Z"/><polyline class="u" points="31.68 520.33 36.29 516.98 39.63 521.59"/><polyline class="u" points="31.68 543.77 36.29 547.12 39.64 542.5"/><path class="u" d="M36.28,517a99.25,99.25,0,0,0,0,30"/><polyline class="u" points="235.94 543.77 231.34 547.12 227.99 542.5"/><polyline class="u" points="235.94 520.33 231.33 516.98 227.98 521.59"/><path class="u" d="M231.34,547.08a99.25,99.25,0,0,0,0-30"/></g></svg>