<?xml version="1.0" encoding="utf-8"?>
<!-- Generator: Adobe Illustrator 26.0.2, SVG Export Plug-In . SVG Version: 6.00 Build 0)  -->
<svg version="1.1" id="Layer_1" xmlns="http://www.w3.org/2000/svg" xmlns:xlink="http://www.w3.org/1999/xlink" x="0px" y="0px"
	 viewBox="0 0 137.741 140.98" enable-background="new 0 0 137.741 140.98" xml:space="preserve">
<g>
	<g>
		<path fill="#FFFFFF" d="M82.247,27.062c0.589,0.182,1.169,0.381,1.747,0.586l1.028-2.829c-0.632-0.224-1.267-0.44-1.911-0.638
			L82.247,27.062z"/>
		<path fill="#FFFFFF" d="M72.07,25.175c0.615,0.043,1.229,0.093,1.837,0.161l0.359-2.979c-0.665-0.074-1.334-0.129-2.007-0.175
			L72.07,25.175z"/>
		<path fill="#FFFFFF" d="M87.101,28.881c0.563,0.248,1.122,0.501,1.673,0.771l1.345-2.697c-0.602-0.295-1.214-0.572-1.83-0.842
			L87.101,28.881z"/>
		<path fill="#FFFFFF" d="M74.651,25.43c0.611,0.078,1.219,0.166,1.823,0.268l0.529-2.955c-0.66-0.112-1.325-0.208-1.993-0.292
			L74.651,25.43z"/>
		<path fill="#FFFFFF" d="M79.747,26.375c0.598,0.148,1.19,0.31,1.778,0.481l0.864-2.88c-0.643-0.187-1.291-0.364-1.945-0.524
			L79.747,26.375z"/>
		<path fill="#FFFFFF" d="M77.212,25.831c0.606,0.113,1.207,0.239,1.804,0.375l0.697-2.923c-0.653-0.149-1.309-0.286-1.971-0.408
			L77.212,25.831z"/>
		<path fill="#FFFFFF" d="M84.701,27.9c0.577,0.215,1.149,0.44,1.714,0.677l1.188-2.768c-0.618-0.259-1.243-0.505-1.874-0.739
			L84.701,27.9z"/>
		<path fill="#FFFFFF" d="M99.991,33.38l-1.925,2.328c0.47,0.395,0.937,0.795,1.39,1.209l2.054-2.215
			C101.015,34.249,100.506,33.812,99.991,33.38z"/>
		<path fill="#FFFFFF" d="M89.442,29.994c0.548,0.279,1.09,0.567,1.625,0.868l1.497-2.618c-0.585-0.329-1.177-0.643-1.777-0.948
			L89.442,29.994z"/>
		<path fill="#FFFFFF" d="M100,37.434c0.447,0.421,0.887,0.848,1.317,1.287l2.177-2.094c-0.469-0.48-0.95-0.948-1.439-1.408
			L100,37.434z"/>
		<path fill="#FFFFFF" d="M96.041,34.09c0.492,0.368,0.972,0.751,1.448,1.139l1.925-2.328c-0.521-0.424-1.046-0.842-1.585-1.244
			L96.041,34.09z"/>
		<path fill="#FFFFFF" d="M91.716,31.236c0.531,0.31,1.054,0.631,1.571,0.962l1.645-2.529c-0.565-0.362-1.138-0.712-1.719-1.051
			L91.716,31.236z"/>
		<path fill="#FFFFFF" d="M93.918,32.603c0.512,0.34,1.015,0.693,1.512,1.052l1.788-2.433c-0.544-0.393-1.094-0.778-1.655-1.149
			L93.918,32.603z"/>
		<path fill="#FFFFFF" d="M53.967,27.572c0.579-0.202,1.161-0.396,1.75-0.575l-0.845-2.886c-0.645,0.194-1.281,0.405-1.914,0.625
			L53.967,27.572z"/>
		<path fill="#FFFFFF" d="M42.5,33.519c0.499-0.357,1.004-0.706,1.519-1.043l-1.629-2.54c-0.562,0.368-1.115,0.748-1.661,1.139
			L42.5,33.519z"/>
		<path fill="#FFFFFF" d="M69.243,25.059c0.697,0.006,1.391,0.022,2.08,0.059l0.189-2.994c-0.751-0.04-1.507-0.059-2.267-0.065
			L69.243,25.059z"/>
		<path fill="#FFFFFF" d="M46.876,30.744c0.536-0.298,1.081-0.581,1.63-0.858l-1.327-2.707c-0.601,0.302-1.196,0.612-1.782,0.937
			L46.876,30.744z"/>
		<path fill="#FFFFFF" d="M44.649,32.071c0.519-0.328,1.044-0.645,1.576-0.952l-1.48-2.628c-0.583,0.335-1.158,0.681-1.725,1.04
			L44.649,32.071z"/>
		<path fill="#FFFFFF" d="M38.457,36.76c0.456-0.411,0.92-0.813,1.392-1.206l-1.909-2.341c-0.517,0.429-1.024,0.869-1.523,1.319
			L38.457,36.76z"/>
		<path fill="#FFFFFF" d="M40.434,35.083c0.478-0.385,0.96-0.764,1.454-1.129l-1.771-2.445c-0.54,0.399-1.069,0.813-1.591,1.233
			L40.434,35.083z"/>
		<path fill="#FFFFFF" d="M49.174,29.544c0.552-0.267,1.114-0.516,1.678-0.761l-1.17-2.777c-0.617,0.267-1.231,0.54-1.835,0.831
			L49.174,29.544z"/>
		<path fill="#FFFFFF" d="M61.496,25.657c0.604-0.099,1.213-0.182,1.824-0.256l-0.34-2.982c-0.669,0.081-1.334,0.171-1.995,0.28
			L61.496,25.657z"/>
		<path fill="#FFFFFF" d="M64.065,25.306c0.608-0.064,1.222-0.109,1.837-0.149l-0.169-2.996c-0.673,0.043-1.343,0.092-2.008,0.162
			L64.065,25.306z"/>
		<path fill="#FFFFFF" d="M66.65,25.106c0.611-0.029,1.226-0.042,1.843-0.047l0.002-3c-0.674,0.005-1.346,0.019-2.013,0.051
			L66.65,25.106z"/>
		<path fill="#FFFFFF" d="M56.439,26.792c0.59-0.168,1.183-0.326,1.782-0.47l-0.678-2.927c-0.655,0.157-1.304,0.328-1.948,0.512
			L56.439,26.792z"/>
		<path fill="#FFFFFF" d="M58.952,26.153c0.598-0.134,1.2-0.254,1.807-0.364l-0.51-2.959c-0.663,0.119-1.321,0.25-1.975,0.396
			L58.952,26.153z"/>
		<path fill="#FFFFFF" d="M51.542,28.49c0.567-0.235,1.136-0.465,1.714-0.677l-1.009-2.836c-0.632,0.231-1.255,0.481-1.875,0.737
			L51.542,28.49z"/>
		<path fill="#FFFFFF" d="M103.565,41.193c0.396,0.469,0.781,0.947,1.158,1.431l2.401-1.832c-0.412-0.53-0.833-1.053-1.267-1.566
			L103.565,41.193z"/>
		<path fill="#FFFFFF" d="M111.41,54.535c0.216,0.574,0.416,1.154,0.609,1.739l2.866-0.916c-0.21-0.639-0.429-1.274-0.665-1.901
			L111.41,54.535z"/>
		<path fill="#FFFFFF" d="M108.057,47.528c0.311,0.529,0.615,1.062,0.905,1.604l2.674-1.393c-0.316-0.593-0.648-1.177-0.988-1.755
			L108.057,47.528z"/>
		<path fill="#FFFFFF" d="M37.842,107.683l1.919-2.333c-0.471-0.394-0.937-0.794-1.392-1.206l-2.049,2.221
			C36.816,106.816,37.326,107.253,37.842,107.683z"/>
		<path fill="#FFFFFF" d="M109.304,49.799c0.281,0.546,0.552,1.097,0.81,1.655l2.747-1.238c-0.282-0.611-0.577-1.214-0.884-1.811
			L109.304,49.799z"/>
		<path fill="#FFFFFF" d="M106.684,45.329c0.341,0.511,0.675,1.026,0.995,1.551l2.593-1.546c-0.35-0.574-0.715-1.138-1.087-1.696
			L106.684,45.329z"/>
		<path fill="#FFFFFF" d="M105.187,43.214c0.369,0.49,0.724,0.992,1.073,1.497l2.501-1.691c-0.382-0.553-0.77-1.101-1.174-1.637
			L105.187,43.214z"/>
		<path fill="#FFFFFF" d="M110.424,52.138c0.249,0.561,0.485,1.127,0.711,1.7l2.811-1.078c-0.247-0.626-0.504-1.246-0.775-1.859
			L110.424,52.138z"/>
		<path fill="#FFFFFF" d="M117.164,66.914l-2.99,0.242c0.044,0.61,0.078,1.223,0.098,1.84l2.998-0.072
			C117.248,68.25,117.213,67.58,117.164,66.914z"/>
		<path fill="#FFFFFF" d="M114.309,70.49c0,0.368-0.019,0.732-0.028,1.098l2.998,0.099c0.01-0.399,0.03-0.796,0.03-1.198
			c0-0.274-0.016-0.543-0.021-0.816l-2.998,0.072C114.294,69.995,114.309,70.241,114.309,70.49z"/>
		<path fill="#FFFFFF" d="M113.912,64.577c0.079,0.607,0.15,1.217,0.205,1.832l2.99-0.243c-0.059-0.672-0.135-1.338-0.222-2.002
			L113.912,64.577z"/>
		<path fill="#FFFFFF" d="M112.26,56.985c0.183,0.585,0.346,1.178,0.505,1.772l2.912-0.75c-0.173-0.65-0.352-1.298-0.551-1.938
			L112.26,56.985z"/>
		<path fill="#FFFFFF" d="M113.505,62.017c0.114,0.602,0.222,1.206,0.312,1.816l2.973-0.413c-0.097-0.667-0.214-1.328-0.339-1.986
			L113.505,62.017z"/>
		<path fill="#FFFFFF" d="M112.954,59.483c0.148,0.595,0.291,1.192,0.416,1.796l2.948-0.583c-0.135-0.66-0.291-1.313-0.453-1.964
			L112.954,59.483z"/>
		<path fill="#FFFFFF" d="M111.906,85.041c-0.198,0.583-0.405,1.162-0.626,1.734l2.801,1.104c0.241-0.626,0.467-1.258,0.683-1.896
			L111.906,85.041z"/>
		<path fill="#FFFFFF" d="M112.668,82.564c-0.164,0.594-0.335,1.184-0.522,1.768l2.857,0.942c0.204-0.638,0.391-1.283,0.569-1.932
			L112.668,82.564z"/>
		<path fill="#FFFFFF" d="M113.29,80.046c-0.129,0.602-0.263,1.203-0.416,1.796l2.904,0.777c0.167-0.648,0.314-1.305,0.454-1.963
			L113.29,80.046z"/>
		<path fill="#FFFFFF" d="M114.262,72.338c-0.025,0.617-0.066,1.229-0.115,1.839l2.988,0.27c0.054-0.667,0.099-1.336,0.125-2.01
			L114.262,72.338z"/>
		<path fill="#FFFFFF" d="M114.09,74.925c-0.06,0.614-0.139,1.222-0.223,1.829l2.969,0.441c0.092-0.663,0.177-1.328,0.242-2
			L114.09,74.925z"/>
		<path fill="#FFFFFF" d="M113.767,77.498c-0.095,0.609-0.206,1.213-0.325,1.814l2.942,0.61c0.13-0.657,0.251-1.317,0.354-1.983
			L113.767,77.498z"/>
		<path fill="#FFFFFF" d="M111.004,87.473c-0.231,0.571-0.474,1.134-0.727,1.693l2.735,1.263c0.276-0.611,0.541-1.228,0.793-1.852
			L111.004,87.473z"/>
		<path fill="#FFFFFF" d="M109.968,89.849c-0.263,0.556-0.541,1.104-0.825,1.647l2.661,1.418c0.311-0.594,0.613-1.193,0.9-1.802
			L109.968,89.849z"/>
		<path fill="#FFFFFF" d="M101.834,39.264c0.422,0.446,0.835,0.899,1.24,1.362l2.292-1.966c-0.442-0.506-0.893-1.002-1.355-1.489
			L101.834,39.264z"/>
		<path fill="#FFFFFF" d="M105.116,102.609l-2.274-1.987c-0.408,0.459-0.826,0.908-1.252,1.35l2.158,2.114
			C104.213,103.603,104.67,103.112,105.116,102.609z"/>
		<path fill="#FFFFFF" d="M106.055,96.558c-0.354,0.503-0.714,1-1.087,1.487l2.384,1.853c0.408-0.533,0.802-1.076,1.188-1.626
			L106.055,96.558z"/>
		<path fill="#FFFFFF" d="M104.504,98.635c-0.381,0.481-0.771,0.955-1.171,1.42l2.274,1.987c0.438-0.509,0.864-1.027,1.281-1.554
			L104.504,98.635z"/>
		<path fill="#FFFFFF" d="M107.488,94.399c-0.324,0.522-0.654,1.04-0.998,1.548l2.484,1.714c0.377-0.555,0.738-1.122,1.092-1.693
			L107.488,94.399z"/>
		<path fill="#FFFFFF" d="M108.799,92.163c-0.294,0.54-0.604,1.07-0.919,1.597l2.577,1.569c0.344-0.576,0.683-1.155,1.004-1.746
			L108.799,92.163z"/>
		<path fill="#FFFFFF" d="M33.903,36.986c-0.464,0.485-0.92,0.977-1.364,1.481l2.28,1.981c0.406-0.46,0.823-0.911,1.248-1.354
			L33.903,36.986z"/>
		<path fill="#FFFFFF" d="M23.951,63.599c0.093-0.61,0.207-1.213,0.324-1.815l-2.943-0.602c-0.128,0.657-0.25,1.317-0.352,1.984
			L23.951,63.599z"/>
		<path fill="#FFFFFF" d="M23.639,66.174c0.058-0.614,0.134-1.223,0.217-1.83l-2.97-0.433c-0.09,0.663-0.172,1.329-0.235,2.001
			L23.639,66.174z"/>
		<path fill="#FFFFFF" d="M33.161,42.438c0.38-0.482,0.768-0.957,1.167-1.424l-2.279-1.981c-0.436,0.51-0.861,1.029-1.276,1.557
			L33.161,42.438z"/>
		<path fill="#FFFFFF" d="M24.422,61.049c0.128-0.603,0.264-1.202,0.416-1.796l-2.906-0.77c-0.166,0.649-0.314,1.305-0.453,1.964
			L24.422,61.049z"/>
		<path fill="#FFFFFF" d="M23.573,73.943c-0.046-0.61-0.082-1.223-0.104-1.84l-2.998,0.079c0.023,0.674,0.062,1.344,0.112,2.011
			L23.573,73.943z"/>
		<path fill="#FFFFFF" d="M23.841,76.521c-0.081-0.607-0.154-1.216-0.211-1.831l-2.99,0.25c0.061,0.672,0.14,1.338,0.229,2.001
			L23.841,76.521z"/>
		<path fill="#FFFFFF" d="M23.473,68.76c0.023-0.617,0.062-1.229,0.109-1.839l-2.989-0.263c-0.052,0.667-0.094,1.336-0.119,2.01
			L23.473,68.76z"/>
		<path fill="#FFFFFF" d="M30.186,46.681c0.323-0.523,0.652-1.042,0.995-1.551l-2.49-1.708c-0.375,0.556-0.735,1.124-1.087,1.696
			L30.186,46.681z"/>
		<path fill="#FFFFFF" d="M28.883,48.922c0.293-0.541,0.602-1.071,0.916-1.598l-2.581-1.562c-0.343,0.577-0.68,1.158-0.999,1.749
			L28.883,48.922z"/>
		<path fill="#FFFFFF" d="M25.794,56.051c0.196-0.584,0.401-1.163,0.62-1.735l-2.803-1.097c-0.239,0.626-0.463,1.259-0.676,1.897
			L25.794,56.051z"/>
		<path fill="#FFFFFF" d="M31.614,44.519c0.352-0.504,0.711-1.002,1.083-1.491l-2.388-1.847c-0.406,0.534-0.799,1.079-1.184,1.63
			L31.614,44.519z"/>
		<path fill="#FFFFFF" d="M26.69,53.618c0.229-0.571,0.47-1.136,0.721-1.695l-2.738-1.256c-0.275,0.612-0.537,1.23-0.787,1.854
			L26.69,53.618z"/>
		<path fill="#FFFFFF" d="M27.721,51.24c0.261-0.557,0.537-1.105,0.82-1.65l-2.664-1.411c-0.309,0.595-0.609,1.195-0.895,1.805
			L27.721,51.24z"/>
		<path fill="#FFFFFF" d="M25.037,58.531c0.162-0.594,0.331-1.186,0.516-1.77l-2.859-0.935c-0.203,0.639-0.387,1.285-0.563,1.935
			L25.037,58.531z"/>
		<path fill="#FFFFFF" d="M34.251,99.877c-0.397-0.467-0.784-0.944-1.162-1.427l-2.396,1.838c0.414,0.529,0.836,1.05,1.271,1.561
			L34.251,99.877z"/>
		<path fill="#FFFFFF" d="M24.254,79.08c-0.116-0.602-0.226-1.206-0.318-1.816l-2.972,0.421c0.099,0.667,0.219,1.327,0.345,1.985
			L24.254,79.08z"/>
		<path fill="#FFFFFF" d="M31.118,95.751c-0.342-0.509-0.673-1.027-0.995-1.55l-2.588,1.552c0.351,0.573,0.713,1.139,1.087,1.696
			L31.118,95.751z"/>
		<path fill="#FFFFFF" d="M35.986,101.802c-0.423-0.444-0.838-0.896-1.244-1.358l-2.288,1.972c0.443,0.505,0.896,0.999,1.36,1.485
			L35.986,101.802z"/>
		<path fill="#FFFFFF" d="M37.824,103.628c-0.448-0.42-0.89-0.846-1.321-1.283l-2.172,2.099c0.471,0.479,0.954,0.945,1.444,1.404
			L37.824,103.628z"/>
		<path fill="#FFFFFF" d="M101.072,102.516c-0.433,0.435-0.878,0.857-1.328,1.275l2.034,2.234c0.493-0.456,0.979-0.919,1.453-1.395
			L101.072,102.516z"/>
		<path fill="#FFFFFF" d="M32.625,97.86c-0.37-0.489-0.727-0.989-1.078-1.494l-2.496,1.698c0.383,0.552,0.773,1.098,1.178,1.633
			L32.625,97.86z"/>
		<path fill="#FFFFFF" d="M25.516,84.108c-0.184-0.584-0.35-1.177-0.51-1.771l-2.91,0.758c0.175,0.65,0.356,1.297,0.557,1.936
			L25.516,84.108z"/>
		<path fill="#FFFFFF" d="M26.371,86.555c-0.217-0.573-0.42-1.153-0.614-1.737l-2.864,0.923c0.212,0.639,0.433,1.273,0.67,1.9
			L26.371,86.555z"/>
		<path fill="#FFFFFF" d="M29.74,93.555c-0.312-0.528-0.619-1.06-0.911-1.601l-2.67,1.401c0.318,0.592,0.652,1.175,0.993,1.752
			L29.74,93.555z"/>
		<path fill="#FFFFFF" d="M24.811,81.613c-0.15-0.594-0.289-1.193-0.416-1.796l-2.947,0.59c0.137,0.66,0.289,1.314,0.453,1.963
			L24.811,81.613z"/>
		<path fill="#FFFFFF" d="M27.363,88.951c-0.25-0.56-0.489-1.126-0.717-1.698l-2.808,1.086c0.248,0.626,0.508,1.245,0.781,1.857
			L27.363,88.951z"/>
		<path fill="#FFFFFF" d="M28.488,91.287c-0.282-0.545-0.555-1.095-0.815-1.652l-2.744,1.245c0.284,0.61,0.581,1.212,0.889,1.808
			L28.488,91.287z"/>
		<path fill="#FFFFFF" d="M36.584,38.551c0.432-0.437,0.876-0.861,1.325-1.279l-2.04-2.228c-0.491,0.458-0.976,0.922-1.448,1.399
			L36.584,38.551z"/>
		<path fill="#FFFFFF" d="M63.206,115.565c-0.612-0.076-1.221-0.162-1.825-0.262l-0.521,2.957c0.66,0.11,1.326,0.203,1.995,0.286
			L63.206,115.565z"/>
		<path fill="#FFFFFF" d="M60.643,115.17c-0.606-0.111-1.208-0.234-1.805-0.37l-0.689,2.924c0.653,0.148,1.311,0.281,1.973,0.402
			L60.643,115.17z"/>
		<path fill="#FFFFFF" d="M65.786,115.814c-0.615-0.041-1.229-0.089-1.837-0.154l-0.352,2.98c0.665,0.072,1.335,0.124,2.007,0.169
			L65.786,115.814z"/>
		<path fill="#FFFFFF" d="M68.376,115.918c-0.616-0.007-1.232-0.016-1.843-0.047l-0.181,2.994c0.667,0.034,1.34,0.045,2.014,0.052
			L68.376,115.918z"/>
		<path fill="#FFFFFF" d="M70.969,115.877c-0.611,0.028-1.225,0.043-1.843,0.047l-0.01,3c0.675-0.003,1.346-0.02,2.014-0.051
			L70.969,115.877z"/>
		<path fill="#FFFFFF" d="M58.107,114.632c-0.598-0.146-1.191-0.306-1.78-0.476l-0.856,2.882c0.644,0.185,1.292,0.359,1.947,0.518
			L58.107,114.632z"/>
		<path fill="#FFFFFF" d="M55.605,113.951c-0.589-0.18-1.17-0.377-1.749-0.58l-1.02,2.831c0.633,0.222,1.269,0.436,1.913,0.632
			L55.605,113.951z"/>
		<path fill="#FFFFFF" d="M46.124,109.803c-0.531-0.309-1.056-0.628-1.573-0.957l-1.639,2.534c0.566,0.36,1.14,0.708,1.721,1.045
			L46.124,109.803z"/>
		<path fill="#FFFFFF" d="M43.92,108.441c-0.513-0.338-1.017-0.689-1.515-1.048l-1.781,2.437c0.545,0.392,1.096,0.775,1.657,1.144
			L43.92,108.441z"/>
		<path fill="#FFFFFF" d="M48.402,111.04c-0.548-0.278-1.092-0.564-1.627-0.863l-1.49,2.622c0.585,0.327,1.18,0.64,1.78,0.943
			L48.402,111.04z"/>
		<path fill="#FFFFFF" d="M53.148,113.124c-0.578-0.214-1.149-0.441-1.715-0.678l-1.181,2.771c0.619,0.258,1.243,0.507,1.875,0.739
			L53.148,113.124z"/>
		<path fill="#FFFFFF" d="M73.554,115.689c-0.608,0.063-1.222,0.104-1.837,0.143l0.161,2.996c0.672-0.041,1.343-0.088,2.008-0.156
			L73.554,115.689z"/>
		<path fill="#FFFFFF" d="M50.745,112.149c-0.564-0.246-1.125-0.498-1.676-0.766l-1.338,2.701c0.603,0.293,1.216,0.569,1.833,0.837
			L50.745,112.149z"/>
		<path fill="#FFFFFF" d="M83.659,113.446c-0.58,0.2-1.163,0.392-1.753,0.569l0.837,2.888c0.645-0.193,1.283-0.401,1.916-0.62
			L83.659,113.446z"/>
		<path fill="#FFFFFF" d="M76.124,115.344c-0.604,0.097-1.214,0.177-1.825,0.25l0.332,2.983c0.669-0.079,1.335-0.167,1.995-0.273
			L76.124,115.344z"/>
		<path fill="#FFFFFF" d="M90.76,110.295c-0.537,0.297-1.084,0.578-1.634,0.854l1.32,2.71c0.602-0.3,1.199-0.608,1.786-0.932
			L90.76,110.295z"/>
		<path fill="#FFFFFF" d="M92.989,108.973c-0.519,0.327-1.046,0.641-1.579,0.947l1.473,2.632c0.584-0.334,1.16-0.678,1.728-1.035
			L92.989,108.973z"/>
		<path fill="#FFFFFF" d="M97.211,105.97c-0.479,0.383-0.963,0.76-1.458,1.125l1.765,2.449c0.541-0.398,1.072-0.809,1.595-1.229
			L97.211,105.97z"/>
		<path fill="#FFFFFF" d="M99.191,104.298c-0.457,0.41-0.919,0.815-1.393,1.207l1.904,2.347c0.518-0.428,1.023-0.87,1.523-1.319
			L99.191,104.298z"/>
		<path fill="#FFFFFF" d="M41.793,106.959c-0.493-0.367-0.974-0.748-1.451-1.134l-1.918,2.333c0.522,0.422,1.049,0.838,1.588,1.239
			L41.793,106.959z"/>
		<path fill="#FFFFFF" d="M95.141,107.53c-0.5,0.356-1.006,0.702-1.521,1.038l1.622,2.545c0.563-0.366,1.117-0.745,1.664-1.133
			L95.141,107.53z"/>
		<path fill="#FFFFFF" d="M88.457,111.486c-0.553,0.265-1.114,0.517-1.679,0.76l1.163,2.78c0.618-0.265,1.231-0.54,1.836-0.83
			L88.457,111.486z"/>
		<path fill="#FFFFFF" d="M78.67,114.854c-0.598,0.132-1.201,0.25-1.807,0.358l0.502,2.961c0.663-0.117,1.322-0.246,1.976-0.39
			L78.67,114.854z"/>
		<path fill="#FFFFFF" d="M81.185,114.22c-0.59,0.166-1.185,0.322-1.784,0.465l0.67,2.929c0.656-0.155,1.306-0.324,1.951-0.506
			L81.185,114.22z"/>
		<path fill="#FFFFFF" d="M23.429,70.49c0-0.328,0.018-0.653,0.025-0.979l-2.998-0.092c-0.008,0.357-0.027,0.712-0.027,1.071
			c0,0.316,0.018,0.628,0.024,0.942l2.998-0.079C23.445,71.065,23.429,70.779,23.429,70.49z"/>
		<path fill="#FFFFFF" d="M86.085,112.533c-0.568,0.233-1.138,0.461-1.717,0.672l1.001,2.838c0.633-0.229,1.257-0.477,1.878-0.732
			L86.085,112.533z"/>
	</g>
	<g id="unisplotch_accurate_00000041278158152161023720000007595707775522024639_">
		<g>
			<path fill="#FFFFFF" d="M65.466,52.046l1.342,11.518l-5.176-10.376C60.385,50.282,64.923,48.931,65.466,52.046L65.466,52.046z"/>
		</g>
		<g>
			<path fill="#FFFFFF" d="M51.195,64.216l10.646,4.597l-11.574-0.706C47.127,67.735,48.226,63.13,51.195,64.216L51.195,64.216z"/>
		</g>
		<g>
			<path fill="#FFFFFF" d="M54.599,82.66l9.304-6.921l-6.398,9.671C55.63,87.948,52.168,84.672,54.599,82.66L54.599,82.66z"/>
		</g>
		<g>
			<path fill="#FFFFFF" d="M72.275,88.934l-1.342-11.518l5.176,10.376C77.356,90.698,72.819,92.049,72.275,88.934L72.275,88.934z"/>
		</g>
		<g>
			<path fill="#FFFFFF" d="M86.546,76.764L75.9,72.168l11.574,0.706C90.614,73.245,89.515,77.85,86.546,76.764L86.546,76.764z"/>
		</g>
		<g>
			<path fill="#FFFFFF" d="M83.142,58.32l-9.304,6.921l6.398-9.671C82.112,53.032,85.573,56.307,83.142,58.32L83.142,58.32z"/>
		</g>
		<g>
			<path fill="#FFFFFF" d="M47.54,47.55l13.267,15.309L44.791,50.455C42.56,48.583,45.545,45.424,47.54,47.55L47.54,47.55z"/>
		</g>
		<g>
			<path fill="#FFFFFF" d="M38.338,77.493l19.891-3.835l-18.75,7.669C36.743,82.322,35.5,78.158,38.338,77.493L38.338,77.493z"/>
		</g>
		<g>
			<path fill="#FFFFFF" d="M59.669,100.433l6.624-19.144l-2.734,20.072C63.054,104.229,58.825,103.224,59.669,100.433
				L59.669,100.433z"/>
		</g>
		<g>
			<path fill="#FFFFFF" d="M90.201,93.43L76.935,78.122l16.016,12.403C95.181,92.397,92.197,95.556,90.201,93.43L90.201,93.43z"/>
		</g>
		<g>
			<path fill="#FFFFFF" d="M99.403,63.487l-19.891,3.835l18.75-7.669C100.998,58.658,102.242,62.822,99.403,63.487L99.403,63.487z"
				/>
		</g>
		<g>
			<path fill="#FFFFFF" d="M78.072,40.547l-6.624,19.144l2.734-20.072C74.687,36.751,78.916,37.756,78.072,40.547L78.072,40.547z"/>
		</g>
	</g>
	<circle fill="#FFFFFF" cx="68.871" cy="70.49" r="4.574"/>
</g>
<g>
	<g>
		<path fill="#FFFFFF" d="M11.08,37.524c1.794-3.211,4.648-3.645,7.175-2.231c2.527,1.414,3.812,4.095,1.989,7.358l-2.179,3.9
			l-9.164-5.127L11.08,37.524z M17.303,42.78l0.755-1.352c0.916-1.638,0.005-2.898-1.252-3.602s-2.687-0.667-3.565,0.906
			l-0.756,1.352L17.303,42.78z"/>
		<path fill="#FFFFFF" d="M31.87,27.737l-2.215,2.375l-4.147-0.544l-0.701,0.751l2.49,2.321l-2.012,2.157l-7.68-7.156l3.476-3.726
			c1.818-1.95,4.025-1.788,5.408-0.5c0.943,0.879,1.439,1.952,0.811,3.77l4.438,0.43L31.87,27.737z M21.351,27.099l1.844,1.717
			l1.483-1.59c0.528-0.567,0.334-1.216-0.127-1.646c-0.482-0.45-1.208-0.617-1.736-0.05L21.351,27.099z"/>
		<path fill="#FFFFFF" d="M36.949,11.437l3.216,4.904c1.715,2.588,1.099,5.072-1.457,6.745c-2.556,1.674-5.027,1.302-6.787-1.382
			l-3.199-4.879l2.456-1.608l3.199,4.879c0.904,1.38,1.943,1.524,2.94,0.871c0.998-0.653,1.264-1.688,0.392-3.017l-3.216-4.904
			L36.949,11.437z"/>
		<path fill="#FFFFFF" d="M52.897,9.648l-1.572,3.839l-0.497,0.158l-3.446-2.22l1.898,5.941l-2.781,0.888l-3.194-9.998l2.938-0.938
			l3.692,2.551l1.53-4.219l2.923-0.934l3.194,9.998L54.8,15.605L52.897,9.648z"/>
		<path fill="#FFFFFF" d="M68.696,13.859l-0.146-3.971l-3.749,0.139l0.146,3.971l-2.946,0.109L61.616,3.618l2.946-0.109l0.146,3.986
			l3.75-0.139L68.312,3.37l2.916-0.107l0.385,10.489L68.696,13.859z"/>
		<path fill="#FFFFFF" d="M84.258,15.869l-8.169-1.666l2.093-10.286l7.965,1.625L85.65,7.98l-5.12-1.044l-0.299,1.469L85.06,9.39
			l-0.481,2.366l-4.829-0.985l-0.316,1.558l5.324,1.086L84.258,15.869z"/>
		<path fill="#FFFFFF" d="M95.198,8.857l-3.264,7.282l4.555,2.04l-1.03,2.299l-7.247-3.245l4.294-9.581L95.198,8.857z"/>
		<path fill="#FFFFFF" d="M107.068,15.587l-4.691,6.453l4.038,2.934l-1.481,2.038l-6.426-4.668l6.174-8.492L107.068,15.587z"/>
		<path fill="#FFFFFF" d="M113.104,35.636l-5.571-6.212l7.819-7.007l5.432,6.057l-1.854,1.662l-3.492-3.894l-1.116,1.001
			l3.293,3.672l-1.799,1.612l-3.293-3.672l-1.184,1.061l3.631,4.049L113.104,35.636z"/>
		<path fill="#FFFFFF" d="M120.159,47.528l-1.557-2.851l1.825-3.763l-0.493-0.902l-2.989,1.631l-1.414-2.589l9.218-5.031
			l2.442,4.473c1.278,2.34,0.428,4.383-1.231,5.289c-1.132,0.618-2.308,0.75-3.835-0.419l-1.808,4.076L120.159,47.528z
			 M124.083,37.749l-2.213,1.207l1.043,1.909c0.371,0.68,1.049,0.701,1.603,0.399c0.579-0.316,0.967-0.952,0.596-1.632
			L124.083,37.749z"/>
	</g>
	<g>
		<path fill="#FFFFFF" d="M7.165,95.483l3.744-1.338l-1.272-3.561l-3.744,1.339l-1-2.798l9.891-3.536l1,2.798l-3.759,1.343
			l1.273,3.561l3.758-1.344l0.99,2.77l-9.891,3.536L7.165,95.483z"/>
		<path fill="#FFFFFF" d="M15.81,108.088l-2.531-3.955l-1.825,0.349l-1.698-2.653l11.383-1.694l1.618,2.527l-6.313,9.616
			l-1.714-2.679L15.81,108.088z M19.462,102.972l-3.545,0.666l1.447,2.262L19.462,102.972z"/>
		<path fill="#FFFFFF" d="M28.578,109.853l-5.715,5.568l3.507,3.599l-1.805,1.759l-5.579-5.726l7.52-7.327L28.578,109.853z"/>
		<path fill="#FFFFFF" d="M27.516,123.224l6.088-8.556l6.563,4.67l-1.444,2.029l-4.167-2.966l-1.14,1.601l3.911,2.783l-1.409,1.98
			l-3.911-2.783l-2.096,2.946L27.516,123.224z"/>
		<path fill="#FFFFFF" d="M53.185,129.347l-3.53,2.2l-0.499-0.161l-1.524-3.817l-1.917,5.935l-2.797-0.903l3.226-9.987l2.954,0.954
			l1.532,4.229l3.718-2.534l2.938,0.95l-3.226,9.987l-2.796-0.903L53.185,129.347z"/>
		<path fill="#FFFFFF" d="M66.701,135.885l-4.686-0.325l-0.808,1.673l-3.144-0.218l5.427-10.152l2.993,0.208l3.959,10.803
			l-3.173-0.22L66.701,135.885z M64.77,129.9l-1.578,3.245l2.679,0.186L64.77,129.9z"/>
		<path fill="#FFFFFF" d="M83.836,136.114l-3.233,0.479l-2.916-3.008l-1.023,0.151l0.498,3.367l-2.937,0.436l-1.538-10.382
			l5.072-0.751c2.655-0.394,4.287,1.108,4.564,2.977c0.188,1.276-0.096,2.424-1.731,3.455l3.218,3.1L83.836,136.114z
			 M75.971,129.064l0.369,2.492l2.165-0.321c0.771-0.114,1.027-0.743,0.935-1.366c-0.097-0.652-0.562-1.235-1.333-1.121
			L75.971,129.064z"/>
		<path fill="#FFFFFF" d="M94.628,130.569l-4.37,1.719l-0.011,1.858l-2.932,1.154l0.538-11.498l2.793-1.099l8.215,8.054l-2.96,1.165
			L94.628,130.569z M90.312,125.995l-0.031,3.608l2.499-0.983L90.312,125.995z"/>
		<path fill="#FFFFFF" d="M98.577,121.412l-2.587,1.634l-1.306-2.067l7.684-4.854l1.306,2.066l-2.6,1.643l4.302,6.809l-2.497,1.578
			L98.577,121.412z"/>
		<path fill="#FFFFFF" d="M115.998,117.935l-2.749-2.871l-2.73,2.615l2.75,2.871l-2.146,2.054l-7.263-7.583l2.145-2.054l2.761,2.882
			l2.729-2.615l-2.76-2.882l2.123-2.034l7.264,7.584L115.998,117.935z"/>
		<path fill="#FFFFFF" d="M124.529,107.697c-1.876,2.875-4.857,3.795-7.796,1.878c-2.889-1.885-3.298-5.017-1.422-7.893
			c1.885-2.888,4.87-3.787,7.797-1.878C126.047,101.722,126.414,104.808,124.529,107.697z M117.435,103.067
			c-0.927,1.419-0.536,3.071,0.921,4.021c1.47,0.959,3.134,0.63,4.052-0.776c0.95-1.457,0.535-3.071-0.922-4.021
			C119.979,101.308,118.385,101.61,117.435,103.067z"/>
		<path fill="#FFFFFF" d="M127.359,90.326c-1.211-0.356-1.663-0.519-2.049-0.642l-3.388-1.22l1.012-2.809l9.88,3.557l-0.854,2.372
			l-6.805,2.206l2.175,0.735l3.161,1.138l-1.017,2.823l-9.88-3.557l0.854-2.371L127.359,90.326z"/>
	</g>
	<g>
		<g>
			<path fill="#FFFFFF" d="M1.425,73.372h5.913v0.408H1.017v-1.823c0-1.835,1.703-2.291,3.227-2.291
				c1.211,0,2.854-0.468,2.854-1.991c0-1.607-1.679-2.039-2.878-2.039c-1.164,0-2.759,0.396-2.747,1.931H1.065
				c-0.036-1.739,1.667-2.291,3.154-2.291c1.547,0,3.214,0.636,3.237,2.411c0,1.607-1.763,2.363-3.178,2.363
				c-1.355,0.012-2.854,0.324-2.854,1.895C1.425,71.944,1.425,73.372,1.425,73.372z"/>
			<path fill="#FFFFFF" d="M8.912,68.49c0-4.258,6.237-4.246,6.237,0v2.171c0,4.246-6.237,4.257-6.237,0V68.49z M9.32,70.661
				c0,3.742,5.421,3.718,5.421,0V68.49c0-3.718-5.421-3.73-5.421,0C9.32,68.49,9.32,70.661,9.32,70.661z"/>
		</g>
		<g>
			<circle fill="#FFFFFF" cx="2.831" cy="60.252" r="0.458"/>
			<circle fill="#FFFFFF" cx="5.467" cy="60.252" r="0.458"/>
			<circle fill="#FFFFFF" cx="8.104" cy="60.252" r="0.458"/>
			<circle fill="#FFFFFF" cx="10.74" cy="60.252" r="0.458"/>
			<circle fill="#FFFFFF" cx="13.376" cy="60.252" r="0.458"/>
		</g>
		<g>
			<circle fill="#FFFFFF" cx="2.831" cy="78.534" r="0.458"/>
			<circle fill="#FFFFFF" cx="5.467" cy="78.534" r="0.458"/>
			<circle fill="#FFFFFF" cx="8.104" cy="78.534" r="0.458"/>
			<circle fill="#FFFFFF" cx="10.74" cy="78.534" r="0.458"/>
			<circle fill="#FFFFFF" cx="13.376" cy="78.534" r="0.458"/>
		</g>
	</g>
	<g>
		<g>
			<path fill="#FFFFFF" d="M123.002,73.372h5.913v0.408h-6.321v-1.823c0-1.835,1.703-2.291,3.227-2.291
				c1.211,0,2.854-0.468,2.854-1.991c0-1.607-1.679-2.039-2.878-2.039c-1.164,0-2.759,0.396-2.747,1.931h-0.407
				c-0.036-1.739,1.667-2.291,3.154-2.291c1.547,0,3.214,0.636,3.237,2.411c0,1.607-1.763,2.363-3.178,2.363
				c-1.355,0.012-2.854,0.324-2.854,1.895C123.002,71.944,123.002,73.372,123.002,73.372z"/>
			<path fill="#FFFFFF" d="M130.508,67.363c0.013-1.727,1.715-2.087,3.083-2.087c2.086,0,3.034,1.02,3.046,2.135
				c0,0.996-0.888,1.859-1.931,2.039c1.055,0.168,2.074,1.043,2.074,2.135c0,1.14-0.923,2.303-3.154,2.303
				c-1.415,0-3.25-0.36-3.25-2.159h0.384c0.012,1.667,1.715,1.763,2.879,1.763c2.003,0,2.782-0.924,2.782-1.883
				c0-0.971-1.031-1.967-2.818-1.967h-1.403v-0.348h1.379c1.871,0,2.699-1.067,2.711-1.883c0.012-0.971-0.936-1.811-2.687-1.811
				c-1.079,0-2.723,0.168-2.723,1.763C130.88,67.363,130.508,67.363,130.508,67.363z"/>
		</g>
		<g>
			<g>
				<circle fill="#FFFFFF" cx="134.932" cy="60.252" r="0.458"/>
				<circle fill="#FFFFFF" cx="132.296" cy="60.252" r="0.458"/>
				<circle fill="#FFFFFF" cx="129.66" cy="60.252" r="0.458"/>
				<circle fill="#FFFFFF" cx="127.024" cy="60.252" r="0.458"/>
				<circle fill="#FFFFFF" cx="124.387" cy="60.252" r="0.458"/>
			</g>
			<g>
				<circle fill="#FFFFFF" cx="134.932" cy="78.534" r="0.458"/>
				<circle fill="#FFFFFF" cx="132.296" cy="78.534" r="0.458"/>
				<circle fill="#FFFFFF" cx="129.66" cy="78.534" r="0.458"/>
				<circle fill="#FFFFFF" cx="127.024" cy="78.534" r="0.458"/>
				<circle fill="#FFFFFF" cx="124.387" cy="78.534" r="0.458"/>
			</g>
		</g>
	</g>
</g>
</svg>
