<?xml version="1.0" encoding="utf-8"?>
<!-- Generator: Adobe Illustrator 26.0.2, SVG Export Plug-In . SVG Version: 6.00 Build 0)  -->
<svg version="1.1" xmlns="http://www.w3.org/2000/svg" xmlns:xlink="http://www.w3.org/1999/xlink" x="0px" y="0px"
	 viewBox="0 0 42.206 55.429" enable-background="new 0 0 42.206 55.429" xml:space="preserve">
<g id="Layer_1">
</g>
<g id="Layer_3">
</g>
<g id="Layer_4">
	<g>
		<path opacity="0.4" fill="none" stroke="#FFFFFF" stroke-miterlimit="10" enable-background="new    " d="M139.732-4.962
			l-139.932,0c-4.418,0-8,3.582-8,8l0,49.354c0,4.418,3.582,8,8,8l139.932,0c4.418,0,8-3.582,8-8l0-49.354
			C147.732-1.381,144.15-4.962,139.732-4.962z"/>
		<g>
			<g>
				<g>
					<path fill="#FFFFFF" d="M41.008,3.708L21.371,0.05L21.103,0l-0.268,0.05L1.197,3.708L0,3.932L0,5.15l0,27.792
						c0,0.194,0.04,4.8,3.538,9.607c3.185,4.377,7.781,7.443,8.319,7.794c0.356,0.263,2.727,1.988,5.669,3.431
						c2.402,1.178,2.95,1.407,3.035,1.44l0.543,0.216l0.543-0.217c0.089-0.036,0.655-0.273,3.033-1.44
						c2.941-1.443,5.312-3.167,5.668-3.43c0.536-0.35,5.134-3.416,8.32-7.794c3.498-4.807,3.538-9.414,3.538-9.607l0-27.792V3.932
						L41.008,3.708z M41.473,5.15l0,27.792c0,0.184-0.039,4.56-3.398,9.176c-3.157,4.338-7.74,7.36-8.145,7.623
						c-0.264,0.196-2.624,1.928-5.572,3.374c-2.405,1.18-2.93,1.396-2.982,1.417l-0.271,0.108l-0.272-0.108
						c-0.05-0.02-0.555-0.227-2.983-1.418c-2.948-1.445-5.308-3.177-5.573-3.374c-0.407-0.264-4.989-3.285-8.145-7.623
						c-3.359-4.616-3.398-8.992-3.398-9.176l0-27.792l0-0.609l0.599-0.112l19.637-3.658l0.134-0.025l0.134,0.025l19.637,3.658
						l0.599,0.112L41.473,5.15z"/>
				</g>
				<path fill="#FFFFFF" d="M21.103,4.101l17.072,3.181l0,25.645c-0.004,0.145-0.13,3.627-2.767,7.25
					c-2.855,3.924-7.24,6.775-7.282,6.802l-0.079,0.05l-0.075,0.056c-0.022,0.017-2.28,1.7-5.069,3.069
					c-0.801,0.393-1.383,0.674-1.801,0.873c-0.417-0.199-0.999-0.48-1.803-0.873c-2.768-1.357-5.046-3.052-5.067-3.067l-0.075-0.056
					l-0.079-0.051c-0.044-0.028-4.407-2.851-7.282-6.802c-2.637-3.623-2.763-7.106-2.767-7.25l0-25.645L21.103,4.101 M21.103,1.491
					L1.466,5.15l0,27.792c0,0,0,4.268,3.258,8.745c3.192,4.386,7.971,7.452,7.971,7.452s2.439,1.83,5.477,3.319
					c2.473,1.212,2.931,1.395,2.931,1.395s0.482-0.193,2.931-1.395c3.037-1.49,5.477-3.319,5.477-3.319s4.779-3.066,7.971-7.452
					c3.258-4.477,3.258-8.745,3.258-8.745l0-27.792L21.103,1.491L21.103,1.491z"/>
			</g>
			<g>
				<g>
					<g>
						<polyline fill="#FFFFFF" points="23.081,22.016 21.475,22.016 20.959,20.473 20.442,22.016 18.836,22.016 20.122,23 
							19.647,24.511 20.959,23.607 22.271,24.511 21.795,23 						"/>
					</g>
					<g>
						<path fill="#FFFFFF" d="M17.553,23.023c-0.159,1.742,1.893,3.355,1.893,3.355c-2.977-1.742-3.207-2.464-3.207-4.063v-3.599
							c0,0-1.627-3.4-1.828-3.947c-1.161-3.141,1.01-5.699,1.01-5.699c0.275,2.63,1.138,4.69,2.541,9.168
							C17.962,18.238,17.713,21.282,17.553,23.023"/>
					</g>
					<g>
						<path fill="#FFFFFF" d="M24.374,23.023c0.159,1.742-1.894,3.355-1.894,3.355c2.977-1.742,3.207-2.464,3.207-4.063l0-3.599
							c0,0,1.627-3.4,1.828-3.947c1.161-3.141-1.01-5.699-1.01-5.699c-0.274,2.63-1.138,4.69-2.541,9.168
							C23.965,18.238,24.214,21.282,24.374,23.023"/>
					</g>
					<g>
						<path fill="#FFFFFF" d="M26.08,22.791c0,0.194-0.016,0.343-0.035,0.455c1.666-2.125,1.973-3.925,2.029-4.469
							c-0.623,0.737-1.96,2.32-1.994,2.359"/>
					</g>
					<g>
						<path fill="#FFFFFF" d="M28.11,14.583c-0.691,1.474-2.017,4.306-2.03,4.333l0,1.514c0.354-0.421,1.701-2.027,1.701-2.028
							C28.338,17.703,28.504,16.009,28.11,14.583"/>
					</g>
					<g>
						<path fill="#FFFFFF" d="M15.835,21.132c-0.034-0.039-1.37-1.622-1.993-2.359c0.055,0.543,0.362,2.345,2.028,4.469
							c-0.02-0.112-0.035-0.26-0.035-0.455"/>
					</g>
					<g>
						<path fill="#FFFFFF" d="M13.805,14.58c-0.395,1.426-0.228,3.12,0.328,3.817c0.001,0.001,1.348,1.608,1.703,2.029l0-1.513
							C15.822,18.885,14.496,16.054,13.805,14.58"/>
					</g>
					<g>
						<path fill="#FFFFFF" d="M14.809,31.429c-0.055,0.27-0.146,0.502-0.271,0.694c-0.125,0.192-0.277,0.352-0.456,0.479
							c-0.178,0.127-0.383,0.221-0.613,0.28c-0.23,0.059-0.478,0.089-0.745,0.089c-0.318,0-0.591-0.036-0.819-0.107
							c-0.228-0.072-0.416-0.167-0.563-0.286c-0.147-0.119-0.254-0.257-0.321-0.414c-0.068-0.157-0.101-0.321-0.101-0.491
							c0-0.044,0.006-0.1,0.018-0.17c0.012-0.069,0.022-0.127,0.03-0.176l0.566-2.711h1.311l-0.483,2.324
							c-0.008,0.032-0.016,0.068-0.024,0.11c-0.008,0.042-0.015,0.082-0.021,0.12c-0.006,0.037-0.011,0.074-0.015,0.107
							c-0.004,0.034-0.006,0.058-0.006,0.075c0,0.032,0.001,0.079,0.003,0.143c0.001,0.063,0.017,0.126,0.044,0.187
							c0.028,0.062,0.077,0.115,0.147,0.161c0.069,0.045,0.169,0.069,0.301,0.069c0.134,0,0.248-0.028,0.339-0.084
							c0.091-0.056,0.167-0.129,0.229-0.221c0.062-0.091,0.11-0.194,0.147-0.307c0.036-0.114,0.065-0.229,0.089-0.348l0.488-2.336
							h1.311"/>
					</g>
					<g>
						<path fill="#FFFFFF" d="M17.949,29.903c0.005-0.087-0.007-0.159-0.035-0.214c-0.028-0.055-0.066-0.101-0.114-0.137
							c-0.047-0.036-0.104-0.061-0.169-0.075c-0.066-0.014-0.137-0.02-0.212-0.02c-0.055,0-0.113,0.005-0.172,0.014
							c-0.06,0.01-0.115,0.028-0.164,0.054c-0.05,0.026-0.091,0.061-0.122,0.105c-0.032,0.044-0.048,0.101-0.048,0.173
							c0,0.08,0.036,0.143,0.107,0.191c0.072,0.047,0.16,0.087,0.265,0.119c0.105,0.032,0.219,0.06,0.343,0.086
							c0.123,0.025,0.236,0.056,0.339,0.092c0.369,0.131,0.626,0.296,0.771,0.494c0.145,0.199,0.217,0.425,0.217,0.679
							c0,0.258-0.057,0.482-0.17,0.67c-0.113,0.189-0.261,0.345-0.443,0.468c-0.183,0.123-0.389,0.215-0.617,0.277
							c-0.228,0.062-0.458,0.092-0.688,0.092c-0.247,0-0.481-0.029-0.703-0.086c-0.222-0.058-0.418-0.148-0.587-0.272
							c-0.169-0.123-0.3-0.282-0.393-0.476c-0.093-0.194-0.134-0.427-0.123-0.697h1.269c0,0.115,0.012,0.21,0.039,0.286
							c0.025,0.075,0.067,0.141,0.122,0.197c0.055,0.048,0.123,0.077,0.202,0.089c0.08,0.012,0.173,0.018,0.28,0.018
							c0.064,0,0.129-0.008,0.197-0.023c0.067-0.016,0.129-0.041,0.184-0.075c0.055-0.034,0.101-0.077,0.137-0.128
							c0.036-0.052,0.054-0.113,0.054-0.185c0-0.075-0.026-0.138-0.077-0.187c-0.052-0.05-0.123-0.093-0.214-0.128
							c-0.092-0.036-0.2-0.071-0.325-0.107c-0.125-0.036-0.261-0.078-0.408-0.125c-0.131-0.044-0.257-0.096-0.378-0.155
							c-0.121-0.059-0.23-0.134-0.325-0.224c-0.095-0.089-0.172-0.196-0.229-0.321c-0.058-0.125-0.086-0.277-0.086-0.456
							c0-0.238,0.053-0.446,0.158-0.623c0.105-0.176,0.243-0.322,0.414-0.438c0.171-0.115,0.362-0.2,0.575-0.256
							c0.212-0.055,0.426-0.083,0.64-0.083c0.226,0,0.443,0.023,0.65,0.068c0.206,0.046,0.389,0.123,0.548,0.232
							c0.159,0.11,0.283,0.252,0.372,0.429c0.089,0.177,0.132,0.396,0.128,0.659"/>
					</g>
					<g>
						<path fill="#FFFFFF" d="M21.225,28.617h1.287l0.661,4.254l-1.287,0l-0.072-0.608h-1.388l-0.328,0.608h-1.334L21.225,28.617z
							 M20.904,31.352l0.816,0l-0.143-1.276h-0.012L20.904,31.352z"/>
					</g>
					<g>
						<polyline fill="#FFFFFF" points="24.687,29.707 23.507,29.707 23.733,28.617 27.403,28.617 27.176,29.707 25.997,29.707 
							25.342,32.871 24.031,32.871 						"/>
					</g>
					<g>
						<polyline fill="#FFFFFF" points="27.886,28.617 31.168,28.617 30.942,29.707 28.97,29.707 28.857,30.237 30.531,30.237 
							30.322,31.25 28.648,31.25 28.309,32.871 26.998,32.871 						"/>
					</g>
					<g>
						<polyline fill="#FFFFFF" points="31.622,28.655 31.509,28.655 31.445,28.954 31.4,28.954 31.464,28.655 31.351,28.655 
							31.359,28.617 31.631,28.617 						"/>
					</g>
					<g>
						<polyline fill="#FFFFFF" points="31.668,28.617 31.73,28.617 31.775,28.906 31.775,28.906 31.942,28.617 32.005,28.617 
							31.934,28.954 31.891,28.954 31.96,28.659 31.959,28.659 31.787,28.954 31.744,28.954 31.699,28.659 31.699,28.659 
							31.64,28.954 31.597,28.954 						"/>
					</g>
				</g>
			</g>
			<g>
				<path fill="#FFFFFF" d="M8.737,35.732c0-0.15-0.042-0.264-0.124-0.342c-0.083-0.078-0.202-0.117-0.358-0.117
					c-0.128,0-0.239,0.029-0.334,0.087c-0.095,0.058-0.174,0.134-0.237,0.228c-0.063,0.094-0.11,0.2-0.142,0.318
					c-0.032,0.118-0.048,0.237-0.048,0.357c0,0.2,0.051,0.357,0.153,0.47c0.102,0.114,0.247,0.171,0.434,0.171
					c0.096,0,0.177-0.018,0.243-0.055c0.066-0.037,0.12-0.082,0.163-0.135c0.043-0.053,0.076-0.107,0.099-0.163
					c0.023-0.056,0.039-0.102,0.049-0.138h0.375c-0.03,0.136-0.075,0.254-0.135,0.354c-0.06,0.1-0.131,0.183-0.214,0.249
					c-0.083,0.066-0.175,0.115-0.276,0.147c-0.101,0.032-0.206,0.048-0.316,0.048c-0.154,0-0.29-0.024-0.407-0.072
					s-0.217-0.114-0.297-0.198c-0.08-0.084-0.141-0.183-0.183-0.297c-0.042-0.114-0.063-0.237-0.063-0.369
					c0-0.224,0.033-0.418,0.1-0.583s0.155-0.301,0.264-0.407c0.109-0.107,0.232-0.186,0.368-0.238
					c0.137-0.052,0.275-0.078,0.415-0.078c0.126,0,0.242,0.017,0.348,0.051c0.106,0.034,0.196,0.083,0.271,0.147
					c0.075,0.064,0.132,0.144,0.172,0.24c0.04,0.096,0.058,0.205,0.054,0.327H8.737z"/>
				<path fill="#FFFFFF" d="M9.606,35.019h1.558l-0.066,0.324h-1.19l-0.117,0.56h1.103l-0.063,0.306H9.726l-0.129,0.626h1.199
					l-0.066,0.324H9.162L9.606,35.019z"/>
				<path fill="#FFFFFF" d="M11.401,35.019h0.926c0.046,0,0.107,0.004,0.183,0.012c0.076,0.008,0.15,0.03,0.223,0.066
					c0.073,0.036,0.136,0.09,0.189,0.163c0.053,0.073,0.079,0.174,0.079,0.304c0,0.17-0.043,0.302-0.129,0.397
					c-0.086,0.095-0.205,0.156-0.357,0.184v0.006c0.09,0.034,0.15,0.084,0.181,0.151c0.031,0.067,0.046,0.145,0.046,0.235
					c0,0.074-0.006,0.148-0.018,0.222c-0.012,0.074-0.017,0.148-0.015,0.222c0,0.03,0.003,0.06,0.008,0.09
					c0.005,0.03,0.015,0.059,0.031,0.087h-0.393c-0.01-0.028-0.016-0.055-0.02-0.081c-0.003-0.026-0.004-0.054-0.004-0.084
					c0-0.08,0.006-0.158,0.018-0.235c0.012-0.077,0.018-0.154,0.018-0.232c0-0.062-0.011-0.11-0.035-0.144
					c-0.023-0.034-0.054-0.059-0.091-0.073c-0.038-0.015-0.081-0.024-0.129-0.027c-0.048-0.003-0.097-0.004-0.147-0.004H11.52
					l-0.183,0.881h-0.38L11.401,35.019z M11.58,35.993h0.548c0.162,0,0.285-0.033,0.37-0.1c0.085-0.067,0.127-0.163,0.127-0.289
					c0-0.058-0.011-0.105-0.031-0.142c-0.021-0.037-0.049-0.065-0.085-0.086c-0.036-0.02-0.077-0.033-0.123-0.04
					c-0.046-0.007-0.094-0.01-0.144-0.01h-0.524L11.58,35.993z"/>
				<path fill="#FFFFFF" d="M13.207,35.019h1.762L14.9,35.342h-0.68l-0.378,1.816h-0.375l0.378-1.816h-0.704L13.207,35.019z"/>
				<path fill="#FFFFFF" d="M15.128,35.019h0.375l-0.446,2.139h-0.375L15.128,35.019z"/>
				<path fill="#FFFFFF" d="M15.877,35.019h1.459l-0.066,0.324h-1.088l-0.117,0.56h0.944l-0.066,0.306h-0.941l-0.198,0.95l-0.375,0
					L15.877,35.019z"/>
				<path fill="#FFFFFF" d="M17.601,35.019h0.375l-0.446,2.139h-0.375L17.601,35.019z"/>
				<path fill="#FFFFFF" d="M18.406,35.019l1.558,0l-0.066,0.324l-1.19,0l-0.117,0.56h1.103l-0.063,0.306l-1.106,0l-0.129,0.626
					h1.199l-0.066,0.324h-1.567L18.406,35.019z"/>
				<path fill="#FFFFFF" d="M20.207,35.019h0.785c0.276,0,0.484,0.074,0.626,0.223c0.142,0.149,0.213,0.373,0.213,0.673
					c0,0.064-0.007,0.135-0.021,0.214c-0.014,0.079-0.035,0.159-0.063,0.24c-0.028,0.081-0.063,0.159-0.105,0.234
					c-0.042,0.075-0.092,0.14-0.15,0.196c-0.064,0.062-0.126,0.115-0.186,0.16c-0.06,0.045-0.127,0.082-0.201,0.112
					c-0.074,0.03-0.158,0.052-0.253,0.066c-0.095,0.014-0.209,0.021-0.343,0.021h-0.752L20.207,35.019z M20.198,36.853h0.468
					c0.108,0,0.202-0.018,0.283-0.055c0.081-0.037,0.15-0.084,0.208-0.141c0.058-0.057,0.106-0.121,0.145-0.193
					s0.07-0.142,0.093-0.211c0.023-0.069,0.039-0.134,0.048-0.195c0.009-0.061,0.013-0.109,0.013-0.145
					c0-0.188-0.041-0.333-0.123-0.434c-0.082-0.102-0.198-0.153-0.348-0.153h-0.467L20.198,36.853z"/>
				<path fill="#FFFFFF" d="M24.343,35.732c0-0.15-0.042-0.264-0.124-0.342c-0.083-0.078-0.202-0.117-0.358-0.117
					c-0.128,0-0.239,0.029-0.334,0.087c-0.095,0.058-0.174,0.134-0.237,0.228c-0.063,0.094-0.11,0.2-0.142,0.318
					c-0.032,0.118-0.048,0.237-0.048,0.357c0,0.2,0.051,0.357,0.153,0.47c0.102,0.114,0.247,0.171,0.434,0.171
					c0.096,0,0.177-0.018,0.243-0.055c0.066-0.037,0.12-0.082,0.163-0.135c0.043-0.053,0.076-0.107,0.099-0.163
					c0.023-0.056,0.039-0.102,0.049-0.138h0.375c-0.03,0.136-0.075,0.254-0.135,0.354c-0.06,0.1-0.131,0.183-0.214,0.249
					c-0.083,0.066-0.175,0.115-0.276,0.147c-0.101,0.032-0.206,0.048-0.316,0.048c-0.154,0-0.29-0.024-0.407-0.072
					c-0.118-0.048-0.217-0.114-0.297-0.198c-0.08-0.084-0.141-0.183-0.183-0.297c-0.042-0.114-0.063-0.237-0.063-0.369
					c0-0.224,0.033-0.418,0.1-0.583s0.155-0.301,0.264-0.407c0.109-0.107,0.232-0.186,0.368-0.238
					c0.137-0.052,0.275-0.078,0.415-0.078c0.126,0,0.242,0.017,0.348,0.051c0.106,0.034,0.196,0.083,0.271,0.147
					c0.075,0.064,0.132,0.144,0.172,0.24c0.04,0.096,0.058,0.205,0.054,0.327H24.343z"/>
				<path fill="#FFFFFF" d="M24.863,36.274c0-0.224,0.033-0.418,0.1-0.583c0.067-0.165,0.155-0.301,0.264-0.407
					c0.109-0.107,0.232-0.186,0.368-0.238c0.137-0.052,0.275-0.078,0.415-0.078c0.14,0,0.268,0.023,0.383,0.069
					c0.116,0.046,0.214,0.11,0.295,0.193c0.081,0.083,0.144,0.181,0.189,0.295c0.045,0.114,0.067,0.24,0.067,0.378
					c0,0.226-0.032,0.421-0.096,0.584c-0.064,0.164-0.149,0.299-0.255,0.406c-0.106,0.107-0.227,0.186-0.363,0.238
					c-0.136,0.052-0.276,0.078-0.42,0.078c-0.154,0-0.29-0.024-0.407-0.072c-0.118-0.048-0.217-0.114-0.297-0.198
					c-0.08-0.084-0.141-0.183-0.183-0.297C24.884,36.529,24.863,36.406,24.863,36.274z M25.237,36.262c0,0.2,0.051,0.357,0.153,0.47
					c0.102,0.114,0.247,0.171,0.434,0.171c0.124,0,0.232-0.029,0.325-0.087c0.093-0.058,0.171-0.134,0.234-0.228
					c0.063-0.094,0.11-0.2,0.141-0.318c0.031-0.118,0.047-0.237,0.047-0.356c0-0.2-0.048-0.357-0.145-0.47
					c-0.097-0.114-0.239-0.171-0.427-0.171c-0.128,0-0.239,0.029-0.334,0.087c-0.095,0.058-0.174,0.134-0.237,0.228
					c-0.063,0.094-0.11,0.2-0.142,0.318C25.254,36.024,25.237,36.143,25.237,36.262z"/>
				<path fill="#FFFFFF" d="M27.401,35.019h0.375l-0.276,1.31c-0.006,0.028-0.011,0.056-0.015,0.085
					c-0.004,0.029-0.007,0.058-0.009,0.088c-0.002,0.072,0.009,0.132,0.031,0.181c0.023,0.049,0.055,0.088,0.098,0.118
					c0.042,0.03,0.091,0.052,0.147,0.064c0.056,0.013,0.117,0.02,0.183,0.02c0.072,0,0.138-0.008,0.199-0.024
					c0.061-0.016,0.116-0.044,0.165-0.085c0.049-0.041,0.092-0.097,0.13-0.168c0.038-0.071,0.069-0.161,0.093-0.271l0.282-1.318
					h0.375l-0.282,1.342c-0.018,0.088-0.044,0.182-0.078,0.282c-0.034,0.1-0.087,0.192-0.16,0.276
					c-0.073,0.084-0.17,0.153-0.292,0.208c-0.122,0.055-0.28,0.082-0.473,0.082c-0.106,0-0.207-0.014-0.303-0.04
					c-0.096-0.027-0.18-0.067-0.252-0.122c-0.072-0.054-0.129-0.122-0.172-0.205c-0.043-0.083-0.064-0.18-0.064-0.292
					c0-0.05,0.004-0.098,0.011-0.145c0.007-0.047,0.015-0.094,0.025-0.142L27.401,35.019z"/>
				<path fill="#FFFFFF" d="M29.593,35.019l0.926,0c0.046,0,0.107,0.004,0.183,0.012c0.076,0.008,0.15,0.03,0.223,0.066
					c0.073,0.036,0.136,0.09,0.189,0.163c0.053,0.073,0.079,0.174,0.079,0.304c0,0.17-0.043,0.302-0.129,0.397
					c-0.086,0.095-0.205,0.156-0.357,0.184v0.006c0.09,0.034,0.15,0.084,0.181,0.151c0.031,0.067,0.046,0.145,0.046,0.235
					c0,0.074-0.006,0.148-0.018,0.222s-0.017,0.148-0.015,0.222c0,0.03,0.003,0.06,0.008,0.09c0.005,0.03,0.015,0.059,0.031,0.087
					h-0.393c-0.01-0.028-0.016-0.055-0.02-0.081s-0.004-0.054-0.004-0.084c0-0.08,0.006-0.158,0.018-0.235
					c0.012-0.077,0.018-0.154,0.018-0.232c0-0.062-0.011-0.11-0.035-0.144c-0.023-0.034-0.054-0.059-0.091-0.073
					c-0.038-0.015-0.081-0.024-0.129-0.027c-0.048-0.003-0.097-0.004-0.147-0.004h-0.446l-0.183,0.881h-0.38L29.593,35.019z
					 M29.773,35.993h0.548c0.162,0,0.285-0.033,0.37-0.1c0.085-0.067,0.127-0.163,0.127-0.289c0-0.058-0.011-0.105-0.031-0.142
					c-0.021-0.037-0.049-0.065-0.085-0.086c-0.036-0.02-0.077-0.033-0.123-0.04c-0.046-0.007-0.094-0.01-0.144-0.01h-0.524
					L29.773,35.993z"/>
				<path fill="#FFFFFF" d="M31.565,36.451c-0.008,0.166,0.033,0.283,0.123,0.351c0.09,0.068,0.213,0.102,0.368,0.102
					c0.05,0,0.103-0.006,0.16-0.018s0.108-0.031,0.154-0.058c0.046-0.027,0.084-0.062,0.115-0.105
					c0.031-0.043,0.047-0.096,0.047-0.16c0-0.06-0.014-0.11-0.043-0.15c-0.029-0.04-0.067-0.073-0.114-0.1
					c-0.047-0.027-0.101-0.05-0.163-0.069s-0.126-0.037-0.192-0.055c-0.048-0.012-0.105-0.028-0.171-0.049
					c-0.066-0.021-0.13-0.052-0.192-0.093c-0.062-0.041-0.114-0.094-0.157-0.16c-0.043-0.066-0.064-0.15-0.064-0.252
					c0-0.096,0.018-0.185,0.054-0.267c0.036-0.082,0.088-0.152,0.156-0.211c0.068-0.059,0.151-0.105,0.25-0.138
					c0.099-0.033,0.211-0.049,0.337-0.049c0.112,0,0.217,0.012,0.315,0.036s0.183,0.063,0.255,0.117s0.128,0.124,0.168,0.211
					c0.04,0.087,0.058,0.193,0.054,0.319h-0.36c-0.002-0.134-0.039-0.23-0.111-0.289c-0.072-0.059-0.181-0.088-0.327-0.088
					c-0.026,0-0.062,0.003-0.108,0.009c-0.046,0.006-0.092,0.02-0.138,0.042c-0.046,0.022-0.086,0.054-0.12,0.094
					c-0.034,0.041-0.051,0.097-0.051,0.169c0,0.052,0.012,0.095,0.036,0.129c0.024,0.034,0.057,0.063,0.097,0.087
					c0.041,0.024,0.088,0.044,0.142,0.06c0.054,0.016,0.111,0.031,0.171,0.045c0.076,0.02,0.152,0.042,0.229,0.066
					c0.077,0.024,0.147,0.057,0.21,0.1c0.063,0.043,0.114,0.099,0.153,0.169c0.039,0.07,0.058,0.161,0.058,0.273
					c0,0.084-0.016,0.167-0.048,0.249c-0.032,0.082-0.083,0.156-0.154,0.222c-0.071,0.066-0.163,0.119-0.276,0.16
					c-0.113,0.041-0.25,0.062-0.412,0.062c-0.126,0-0.24-0.014-0.342-0.043c-0.102-0.029-0.188-0.074-0.259-0.135
					c-0.071-0.061-0.125-0.139-0.162-0.235c-0.037-0.096-0.054-0.211-0.049-0.345H31.565z"/>
				<path fill="#FFFFFF" d="M33.543,35.019h1.558l-0.066,0.324h-1.19l-0.117,0.56h1.103l-0.063,0.306h-1.106l-0.129,0.626h1.199
					l-0.066,0.324h-1.567L33.543,35.019z"/>
			</g>
		</g>
	</g>
</g>
<g id="Layer_2">
</g>
</svg>
