<?xml version="1.0" encoding="utf-8"?>
<!-- Generator: Adobe Illustrator 25.4.1, SVG Export Plug-In . SVG Version: 6.00 Build 0)  -->
<svg version="1.1" id="Layer_1" xmlns="http://www.w3.org/2000/svg" xmlns:xlink="http://www.w3.org/1999/xlink" x="0px" y="0px"
	 viewBox="0 0 1130.21912 1261.67566" style="enable-background:new 0 0 1130.21912 1261.67566;" xml:space="preserve">
<style type="text/css">
	.st0{display:none;fill:none;stroke:#979797;stroke-width:1.08;stroke-linejoin:round;stroke-miterlimit:10;}
	.st1{display:none;}
	.st2{display:inline;fill:none;stroke:#979797;stroke-width:0.96;stroke-linejoin:round;stroke-miterlimit:10;}
	
		.st3{clip-path:url(#SVGID_00000052802133723333936790000012066353657639898270_);fill:none;stroke:#000000;stroke-width:4;stroke-miterlimit:10;stroke-dasharray:6;}
	.st4{clip-path:url(#SVGID_00000052802133723333936790000012066353657639898270_);}
	.st5{fill:#DCDBDB;}
	.st6{fill:#979797;}
	.st7{clip-path:url(#SVGID_00000052802133723333936790000012066353657639898270_);fill:#979797;}
	
		.st8{clip-path:url(#SVGID_00000052802133723333936790000012066353657639898270_);fill:#F2F2F2;stroke:#979797;stroke-miterlimit:10;}
	.st9{fill:none;}
	.st10{font-family:'AvenirNext-Medium', "Avenir Next", "Helvetica Neue", Helvetica, Arial, "Lucida Grande", sans-serif; font-weight:500}
	.st11{font-size:24px;}
	.st12{font-family:'AvenirNext-DemiBold',"Avenir Next", "Helvetica Neue", Helvetica, Arial, "Lucida Grande", sans-serif; font-weight:600}
	.st13{font-size:36px;}
	
		.st14{clip-path:url(#SVGID_00000052802133723333936790000012066353657639898270_);fill:none;stroke:#979797;stroke-width:0.96;stroke-linejoin:round;stroke-miterlimit:10;}
	
		.st15{clip-path:url(#SVGID_00000052802133723333936790000012066353657639898270_);fill:none;stroke:#979797;stroke-width:4;stroke-linejoin:round;stroke-miterlimit:10;}
	
		.st16{clip-path:url(#SVGID_00000052802133723333936790000012066353657639898270_);fill:none;stroke:#000000;stroke-width:0.12;stroke-linejoin:round;stroke-miterlimit:10;}
	
		.st17{clip-path:url(#SVGID_00000052802133723333936790000012066353657639898270_);fill-rule:evenodd;clip-rule:evenodd;fill:none;stroke:#CCCCCC;stroke-miterlimit:10;}
	
		.st18{display:none;clip-path:url(#SVGID_00000052802133723333936790000012066353657639898270_);fill:none;stroke:#E2E2E2;stroke-linecap:round;stroke-miterlimit:10;stroke-dasharray:4;}
	.st19{display:none;clip-path:url(#SVGID_00000052802133723333936790000012066353657639898270_);}
	.st20{display:inline;fill:#979797;}
	.st21{font-family:'AvenirNext-Regular', "Avenir Next", "Helvetica Neue", Helvetica, Arial, "Lucida Grande", sans-serif; font-weight: 400;}
	.st22{fill:none;stroke:#000000;stroke-miterlimit:10;}
	.st23{fill-rule:evenodd;clip-rule:evenodd;}
	.st24{fill:none;stroke:#000000;stroke-width:0.72;stroke-linejoin:round;stroke-miterlimit:10;}
	.st25{fill:none;stroke:#000000;stroke-width:5;stroke-miterlimit:10;}
	.st26{font-family:'AvenirNext-Bold',"Avenir Next", "Helvetica Neue", Helvetica, Arial, "Lucida Grande", sans-serif; font-weight:700}
	.st27{fill:#FFFFFF;}
	.st28{fill:#B5B5B6;}
</style>
<circle class="st0" cx="1098.00635" cy="701.922" r="451.01999"/>
<g class="st1">
	<polyline class="st2" points="837.18628,-36.97802 849.42627,-10.21802 928.62628,91.18198 949.86627,118.18198 
		953.7063,121.66198 957.78632,124.78199 962.22632,127.42199 966.78632,129.70198 971.5863,131.62198 976.50629,133.06198 
		981.66632,134.02197 986.7063,134.50198 991.86627,134.62198 997.02631,134.14198 1002.06635,133.18198 1007.10626,131.86198 
		1011.90631,130.06198 1016.58624,127.78199 1380.42639,-36.97802 	"/>
	<polyline class="st2" points="389.82632,412.66199 751.98627,250.42198 755.94629,248.14198 759.66632,245.50197 
		763.1463,242.38197 766.2663,239.02199 769.02631,235.30199 771.30627,231.22197 773.22632,227.02199 774.66632,222.70198 
		775.62628,218.14198 776.10632,213.58199 776.10632,208.90199 775.62628,204.34196 774.66632,199.78197 773.22632,195.46199 
		732.66632,59.26198 684.90631,-36.97802 	"/>
	<path class="st2" d="M836.79083,1368.09119l215.4632-97.34534l-61.14313-130.54932
		c-96.53284-23.4624-180.90997-77.9884-241.95508-152.3916l-92.44952,47.89697l-3.84003,2.76001l-3.59998,3l-3.35999,3.36011
		l-2.88,3.71997l-2.64001,3.95996l-2.27997,4.07996l-1.92004,4.32007l-1.44,4.55994l-1.07996,4.56006l-0.60004,4.67993
		l-0.23999,4.80005l0.23999,4.68005l0.72003,4.67993l1.07996,4.68005l1.56,4.43994l1.92004,4.32007l109.07996,235.55994"/>
	<path class="st2" d="M1345.0791,33.64167L1024.64209,176.6942c-7.45068,3.3262-10.48962,12.29358-6.59625,19.46419
		l31.14166,57.35542l0.01721,0.00684c16.03137-1.7251,32.31189-2.61865,48.80164-2.61865
		c136.13928,0,258.18945,60.31883,340.88599,155.6881l0.00195,0.00073l67.29199-32.56885l0.00012,0.00003L1345.0791,33.64167z"/>
	<path class="st2" d="M646.98633,701.922c0-137.37817,61.4259-260.40479,158.30469-343.12903l-0.00073-0.00952l-27.15942-51.14563
		c-3.44098-6.47992-11.3009-9.20419-18.01398-6.24365L410.94632,455.38196l-57.39096,26.22583l34.23099,78.0542l133.43997,287.88
		l133.4444-62.29871l0.00366-0.00635C649.63129,758.23425,646.98633,730.38745,646.98633,701.922z"/>
	<path class="st2" d="M1453.16333,979.94653c-17.05249,21.75269-36.06128,41.89746-56.7594,60.17371l-0.00037,0.00708
		l40.54272,36.61462l17.28003,5.04004l9-0.12l13.08008-3.47998l6.58228-4.04541c2.86462-1.7605,4.07275-5.30908,2.87769-8.45178
		L1453.16333,979.94653z"/>
	<path class="st2" d="M1090.08569,1147.14075c27.6394-0.17761,55.20398-2.88635,82.32446-8.07458l0.00574,0.00391l4.15295,54.47119
		l-6.58691,16.75159l-5.60193,7.04504l-10.75598,8.21631l-7.22729,2.73096c-3.14526,1.18848-6.69116-0.02722-8.44568-2.89539
		L1090.08569,1147.14075z"/>
	<path class="st2" d="M1779.14771,942.3385l-156.56152-361.31653l-82.00769,33.57312l0.00647,0.07373
		c5.53369,28.23035,8.44141,57.40173,8.44141,87.25317c0,2.95288-0.0376,5.89697-0.09412,8.83643l0.00598,0.0686l-0.00952,0.11487
		c-0.3761,19.17395-1.94836,38.0542-4.646,56.57007l-0.00903,0.10999l-0.02258,0.10547
		c-2.84705,19.47461-6.93286,38.54688-12.18567,57.13l-0.00342,0.01599l-0.00391,0.01025
		c-6.92224,24.48364-15.86401,48.11816-26.6272,70.71875l-0.02271,0.06055l61.19604,142.70166L1779.14771,942.3385
		L1779.14771,942.3385z"/>
	<line class="st2" x1="704.38257" y1="1427.91272" x2="1770.79431" y2="946.11249"/>
	<line class="st2" x1="1706.84924" y1="1037.28503" x2="916.34924" y2="1400.59912"/>
</g>
<g>
	<defs>
		<rect id="SVGID_1_" x="-27.05369" y="-88.57799" width="1200.64929" height="1403.7887"/>
	</defs>
	<clipPath id="SVGID_00000126300778167142553610000004149569173868875705_">
		<use xlink:href="#SVGID_1_"  style="overflow:visible;"/>
	</clipPath>
	
		<line style="clip-path:url(#SVGID_00000126300778167142553610000004149569173868875705_);fill:none;stroke:#000000;stroke-width:4;stroke-miterlimit:10;stroke-dasharray:6;" x1="935.80457" y1="709.15369" x2="983.14062" y2="709.15369"/>
	<g style="clip-path:url(#SVGID_00000126300778167142553610000004149569173868875705_);">
		
			<rect x="919.92535" y="669.88141" transform="matrix(0.99992 -0.01273 0.01273 0.99992 -8.84873 11.90984)" class="st5" width="22.63367" height="62.50458"/>
		<g>
			<path class="st6" d="M940.18542,671.76514l0.74542,58.49988l-18.63196,0.23743l-0.74542-58.49988L940.18542,671.76514
				 M944.13416,667.71448l-26.63135,0.33936l0.84735,66.49927l26.63135-0.33936L944.13416,667.71448L944.13416,667.71448z"/>
		</g>
	</g>
	
		<circle style="clip-path:url(#SVGID_00000126300778167142553610000004149569173868875705_);fill:#979797;" cx="568.99377" cy="709.15369" r="351.06"/>
	
		<circle style="clip-path:url(#SVGID_00000126300778167142553610000004149569173868875705_);fill:#F2F2F2;stroke:#979797;stroke-miterlimit:10;" cx="568.99377" cy="709.15369" r="347.45999"/>
	
		<circle style="clip-path:url(#SVGID_00000126300778167142553610000004149569173868875705_);fill:none;stroke:#000000;stroke-width:4;stroke-miterlimit:10;stroke-dasharray:6;" cx="568.99377" cy="709.15369" r="414.06"/>
	<g style="clip-path:url(#SVGID_00000126300778167142553610000004149569173868875705_);">
		<circle class="st9" cx="568.99377" cy="709.15369" r="414.06"/>
		<text transform="matrix(0.96458 -0.26377 0.26377 0.96458 448.63919 300.34973)"><tspan x="0" y="0" class="st10 st11">C</tspan><tspan x="17.36162" y="-0.02843" class="st10 st11" rotate="2.5506">O</tspan><tspan x="38.07992" y="0.93901" class="st10 st11" rotate="5.11082">U</tspan><tspan x="55.40144" y="2.51595" class="st10 st11" rotate="7.28856">R</tspan><tspan x="70.27629" y="4.43219" class="st10 st11" rotate="9.23291">S</tspan><tspan x="84.03401" y="6.6666" class="st10 st11" rotate="11.16186">E</tspan><tspan x="98.35607" y="9.54736" class="st10 st11" rotate="12.56413"> </tspan><tspan x="104.43593" y="10.84395" class="st10 st11" rotate="14.03819">B</tspan><tspan x="119.72874" y="14.61939" class="st10 st11" rotate="16.50296">O</tspan><tspan x="139.60083" y="20.55469" class="st10 st11" rotate="19.08769">U</tspan><tspan x="156.08249" y="26.24877" class="st10 st11" rotate="21.54751">N</tspan><tspan x="173.64865" y="33.19717" class="st10 st11" rotate="24.08921">D</tspan><tspan x="190.6153" y="40.80522" class="st10 st11" rotate="26.52566">A</tspan><tspan x="206.14549" y="48.58844" class="st10 st11" rotate="28.71713">R</tspan><tspan x="219.32765" y="55.81359" class="st10 st11" rotate="30.76105">Y</tspan></text>
	</g>
	<g style="clip-path:url(#SVGID_00000126300778167142553610000004149569173868875705_);">
		<circle class="st9" cx="568.99377" cy="709.15369" r="300.78439"/>
		<text transform="matrix(0.78622 -0.61795 0.61795 0.78622 368.93265 477.27991)"><tspan x="0" y="0" class="st6 st12 st13">D</tspan><tspan x="27.43208" y="0.09677" class="st6 st12 st13" rotate="4.68638">R</tspan><tspan x="49.9166" y="1.87694" class="st6 st12 st13" rotate="9.18497">U</tspan><tspan x="75.26026" y="5.79316" class="st6 st12 st13" rotate="14.65005">M</tspan><tspan x="107.17589" y="14.29469" class="st6 st12 st13" rotate="20.19028">H</tspan><tspan x="132.03076" y="23.52797" class="st6 st12 st13" rotate="24.69704">E</tspan><tspan x="151.90692" y="32.73091" class="st6 st12 st13" rotate="28.45354">L</tspan><tspan x="168.02048" y="41.46012" class="st6 st12 st13" rotate="31.88354">L</tspan><tspan x="183.62695" y="51.09685" class="st6 st12 st13" rotate="35.65968">E</tspan><tspan x="201.41527" y="63.8396" class="st6 st12 st13" rotate="39.8419">R</tspan><tspan x="218.64354" y="78.44378" class="st6 st12 st13" rotate="42.81547"> </tspan><tspan x="225.30675" y="84.42302" class="st6 st12 st13" rotate="45.60159">F</tspan><tspan x="239.83722" y="98.96" class="st6 st12 st13" rotate="50.41138">O</tspan><tspan x="259.18201" y="122.52628" class="st6 st12 st13" rotate="55.67767">U</tspan><tspan x="273.67514" y="143.66048" class="st6 st12 st13" rotate="60.65716">N</tspan><tspan x="287.26242" y="168.12329" class="st6 st12 st13" rotate="65.10644">T</tspan><tspan x="295.93576" y="186.58743" class="st6 st12 st13" rotate="69.36478">A</tspan><tspan x="304.66013" y="210.37558" class="st6 st12 st13" rotate="72.68726">I</tspan><tspan x="307.93823" y="219.94264" class="st6 st12 st13" rotate="76.27773">N</tspan></text>
	</g>
	
		<polyline style="clip-path:url(#SVGID_00000126300778167142553610000004149569173868875705_);fill:none;stroke:#979797;stroke-width:0.96;stroke-linejoin:round;stroke-miterlimit:10;" points="
		1365.06433,383.10556 1366.82324,385.34143 1368.83899,387.29797 1371.16064,388.86569 1373.67883,389.99545 1376.45398,390.84589 
		1379.20642,391.16013 1381.99683,391.09674 1384.76477,390.49722 1387.41199,389.58051 1389.87793,388.18793 1392.17432,386.58768 
		1394.02124,384.5228 	"/>
	
		<line style="clip-path:url(#SVGID_00000126300778167142553610000004149569173868875705_);fill:none;stroke:#979797;stroke-width:0.96;stroke-linejoin:round;stroke-miterlimit:10;" x1="1473.89819" y1="305.27591" x2="1394.02124" y2="384.5228"/>
	
		<line style="clip-path:url(#SVGID_00000126300778167142553610000004149569173868875705_);fill:none;stroke:#979797;stroke-width:0.96;stroke-linejoin:round;stroke-miterlimit:10;" x1="1365.06433" y1="383.10556" x2="1176.05945" y2="216.89702"/>
	
		<line style="clip-path:url(#SVGID_00000126300778167142553610000004149569173868875705_);fill:none;stroke:#979797;stroke-width:4;stroke-linejoin:round;stroke-miterlimit:10;" x1="1157.14209" y1="650.72339" x2="1366.06372" y2="449.18417"/>
	
		<polyline style="clip-path:url(#SVGID_00000126300778167142553610000004149569173868875705_);fill:none;stroke:#979797;stroke-width:4;stroke-linejoin:round;stroke-miterlimit:10;" points="
		1157.14209,650.72339 1155.33289,652.41064 1153.86353,654.51337 1152.8811,656.70312 1152.28748,659.19879 1152.33972,661.72113 
		1152.81836,664.17181 1153.77307,666.44147 1155.09387,668.48083 1156.93982,670.22961 1158.98218,671.54053 1161.33057,672.46252 
		1163.76587,672.89752 1166.28809,672.84534 	"/>
	
		<line style="clip-path:url(#SVGID_00000126300778167142553610000004149569173868875705_);fill:none;stroke:#979797;stroke-width:4;stroke-linejoin:round;stroke-miterlimit:10;" x1="1309.60999" y1="673.2251" x2="1166.28809" y2="672.84534"/>
	
		<polyline style="clip-path:url(#SVGID_00000126300778167142553610000004149569173868875705_);fill:none;stroke:#979797;stroke-width:4;stroke-linejoin:round;stroke-miterlimit:10;" points="
		1296.87097,730.59583 1168.3772,730.29242 1165.63586,730.24628 1163.07568,730.6759 1160.58716,731.53229 1158.27966,732.8645 
		1156.31189,734.61212 1154.62341,736.61658 1153.32373,738.92706 1152.46216,741.43396 1152.08752,744.02795 1152.09045,746.65979 
		1152.62976,749.26904 1153.64465,751.69727 1155.026,753.89526 1156.88306,755.91217 1247.84924,839.86304 	"/>
	
		<polyline style="clip-path:url(#SVGID_00000126300778167142553610000004149569173868875705_);fill:none;stroke:#979797;stroke-width:0.96;stroke-linejoin:round;stroke-miterlimit:10;" points="
		-109.3317,486.04428 -110.60012,559.52295 -99.48345,558.1972 -101.21725,597.53394 -61.82006,599.42639 -55.85217,1125.83032 	"/>
	
		<path style="clip-path:url(#SVGID_00000126300778167142553610000004149569173868875705_);fill:none;stroke:#979797;stroke-width:4;stroke-linejoin:round;stroke-miterlimit:10;" d="
		M1217.72424,1220.43201l-50.84802,0.2594c-7.68713,0.03918-13.96802-6.1272-14.07019-13.81384l-5.11487-385.06677l0.03076-1.82751
		l0.40845-1.78967l0.73682-1.64227l1.01611-1.38544l1.45398-1.18896l1.63525-0.71313l1.75586-0.396l1.76721-0.12781l1.74048,0.51782
		l1.64233,0.73682l1.44592,1.17474l59.07642,53.59802"/>
	
		<polygon style="clip-path:url(#SVGID_00000126300778167142553610000004149569173868875705_);fill:none;stroke:#979797;stroke-width:4;stroke-linejoin:round;stroke-miterlimit:10;" points="
		997.59924,1371.68115 951.58636,1296.58716 932.854,1264.74036 1473.17639,1265.58911 	"/>
	
		<line style="clip-path:url(#SVGID_00000126300778167142553610000004149569173868875705_);fill:none;stroke:#979797;stroke-width:4;stroke-linejoin:round;stroke-miterlimit:10;" x1="882.25562" y1="1273.39893" x2="974.8075" y2="1419.48279"/>
	
		<polyline style="clip-path:url(#SVGID_00000126300778167142553610000004149569173868875705_);fill:none;stroke:#979797;stroke-width:4;stroke-linejoin:round;stroke-miterlimit:10;" points="
		882.25562,1273.39893 880.23987,1271.4425 878.07672,1269.81433 875.55853,1268.68457 872.84387,1267.9928 870.20087,1267.72766 
		867.42181,1268.05908 864.71417,1268.81726 862.23682,1269.94165 860.05011,1271.59119 858.09363,1273.60681 856.63531,1275.97754 
		855.50555,1278.49573 854.86292,1281.10095 854.76764,1283.95178 855.14813,1286.62146 	"/>
	
		<line style="clip-path:url(#SVGID_00000126300778167142553610000004149569173868875705_);fill:none;stroke:#979797;stroke-width:4;stroke-linejoin:round;stroke-miterlimit:10;" x1="853.56561" y1="1474.25305" x2="855.14813" y2="1286.62146"/>
	
		<polyline style="clip-path:url(#SVGID_00000126300778167142553610000004149569173868875705_);fill:none;stroke:#979797;stroke-width:0.96;stroke-linejoin:round;stroke-miterlimit:10;" points="
		853.56561,1474.25305 853.76086,1477.62878 854.59064,1480.76306 855.95654,1483.87476 857.89655,1486.58643 860.09338,1489.0188 
		862.70569,1491.11145 865.67303,1492.70581 868.77649,1493.70361 872.07648,1494.26343 	"/>
	
		<polyline style="clip-path:url(#SVGID_00000126300778167142553610000004149569173868875705_);fill:none;stroke:#979797;stroke-width:0.96;stroke-linejoin:round;stroke-miterlimit:10;" points="
		933.05548,1512.54602 932.71576,1512.13062 928.96362,1508.47437 924.90546,1505.20691 920.5415,1502.32837 915.98096,1499.8877 
		911.17474,1497.99451 906.22131,1496.42993 901.07129,1495.3031 895.94373,1494.71252 890.72937,1494.60889 885.4278,1494.99243 
		872.07648,1494.26343 	"/>
	
		<line style="clip-path:url(#SVGID_00000126300778167142553610000004149569173868875705_);fill:none;stroke:#979797;stroke-width:0.96;stroke-linejoin:round;stroke-miterlimit:10;" x1="917.71277" y1="1541.17407" x2="918.76147" y2="1544.40649"/>
	
		<polyline style="clip-path:url(#SVGID_00000126300778167142553610000004149569173868875705_);fill:none;stroke:#979797;stroke-width:0.96;stroke-linejoin:round;stroke-miterlimit:10;" points="
		917.71277,1541.17407 915.68994,1537.76746 913.30078,1534.59119 910.60565,1531.80383 907.54413,1529.24646 904.28619,1527.12732 
		900.72229,1525.39685 896.96191,1524.10437 893.11444,1523.29895 889.18011,1522.98059 885.20782,1523.03979 881.25812,1523.63513 
		877.53851,1524.59692 873.84143,1526.09473 870.37457,1527.95898 867.1983,1530.34814 864.30145,1532.99414 861.68378,1535.89709 
		860.87537,1537.11267 	"/>
	
		<path style="clip-path:url(#SVGID_00000126300778167142553610000004149569173868875705_);fill:none;stroke:#979797;stroke-width:4;stroke-linejoin:round;stroke-miterlimit:10;" d="
		M236.069,1325.84644l28.33972-45.52368c2.68268-4.30945,7.45084-6.87134,12.52502-6.72974l6.58908,0.18396
		c7.64215,0.21326,13.76151,6.40588,13.88388,14.05005l0.41104,25.67639"/>
	
		<line style="clip-path:url(#SVGID_00000126300778167142553610000004149569173868875705_);fill:none;stroke:#000000;stroke-width:0.12;stroke-linejoin:round;stroke-miterlimit:10;" x1="974.51202" y1="852.87854" x2="974.13031" y2="854.02258"/>
	
		<circle style="clip-path:url(#SVGID_00000126300778167142553610000004149569173868875705_);fill-rule:evenodd;clip-rule:evenodd;fill:none;stroke:#CCCCCC;stroke-miterlimit:10;" cx="568.99377" cy="709.15369" r="89.03998"/>
	
		<line style="display:none;clip-path:url(#SVGID_00000126300778167142553610000004149569173868875705_);fill:none;stroke:#E2E2E2;stroke-linecap:round;stroke-miterlimit:10;stroke-dasharray:4;" x1="234.8838" y1="804.53802" x2="903.13696" y2="613.21558"/>
	
		<circle style="clip-path:url(#SVGID_00000126300778167142553610000004149569173868875705_);fill:#979797;" cx="568.99377" cy="709.15369" r="9.28714"/>
	<g style="display:none;clip-path:url(#SVGID_00000126300778167142553610000004149569173868875705_);">
		<circle class="st20" cx="504.32504" cy="730.31683" r="2.23235"/>
		<circle class="st20" cx="554.98718" cy="775.73999" r="2.23235"/>
		<circle class="st20" cx="619.65594" cy="754.5769" r="2.23235"/>
		<circle class="st20" cx="633.66248" cy="687.9906" r="2.23235"/>
		<circle class="st20" cx="583.00037" cy="642.56738" r="2.23235"/>
		<circle class="st20" cx="518.3316" cy="663.73053" r="2.23235"/>
		<circle class="st20" cx="498.4324" cy="694.20038" r="2.23235"/>
		<circle class="st20" cx="520.76312" cy="762.78497" r="2.23235"/>
		<circle class="st20" cx="591.32452" cy="777.73828" r="2.23235"/>
		<circle class="st20" cx="639.55511" cy="724.10699" r="2.23235"/>
		<circle class="st20" cx="617.22443" cy="655.5224" r="2.23235"/>
		<circle class="st20" cx="546.66302" cy="640.56909" r="2.23235"/>
		<circle class="st20" cx="588.64978" cy="713.56616" r="3.60001"/>
	</g>
	<g style="display:none;clip-path:url(#SVGID_00000126300778167142553610000004149569173868875705_);">
		<circle class="st20" cx="479.96143" cy="716.7558" r="6.30001"/>
		<circle class="st20" cx="531.06122" cy="790.05902" r="6.30001"/>
		<circle class="st20" cx="620.09357" cy="782.45691" r="6.30001"/>
		<circle class="st20" cx="658.02612" cy="701.55157" r="6.30001"/>
		<circle class="st20" cx="606.92633" cy="628.24841" r="6.30001"/>
		<circle class="st20" cx="517.89398" cy="635.85052" r="6.30001"/>
	</g>
	
		<path style="clip-path:url(#SVGID_00000126300778167142553610000004149569173868875705_);fill:none;stroke:#979797;stroke-width:4;stroke-linejoin:round;stroke-miterlimit:10;" d="
		M1174.63171,592.12726l187.11169-166.06027c6.32825-5.61633,6.25696-15.52246-0.15161-21.04703l-190.7594-164.44614
		c-9.12866-7.86946-23.27332-1.29338-23.14026,10.7583l3.64758,330.47867
		C1151.47217,593.81183,1165.65527,600.09381,1174.63171,592.12726z"/>
	<g style="clip-path:url(#SVGID_00000126300778167142553610000004149569173868875705_);">
		<text transform="matrix(1 0 0 1 546.49689 155.45695)"><tspan x="0" y="0" class="st21 st11">TO </tspan><tspan x="-54.43164" y="28.7998" class="st21 st11">RED SQUARE</tspan></text>
	</g>
	<g style="clip-path:url(#SVGID_00000126300778167142553610000004149569173868875705_);">
		<text transform="matrix(1 0 0 1 842.21295 756.88397)" class="st10 st13">AID</text>
	</g>
	<g style="clip-path:url(#SVGID_00000126300778167142553610000004149569173868875705_);">
		<g>
			<path class="st6" d="M503.31223-186.27672l0.00113,164.90051l-31.87115,0.00024c-2.2092,0-4,1.79089-4,4l0.00018,25.11011
				l0.00037,48.54614l0.00037,64.43921c0,2.67114-1.0401,5.18225-2.92892,7.07104c-1.88873,1.88879-4.3999,2.92896-7.07098,2.92896
				l-618.36102,0.00403L-160.91862,7.7383v-118.62097l475.24255-1.73682l35.87192-0.00024c2.20917,0,4-1.79089,4-4
				l-0.00043-69.65601L503.31223-186.27672 M507.31219-190.27672l-157.11682,0.00098l0.00046,73.65601l-35.87192,0.00024
				l-479.24255,1.75146V7.7383l0.00079,126.98523l622.36102-0.00403c7.73199,0,14-6.26807,13.99991-14.00012l-0.00037-64.43909
				l-0.00037-48.54614l-0.00018-25.11011l35.87119-0.00024L507.31219-190.27672L507.31219-190.27672z"/>
		</g>
		<g>
			<path class="st6" d="M764.25842-186.27843l0.00049,69.65601c0,1.06091,0.42139,2.07837,1.17157,2.82849
				c0.75012,0.75012,1.76758,1.17151,2.82843,1.17151l51.3772-0.00037l475.24329-0.22498l-0.00085,120.57654l0.00085,130.29236
				l-618.36139,0.00403c-5.51379,0-9.99963-4.48596-9.99969-9.99988l-0.00043-71.74622l-0.00043-48.54614l-0.00018-32.84399
				c0-1.06091-0.42139-2.07825-1.17157-2.82837c-0.75012-0.75024-1.76764-1.17163-2.82843-1.17163l-50.52203,0.00037
				l-0.00092-157.16675L764.25842-186.27843 M768.25836-190.27843l-160.2641,0.00098L607.9953-25.1107l54.52197-0.00037
				l0.00018,32.84399l0.00043,48.54614l0.00043,71.74622c0.00006,7.73157,6.26837,13.99988,13.99969,13.99988
				c0.00049,0-0.00012,0,0.00037,0l622.36102-0.00403l-0.00085-134.29236l0.00085-124.57849l-479.24524,0.22693l-51.37524,0.00037
				L768.25836-190.27843L768.25836-190.27843z"/>
		</g>
		<g>
			<path class="st5" d="M69.08644,1221.14758c-6.6167,0-12-5.38281-12-12L57.084,834.82434c0-6.61719,5.3833-12,12-12h49.11084
				c5.35596,0,10.11621,3.63379,11.57568,8.83691c12.61475,44.96875,32.08203,87.61523,57.8623,126.75293
				c25.37891,38.5293,56.36914,72.91113,92.11037,102.18945c2.77686,2.27441,4.36963,5.64746,4.36963,9.25391l0.00098,139.28809
				c0,6.61719-5.3833,12.00098-12,12.00098L69.08644,1221.14758z"/>
			<path class="st6" d="M118.19545,820.82434v4c4.46292,0,8.43094,3.03381,9.64938,7.37756
				c12.67038,45.16772,32.22395,88.00195,58.1176,127.31274c25.49023,38.69849,56.61635,73.23035,92.5137,102.63635
				c2.31119,1.89331,3.63672,4.70227,3.63672,7.70679l0.00095,139.28833c0,5.51404-4.48596,10-9.99994,10.00012l-203.02742,0.00134
				c-5.51401,0-10-4.48596-10.00006-10l-0.00247-374.32288c0-5.51404,4.48593-10,9.99988-10.00012l49.11166-0.00024V820.82434
				 M118.19542,820.82434c-0.0004,0,0,0-0.0004,0l-49.11124,0.00024c-7.73193,0.00012-13.99988,6.26807-13.99988,14.00012
				l0.00247,374.32288c0.00006,7.73206,6.26807,14,14.00006,14l203.02742-0.00134
				c7.73199-0.00012,13.99994-6.26819,13.99994-14.00012l-0.00095-139.28833c0-4.18262-1.86642-8.15063-5.10196-10.80115
				c-70.90752-58.08533-123.8757-137.24915-149.31468-227.93506C129.99312,825.05042,124.50087,820.82434,118.19542,820.82434
				L118.19542,820.82434z"/>
		</g>
		<g>
			<path class="st5" d="M63.6338,604.62952c-3.20508,0-6.21875-1.24805-8.48535-3.51416
				c-2.2666-2.2666-3.51465-5.28027-3.51465-8.48535l-0.00244-392.73096c0-6.61719,5.38281-12.00049,11.99951-12.00049
				l366.18799-0.00244c6.6167,0,12,5.3833,12,12l0.00049,62.44041c0,5.30713-3.37695,9.91602-8.40283,11.46826
				c-73.84424,22.80273-141.229,64.58789-194.86818,120.83838c-53.78955,56.40869-92.35547,125.91895-111.5293,201.01709
				c-1.34863,5.28076-6.12207,8.96924-11.6084,8.96924H63.6338z"/>
			<path class="st6" d="M429.81906,185.89638v4c5.51385,0,9.99973,4.48596,9.99979,9.99988l0.00046,62.44005
				c0,4.42517-2.81018,8.26599-6.99289,9.5575c-74.17017,22.9032-141.85092,64.87195-195.72537,121.36938
				c-54.02586,56.65613-92.76173,126.47278-112.01994,201.9021c-1.12192,4.39465-5.0986,7.46399-9.6705,7.46411l-51.77673,0.00037
				c-5.51407,0-10.00006-4.48596-10.00012-10l-0.0025-392.73096c-0.00006-5.51404,4.48593-10,9.99988-10.00012l366.18793-0.00232
				V185.89638 M429.81903,185.89638c-0.00046,0,0.00024,0-0.00024,0L63.63112,185.8987
				c-7.73199,0.00012-13.99994,6.26819-13.99988,14.00012l0.0025,392.73096c0.00006,7.73206,6.26813,14,14.00012,14
				l51.77673-0.00037c6.37381-0.00012,11.96951-4.29883,13.5462-10.47461c38.96744-152.62524,155.45345-274.245,305.0498-320.43909
				c5.85092-1.80664,9.81268-7.25586,9.81268-13.37939l-0.00046-62.44005
				C443.81879,192.16481,437.55032,185.89638,429.81903,185.89638L429.81903,185.89638z"/>
		</g>
		<g>
			<path class="st5" d="M369.21146,1221.14563c-6.6167,0-12-5.38281-12-12l-0.00049-77.95898
				c0-6.61426,5.38721-11.99609,12.00879-11.99609c1.77393,0,3.51074,0.39355,5.16211,1.1709
				c18.10693,8.51953,36.94824,15.89746,56,21.92871c5.04004,1.59473,8.42627,6.19629,8.42627,11.44824l0.00049,55.40625
				c0,6.61621-5.3833,12-12.00049,12.00098h0.00049H369.21146z"/>
			<path class="st6" d="M369.21991,1121.19055c1.47726,0,2.92758,0.32996,4.3107,0.98071
				c18.18546,8.55676,37.10995,15.96729,56.24768,22.02539c4.20465,1.33105,7.02972,5.16553,7.02972,9.54138l0.00037,55.4071
				c0.00003,2.67114-1.04013,5.18237-2.92886,7.07104c-1.88876,1.88879-4.39996,2.92896-7.07108,2.92896l-57.59705,0.00049
				c-5.51407,0-10.00009-4.48596-10.00009-10l-0.00052-77.95923c-0.00003-2.7417,1.07095-5.2832,3.01559-7.15613
				C364.10016,1122.22559,366.6492,1121.19055,369.21991,1121.19055 M369.21991,1117.19055
				c-7.37009,0-14.00919,5.89124-14.00912,13.99585l0.00052,77.95923c0.00003,7.73206,6.26807,14,14.00009,14l57.59708-0.00049
				c7.73199,0,13.99997-6.26807,13.99991-14l-0.00037-55.4071c-0.00003-6.12158-3.98633-11.50732-9.82251-13.35486
				c-19.16785-6.06775-37.78244-13.3761-55.75189-21.8313C373.25375,1117.62036,371.20966,1117.19055,369.21991,1117.19055
				L369.21991,1117.19055z"/>
		</g>
		<g>
			<path class="st5" d="M703.70898,1221.14368c-6.6167,0-12-5.38281-12-12l-0.00049-53.81445
				c0-5.31738,3.44141-9.93555,8.56396-11.49121c19.04102-5.78613,37.88232-12.90527,56.00049-21.16113
				c1.61279-0.73535,3.3042-1.10742,5.02734-1.10742c6.61963,0,12.00537,5.38086,12.00537,11.99609l0.00049,75.57715
				c0,6.61719-5.3833,12-12,12L703.70898,1221.14368z"/>
			<path class="st6" d="M761.29987,1123.56885c4.81195,0,10.00562,3.8219,10.00568,9.99634l0.00049,75.57776
				c0,5.51404-4.48596,10-9.99994,10.00012l-57.59723,0.00037c-5.51398,0-9.99994-4.48596-9.99994-10l-0.00037-53.81458
				c0-4.42981,2.8714-8.27869,7.1452-9.57739c19.13007-5.81287,38.05487-12.96423,56.2486-21.25525
				C758.45264,1123.88086,759.86493,1123.56885,761.29987,1123.56885 M761.29987,1119.56885
				c-1.93646,0-3.92316,0.40662-5.8562,1.28748c-17.98492,8.19592-36.60028,15.24817-55.75287,21.06799
				c-5.91644,1.79773-9.9823,7.22107-9.98224,13.40466l0.00037,53.81445c0.00006,7.73157,6.26862,14,13.99994,14
				c0.00049,0-0.00031,0,0.00012,0l57.59711-0.00037c7.73199-0.00012,13.99994-6.26819,13.99994-14.00012l-0.00049-75.57776
				C775.30548,1125.47375,768.67572,1119.56885,761.29987,1119.56885L761.29987,1119.56885z"/>
		</g>
		<g>
			<path class="st5" d="M866.86914,1221.1427c-6.6167,0-12-5.38281-12-12l-0.00098-142.07031
				c0-3.56348,1.56152-6.91016,4.28467-9.18359c71.1333-59.38477,121.87012-137.64551,146.72461-226.31934
				c1.44434-5.15234,6.22363-8.75098,11.62256-8.75098h52.39355c6.61719,0,12.00049,5.38281,12.00049,12l0.00244,374.32227
				c0,6.61719-5.3833,12-12,12L866.86914,1221.1427z"/>
			<path class="st6" d="M1069.89404,820.81812v4c5.51392,0,9.99976,4.48596,9.99988,9.99988l0.00244,374.323
				c0,2.67114-1.04016,5.18225-2.92883,7.07104c-1.88879,1.88879-4.40002,2.92896-7.07117,2.92896l-203.02716,0.00134
				c-5.51398,0-10-4.48596-10.00006-9.99988l-0.00092-142.07019c0-2.96851,1.2998-5.75623,3.56622-7.64819
				c35.08319-29.2887,65.5061-63.52026,90.42365-101.74377c25.31683-38.836,44.47601-81.08447,56.94537-125.57178
				c1.203-4.29236,5.19043-7.29004,9.69659-7.29004l52.39398-0.00037V820.81812 M1069.89404,820.81812
				c-0.00049,0,0.00024,0-0.00024,0l-52.39374,0.00037c-6.28815,0-11.85107,4.15564-13.54822,10.21045
				c-25.0376,89.32745-76.78784,167.47632-146.08087,225.32446c-3.17609,2.65149-5.00275,6.58142-5.00275,10.71887
				l0.00092,142.07019c0.00006,7.73193,6.26813,13.99988,14.00006,13.99988l203.02716-0.00134c7.73206,0,14-6.26807,14-14
				l-0.00244-374.323C1083.8938,827.08655,1077.62537,820.81812,1069.89404,820.81812L1069.89404,820.81812z"/>
		</g>
		<g>
			<path class="st5" d="M1020.21045,604.62366c-5.48682,0-10.26025-3.6875-11.6084-8.96729
				c-19.26318-75.44434-58.0791-145.20996-112.25244-201.75537c-54.03223-56.39844-121.87354-98.13574-196.19043-120.69971
				c-4.979-1.51221-8.45654-6.23486-8.45654-11.48535l-0.00049-61.82127c0-6.6167,5.3833-12,12-12l366.1875-0.00244
				c6.6167,0,12,5.3833,12,12l0.00244,392.73096c0,3.20508-1.24805,6.21875-3.51416,8.48535
				c-2.2666,2.2666-5.27979,3.51465-8.48535,3.51465L1020.21045,604.62366z"/>
			<path class="st6" d="M1069.89001,185.89223v4c5.51392,0,9.99976,4.48596,9.99976,9.99988l0.00256,392.73108
				c0,2.67102-1.04016,5.18237-2.92883,7.07104c-1.88879,1.88879-4.40002,2.92896-7.07104,2.92896l-49.68213,0.00037
				c-4.57196,0-8.54858-3.06848-9.67041-7.46216c-19.34796-75.77734-58.3349-145.85046-112.74591-202.64417
				c-54.26923-56.64575-122.40936-98.56628-197.05377-121.22998c-4.14355-1.25793-7.03741-5.19385-7.03748-9.57117l-0.00043-61.8214
				c0-5.51404,4.48596-10.00012,9.99994-10.00012l366.18774-0.00232V185.89223 M1069.88989,185.89223
				c-0.00037,0,0.00024,0-0.00024,0l-366.18738,0.00232c-7.73193,0.00012-13.99994,6.26819-13.99994,14.00012l0.00043,61.8214
				c0.00006,6.14771,3.99286,11.61267,9.87543,13.39868c150.56989,45.71619,267.94135,167.72424,307.08606,321.03625
				c1.57666,6.17493,7.17297,10.47253,13.54608,10.47253l49.68213-0.00037c7.73193,0,14-6.26807,13.99988-14.00012
				l-0.00256-392.73096C1083.88977,192.16066,1077.62122,185.89223,1069.88989,185.89223L1069.88989,185.89223z"/>
		</g>
		<g>
			<path class="st6" d="M759.5777,1270.3429c5.51398,0,10,4.48596,10,10v740.41956c0,5.51404-4.48602,10-10,10H362.871
				c-5.51401,0-10-4.48596-10-10V1280.3429c0-5.51404,4.48599-10,10-10H759.5777 M759.5777,1266.3429H362.871
				c-7.73199,0-14,6.26794-14,14v740.41956c0,7.73193,6.26801,14,14,14h396.7067c7.73199,0,14-6.26807,14-14V1280.3429
				C773.5777,1272.61084,767.30969,1266.3429,759.5777,1266.3429L759.5777,1266.3429z"/>
		</g>
	</g>
	
		<circle style="clip-path:url(#SVGID_00000126300778167142553610000004149569173868875705_);" cx="926.77759" cy="745.44879" r="4.25248"/>
	<g style="clip-path:url(#SVGID_00000126300778167142553610000004149569173868875705_);">
		<line class="st22" x1="561.14545" y1="122.60094" x2="561.67535" y2="52.86943"/>
		<polyline class="st22" points="543.09796,71.16661 561.67535,52.86943 579.97253,71.44684 		"/>
	</g>
	<g style="clip-path:url(#SVGID_00000126300778167142553610000004149569173868875705_);">
		<g>
			<line class="st23" x1="203.04849" y1="81.57791" x2="275.16849" y2="81.57791"/>
			<polyline class="st23" points="203.04849,81.57791 203.04849,82.05789 275.16849,82.05789 			"/>
			<polyline class="st23" points="203.04849,81.57791 275.16849,81.57791 275.16849,82.05789 			"/>
			<polyline class="st23" points="203.04849,82.05789 203.04849,85.77789 275.16849,85.77789 			"/>
			<g>
				<path class="st24" d="M59.16849,85.77789 M59.16849,76.77789v9h216v-9H59.16849z M59.16849,81.57791h216 M203.04849,76.77789
					v9.12003 M131.16849,85.89792v-9.12003 M95.16849,85.77789v-9"/>
				<line class="st23" x1="59.16849" y1="76.77789" x2="95.16849" y2="76.77789"/>
				<line class="st23" x1="131.16849" y1="76.77789" x2="203.04849" y2="76.77789"/>
				<polyline class="st23" points="59.16849,76.77789 59.16849,81.57791 95.16849,81.57791 				"/>
				<polyline class="st23" points="59.16849,76.77789 95.16849,76.77789 95.16849,81.57791 				"/>
				<polyline class="st23" points="131.16849,76.77789 131.16849,81.57791 203.04849,81.57791 				"/>
				<polyline class="st23" points="131.16849,76.77789 203.04849,76.77789 203.04849,81.57791 				"/>
				<line class="st23" x1="59.16849" y1="81.57791" x2="95.16849" y2="81.57791"/>
				<line class="st23" x1="95.16849" y1="81.57791" x2="131.16849" y2="81.57791"/>
				<line class="st23" x1="131.16849" y1="81.57791" x2="203.04849" y2="81.57791"/>
				<polyline class="st23" points="95.16849,81.57791 95.16849,82.05789 131.16849,82.05789 				"/>
				<polyline class="st23" points="95.16849,81.57791 131.16849,81.57791 131.16849,82.05789 				"/>
				<polyline class="st23" points="95.16849,82.05789 95.16849,85.77789 131.16849,85.77789 				"/>
				<polyline class="st23" points="95.16849,82.05789 131.16849,82.05789 131.16849,85.77789 				"/>
				<polyline class="st23" points="203.04849,82.05789 275.16849,82.05789 275.16849,85.77789 				"/>
				<line class="st23" x1="95.16849" y1="85.77789" x2="131.16849" y2="85.77789"/>
			</g>
			<line class="st23" x1="203.04849" y1="85.77789" x2="275.16849" y2="85.77789"/>
		</g>
		<text transform="matrix(1 0 0 1 190.46989 66.69691)" class="st21 st11">40’</text>
		<text transform="matrix(1 0 0 1 83.18729 66.69704)" class="st21 st11">10’</text>
		<text transform="matrix(1 0 0 1 53.35551 66.69698)" class="st21 st11">0’</text>
		<text transform="matrix(1 0 0 1 121.06635 66.69695)" class="st21 st11">20’</text>
		<text transform="matrix(1 0 0 1 261.37491 66.69701)" class="st21 st11">60’</text>
	</g>
	<g style="clip-path:url(#SVGID_00000126300778167142553610000004149569173868875705_);">
		<g>
			<line class="st25" x1="1036.84155" y1="89.08608" x2="1065.38586" y2="25.46229"/>
			<polyline class="st25" points="1041.01624,34.73745 1065.38586,25.46229 1074.66101,49.83191 			"/>
		</g>
		<text transform="matrix(0.91238 0.40933 -0.40933 0.91238 1017.76245 107.93083)" class="st26 st11">N</text>
	</g>
	<g style="clip-path:url(#SVGID_00000126300778167142553610000004149569173868875705_);">
		<rect x="991.8913" y="688.63916" class="st27" width="110.69228" height="35.90187"/>
		<text transform="matrix(1 0 0 1 993.50836 720.14716)" class="st10 st13">START</text>
	</g>
	
		<path style="clip-path:url(#SVGID_00000126300778167142553610000004149569173868875705_);fill:none;stroke:#979797;stroke-width:4;stroke-linejoin:round;stroke-miterlimit:10;" d="
		M-138.41472,1266.34021h296.00183c7.68813,0,13.92058,6.23242,13.92058,13.92053v52.74585
		c0,7.68811-6.23245,13.92053-13.92058,13.92053h-296.00183c-7.68813,0-13.92058-6.23242-13.92058-13.92053v-52.74585
		C-152.3353,1272.57263-146.10284,1266.34021-138.41472,1266.34021z"/>
	<g style="clip-path:url(#SVGID_00000126300778167142553610000004149569173868875705_);">
		<path class="st28" d="M473.12399,693.33942c23.11612,1.91907,34.81174,6.40442,34.45428,10.71008
			c-0.35742,4.30566-12.63257,6.80109-35.74866,4.88208c-23.11612-1.91901-48.31961-7.52582-47.96216-11.83142
			C424.22488,692.79449,450.0079,691.42041,473.12399,693.33942z"/>
		<path class="st28" d="M507.36829,784.26935c13.21997-19.05963,22.95227-26.94562,26.50232-24.48322
			c3.55011,2.46234-0.42639,14.34064-13.6463,33.40027c-13.22,19.05963-30.67734,38.08313-34.22742,35.62073
			C482.44681,826.34479,494.14835,803.32898,507.36829,784.26935z"/>
		<path class="st28" d="M603.2381,800.07788c-9.89618-20.97864-11.8595-33.35004-7.95197-35.1933
			c3.90747-1.84326,12.20618,7.53961,22.10229,28.51825c9.89618,20.97864,17.64227,45.60889,13.7348,47.45215
			C627.2157,842.69824,613.13422,821.05652,603.2381,800.07788z"/>
		<path class="st28" d="M664.86353,724.95648c-23.11609-1.91901-34.81171-6.40436-34.45428-10.71002
			c0.35748-4.30566,12.63257-6.80109,35.74872-4.88208c23.11609,1.91901,48.31958,7.52576,47.96216,11.83142
			C713.76263,725.50146,687.97968,726.87555,664.86353,724.95648z"/>
		<path class="st28" d="M630.61926,634.02661c-13.21997,19.05963-22.95227,26.94562-26.50232,24.48322
			c-3.55011-2.46234,0.42639-14.34064,13.6463-33.40027c13.21997-19.05963,30.67737-38.08313,34.22742-35.62073
			C655.54077,591.95117,643.83923,614.96698,630.61926,634.02661z"/>
		<path class="st28" d="M534.74945,618.21808c9.89618,20.97864,11.8595,33.35004,7.95197,35.1933
			c-3.90747,1.84326-12.20618-7.53961-22.10229-28.51825c-9.89615-20.97864-17.6423-45.60889-13.73477-47.45215
			C510.77185,575.59772,524.85333,597.23944,534.74945,618.21808z"/>
		<g>
			<path class="st28" d="M481.76562,740.40338c8.00812-3.65906,19.39026-5.00903,21.18579-1.07941
				c1.79556,3.92969-6.67545,11.65094-14.68353,15.31s-12.52078,1.8703-14.31635-2.05939
				C472.15601,748.6449,473.75754,744.06244,481.76562,740.40338z"/>
			<path class="st28" d="M552.44769,800.31744c0.83521-8.76471,5.35712-19.29694,9.65808-18.88708
				s6.75232,11.60657,5.91711,20.37128c-0.83521,8.76477-4.64069,11.7785-8.94165,11.36865
				C554.78021,812.76044,551.61249,809.08221,552.44769,800.31744z"/>
			<path class="st28" d="M639.67578,769.06207c-7.17285-5.10571-14.03308-14.2879-11.52765-17.80774
				s13.42773-0.04437,20.60065,5.06128c7.17285,5.10571,7.88007,9.9082,5.37469,13.42804
				C651.61804,773.26349,646.84869,774.16772,639.67578,769.06207z"/>
			<path class="st28" d="M656.22192,677.89258c-8.00812,3.65906-19.39026,5.00903-21.18579,1.07941
				c-1.79553-3.92969,6.67542-11.651,14.68353-15.31c8.00812-3.65906,12.52081-1.8703,14.31635,2.05939
				S664.22998,674.23352,656.22192,677.89258z"/>
			<path class="st28" d="M585.53986,617.97852c-0.83521,8.76471-5.35712,19.29694-9.65808,18.88708
				s-6.75232-11.60657-5.91711-20.37128c0.83521-8.76477,4.64069-11.7785,8.94165-11.36865
				C583.20734,605.53552,586.37512,609.21375,585.53986,617.97852z"/>
			<path class="st28" d="M498.31174,649.23389c7.17288,5.10571,14.03311,14.2879,11.52765,17.80774
				c-2.5054,3.51984-13.42773,0.04437-20.60062-5.06134c-7.17288-5.10565-7.8801-9.90814-5.37466-13.42798
				S491.13885,644.12823,498.31174,649.23389z"/>
		</g>
		<circle class="st28" cx="568.99377" cy="709.14795" r="30.37168"/>
	</g>
	<g style="clip-path:url(#SVGID_00000126300778167142553610000004149569173868875705_);">
		<text transform="matrix(1 0 0 1 805.87799 711.6969)" class="st6 st10 st13">RAMP</text>
	</g>
</g>
</svg>
