<?xml version="1.0" encoding="utf-8"?>
<!-- Generator: Adobe Illustrator 28.0.0, SVG Export Plug-In . SVG Version: 6.00 Build 0)  -->
<svg version="1.1" id="Layer_1" xmlns="http://www.w3.org/2000/svg" xmlns:xlink="http://www.w3.org/1999/xlink" x="0px" y="0px"
	 viewBox="0 0 2691.86597 2691.86597" style="enable-background:new 0 0 2691.86597 2691.86597;" xml:space="preserve">
<style type="text/css">
	.st0{fill:#3AAEC1;}
	.st1{clip-path:url(#SVGID_00000044891537492669870440000006732512960500207263_);}
	.st2{fill:#D1CABD;}
	.st3{fill:#B5AFA3;}
</style>
<g id="Layer_15">
	<circle class="st0" cx="1345.93372" cy="1345.93347" r="1341.28064"/>
</g>
<g>
	<defs>
		<path id="SVGID_1_" d="M1345.93298,63.21839c87.04736,0,174.03259,8.76805,258.53894,26.06062
			c82.3457,16.85016,163.34375,41.99321,240.74353,74.73062c76.00061,32.14572,149.30518,71.9342,217.87756,118.26115
			c67.92749,45.89066,131.80444,98.59412,189.85645,156.64572c58.05151,58.05206,110.75513,121.92883,156.64575,189.85638
			c46.3269,68.57251,86.11548,141.87701,118.26123,217.87762c32.7373,77.39972,57.88037,158.39771,74.73047,240.74353
			c17.29248,84.50635,26.06055,171.49158,26.06055,258.53894s-8.76807,174.03259-26.06055,258.53894
			c-16.8501,82.3457-41.99316,163.34375-74.73047,240.74353c-32.14575,76.00061-71.93433,149.30518-118.26123,217.87756
			c-45.89062,67.92749-98.59424,131.80444-156.64575,189.85645c-58.052,58.05151-121.92896,110.75488-189.85645,156.646
			c-68.57239,46.32666-141.87695,86.11523-217.87756,118.26074c-77.39978,32.73755-158.39783,57.88062-240.74353,74.73071
			c-84.50635,17.29248-171.49158,26.06055-258.53894,26.06055s-174.03259-8.76807-258.53894-26.06055
			c-82.34583-16.8501-163.34381-41.99316-240.74359-74.73071c-76.00055-32.14551-149.30505-71.93408-217.87756-118.26074
			c-67.92755-45.89111-131.80444-98.59448-189.85638-156.646c-58.05154-58.052-110.75494-121.92896-156.64584-189.85645
			c-46.32677-68.57239-86.11528-141.87695-118.26089-217.87756c-32.73744-77.39978-57.88062-158.39783-74.73076-240.74353
			c-17.29249-84.50635-26.06065-171.49158-26.06065-258.53894s8.76816-174.03259,26.06065-258.53894
			c16.85014-82.34583,41.99332-163.34381,74.73076-240.74353c32.14563-76.00061,71.93413-149.30511,118.26089-217.87762
			c45.8909-67.92755,98.5943-131.80432,156.64584-189.85638c58.05194-58.05161,121.92883-110.75507,189.85638-156.64572
			c68.57251-46.32693,141.87701-86.11542,217.87756-118.26114c77.39978-32.73741,158.39777-57.88046,240.74359-74.73063
			C1171.90039,71.98644,1258.88562,63.21839,1345.93298,63.21839 M1345.93298,0C602.59467,0,0.00007,602.59473,0.00007,1345.93298
			s602.5946,1345.93298,1345.93286,1345.93298s1345.93298-602.59473,1345.93298-1345.93298S2089.27124,0,1345.93298,0L1345.93298,0z
			"/>
	</defs>
	<clipPath id="SVGID_00000116951788126643767440000006868943195758638988_">
		<use xlink:href="#SVGID_1_"  style="overflow:visible;"/>
	</clipPath>
	
		<g id="Layer_15_00000154398722748348719240000002507692443752896427_" style="clip-path:url(#SVGID_00000116951788126643767440000006868943195758638988_);">
		<path class="st2" d="M1345.93298,63.21839c87.04736,0,174.03259,8.76805,258.53894,26.06062
			c82.3457,16.85016,163.34375,41.99321,240.74353,74.73062c76.00061,32.14572,149.30518,71.9342,217.87756,118.26115
			c67.92749,45.89066,131.80444,98.59412,189.85645,156.64572c58.05151,58.05206,110.75513,121.92883,156.64575,189.85638
			c46.3269,68.57251,86.11548,141.87701,118.26123,217.87762c32.7373,77.39972,57.88037,158.39771,74.73047,240.74353
			c17.29248,84.50635,26.06055,171.49158,26.06055,258.53894s-8.76807,174.03259-26.06055,258.53894
			c-16.8501,82.3457-41.99316,163.34375-74.73047,240.74353c-32.14575,76.00061-71.93433,149.30518-118.26123,217.87756
			c-45.89062,67.92749-98.59424,131.80444-156.64575,189.85645c-58.052,58.05151-121.92896,110.75488-189.85645,156.646
			c-68.57239,46.32666-141.87695,86.11523-217.87756,118.26074c-77.39978,32.73755-158.39783,57.88062-240.74353,74.73071
			c-84.50635,17.29248-171.49158,26.06055-258.53894,26.06055s-174.03259-8.76807-258.53894-26.06055
			c-82.34583-16.8501-163.34381-41.99316-240.74359-74.73071c-76.00055-32.14551-149.30505-71.93408-217.87756-118.26074
			c-67.92755-45.89111-131.80444-98.59448-189.85638-156.646c-58.05154-58.052-110.75494-121.92896-156.64584-189.85645
			c-46.32677-68.57239-86.11528-141.87695-118.26089-217.87756c-32.73744-77.39978-57.88062-158.39783-74.73076-240.74353
			c-17.29249-84.50635-26.06065-171.49158-26.06065-258.53894s8.76816-174.03259,26.06065-258.53894
			c16.85014-82.34583,41.99332-163.34381,74.73076-240.74353c32.14563-76.00061,71.93413-149.30511,118.26089-217.87762
			c45.8909-67.92755,98.5943-131.80432,156.64584-189.85638c58.05194-58.05161,121.92883-110.75507,189.85638-156.64572
			c68.57251-46.32693,141.87701-86.11542,217.87756-118.26114c77.39978-32.73741,158.39777-57.88046,240.74359-74.73063
			C1171.90039,71.98644,1258.88562,63.21839,1345.93298,63.21839 M1345.93298,0C602.59467,0,0.00007,602.59473,0.00007,1345.93298
			s602.5946,1345.93298,1345.93286,1345.93298s1345.93298-602.59473,1345.93298-1345.93298S2089.27124,0,1345.93298,0L1345.93298,0z
			"/>
		<path class="st3" d="M-266.41589,1343.93347h3224.7002v4h-3224.7002v-4H-266.41589z M-252.92085,1554.16248l3197.19458-420.4043
			l0.52148,3.96582l-3197.19458,420.40442L-252.92085,1554.16248z M-211.99232,1761.31189l3114.83496-834.61694l1.03516,3.86328
			l-3114.83496,834.61694L-211.99232,1761.31189z M-144.36667,1961.31677L2834.70776,726.86938l1.53125,3.69531
			L-142.83543,1965.01208L-144.36667,1961.31677z M-51.43111,2150.32959l2792.71948-1612.2533l2,3.46436L-49.43111,2153.79395
			L-51.43111,2150.32959z M65.66123,2326.03027L2623.78369,362.67172l2.43555,3.17337L68.09679,2329.20361L65.66123,2326.03027z
			 M204.41953,2484.62793L2484.63696,204.41069l2.82812,2.82819L207.24771,2487.4563L204.41953,2484.62793z M362.88876,2623.93408
			L2325.7959,65.48927l3.17407,2.43513L366.06271,2626.36914L362.88876,2623.93408z M538.1532,2741.34448L2150.24536-51.47144
			l3.46484,1.99998L541.61804,2743.34448L538.1532,2741.34448z M727.0274,2834.77271l1234.125-2979.20361l3.69531,1.53079
			l-1234.125,2979.20361L727.0274,2834.77271z M926.70203,2902.83154l834.61694-3114.83447l3.86328,1.03519L930.56543,2903.8667
			L926.70203,2902.83154z M1133.55298,2944.23267l420.79102-3197.12891l3.96582,0.52196L1137.5188,2944.75464L1133.55298,2944.23267
			z M1343.93372-266.41666h4v3224.7002h-4V-266.41666z M1133.48889-252.36479l3.9657-0.52213l420.92017,3197.09668l-3.96582,0.52197
			L1133.48889-252.36479z M926.70068-210.96234l3.86334-1.03519l834.61688,3114.83472l-3.86328,1.03516L926.70068-210.96234z
			 M727.06787-142.91409l3.69537-1.53069L1964.7915,2834.79102l-3.69543,1.53076L727.06787-142.91409z M538.03253-49.40396
			l3.46466-2.00031l1612.34998,2792.68701l-3.4646,2.00049L538.03253-49.40396z M362.80655,67.99068l3.1738-2.43533
			l1963.06848,2558.31567l-3.17383,2.4353L362.80655,67.99068z M204.41948,207.23878l2.82819-2.82819l2280.21753,2280.21729
			l-2.82812,2.82812L204.41948,207.23878z M65.5517,365.9881l2.43519-3.17358l2558.31592,1963.0686l-2.4353,3.17358
			L65.5517,365.9881z M-51.40394,541.4837l2.00012-3.46429l2792.68726,1612.35022l-2.00024,3.46436L-51.40394,541.4837z
			 M-144.45348,730.7619l1.53072-3.6955l2979.23584,1234.0282l-1.53076,3.69556L-144.45348,730.7619z M-211.99402,930.552
			l1.03514-3.86322l3114.83496,834.617l-1.03516,3.86316L-211.99402,930.552z M-252.87767,1137.46777l0.52213-3.9657
			l3197.09766,420.92017l-0.52197,3.96582L-252.87767,1137.46777z"/>
	</g>
</g>
</svg>
