<?xml version="1.0" encoding="utf-8"?>
<!-- Generator: Adobe Illustrator 28.0.0, SVG Export Plug-In . SVG Version: 6.00 Build 0)  -->
<svg version="1.1" id="Layer_1" xmlns="http://www.w3.org/2000/svg" xmlns:xlink="http://www.w3.org/1999/xlink" x="0px" y="0px"
	 viewBox="0 0 2691.9 2691.9" style="enable-background:new 0 0 2691.9 2691.9;" xml:space="preserve">
<style type="text/css">
	.st0{fill:#3CB6BF;}
	.st1{clip-path:url(#SVGID_00000042737628875962028550000007383126382496908953_);}
	.st2{fill:#D1CABD;}
	.st3{fill:#B5AFA3;}
</style>
<g id="Layer_15">
	<circle class="st0" cx="1345.9" cy="1345.9" r="1341.3"/>
</g>
<g>
	<defs>
		<path id="SVGID_1_" d="M1345.9,63.2c87,0,174,8.8,258.5,26.1c82.3,16.9,163.3,42,240.7,74.7c76,32.1,149.3,71.9,217.9,118.3
			c67.9,45.9,131.8,98.6,189.9,156.6c58.1,58.1,110.8,121.9,156.6,189.9c46.3,68.6,86.1,141.9,118.3,217.9
			c32.7,77.4,57.9,158.4,74.7,240.7c17.3,84.5,26.1,171.5,26.1,258.5s-8.8,174-26.1,258.5c-16.9,82.3-42,163.3-74.7,240.7
			c-32.1,76-71.9,149.3-118.3,217.9c-45.9,67.9-98.6,131.8-156.6,189.9c-58.1,58.1-121.9,110.8-189.9,156.6
			c-68.6,46.3-141.9,86.1-217.9,118.3c-77.4,32.7-158.4,57.9-240.7,74.7c-84.5,17.3-171.5,26.1-258.5,26.1s-174-8.8-258.5-26.1
			c-82.3-16.9-163.3-42-240.7-74.7c-76-32.1-149.3-71.9-217.9-118.3c-67.9-45.9-131.8-98.6-189.9-156.6
			c-58.1-58.1-110.8-121.9-156.6-189.9c-46.3-68.6-86.1-141.9-118.3-217.9c-32.7-77.4-57.9-158.4-74.7-240.7
			C72,1520,63.2,1433,63.2,1345.9s8.8-174,26.1-258.5c16.9-82.3,42-163.3,74.7-240.7c32.1-76,71.9-149.3,118.3-217.9
			c45.9-67.9,98.6-131.8,156.6-189.9c58.1-58.1,121.9-110.8,189.9-156.6c68.6-46.3,141.9-86.1,217.9-118.3
			c77.4-32.7,158.4-57.9,240.7-74.7C1171.9,72,1258.9,63.2,1345.9,63.2 M1345.9,0C602.6,0,0,602.6,0,1345.9
			s602.6,1345.9,1345.9,1345.9s1345.9-602.6,1345.9-1345.9S2089.3,0,1345.9,0L1345.9,0z"/>
	</defs>
	<clipPath id="SVGID_00000107547279870158956990000002049257500713695919_">
		<use xlink:href="#SVGID_1_"  style="overflow:visible;"/>
	</clipPath>
	
		<g id="Layer_15_00000154398722748348719240000002507692443752896427_" style="clip-path:url(#SVGID_00000107547279870158956990000002049257500713695919_);">
		<path class="st2" d="M1345.9,63.2c87,0,174,8.8,258.5,26.1c82.3,16.9,163.3,42,240.7,74.7c76,32.1,149.3,71.9,217.9,118.3
			c67.9,45.9,131.8,98.6,189.9,156.6c58.1,58.1,110.8,121.9,156.6,189.9c46.3,68.6,86.1,141.9,118.3,217.9
			c32.7,77.4,57.9,158.4,74.7,240.7c17.3,84.5,26.1,171.5,26.1,258.5s-8.8,174-26.1,258.5c-16.9,82.3-42,163.3-74.7,240.7
			c-32.1,76-71.9,149.3-118.3,217.9c-45.9,67.9-98.6,131.8-156.6,189.9c-58.1,58.1-121.9,110.8-189.9,156.6
			c-68.6,46.3-141.9,86.1-217.9,118.3c-77.4,32.7-158.4,57.9-240.7,74.7c-84.5,17.3-171.5,26.1-258.5,26.1s-174-8.8-258.5-26.1
			c-82.3-16.9-163.3-42-240.7-74.7c-76-32.1-149.3-71.9-217.9-118.3c-67.9-45.9-131.8-98.6-189.9-156.6
			c-58.1-58.1-110.8-121.9-156.6-189.9c-46.3-68.6-86.1-141.9-118.3-217.9c-32.7-77.4-57.9-158.4-74.7-240.7
			C72,1520,63.2,1433,63.2,1345.9s8.8-174,26.1-258.5c16.9-82.3,42-163.3,74.7-240.7c32.1-76,71.9-149.3,118.3-217.9
			c45.9-67.9,98.6-131.8,156.6-189.9c58.1-58.1,121.9-110.8,189.9-156.6c68.6-46.3,141.9-86.1,217.9-118.3
			c77.4-32.7,158.4-57.9,240.7-74.7C1171.9,72,1258.9,63.2,1345.9,63.2 M1345.9,0C602.6,0,0,602.6,0,1345.9
			s602.6,1345.9,1345.9,1345.9s1345.9-602.6,1345.9-1345.9S2089.3,0,1345.9,0L1345.9,0z"/>
		<path class="st3" d="M1343.9-8.7h4v1354.6h-4V-8.7z M1155.4,4.8l4-0.6l188.5,1341.4l-4,0.6L1155.4,4.8z M970.6,44.4l3.9-1.1
			l373.4,1302.1l-3.9,1.1L970.6,44.4z M793.1,109.3l3.7-1.6l551,1237.5l-3.7,1.6L793.1,109.3z M626.4,198.2l3.4-2.1l717.8,1148.8
			l-3.4,2.1L626.4,198.2z M473.7,309.5l3.1-2.6l870.7,1037.7l-3.1,2.6L473.7,309.5z M337.9,441l2.7-3l1006.7,906.4l-2.7,3L337.9,441
			z M221.8,590.1l2.3-3.3l1123,757.5l-2.3,3.3L221.8,590.1z M127.5,753.9l1.8-3.6l1217.5,593.8l-1.8,3.6L127.5,753.9z M57,929.3
			l1.2-3.8L1346.6,1344l-1.2,3.8L57,929.3z M11.5,1112.7l0.7-4l1334,235.2l-0.7,4L11.5,1112.7z M-7.9,1300.7l0.1-4l1353.8,47.3
			l-0.1,4L-7.9,1300.7z M-1.1,1489.5l-0.4-4l1347.2-141.6l0.4,4L-1.1,1489.5z M32,1675.6l-1-3.9L1345.4,1344l1,3.9L32,1675.6z
			 M90.7,1855.3l-1.5-3.7l1256-507.5l1.5,3.7L90.7,1855.3z M173.8,2025l-2-3.5l1173.1-677.3l2,3.5L173.8,2025z M279.7,2181.5
			l-2.5-3.2l1067.5-834l2.5,3.2L279.7,2181.5z M406.4,2321.8l-2.9-2.8l941-974.4l2.9,2.8L406.4,2321.8z M551.3,2443l-3.3-2.4
			l796.2-1095.9l3.3,2.4L551.3,2443z M711.8,2542.9l-3.6-1.9l636-1196.1l3.6,1.9L711.8,2542.9z M884.5,2619.6l-3.8-1.4L1344,1345.3
			l3.8,1.4L884.5,2619.6z M1066.3,2671.4l-3.9-0.8l281.6-1325l3.9,0.8L1066.3,2671.4z M1253.4,2697.4l-4-0.3l94.5-1351.3l4,0.3
			L1253.4,2697.4z M1442.4,2697.1l-4,0.3l-94.5-1351.3l4-0.3L1442.4,2697.1z M1629.5,2670.5l-3.9,0.8l-281.6-1325l3.9-0.8
			L1629.5,2670.5z M1811.1,2618.2l-3.8,1.4L1344,1346.6l3.8-1.4L1811.1,2618.2z M1983.7,2541.1l-3.6,1.9l-636-1196.1l3.6-1.9
			L1983.7,2541.1z M2143.8,2440.7l-3.3,2.4l-796.2-1095.9l3.3-2.4L2143.8,2440.7z M2288.4,2319l-2.9,2.8l-941-974.4l2.9-2.8
			L2288.4,2319z M2414.6,2178.3l-2.5,3.2l-1067.5-834l2.5-3.2L2414.6,2178.3z M2520.1,2021.5l-2,3.5l-1173.1-677.3l2-3.5
			L2520.1,2021.5z M2602.7,1851.5l-1.5,3.7l-1256-507.5l1.5-3.7L2602.7,1851.5z M2660.8,1671.7l-1,3.9l-1314.4-327.7l1-3.9
			L2660.8,1671.7z M2693.3,1485.5l-0.4,4l-1347.2-141.6l0.4-4L2693.3,1485.5z M2699.7,1296.7l0.1,4L1346,1348l-0.1-4L2699.7,1296.7z
			 M2679.6,1108.7l0.7,4l-1334,235.2l-0.7-4L2679.6,1108.7z M2633.6,925.4l1.2,3.8l-1288.3,418.6l-1.2-3.8L2633.6,925.4z
			 M2562.6,750.3l1.8,3.6l-1217.5,593.8l-1.8-3.6L2562.6,750.3z M2467.8,586.8l2.3,3.3l-1123,757.5l-2.3-3.3L2467.8,586.8z
			 M2351.3,438l2.7,3l-1006.7,906.4l-2.7-3L2351.3,438z M2215.1,306.9l3.1,2.6l-870.7,1037.7l-3.1-2.6L2215.1,306.9z M2062.1,196.1
			l3.4,2.1L1347.6,1347l-3.4-2.1L2062.1,196.1z M1895.1,107.6l3.7,1.6l-551,1237.5l-3.7-1.6L1895.1,107.6z M1717.4,43.2l3.9,1.1
			l-373.4,1302.1l-3.9-1.1L1717.4,43.2z M1532.5,4.2l4,0.6l-188.5,1341.4l-4-0.6L1532.5,4.2z"/>
	</g>
</g>
</svg>
