<?xml version="1.0" encoding="UTF-8"?><svg id="Layer_4" xmlns="http://www.w3.org/2000/svg" viewBox="0 0 24 24"><defs><style>.cls-1{fill:#ffbc00;}.cls-1,.cls-2{stroke-width:0px;}.cls-2{fill:#000;}</style></defs><polygon class="cls-1" points="21.5 20 2.5 20 5.955 1 18.909 1 21.5 20"/><path class="cls-2" d="M13.276,18.102c.023.101.065.198.124.283.005.007.008.016.008.024.015.164-.104.31-.268.327-.833.168-1.712.158-2.565.231-.017.002-.034-.007-.042-.023-.084-.162.335-.241.382-.301.01-.012.007-.019-.009-.019l-1.26.012c-.01,0-.02-.003-.028-.01-.157-.129.482-.338.566-.339.046,0,.092,0,.138-.002.016,0,.031-.009.038-.024l.042-.084c.006-.013.019-.022.034-.023.175-.02.352-.004.521.045.107.037.226.018.317-.051.147-.061.271-.168.352-.305.004-.007.006-.015.006-.023-.006-.273-.012-.546-.017-.817-.012-.312-.043-.622-.091-.93-.002-.016-.013-.029-.027-.035-2.167-.826-3.694-2.363-3.621-4.832.035-1.177.57-2.14,1.104-3.193.325-.639.493-1.113.454-1.778-.048-.813-.602-.804-1.214-.712-.525.113-1.066.121-1.594.024-.232-.056-.327-.338-.072-.434.288-.109.682-.126,1.038-.354.199-.118.352-.301.433-.518.316-.675.658-.987,1.434-1.009.365-.017.723.097,1.011.323.786.615.85,1.841.618,2.722-.258.98-.992,2.213-.475,3.372.008.019.029.029.048.024,1.592-.347,3.181.161,4.393,1.212.289.251.567.515.833.791.006.006.014.01.022.012.529.112,1.072.136,1.608.072.344-.053.67-.189.951-.396.009-.006.02-.008.031-.006.308.064-.144.682-.242.786-.099.105-.214.195-.34.266-.06.034-.057.06.009.079.216.062.439.097.664.103.078.002.086.028.026.076-.899.731-1.776,1.48-2.632,2.247-.736.678-1.632,1.159-2.603,1.398-.019.004-.033.021-.034.04l-.074,1.748ZM9.189,4.387c0-.11-.089-.199-.199-.199s-.199.089-.199.199c0,.11.089.199.199.199s.199-.089.199-.199h0ZM17.164,13.309l-.28-.165c-.014-.008-.03-.008-.044,0-.572.331-1.203.547-1.858.634-.97.152-1.961.095-2.907-.166-.168-.047-.177-.026-.027.063.862.524,1.864.77,2.871.702.288-.015.572-.068.847-.156.525-.172,1.005-.46,1.404-.843.01-.01.014-.023.013-.036-.001-.013-.009-.025-.021-.032h.002ZM12.103,17.991c.212.029.426.035.639.018.022-.002.039-.02.04-.042l.032-1.568c0-.021-.014-.04-.035-.044l-.629-.111c-.011-.002-.023,0-.033.007-.01.007-.016.017-.018.028-.02.116-.037.232-.054.349-.055.391-.036.804-.053,1.206-.003.093.033.145.11.157Z"/></svg>