<?xml version="1.0" encoding="utf-8"?>
<!-- Generator: Adobe Illustrator 28.0.0, SVG Export Plug-In . SVG Version: 6.00 Build 0)  -->
<svg version="1.1" id="Layer_1" xmlns="http://www.w3.org/2000/svg" xmlns:xlink="http://www.w3.org/1999/xlink" x="0px" y="0px"
	 viewBox="0 0 60 60" style="enable-background:new 0 0 60 60;" xml:space="preserve">
<style type="text/css">
	.st0{display:none;stroke:#FFFFFF;stroke-miterlimit:10;}
	.st1{fill:url(#SVGID_1_);}
	.st2{fill:url(#SVGID_00000106142720522607667860000012927211593972539560_);}
	.st3{fill:url(#SVGID_00000083046864576738014230000002520182848578729865_);}
</style>
<rect x="-4.51644" y="-1.90533" class="st0" width="73.33318" height="71.66652"/>
<radialGradient id="SVGID_1_" cx="29.99968" cy="31.99788" r="4.02071" gradientTransform="matrix(1 0 0 -1 0 62)" gradientUnits="userSpaceOnUse">
	<stop  offset="0" style="stop-color:#FFFFFF;stop-opacity:0"/>
	<stop  offset="1" style="stop-color:#FFFFFF;stop-opacity:0.8"/>
</radialGradient>
<circle class="st1" cx="29.99968" cy="30.00212" r="4.02071"/>
<radialGradient id="SVGID_00000116225116133493186360000013213495759081992112_" cx="29.99968" cy="31.99788" r="18.20677" gradientTransform="matrix(1 0 0 -1 0 62)" gradientUnits="userSpaceOnUse">
	<stop  offset="0.29807" style="stop-color:#FFFFFF;stop-opacity:0"/>
	<stop  offset="1" style="stop-color:#FFFFFF"/>
</radialGradient>
<path style="fill:url(#SVGID_00000116225116133493186360000013213495759081992112_);" d="M27.21988,13.72514
	c-0.49618-3.16571-5.11159-1.79218-3.79538,1.12982l4.76253,9.05822L27.21988,13.72514L27.21988,13.72514z M14.51348,24.27101
	l9.30669,4.25654L13.5943,28.12283C10.40557,27.80179,11.52396,23.11775,14.51348,24.27101L14.51348,24.27101z M17.29324,40.54802
	l8.33965-5.93162l-5.46345,8.65362C18.29708,45.87072,14.79986,42.56059,17.29324,40.54802L17.29324,40.54802z M32.77953,46.27915
	l-0.96715-10.18804l4.76253,9.0581C37.89106,48.0713,33.27567,49.44481,32.77953,46.27915L32.77953,46.27915z M45.48594,35.73316
	l-9.30669-4.25641l10.22586,0.4046C49.59372,32.20256,48.47546,36.88654,45.48594,35.73316L45.48594,35.73316z M42.70605,19.45615
	l-8.33953,5.93162l5.46333-8.6535C41.70228,14.13334,45.19969,17.44386,42.70605,19.45615L42.70605,19.45615z"/>
<radialGradient id="SVGID_00000068667145142216670010000013686072704902355079_" cx="29.99968" cy="31.99788" r="28.72185" gradientTransform="matrix(1 0 0 -1 0 62)" gradientUnits="userSpaceOnUse">
	<stop  offset="0.29806" style="stop-color:#FFFFFF;stop-opacity:0"/>
	<stop  offset="1" style="stop-color:#FFFFFF"/>
</radialGradient>
<path style="fill:url(#SVGID_00000068667145142216670010000013686072704902355079_);" d="M11.40124,9.67511l11.50964,13.61845
	L8.67936,12.55131C6.42239,10.69708,9.42285,7.52229,11.40124,9.67511L11.40124,9.67511z M3.09675,35.94534l17.5487-3.1585
	L4.22669,39.74072C1.49244,40.7678,0.24316,36.58236,3.09675,35.94534L3.09675,35.94534z M21.69514,56.27235L27.7342,39.4954
	l-2.18724,17.69601C25.06946,60.07322,20.8202,59.0621,21.69514,56.27235L21.69514,56.27235z M48.59802,50.32913L37.08838,36.71068
	l14.23164,10.74225C53.5766,49.30724,50.57688,52.48169,48.59802,50.32913L48.59802,50.32913z M56.90251,24.0589l-17.5487,3.1585
	l16.41888-6.95388C58.50706,19.23627,59.75617,23.42175,56.90251,24.0589L56.90251,24.0589z M38.30412,3.73188l-6.03905,16.77684
	L34.4523,2.81271C34.9299-0.06885,39.17915,0.94207,38.30412,3.73188L38.30412,3.73188z"/>
</svg>
