<?xml version="1.0" encoding="utf-8"?>
<!-- Generator: Adobe Illustrator 28.0.0, SVG Export Plug-In . SVG Version: 6.00 Build 0)  -->
<svg version="1.1" id="Layer_1" xmlns="http://www.w3.org/2000/svg" xmlns:xlink="http://www.w3.org/1999/xlink" x="0px" y="0px"
	 viewBox="0 0 60 60" style="enable-background:new 0 0 60 60;" xml:space="preserve">
<style type="text/css">
	.st0{fill:#FFFFFF;}
</style>
<g>
	<path class="st0" d="M27.2182,13.72504l0.97016,10.18671l-4.76172-9.05816C22.10999,11.9332,26.72322,10.55715,27.2182,13.72504
		L27.2182,13.72504z"/>
	<path class="st0" d="M14.51698,24.26814l9.30565,4.25684l-10.22631-0.40588C10.40864,27.80231,11.52729,23.11978,14.51698,24.26814
		L14.51698,24.26814z"/>
	<path class="st0" d="M17.29878,40.54313l8.33549-5.92987l-5.46459,8.65227C18.29864,45.86912,14.80407,42.56264,17.29878,40.54313
		L17.29878,40.54313z"/>
	<path class="st0" d="M32.78179,46.27501l-0.97016-10.18672l4.76172,9.05816C37.89,48.06684,33.27678,49.44289,32.78179,46.27501
		L32.78179,46.27501z"/>
	<path class="st0" d="M45.48301,35.73191l-9.30565-4.25684l10.22632,0.40588C49.59136,32.19774,48.4727,36.88026,45.48301,35.73191
		L45.48301,35.73191z"/>
	<path class="st0" d="M42.70122,19.45692l-8.33548,5.92987l5.4646-8.65227C41.70135,14.13092,45.19592,17.4374,42.70122,19.45692
		L42.70122,19.45692z"/>
	<path class="st0" d="M11.3986,9.67609l11.51327,13.62188L8.6762,12.54698C6.41909,10.69575,9.42857,7.51797,11.3986,9.67609
		L11.3986,9.67609z"/>
	<path class="st0" d="M3.10271,35.9398l17.55204-3.15798L4.23127,39.74125C1.48907,40.76091,0.24172,36.58327,3.10271,35.9398
		L3.10271,35.9398z"/>
	<path class="st0" d="M21.69421,56.27363l6.03877-16.77987l-2.18782,17.69063
		C25.06998,60.07509,20.82304,59.05542,21.69421,56.27363L21.69421,56.27363z"/>
	<path class="st0" d="M48.60139,50.32395L37.08813,36.71197l14.23566,10.74109
		C53.58091,49.30429,50.58132,52.48207,48.60139,50.32395L48.60139,50.32395z"/>
	<path class="st0" d="M56.89728,24.06025l-17.55204,3.15798l16.41358-6.94954
		C58.51092,19.23913,59.75827,23.41677,56.89728,24.06025L56.89728,24.06025z"/>
	<path class="st0" d="M38.30578,3.72641l-6.03877,16.77987l2.18782-17.69063C34.93001-0.06514,39.17695,0.94462,38.30578,3.72641
		L38.30578,3.72641z"/>
	<circle class="st0" cx="30" cy="30.00002" r="4.01925"/>
</g>
</svg>
