<?xml version="1.0" encoding="UTF-8"?>
<svg id="Layer_1" data-name="Layer 1" xmlns="http://www.w3.org/2000/svg" version="1.1" viewBox="0 0 43 56">
  <g id="Layer_4" data-name="Layer 4">
    <g>
      <g>
        <path d="M41.405,3.993L21.768.335l-.268-.05-.268.05L1.594,3.993l-1.197.224v29.01c0,.194.04,4.8,3.538,9.607,3.185,4.377,7.781,7.443,8.319,7.794.356.263,2.727,1.988,5.669,3.431,2.402,1.178,2.95,1.407,3.035,1.44l.543.216.543-.217c.089-.036.655-.273,3.033-1.44,2.941-1.443,5.312-3.167,5.668-3.43.536-.35,5.134-3.416,8.32-7.794,3.498-4.807,3.538-9.414,3.538-9.607V4.217l-1.198-.224ZM41.87,5.435v27.792c0,.184-.039,4.56-3.398,9.176-3.157,4.338-7.74,7.36-8.145,7.623-.264.196-2.624,1.928-5.572,3.374-2.405,1.18-2.93,1.396-2.982,1.417l-.271.108-.272-.108c-.05-.02-.555-.227-2.983-1.418-2.948-1.445-5.308-3.177-5.573-3.374-.407-.264-4.989-3.285-8.145-7.623-3.359-4.616-3.398-8.992-3.398-9.176V4.826l.599-.112L21.367,1.056l.134-.025.134.025,19.637,3.658.599.112v.61Z" fill="#000" stroke-width="0"/>
        <path d="M21.5,4.386l17.072,3.181v25.645c-.004.145-.13,3.627-2.767,7.25-2.855,3.924-7.24,6.775-7.282,6.802l-.079.05-.075.056c-.022.017-2.28,1.7-5.069,3.069-.801.393-1.383.674-1.801.873-.417-.199-.999-.48-1.803-.873-2.768-1.357-5.046-3.052-5.067-3.067l-.075-.056-.079-.051c-.044-.028-4.407-2.851-7.282-6.802-2.637-3.623-2.763-7.106-2.767-7.25V7.569l17.074-3.182M21.5,1.776L1.863,5.435v27.792s0,4.268,3.258,8.745c3.192,4.386,7.971,7.452,7.971,7.452,0,0,2.439,1.83,5.477,3.319,2.473,1.212,2.931,1.395,2.931,1.395,0,0,.482-.193,2.931-1.395,3.037-1.49,5.477-3.319,5.477-3.319,0,0,4.779-3.066,7.971-7.452,3.258-4.477,3.258-8.745,3.258-8.745V5.436L21.5,1.776h0Z" fill="#000" stroke-width="0"/>
      </g>
      <g>
        <polyline points="23.478 22.302 21.872 22.302 21.356 20.758 20.839 22.302 19.233 22.302 20.519 23.285 20.044 24.796 21.356 23.892 22.668 24.796 22.192 23.285" fill="#000" stroke-width="0"/>
        <path d="M17.95,23.309c-.159,1.742,1.893,3.355,1.893,3.355-2.977-1.742-3.207-2.464-3.207-4.063v-3.599s-1.627-3.4-1.828-3.947c-1.161-3.141,1.01-5.699,1.01-5.699.275,2.63,1.138,4.69,2.541,9.168,0,0-.249,3.044-.409,4.785" fill="#000" stroke-width="0"/>
        <path d="M24.771,23.309c.159,1.742-1.894,3.355-1.894,3.355,2.977-1.742,3.207-2.464,3.207-4.063v-3.599s1.627-3.4,1.828-3.947c1.161-3.141-1.01-5.699-1.01-5.699-.274,2.63-1.138,4.69-2.541,9.168.001,0,.25,3.044.41,4.785" fill="#000" stroke-width="0"/>
        <path d="M26.477,23.076c0,.194-.016.343-.035.455,1.666-2.125,1.973-3.925,2.029-4.469-.623.737-1.96,2.32-1.994,2.359" fill="#000" stroke-width="0"/>
        <path d="M28.507,14.868c-.691,1.474-2.017,4.306-2.03,4.333v1.514c.354-.421,1.701-2.027,1.701-2.028.557-.699.723-2.393.329-3.819" fill="#000" stroke-width="0"/>
        <path d="M16.232,21.417c-.034-.039-1.37-1.622-1.993-2.359.055.543.362,2.345,2.028,4.469-.02-.112-.035-.26-.035-.455" fill="#000" stroke-width="0"/>
        <path d="M14.202,14.865c-.395,1.426-.228,3.12.328,3.817.001,0,1.348,1.608,1.703,2.029v-1.513c-.014-.028-1.34-2.859-2.031-4.333" fill="#000" stroke-width="0"/>
        <path d="M15.206,31.715c-.055.27-.146.502-.271.694-.125.192-.277.352-.456.479-.178.127-.383.221-.613.28s-.478.089-.745.089c-.318,0-.591-.036-.819-.107-.228-.072-.416-.167-.563-.286-.147-.119-.254-.257-.321-.414-.068-.157-.101-.321-.101-.491,0-.044.006-.1.018-.17.012-.069.022-.127.03-.176l.566-2.711h1.311l-.483,2.324c-.008.032-.016.068-.024.11s-.015.082-.021.12c-.006.037-.011.074-.015.107-.004.034-.006.058-.006.075,0,.032.001.079.003.143.001.063.017.126.044.187.028.062.077.115.147.161.069.045.169.069.301.069.134,0,.248-.028.339-.084s.167-.129.229-.221c.062-.091.11-.194.147-.307.036-.114.065-.229.089-.348l.488-2.336h1.311" fill="#000" stroke-width="0"/>
        <path d="M18.346,30.188c.005-.087-.007-.159-.035-.214s-.066-.101-.114-.137c-.047-.036-.104-.061-.169-.075-.066-.014-.137-.02-.212-.02-.055,0-.113.005-.172.014-.06.01-.115.028-.164.054-.05.026-.091.061-.122.105-.032.044-.048.101-.048.173,0,.08.036.143.107.191.072.047.16.087.265.119s.219.06.343.086c.123.025.236.056.339.092.369.131.626.296.771.494.145.199.217.425.217.679,0,.258-.057.482-.17.67-.113.189-.261.345-.443.468-.183.123-.389.215-.617.277s-.458.092-.688.092c-.247,0-.481-.029-.703-.086-.222-.058-.418-.148-.587-.272-.169-.123-.3-.282-.393-.476-.093-.194-.134-.427-.123-.697h1.269c0,.115.012.21.039.286.025.075.067.141.122.197.055.048.123.077.202.089.08.012.173.018.28.018.064,0,.129-.008.197-.023.067-.016.129-.041.184-.075s.101-.077.137-.128c.036-.052.054-.113.054-.185,0-.075-.026-.138-.077-.187-.052-.05-.123-.093-.214-.128-.092-.036-.2-.071-.325-.107-.125-.036-.261-.078-.408-.125-.131-.044-.257-.096-.378-.155s-.23-.134-.325-.224c-.095-.089-.172-.196-.229-.321-.058-.125-.086-.277-.086-.456,0-.238.053-.446.158-.623.105-.176.243-.322.414-.438.171-.115.362-.2.575-.256.212-.055.426-.083.64-.083.226,0,.443.023.65.068.206.046.389.123.548.232.159.11.283.252.372.429.089.177.132.396.128.659" fill="#000" stroke-width="0"/>
        <path d="M21.622,28.903h1.287l.661,4.254h-1.287l-.072-.608h-1.388l-.328.608h-1.334l2.461-4.254ZM21.301,31.637h.816l-.143-1.276h-.012l-.661,1.276Z" fill="#000" stroke-width="0"/>
        <polyline points="25.084 29.993 23.904 29.993 24.13 28.903 27.8 28.903 27.573 29.993 26.394 29.993 25.739 33.156 24.428 33.156" fill="#000" stroke-width="0"/>
        <polyline points="28.283 28.903 31.565 28.903 31.339 29.993 29.367 29.993 29.254 30.522 30.928 30.522 30.719 31.535 29.045 31.535 28.706 33.156 27.395 33.156" fill="#000" stroke-width="0"/>
        <polyline points="32.019 28.941 31.906 28.941 31.842 29.24 31.797 29.24 31.861 28.941 31.748 28.941 31.756 28.903 32.028 28.903" fill="#000" stroke-width="0"/>
        <polyline points="32.065 28.903 32.127 28.903 32.172 29.191 32.172 29.191 32.339 28.903 32.402 28.903 32.331 29.24 32.288 29.24 32.357 28.944 32.356 28.944 32.184 29.24 32.141 29.24 32.096 28.944 32.096 28.944 32.037 29.24 31.994 29.24" fill="#000" stroke-width="0"/>
      </g>
      <g>
        <path d="M9.134,36.017c0-.15-.042-.264-.124-.342-.083-.078-.202-.117-.358-.117-.128,0-.239.029-.334.087-.095.058-.174.134-.237.228s-.11.2-.142.318-.048.237-.048.357c0,.2.051.357.153.47.102.114.247.171.434.171.096,0,.177-.018.243-.055s.12-.082.163-.135c.043-.053.076-.107.099-.163s.039-.102.049-.138h.375c-.03.136-.075.254-.135.354s-.131.183-.214.249-.175.115-.276.147c-.101.032-.206.048-.316.048-.154,0-.29-.024-.407-.072s-.217-.114-.297-.198c-.08-.084-.141-.183-.183-.297-.042-.114-.063-.237-.063-.369,0-.224.033-.418.1-.583s.155-.301.264-.407c.109-.107.232-.186.368-.238.137-.052.275-.078.415-.078.126,0,.242.017.348.051s.196.083.271.147.132.144.172.24.058.205.054.327h-.374v-.002Z" fill="#000" stroke-width="0"/>
        <path d="M10.003,35.305h1.558l-.066.324h-1.19l-.117.56h1.103l-.063.306h-1.105l-.129.626h1.199l-.066.324h-1.568l.444-2.14Z" fill="#000" stroke-width="0"/>
        <path d="M11.798,35.305h.926c.046,0,.107.004.183.012.076.008.15.03.223.066.073.036.136.09.189.163.053.073.079.174.079.304,0,.17-.043.302-.129.397-.086.095-.205.156-.357.184v.006c.09.034.15.084.181.151s.046.145.046.235c0,.074-.006.148-.018.222s-.017.148-.015.222c0,.03.003.06.008.09s.015.059.031.087h-.393c-.01-.028-.016-.055-.02-.081-.003-.026-.004-.054-.004-.084,0-.08.006-.158.018-.235s.018-.154.018-.232c0-.062-.011-.11-.035-.144-.023-.034-.054-.059-.091-.073-.038-.015-.081-.024-.129-.027-.048-.003-.097-.004-.147-.004h-.445l-.183.881h-.38l.444-2.14ZM11.977,36.278h.548c.162,0,.285-.033.37-.1.085-.067.127-.163.127-.289,0-.058-.011-.105-.031-.142-.021-.037-.049-.065-.085-.086-.036-.02-.077-.033-.123-.04-.046-.007-.094-.01-.144-.01h-.524l-.138.667Z" fill="#000" stroke-width="0"/>
        <path d="M13.604,35.305h1.762l-.069.323h-.68l-.378,1.816h-.375l.378-1.816h-.704l.066-.323Z" fill="#000" stroke-width="0"/>
        <path d="M15.525,35.305h.375l-.446,2.139h-.375l.446-2.139Z" fill="#000" stroke-width="0"/>
        <path d="M16.274,35.305h1.459l-.066.324h-1.088l-.117.56h.944l-.066.306h-.941l-.198.95h-.375l.448-2.14Z" fill="#000" stroke-width="0"/>
        <path d="M17.998,35.305h.375l-.446,2.139h-.375l.446-2.139Z" fill="#000" stroke-width="0"/>
        <path d="M18.803,35.305h1.558l-.066.324h-1.19l-.117.56h1.103l-.063.306h-1.106l-.129.626h1.199l-.066.324h-1.567l.444-2.14Z" fill="#000" stroke-width="0"/>
        <path d="M20.604,35.305h.785c.276,0,.484.074.626.223s.213.373.213.673c0,.064-.007.135-.021.214-.014.079-.035.159-.063.24s-.063.159-.105.234-.092.14-.15.196c-.064.062-.126.115-.186.16-.06.045-.127.082-.201.112s-.158.052-.253.066c-.095.014-.209.021-.343.021h-.752l.45-2.139ZM20.595,37.139h.468c.108,0,.202-.018.283-.055.081-.037.15-.084.208-.141s.106-.121.145-.193.07-.142.093-.211.039-.134.048-.195.013-.109.013-.145c0-.188-.041-.333-.123-.434-.082-.102-.198-.153-.348-.153h-.467l-.32,1.527Z" fill="#000" stroke-width="0"/>
        <path d="M24.74,36.017c0-.15-.042-.264-.124-.342-.083-.078-.202-.117-.358-.117-.128,0-.239.029-.334.087-.095.058-.174.134-.237.228s-.11.2-.142.318-.048.237-.048.357c0,.2.051.357.153.47.102.114.247.171.434.171.096,0,.177-.018.243-.055s.12-.082.163-.135c.043-.053.076-.107.099-.163s.039-.102.049-.138h.375c-.03.136-.075.254-.135.354s-.131.183-.214.249-.175.115-.276.147c-.101.032-.206.048-.316.048-.154,0-.29-.024-.407-.072-.118-.048-.217-.114-.297-.198-.08-.084-.141-.183-.183-.297-.042-.114-.063-.237-.063-.369,0-.224.033-.418.1-.583s.155-.301.264-.407c.109-.107.232-.186.368-.238.137-.052.275-.078.415-.078.126,0,.242.017.348.051.106.034.196.083.271.147s.132.144.172.24.058.205.054.327h-.374v-.002Z" fill="#000" stroke-width="0"/>
        <path d="M25.26,36.559c0-.224.033-.418.1-.583s.155-.301.264-.407c.109-.107.232-.186.368-.238.137-.052.275-.078.415-.078s.268.023.383.069c.116.046.214.11.295.193s.144.181.189.295.067.24.067.378c0,.226-.032.421-.096.584-.064.164-.149.299-.255.406-.106.107-.227.186-.363.238-.136.052-.276.078-.42.078-.154,0-.29-.024-.407-.072-.118-.048-.217-.114-.297-.198-.08-.084-.141-.183-.183-.297-.039-.113-.06-.236-.06-.368ZM25.634,36.548c0,.2.051.357.153.47.102.114.247.171.434.171.124,0,.232-.029.325-.087.093-.058.171-.134.234-.228s.11-.2.141-.318.047-.237.047-.356c0-.2-.048-.357-.145-.47-.097-.114-.239-.171-.427-.171-.128,0-.239.029-.334.087-.095.058-.174.134-.237.228s-.11.2-.142.318c-.032.118-.049.237-.049.356Z" fill="#000" stroke-width="0"/>
        <path d="M27.798,35.305h.375l-.276,1.31c-.006.028-.011.056-.015.085s-.007.058-.009.088c-.002.072.009.132.031.181.023.049.055.088.098.118.042.03.091.052.147.064.056.013.117.02.183.02.072,0,.138-.008.199-.024.061-.016.116-.044.165-.085.049-.041.092-.097.13-.168s.069-.161.093-.271l.282-1.318h.375l-.282,1.342c-.018.088-.044.182-.078.282-.034.1-.087.192-.16.276s-.17.153-.292.208-.28.082-.473.082c-.106,0-.207-.014-.303-.04-.096-.027-.18-.067-.252-.122-.072-.054-.129-.122-.172-.205-.043-.083-.064-.18-.064-.292,0-.05.004-.098.011-.145s.015-.094.025-.142l.262-1.244Z" fill="#000" stroke-width="0"/>
        <path d="M29.99,35.305h.926c.046,0,.107.004.183.012s.15.03.223.066c.073.036.136.09.189.163.053.073.079.174.079.304,0,.17-.043.302-.129.397s-.205.156-.357.184v.006c.09.034.15.084.181.151s.046.145.046.235c0,.074-.006.148-.018.222s-.017.148-.015.222c0,.03.003.06.008.09s.015.059.031.087h-.393c-.01-.028-.016-.055-.02-.081s-.004-.054-.004-.084c0-.08.006-.158.018-.235s.018-.154.018-.232c0-.062-.011-.11-.035-.144-.023-.034-.054-.059-.091-.073-.038-.015-.081-.024-.129-.027-.048-.003-.097-.004-.147-.004h-.446l-.183.881h-.38l.445-2.14ZM30.17,36.278h.548c.162,0,.285-.033.37-.1.085-.067.127-.163.127-.289,0-.058-.011-.105-.031-.142-.021-.037-.049-.065-.085-.086-.036-.02-.077-.033-.123-.04s-.094-.01-.144-.01h-.524l-.138.667Z" fill="#000" stroke-width="0"/>
        <path d="M31.962,36.736c-.008.166.033.283.123.351.09.068.213.102.368.102.05,0,.103-.006.16-.018s.108-.031.154-.058c.046-.027.084-.062.115-.105.031-.043.047-.096.047-.16,0-.06-.014-.11-.043-.15s-.067-.073-.114-.1c-.047-.027-.101-.05-.163-.069s-.126-.037-.192-.055c-.048-.012-.105-.028-.171-.049s-.13-.052-.192-.093-.114-.094-.157-.16c-.043-.066-.064-.15-.064-.252,0-.096.018-.185.054-.267.036-.082.088-.152.156-.211s.151-.105.25-.138.211-.049.337-.049c.112,0,.217.012.315.036s.183.063.255.117.128.124.168.211c.04.087.058.193.054.319h-.36c-.002-.134-.039-.23-.111-.289-.072-.059-.181-.088-.327-.088-.026,0-.062.003-.108.009s-.092.02-.138.042c-.046.022-.086.054-.12.094-.034.041-.051.097-.051.169,0,.052.012.095.036.129s.057.063.097.087c.041.024.088.044.142.06.054.016.111.031.171.045.076.02.152.042.229.066.077.024.147.057.21.1s.114.099.153.169.058.161.058.273c0,.084-.016.167-.048.249s-.083.156-.154.222-.163.119-.276.16c-.113.041-.25.062-.412.062-.126,0-.24-.014-.342-.043s-.188-.074-.259-.135c-.071-.061-.125-.139-.162-.235s-.054-.211-.049-.345h.361v-.003Z" fill="#000" stroke-width="0"/>
        <path d="M33.94,35.305h1.558l-.066.324h-1.19l-.117.56h1.103l-.063.306h-1.106l-.129.626h1.199l-.066.324h-1.567l.444-2.14Z" fill="#000" stroke-width="0"/>
      </g>
    </g>
  </g>
</svg>