<?xml version="1.0" encoding="UTF-8"?><svg id="Layer_1" xmlns="http://www.w3.org/2000/svg" xmlns:xlink="http://www.w3.org/1999/xlink" viewBox="0 0 359.194 439.964"><defs><style>.cls-1{clip-path:url(#clippath);}.cls-2,.cls-3{fill:none;}.cls-2,.cls-4,.cls-5{stroke-width:0px;}.cls-3{stroke:#fff;stroke-miterlimit:10;stroke-width:24.613px;}.cls-4{fill-rule:evenodd;}.cls-4,.cls-5{fill:#fff;}</style><symbol id="LightRailKnockout" viewBox="0 0 72 72"><path class="cls-4" d="M0,36C0,16.114,16.12,0,36.002,0s35.998,16.114,35.998,36-16.115,36-35.998,36S0,55.876,0,36ZM47.193,57.216h-4.858l4.289,6.45h4.856l-4.287-6.45ZM24.654,57.216l-4.295,6.45h4.856l4.271-6.45h-4.832ZM50.226,49.586l-1.505,3.01c-.506,1.093-1.813,1.969-3.081,2.281h-19.446c-1.226-.317-2.451-1.216-2.991-2.281l-1.519-3.024c-.672-1.335-1.15-3.644-1.07-5.135l1.652-26.417c.099-1.955,1.85-3.814,4.226-3.814h2.895c-.467-1.166-.98-2.447-1.368-3.42-1.498.156-2.485.292-2.508.296-1.011.142-1.95-.565-2.091-1.579-.141-1.014.565-1.95,1.579-2.091.233-.033,5.775-.798,10.921-.798s10.687.765,10.921.798c1.013.142,1.72,1.078,1.579,2.091-.129.926-.923,1.597-1.833,1.597-.085,0-.172-.006-.258-.018-.023-.003-1.013-.14-2.514-.296-.389.971-.903,2.253-1.371,3.421h3.04c2.272-.014,4.25,1.959,4.25,3.814l1.562,26.464c.095,1.486-.44,3.743-1.07,5.102ZM30.715,10.541c.462,1.155,1.018,2.545,1.468,3.665h7.466l.207-.518c.406-1.014.867-2.166,1.261-3.148-1.624-.125-3.449-.222-5.198-.222s-3.579.097-5.205.223ZM30.226,49.513c1.391-.393,1.264-2.232-.139-2.577-1.199-.295-3.167-.78-4.614-1.136-1.01-.249-1.833.188-1.833,1.228v1.065c0,.818.663,1.482,1.482,1.482h4.651c.158,0,.31-.022.454-.062ZM42.067,49.576h4.651c.818,0,1.482-.663,1.482-1.482v-1.065c0-1.04-.823-1.402-1.833-1.153-1.447.356-3.415.841-4.614,1.136-1.403.346-1.53,2.109-.139,2.502.143.04.295.062.454.062ZM48.319,41.495l-1.279-21.391c-.175-1.325-1.445-1.678-2.547-1.827,0,0-3.351-.527-8.572-.527s-8.572.527-8.572.527c-1.103.148-2.372.501-2.547,1.827l-1.279,21.391c-.076,1.141.858,1.68,1.94,2.073,0,0,5.597,2.059,10.459,2.059s10.459-2.059,10.459-2.059c1.082-.393,2.016-.932,1.94-2.073ZM27.748,20.84l-.026.004-.028.004c-.139.019-.252.038-.343.057l-.147,2.455h17.432l-.147-2.455c-.091-.018-.204-.038-.343-.057l-.028-.004-.028-.004c-.024-.004-2.102-.32-5.464-.445h-5.411c-3.363.125-5.441.441-5.467.445Z"/></symbol><symbol id="RelayKnockout" viewBox="0 0 72 72"><path class="cls-4" d="M36.003,0C16.12,0,0,16.114,0,36s16.12,36,36.003,36,35.997-16.124,35.997-36S55.885,0,36.003,0ZM57.59,18.834c2.198-.192,4.136,1.434,4.329,3.632.192,2.198-1.434,4.136-3.632,4.329s-4.136-1.434-4.329-3.632,1.434-4.136,3.632-4.329ZM36.355,28.101c.246-.676.984-.984,1.66-.738.676.246.984.984.738,1.66l-1.104,3.012c-.615-.615-1.414-1.045-2.397-1.045l1.104-2.889ZM29.103,18.634c2.207,0,3.996,1.789,3.996,3.996s-1.789,3.996-3.996,3.996-3.996-1.789-3.996-3.996,1.789-3.996,3.996-3.996ZM11.399,52.259c-.431.676-1.168,1.045-1.906,1.045-.431,0-.861-.123-1.229-.369-1.045-.676-1.353-2.09-.676-3.135l6.824-10.634c.369.799,1.045,1.414,1.844,1.844l1.783.861-6.639,10.389ZM34.587,39.498c-.185.492-.676.799-1.168.799-.123,0-.307,0-.43-.061-.676-.246-.984-.983-.738-1.66l.603-1.255h2.705l-.971,2.177ZM35.435,36.031h-4.856c-.553,0-1.106-.246-1.475-.676l-2.397-2.951-3.32,4.979,4.426,2.09c.615.246,1.045.799,1.229,1.475.184.676,0,1.352-.369,1.906l-5.164,7.069c-.43.615-1.168.922-1.844.922-.492,0-.922-.123-1.353-.43-.983-.738-1.229-2.151-.492-3.135l3.381-4.795-6.332-3.012c-.554-.246-.984-.738-1.168-1.352-.185-.615-.123-1.229.184-1.783l4.119-7.377-2.828.246-2.766,3.196c-.676.738-1.844.861-2.644.184-.738-.676-.861-1.844-.185-2.643l3.258-3.811c.307-.43.799-.615,1.291-.676l4.733-.369c1.168-.123,2.336.184,3.258.799l3.565,2.336c.43.246.799.553,1.106.922l2.582,3.135h3.934c1.045,0,2.029.799,2.029,1.844s-.86,1.906-1.906,1.906ZM47.607,48.14c-.184.43-.492.861-.922,1.106l-5.471,3.627c-.369.246-.861.369-1.291.369-.738,0-1.476-.369-1.967-1.045-.676-1.045-.43-2.52.676-3.258l4.856-3.196,1.844-4.856c.123.184.307.369.553.553l3.32,2.582-1.599,4.119ZM64.465,35.047l-4.303,1.783c-.246.062-.492.123-.738.123-.676,0-1.291-.369-1.66-.922l-1.636-2.52-3.051,5.532,3.565,2.766c.431.369.799.861.861,1.475l1.106,7.438c.185,1.229-.676,2.459-1.967,2.643h-.369c-1.168,0-2.151-.861-2.336-2.029l-.984-6.516-6.024-4.733c-.86-.676-1.106-1.783-.737-2.766l3.012-7.425-2.274.369-2.302,3.656c-.553.922-1.507,1.131-2.43.578-.922-.553-1.15-1.512-.596-2.434l2.521-4.057c.307-.43.799-.799,1.352-.861l4.529-.952c1.045-.184,2.213,0,3.197.553l3.32,1.721c.799.43,1.414,1.045,1.906,1.783l1.721,2.766,2.766-1.168c1.045-.43,1.985.027,2.367.902s.198,1.734-.816,2.294Z"/></symbol><clipPath id="clippath"><rect class="cls-2" x="239.312" y="315.995" width="119.882" height="92.241"/></clipPath></defs><path class="cls-5" d="M54.842,89.962H7.172V15.503h18.562v58.745h29.108v15.714Z"/><path class="cls-5" d="M77.284,28.054h-16.136v-12.55h16.136v12.55ZM77.284,89.962h-16.136v-55.053h16.136v55.053Z"/><path class="cls-5" d="M123.499,34.909h15.292v53.682c0,14.062-9.106,21.094-27.315,21.094-7.664,0-13.781-1.548-18.351-4.641-4.571-3.095-6.855-7.56-6.855-13.395v-1.688h16.769c0,2.39.721,4.482,2.162,6.275,1.44,1.793,4.061,2.689,7.857,2.689,6.397,0,9.598-2.918,9.598-8.754v-7.488c-1.688,1.126-2.989,1.936-3.902,2.426-.915.493-2.32,1.002-4.219,1.529s-4.008.791-6.328.791c-1.969,0-3.92-.228-5.854-.686-1.935-.456-3.938-1.3-6.011-2.531-2.075-1.229-3.902-2.794-5.484-4.692s-2.884-4.465-3.902-7.699c-1.021-3.233-1.529-6.89-1.529-10.969,0-8.155,2.126-14.676,6.381-19.563,4.253-4.887,9.719-7.33,16.399-7.33,6.046,0,11.144,2.004,15.293,6.012v-5.062ZM122.655,60.748c0-1.616-.053-3.022-.158-4.219-.105-1.194-.369-2.495-.791-3.902-.422-1.405-1.002-2.547-1.74-3.427-.738-.879-1.776-1.617-3.111-2.215-1.337-.597-2.919-.896-4.746-.896-2.18,0-4.008.545-5.484,1.635-1.477,1.091-2.496,2.515-3.059,4.271-.563,1.759-.933,3.253-1.107,4.482-.176,1.231-.264,2.479-.264,3.744,0,4.641.721,8.279,2.162,10.916,1.44,2.637,4.166,3.955,8.174,3.955,2.249,0,4.113-.457,5.59-1.371,1.477-.913,2.513-2.197,3.111-3.85.597-1.651.983-3.128,1.16-4.43.175-1.3.264-2.864.264-4.693Z"/><path class="cls-5" d="M199.147,89.962h-16.136v-29.741c0-1.827-.071-3.339-.211-4.535-.142-1.194-.458-2.531-.949-4.008-.493-1.477-1.337-2.583-2.531-3.321-1.196-.738-2.742-1.107-4.641-1.107-3.234,0-5.502,1.144-6.803,3.427-1.302,2.286-1.951,5.714-1.951,10.283v29.003h-16.241V15.503h16.241v25.312c4.43-4.921,9.667-7.383,15.715-7.383,5.624,0,9.948,1.671,12.972,5.01,3.022,3.34,4.535,7.963,4.535,13.868v37.651Z"/><path class="cls-5" d="M238.896,46.194h-10.758v26.366c0,1.758.352,2.953,1.055,3.586.702.633,1.757.949,3.164.949l5.695-.105v12.55c-2.813.562-6.223.844-10.23.844-4.993,0-8.858-1.107-11.601-3.322s-4.113-6.31-4.113-12.286v-28.687h-8.016v-9.914h8.016v-17.191h16.03v17.297h10.758v9.914Z"/><path class="cls-5" d="M7.066,109.184h35.226c2.6,0,5.025.142,7.276.422,2.25.281,4.746.933,7.488,1.95,2.742,1.021,5.079,2.373,7.014,4.061,1.933,1.688,3.55,4.044,4.852,7.066,1.3,3.024,1.951,6.575,1.951,10.652,0,5.837-1.371,10.301-4.113,13.394-2.742,3.095-6.47,5.484-11.18,7.172l17.191,29.741h-20.461l-14.87-26.577h-11.602v26.577H7.066v-74.458ZM25.733,122.999v20.249h15.398c2.46,0,4.517-.403,6.17-1.212,1.65-.808,2.794-1.862,3.427-3.164.633-1.301,1.055-2.39,1.266-3.27.211-.879.316-1.775.316-2.689,0-6.608-3.691-9.914-11.073-9.914h-15.504Z"/><path class="cls-5" d="M126.958,183.642h-15.925v-4.957c-.142.143-.827.617-2.057,1.424-1.231.81-2.04,1.318-2.426,1.529-.388.211-1.16.633-2.32,1.266s-2.146,1.055-2.953,1.266c-.809.211-1.863.422-3.164.633-1.302.211-2.62.316-3.955.316-5.837,0-10.301-1.688-13.394-5.062-3.095-3.375-4.641-7.276-4.641-11.706,0-3.375,1.071-6.486,3.217-9.334,2.144-2.848,4.938-5.01,8.384-6.486,2.672-1.124,9.914-2.812,21.727-5.062v-3.059c0-4.429-2.075-6.644-6.223-6.644-4.922,0-7.77,2.146-8.543,6.433h-16.241c0-5.694,2.215-9.966,6.645-12.813,4.429-2.848,9.948-4.271,16.558-4.271,2.109,0,4.147.124,6.117.369,1.968.247,4.061.722,6.275,1.424,2.215.703,4.129,1.618,5.748,2.742,1.616,1.125,2.952,2.654,4.007,4.588,1.055,1.935,1.582,4.166,1.582,6.697v32.167c0,4.149.527,6.996,1.582,8.542ZM109.451,157.275l-10.441,3.48c-4.641,1.477-6.961,3.762-6.961,6.855,0,1.266.527,2.515,1.582,3.744,1.055,1.23,2.601,1.846,4.641,1.846,3.164,0,5.817-1.282,7.963-3.85,2.144-2.566,3.217-5.783,3.217-9.65v-2.426Z"/><path class="cls-5" d="M152.67,121.733h-16.136v-12.55h16.136v12.55ZM152.67,183.642h-16.136v-55.053h16.136v55.053Z"/><path class="cls-5" d="M179.922,183.642h-16.136v-74.458h16.136v74.458Z"/><path class="cls-5" d="M7.066,202.863h35.226c2.6,0,5.025.142,7.276.422,2.25.281,4.746.933,7.488,1.95,2.742,1.021,5.079,2.373,7.014,4.061,1.933,1.688,3.55,4.044,4.852,7.066,1.3,3.024,1.951,6.575,1.951,10.652,0,5.837-1.371,10.301-4.113,13.394-2.742,3.095-6.47,5.484-11.18,7.172l17.191,29.741h-20.461l-14.87-26.577h-11.602v26.577H7.066v-74.458ZM25.733,216.679v20.249h15.398c2.46,0,4.517-.403,6.17-1.212,1.65-.808,2.794-1.862,3.427-3.164.633-1.301,1.055-2.39,1.266-3.27.211-.879.316-1.775.316-2.689,0-6.608-3.691-9.914-11.073-9.914h-15.504Z"/><path class="cls-5" d="M131.451,253.17h-39.339v.633c0,3.728,1.16,6.839,3.48,9.334,2.32,2.496,5.343,3.744,9.07,3.744,3.515,0,6.468-.966,8.859-2.9,2.39-1.934,4.076-4.235,5.062-6.908l12.233,6.328c-3.095,5.204-6.997,9.159-11.706,11.864-4.712,2.706-9.95,4.061-15.715,4.061-8.438,0-15.187-2.531-20.249-7.594-5.062-5.062-7.594-12.022-7.594-20.882,0-3.726.491-7.277,1.477-10.652.983-3.375,2.495-6.573,4.535-9.597,2.038-3.022,4.973-5.448,8.806-7.277,3.832-1.827,8.314-2.742,13.447-2.742,4.921,0,9.245.933,12.973,2.795,3.726,1.863,6.607,4.36,8.647,7.488,2.039,3.129,3.55,6.485,4.535,10.071.984,3.586,1.477,7.419,1.477,11.496v.738ZM92.112,243.045h22.57c-.142-3.164-1.196-5.764-3.164-7.804-1.97-2.039-4.571-3.059-7.805-3.059-3.445,0-6.117,1.107-8.016,3.322-1.898,2.214-3.095,4.729-3.586,7.54Z"/><path class="cls-5" d="M154.854,277.321h-16.136v-74.458h16.136v74.458Z"/><path class="cls-5" d="M214.093,277.321h-15.925v-4.957c-.142.143-.827.617-2.057,1.424-1.231.81-2.04,1.318-2.426,1.529-.388.211-1.16.633-2.32,1.266s-2.146,1.055-2.953,1.266c-.809.211-1.863.422-3.164.633-1.302.211-2.62.316-3.955.316-5.837,0-10.301-1.688-13.394-5.062-3.095-3.375-4.641-7.276-4.641-11.706,0-3.375,1.071-6.486,3.217-9.334,2.144-2.848,4.938-5.01,8.384-6.486,2.672-1.124,9.914-2.812,21.727-5.062v-3.059c0-4.429-2.075-6.644-6.223-6.644-4.922,0-7.77,2.146-8.543,6.433h-16.241c0-5.694,2.215-9.966,6.645-12.813,4.429-2.848,9.948-4.271,16.558-4.271,2.109,0,4.147.124,6.117.369,1.968.247,4.061.722,6.275,1.424,2.215.703,4.129,1.618,5.748,2.742,1.616,1.125,2.952,2.654,4.007,4.588,1.055,1.935,1.582,4.166,1.582,6.697v32.167c0,4.149.527,6.996,1.582,8.542ZM196.586,250.955l-10.441,3.48c-4.641,1.477-6.961,3.762-6.961,6.855,0,1.266.527,2.515,1.582,3.744,1.055,1.23,2.601,1.846,4.641,1.846,3.164,0,5.817-1.282,7.963-3.85,2.144-2.566,3.217-5.783,3.217-9.65v-2.426Z"/><path class="cls-5" d="M251.49,222.269h17.296l-19.405,59.482c-1.548,4.641-3.34,8.085-5.379,10.336-1.618,1.688-3.27,2.812-4.957,3.375-1.688.562-3.867.844-6.539.844h-11.706v-12.973h6.961c3.654,0,5.483-1.336,5.483-4.008,0-1.125-.387-2.882-1.159-5.273l-16.031-51.783h17.296l9.07,39.444,9.07-39.444Z"/><use width="72" height="72" transform="translate(122.718 307.335) scale(1.522)" xlink:href="#LightRailKnockout"/><use width="72" height="72" transform="translate(.453 307.335) scale(1.522)" xlink:href="#RelayKnockout"/><g class="cls-1"><line class="cls-3" x1="245.957" y1="362.116" x2="340.522" y2="362.116"/><polyline class="cls-3" points="271.377 292.97 340.522 362.116 271.377 431.262"/></g></svg>