<?xml version="1.0" encoding="utf-8"?>
<!-- Generator: Adobe Illustrator 26.0.2, SVG Export Plug-In . SVG Version: 6.00 Build 0)  -->
<svg version="1.1" id="Layer_1" xmlns="http://www.w3.org/2000/svg" xmlns:xlink="http://www.w3.org/1999/xlink" x="0px" y="0px"
	 viewBox="0 0 1686.7 140.2" style="enable-background:new 0 0 1686.7 140.2;" xml:space="preserve">
<style type="text/css">
	.st0{fill-rule:evenodd;clip-rule:evenodd;fill:#FFFFFF;}
	.st1{fill:#FFFFFF;}
</style>
	<symbol  id="WhiteLogo" viewBox="-843.3 -70.1 1686.7 140.2">
	<path class="st0" d="M528.5,0c0,38.7,31.4,70.1,70.1,70.1S668.7,38.7,668.7,0c0-38.7-31.4-70.1-70.1-70.1S528.5-38.7,528.5,0z
		 M620.4-41.3h-9.5l8.4-12.6h9.5L620.4-41.3z M576.5-41.3l-8.4-12.6h9.5l8.3,12.6H576.5z M626.3-26.5l-2.9-5.9c-1-2.1-3.5-3.8-6-4.4
		h-37.9c-2.4,0.6-4.8,2.4-5.8,4.4l-3,5.9c-1.3,2.6-2.2,7.1-2.1,10l3.2,51.4c0.2,3.8,3.6,7.4,8.2,7.4h5.6c-0.9,2.3-1.9,4.8-2.7,6.7
		c-2.9-0.3-4.8-0.6-4.9-0.6c-2-0.3-3.8,1.1-4.1,3.1c-0.3,2,1.1,3.8,3.1,4.1c0.5,0.1,11.2,1.6,21.3,1.6c10,0,20.8-1.5,21.3-1.6
		c2-0.3,3.3-2.1,3.1-4.1c-0.3-1.8-1.8-3.1-3.6-3.1c-0.2,0-0.3,0-0.5,0c0,0-2,0.3-4.9,0.6c-0.8-1.9-1.8-4.4-2.7-6.7h5.9
		c4.4,0,8.3-3.8,8.3-7.4l3-51.5C628.6-19.4,627.5-23.8,626.3-26.5z M588.3,49.6c0.9-2.2,2-5,2.9-7.1h14.5l0.4,1
		c0.8,2,1.7,4.2,2.5,6.1c-3.2,0.2-6.7,0.4-10.1,0.4C595,50,591.5,49.8,588.3,49.6z M587.4-26.3c2.7,0.8,2.5,4.3-0.3,5
		c-2.3,0.6-6.2,1.5-9,2.2c-2,0.5-3.6-0.4-3.6-2.4v-2.1c0-1.6,1.3-2.9,2.9-2.9h9.1C586.8-26.4,587.1-26.4,587.4-26.3z M610.4-26.4
		h9.1c1.6,0,2.9,1.3,2.9,2.9v2.1c0,2-1.6,2.7-3.6,2.2c-2.8-0.7-6.6-1.6-9-2.2c-2.7-0.7-3-4.1-0.3-4.9
		C609.8-26.4,610.1-26.4,610.4-26.4z M622.6-10.7l-2.5,41.6c-0.3,2.6-2.8,3.3-5,3.6c0,0-6.5,1-16.7,1c-10.2,0-16.7-1-16.7-1
		c-2.1-0.3-4.6-1-5-3.6l-2.5-41.6c-0.1-2.2,1.7-3.3,3.8-4c0,0,10.9-4,20.4-4s20.4,4,20.4,4C620.9-14,622.7-12.9,622.6-10.7z
		 M582.5,29.5L582.5,29.5l-0.1,0c-0.3,0-0.5-0.1-0.7-0.1l-0.3-4.8h33.9l-0.3,4.8c-0.2,0-0.4,0.1-0.7,0.1l-0.1,0l-0.1,0
		c0,0-4.1,0.6-10.6,0.9h-10.5C586.6,30.1,582.6,29.5,582.5,29.5z"/>
		<path class="st0" d="M414.7,70.1c-38.7,0-70.1-31.4-70.1-70.1c0-38.7,31.4-70.1,70.1-70.1c38.7,0,70.1,31.4,70.1,70.1
		C484.8,38.7,453.4,70.1,414.7,70.1z M456.7,33.7c4.4,0.4,8.3-2.9,8.7-7.3s-2.9-8.3-7.3-8.7c-4.4-0.4-8.3,2.9-8.7,7.3
		S452.3,33.3,456.7,33.7z M414.8,13.7c0.5,1.3,1.9,1.9,3.2,1.4s1.9-1.9,1.4-3.2l-1.6-4.2c-1.2,1.2-2.8,2-4.7,2L414.8,13.7z
		 M401.2,33.8c4.3,0,7.8-3.5,7.8-7.8c0-4.3-3.5-7.8-7.8-7.8c-4.3,0-7.8,3.5-7.8,7.8C393.5,30.3,397,33.8,401.2,33.8z M366.8-31.7
		c-0.8-1.3-2.3-2-3.7-2c-0.8,0-1.7,0.2-2.4,0.7c-2,1.3-2.6,4.1-1.3,6.1l13.3,20.7c0.7-1.6,2-2.8,3.6-3.6l3.5-1.7L366.8-31.7z
		 M412.7-5.2c-0.4-1-1.3-1.6-2.3-1.6c-0.2,0-0.6,0-0.8,0.1c-1.3,0.5-1.9,1.9-1.4,3.2l0.4,0.8h4.8c0.1,0,0.4,0,0.5,0L412.7-5.2z
		 M413.6-0.1h-9.5c-1.1,0-2.2,0.5-2.9,1.3L396.6,7l-6.5-9.7l8.6-4.1c1.2-0.5,2-1.6,2.4-2.9c0.4-1.3,0-2.6-0.7-3.7l-10.1-13.8
		c-0.8-1.2-2.3-1.8-3.6-1.8c-1,0-1.8,0.2-2.6,0.8c-1.9,1.4-2.4,4.2-1,6.1l6.6,9.3l-12.3,5.9c-1.1,0.5-1.9,1.4-2.3,2.6
		c-0.4,1.2-0.2,2.4,0.4,3.5l8,14.4l-5.5-0.5L372.6,7c-1.3-1.4-3.6-1.7-5.1-0.4c-1.4,1.3-1.7,3.6-0.4,5.1l6.3,7.4
		c0.6,0.8,1.6,1.2,2.5,1.3l9.2,0.7c2.3,0.2,4.5-0.4,6.3-1.6l6.9-4.5c0.8-0.5,1.6-1.1,2.2-1.8l5-6.1h7.7c2,0,3.9-1.6,3.9-3.6
		C417.3,1.6,415.6-0.1,413.6-0.1z M437.3-23.6c-0.4-0.8-1-1.7-1.8-2.2l-10.7-7.1c-0.7-0.5-1.7-0.7-2.5-0.7c-1.4,0-2.9,0.7-3.8,2
		c-1.3,2-0.8,4.9,1.3,6.3l9.5,6.2l3.6,9.5c0.2-0.4,0.6-0.7,1.1-1.1l6.5-5L437.3-23.6z M470.2,0.5l-8.4-3.5c-0.5-0.1-1-0.2-1.4-0.2
		c-1.3,0-2.5,0.7-3.2,1.8l-3.6,5.6l-5.6-10.2l6.9-5.4c0.8-0.7,1.6-1.7,1.7-2.9l2.2-14.5c0.4-2.4-1.3-4.8-3.8-5.1c-0.2,0-0.5,0-0.7,0
		c-2.3,0-4.2,1.7-4.5,3.9l-1.9,12.7L436-8c-1.7,1.3-2.2,3.5-1.4,5.4l5.5,13.6l-4.4-0.7l-4.1-6.5c-1.1-1.8-3.5-2.3-5.3-1.2
		c-1.8,1.1-2.3,3.5-1.2,5.3l4.9,7.9c0.6,0.8,1.6,1.6,2.6,1.7l9.3,1.6c2,0.4,4.3,0,6.2-1.1l6.5-3.4c1.6-0.8,2.8-2,3.7-3.5l3.4-5.4
		l5.4,2.3c2,0.8,4.2-0.1,5-2C472.8,4.1,472,1.9,470.2,0.5z"/>
		<path class="st1" d="M520.6-18c-1.3,5.8-2.1,11.8-2.1,18c0,6.2,0.7,12.2,2.1,18h-27.9c1.3-5.8,2.1-11.8,2.1-18
		c0-6.2-0.7-12.2-2.1-18H520.6z"/>
		<path class="st1" d="M776.6,66.7h-50.9L774.4,18h-97.8c1.3-5.8,2.1-11.8,2.1-18c0-6.2-0.7-12.2-2.1-18h97.8l-48.8-48.7l50.9,0
		L843.3,0L776.6,66.7z"/>
		<ellipse class="st1" cx="281.1" cy="0" rx="7.2" ry="18"/>
		<g>
		<path class="st1" d="M-548.9-40.5h-54.2v84.7h21.1v-66.8h33.1V-40.5z"/>
			<path class="st1" d="M-523.4,30h-18.4v14.3h18.4V30z M-523.4-40.5h-18.4v62.6h18.4V-40.5z"/>
			<path class="st1" d="M-470.8,22.2h17.4v-61.1c0-16-10.4-24-31.1-24c-8.7,0-15.7,1.8-20.9,5.3c-5.2,3.5-7.8,8.6-7.8,15.2v1.9h19.1
			c0-2.7,0.8-5.1,2.5-7.1c1.6-2,4.6-3.1,8.9-3.1c7.3,0,10.9,3.3,10.9,10v8.5c-1.9-1.3-3.4-2.2-4.4-2.8c-1-0.6-2.6-1.1-4.8-1.7
			c-2.2-0.6-4.6-0.9-7.2-0.9c-2.2,0-4.5,0.3-6.7,0.8c-2.2,0.5-4.5,1.5-6.8,2.9c-2.4,1.4-4.4,3.2-6.2,5.3s-3.3,5.1-4.4,8.8
			c-1.2,3.7-1.7,7.8-1.7,12.5c0,9.3,2.4,16.7,7.3,22.3c4.8,5.6,11.1,8.3,18.7,8.3c6.9,0,12.7-2.3,17.4-6.8V22.2z M-471.7-7.2
			c0,1.8-0.1,3.4-0.2,4.8c-0.1,1.4-0.4,2.8-0.9,4.4c-0.5,1.6-1.1,2.9-2,3.9c-0.8,1-2,1.8-3.5,2.5c-1.5,0.7-3.3,1-5.4,1
			c-2.5,0-4.6-0.6-6.2-1.9c-1.7-1.2-2.8-2.9-3.5-4.9c-0.6-2-1.1-3.7-1.3-5.1c-0.2-1.4-0.3-2.8-0.3-4.3c0-5.3,0.8-9.4,2.5-12.4
			c1.6-3,4.7-4.5,9.3-4.5c2.6,0,4.7,0.5,6.4,1.6c1.7,1,2.9,2.5,3.5,4.4c0.7,1.9,1.1,3.6,1.3,5C-471.8-11.1-471.7-9.3-471.7-7.2z"/>
			<path class="st1" d="M-384.7-40.5h-18.4v33.8c0,2.1-0.1,3.8-0.2,5.2c-0.2,1.4-0.5,2.9-1.1,4.6c-0.6,1.7-1.5,2.9-2.9,3.8
			c-1.4,0.8-3.1,1.3-5.3,1.3c-3.7,0-6.3-1.3-7.7-3.9c-1.5-2.6-2.2-6.5-2.2-11.7v-33H-441v84.7h18.5V15.4c5,5.6,11,8.4,17.9,8.4
			c6.4,0,11.3-1.9,14.8-5.7c3.4-3.8,5.2-9.1,5.2-15.8V-40.5z"/>
			<path class="st1" d="M-339.5,9.3h-12.2v-30c0-2,0.4-3.4,1.2-4.1c0.8-0.7,2-1.1,3.6-1.1l6.5,0.1V-40c-3.2-0.6-7.1-1-11.6-1
			c-5.7,0-10.1,1.3-13.2,3.8c-3.1,2.5-4.7,7.2-4.7,14V9.4h-9.1v11.3h9.1v19.6h18.2V20.6h12.2V9.3z"/>
			<path class="st1" d="M-296,44.2h40.1c3,0,5.7-0.2,8.3-0.5c2.6-0.3,5.4-1.1,8.5-2.2c3.1-1.2,5.8-2.7,8-4.6c2.2-1.9,4-4.6,5.5-8
			c1.5-3.4,2.2-7.5,2.2-12.1c0-6.6-1.6-11.7-4.7-15.2c-3.1-3.5-7.4-6.2-12.7-8.2l19.6-33.8h-23.3l-16.9,30.2h-13.2v-30.2H-296V44.2z
			 M-274.8,28.5v-23h17.5c2.8,0,5.1,0.5,7,1.4c1.9,0.9,3.2,2.1,3.9,3.6c0.7,1.5,1.2,2.7,1.4,3.7c0.2,1,0.4,2,0.4,3.1
			c0,7.5-4.2,11.3-12.6,11.3H-274.8z"/>
			<path class="st1" d="M-159.6-40.5h-18.1v5.6c-0.2-0.2-0.9-0.7-2.3-1.6c-1.4-0.9-2.3-1.5-2.8-1.7c-0.4-0.2-1.3-0.7-2.6-1.4
			c-1.3-0.7-2.4-1.2-3.4-1.4c-0.9-0.2-2.1-0.5-3.6-0.7c-1.5-0.2-3-0.4-4.5-0.4c-6.6,0-11.7,1.9-15.2,5.8c-3.5,3.8-5.3,8.3-5.3,13.3
			c0,3.8,1.2,7.4,3.7,10.6c2.4,3.2,5.6,5.7,9.5,7.4c3,1.3,11.3,3.2,24.7,5.8v3.5c0,5-2.4,7.6-7.1,7.6c-5.6,0-8.8-2.4-9.7-7.3h-18.5
			c0,6.5,2.5,11.3,7.6,14.6s11.3,4.9,18.8,4.9c2.4,0,4.7-0.1,7-0.4c2.2-0.3,4.6-0.8,7.1-1.6c2.5-0.8,4.7-1.8,6.5-3.1
			c1.8-1.3,3.4-3,4.6-5.2c1.2-2.2,1.8-4.7,1.8-7.6v-36.6C-161.4-35.5-160.8-38.7-159.6-40.5z M-179.5-10.5l-11.9-4
			c-5.3-1.7-7.9-4.3-7.9-7.8c0-1.4,0.6-2.9,1.8-4.3c1.2-1.4,3-2.1,5.3-2.1c3.6,0,6.6,1.5,9.1,4.4c2.4,2.9,3.7,6.6,3.7,11V-10.5z"/>
			<path class="st1" d="M-130.4,30h-18.4v14.3h18.4V30z M-130.4-40.5h-18.4v62.6h18.4V-40.5z"/>
			<path class="st1" d="M-99.4-40.5h-18.4v84.7h18.4V-40.5z"/>
			<path class="st1" d="M-53.9,44.2h40.1c3,0,5.7-0.2,8.3-0.5c2.6-0.3,5.4-1.1,8.5-2.2c3.1-1.2,5.8-2.7,8-4.6c2.2-1.9,4-4.6,5.5-8
			c1.5-3.4,2.2-7.5,2.2-12.1c0-6.6-1.6-11.7-4.7-15.2C10.9-2,6.7-4.7,1.3-6.6l19.6-33.8H-2.4l-16.9,30.2h-13.2v-30.2h-21.4V44.2z
			 M-32.6,28.5v-23h17.5c2.8,0,5.1,0.5,7,1.4c1.9,0.9,3.2,2.1,3.9,3.6c0.7,1.5,1.2,2.7,1.4,3.7c0.2,1,0.4,2,0.4,3.1
			c0,7.5-4.2,11.3-12.6,11.3H-32.6z"/>
			<path class="st1" d="M87.6-13H42.9v-0.7c0-4.2,1.3-7.8,4-10.6c2.6-2.8,6.1-4.3,10.3-4.3c4,0,7.4,1.1,10.1,3.3
			c2.7,2.2,4.6,4.8,5.8,7.9l13.9-7.2c-3.5-5.9-8-10.4-13.3-13.5c-5.4-3.1-11.3-4.6-17.9-4.6c-9.6,0-17.3,2.9-23,8.6
			C26.9-28.4,24-20.4,24-10.4c0,4.2,0.6,8.3,1.7,12.1c1.1,3.8,2.8,7.5,5.2,10.9c2.3,3.4,5.7,6.2,10,8.3c4.4,2.1,9.5,3.1,15.3,3.1
			c5.6,0,10.5-1.1,14.8-3.2c4.2-2.1,7.5-5,9.8-8.5c2.3-3.6,4-7.4,5.2-11.5c1.1-4.1,1.7-8.4,1.7-13.1V-13z M42.9-1.5h25.7
			c-0.2,3.6-1.4,6.6-3.6,8.9c-2.2,2.3-5.2,3.5-8.9,3.5c-3.9,0-7-1.3-9.1-3.8C44.8,4.6,43.4,1.7,42.9-1.5z"/>
			<path class="st1" d="M114.3-40.5H95.9v84.7h18.4V-40.5z"/>
			<path class="st1" d="M181.7-40.5h-18.1v5.6c-0.2-0.2-0.9-0.7-2.3-1.6c-1.4-0.9-2.3-1.5-2.8-1.7c-0.4-0.2-1.3-0.7-2.6-1.4
			s-2.4-1.2-3.4-1.4c-0.9-0.2-2.1-0.5-3.6-0.7c-1.5-0.2-3-0.4-4.5-0.4c-6.6,0-11.7,1.9-15.2,5.8c-3.5,3.8-5.3,8.3-5.3,13.3
			c0,3.8,1.2,7.4,3.7,10.6c2.4,3.2,5.6,5.7,9.5,7.4c3,1.3,11.3,3.2,24.7,5.8v3.5c0,5-2.4,7.6-7.1,7.6c-5.6,0-8.8-2.4-9.7-7.3h-18.5
			c0,6.5,2.5,11.3,7.6,14.6s11.3,4.9,18.8,4.9c2.4,0,4.7-0.1,7-0.4c2.2-0.3,4.6-0.8,7.1-1.6c2.5-0.8,4.7-1.8,6.5-3.1
			c1.8-1.3,3.4-3,4.6-5.2c1.2-2.2,1.8-4.7,1.8-7.6v-36.6C179.9-35.5,180.5-38.7,181.7-40.5z M161.8-10.5l-11.9-4
			c-5.3-1.7-7.9-4.3-7.9-7.8c0-1.4,0.6-2.9,1.8-4.3c1.2-1.4,3-2.1,5.3-2.1c3.6,0,6.6,1.5,9.1,4.4c2.4,2.9,3.7,6.6,3.7,11V-10.5z"/>
			<path class="st1" d="M224.2,22.2h19.7l-22.1-67.7c-1.8-5.3-3.8-9.2-6.1-11.8c-1.8-1.9-3.7-3.2-5.6-3.8c-1.9-0.6-4.4-1-7.4-1h-13.3
			v14.8h7.9c4.2,0,6.2,1.5,6.2,4.6c0,1.3-0.4,3.3-1.3,6l-18.2,58.9h19.7l10.3-44.9L224.2,22.2z"/>
	</g>
		<path class="st0" d="M-798.5,28.9V16.3c0,0,6.1-0.4,10,0.2c3.6,0.6,7.4,2.5,7.4,2.5v-59.8h18.7v81.7H-777c0,0-2.5-6.5-7.5-9.1
		S-798.5,28.9-798.5,28.9z"/>
		<path class="st1" d="M-773.2,62.1c34.2,0,62.1-27.9,62.1-62.1s-27.9-62.1-62.1-62.1c-34.2,0-62.1,27.9-62.1,62.1
		S-807.5,62.1-773.2,62.1 M-773.2,70.1c-38.7,0-70.1-31.4-70.1-70.1c0-38.7,31.4-70.1,70.1-70.1s70.1,31.4,70.1,70.1
		C-703.2,38.7-734.5,70.1-773.2,70.1L-773.2,70.1z"/>
		<path class="st1" d="M-636.2,0c0,9.9-3.2,18-7.2,18c0,0-0.1,0-0.1,0h-51.7c1.3-5.8,2.1-11.8,2.1-18c0-6.2-0.7-12.2-2.1-18h51.8v0
		C-639.5-18-636.2-10-636.2,0z"/>
		<path class="st1" d="M334.6,0c0,6.2,0.7,12.2,2.1,18h-0.1h-13.1h-34.4c2.9-4.5,4.2-11.4,4.2-18c0-6.6-1.4-13.5-4.2-18h34.4h13.1
		h0.1C335.3-12.2,334.6-6.2,334.6,0z"/>
		<path class="st1" d="M288.3,0c0,9.8-3.2,17.8-7.1,18h-0.1v-36C285.1-18,288.3-10,288.3,0z"/>
</symbol>
	<g id="White_finalized">
	<g>
		<defs>
			<rect id="SVGID_1_" y="0" width="1686.7" height="140.2"/>
		</defs>
		<clipPath id="SVGID_00000091709856495636988500000000095524505838406026_">
			<use xlink:href="#SVGID_1_"  style="overflow:visible;"/>
		</clipPath>
		<g style="clip-path:url(#SVGID_00000091709856495636988500000000095524505838406026_);">

				<use xlink:href="#WhiteLogo"  width="1686.7" height="140.2" id="XMLID_00000077283730358255506910000008604214656134741667_" x="-843.3" y="-70.1" transform="matrix(1 0 0 -1 843.3344 70.0921)" style="overflow:visible;"/>
		</g>
	</g>
</g>
</svg>
