<?xml version="1.0" encoding="utf-8"?>
<!-- Generator: Adobe Illustrator 26.0.2, SVG Export Plug-In . SVG Version: 6.00 Build 0)  -->
<svg version="1.1" xmlns="http://www.w3.org/2000/svg" xmlns:xlink="http://www.w3.org/1999/xlink" x="0px" y="0px"
	 viewBox="0 0 1768.66565 232.2072" style="enable-background:new 0 0 1768.66565 232.2072;" xml:space="preserve">
<style type="text/css">
	.st0{fill-rule:evenodd;clip-rule:evenodd;fill:#FFFFFF;}
	.st1{fill:#FFFFFF;}
	.st2{fill:url(#);stroke:#2D292A;stroke-width:5;stroke-miterlimit:10;}
	.st3{fill:none;stroke:#FFFFFF;stroke-width:2;stroke-miterlimit:10;}
	.st4{display:none;}
	.st5{display:inline;fill:none;stroke:#000000;stroke-width:6;stroke-miterlimit:10;}
	.st6{display:inline;}
	.st7{opacity:0;}
	.st8{fill-rule:evenodd;clip-rule:evenodd;fill:#7CC25D;}
	.st9{fill:none;stroke:#FFFFFF;stroke-width:20;stroke-miterlimit:10;}
	.st10{fill:none;stroke:#000000;stroke-width:18;stroke-miterlimit:10;}
	.st11{fill-rule:evenodd;clip-rule:evenodd;fill:#5FAC56;}
	.st12{fill:none;}
	.st13{fill-rule:evenodd;clip-rule:evenodd;}
	.st14{fill-rule:evenodd;clip-rule:evenodd;fill:#00CC47;}
	.st15{fill:#7CC25D;}
	.st16{fill:#00CC47;}
	.st17{display:inline;fill:none;stroke:#000000;stroke-miterlimit:10;}
	.st18{fill:url(#);stroke:#2D292A;stroke-width:8.72109;stroke-miterlimit:10;}
	.st19{fill:none;stroke:#000000;stroke-width:3.48844;stroke-miterlimit:10;}
	.st20{display:inline;fill:none;stroke:#000000;stroke-width:10.46531;stroke-miterlimit:10;}
	.st21{fill:none;stroke:#000000;stroke-width:34.88436;stroke-miterlimit:10;}
	.st22{fill:url(#SVGID_1_);}
	.st23{fill:none;stroke:#000000;stroke-width:1.74422;stroke-miterlimit:10;}
	.st24{fill:#416B28;}
	.st25{fill:none;stroke:#000000;stroke-width:36;stroke-miterlimit:10;}
	.st26{opacity:0;fill-rule:evenodd;clip-rule:evenodd;fill:#FFFFFF;}
	.st27{display:inline;fill-rule:evenodd;clip-rule:evenodd;fill:#00CC47;}
	.st28{fill:#FFFFFF;fill-opacity:0;}
	.st29{fill:none;stroke:#FFFFFF;stroke-width:36;stroke-miterlimit:10;}
	.st30{display:inline;fill:#FFFFFF;fill-opacity:0;}
	.st31{opacity:0;fill:#FFFFFF;}
	.st32{display:inline;fill:none;stroke:#FFFFFF;stroke-width:36;stroke-miterlimit:10;}
	.st33{fill:none;stroke:#FFFFFF;stroke-width:13.96883;stroke-miterlimit:10;}
	.st34{fill:none;stroke:#FFFFFF;stroke-width:14.08847;stroke-miterlimit:10;}
	.st35{display:inline;fill:#416B28;}
	.st36{fill:none;stroke:#FFFFFF;stroke-width:14.92435;stroke-miterlimit:10;}
	.st37{display:inline;fill:none;stroke:#FFFFFF;stroke-width:1.41421;stroke-miterlimit:10;}
	.st38{fill:url(#);}
	.st39{fill:none;stroke:#000000;stroke-width:0.75;stroke-miterlimit:10;}
	.st40{display:inline;fill:none;stroke:#000000;stroke-width:48;stroke-miterlimit:10;}
	.st41{display:none;fill:none;stroke:#000000;stroke-width:36;stroke-miterlimit:10;}
	.st42{fill:#FFFFFF;stroke:#FFFFFF;stroke-width:5.04;stroke-miterlimit:10;}
	.st43{fill:none;stroke:#FFFFFF;stroke-width:7.2;stroke-linecap:round;stroke-miterlimit:10;}
	.st44{fill:none;stroke:#FFFFFF;stroke-width:5.76;stroke-linecap:round;stroke-miterlimit:10;}
	.st45{fill:none;stroke:#000000;stroke-width:48;stroke-miterlimit:10;}
	.st46{display:none;fill:none;stroke:#000000;stroke-width:48;stroke-miterlimit:10;}
	.st47{display:inline;fill:none;stroke:#000000;stroke-width:36;stroke-miterlimit:10;}
	.st48{display:none;fill:#95A3C1;}
	.st49{fill:#E063A4;}
	.st50{fill:#00B8F4;}
	.st51{fill:#FF00B4;}
	.st52{fill:#FF8B00;}
	.st53{fill:#9BB3CC;}
	.st54{display:none;fill:#889BBE;}
	.st55{fill:#D441CF;}
	.st56{fill:none;stroke:#000000;stroke-width:29.32436;stroke-miterlimit:10;}
	.st57{display:inline;fill-rule:evenodd;clip-rule:evenodd;}
	.st58{fill:none;stroke:#FFFFFF;stroke-width:30.20363;stroke-miterlimit:10;}
	.st59{display:inline;fill:#00B8F4;}
	.st60{display:inline;fill:#FFFFFF;}
	.st61{display:inline;fill:#FF00B4;}
	.st62{display:inline;fill:#D441CF;}
	.st63{display:inline;fill:#FF8B00;}
	.st64{fill:#5FAC56;}
	.st65{fill:none;stroke:#FFFFFF;stroke-width:6;stroke-miterlimit:10;}
	.st66{display:none;fill:#5FAC56;}
	.st67{display:inline;fill-rule:evenodd;clip-rule:evenodd;fill:#FFFFFF;}
</style>
<symbol  id="WhiteLogo" viewBox="-838.33435 -70.06598 1686.6687 140.1842">
	<path class="st0" d="M533.51672,0.02609c0,38.71794,31.38342,70.09214,70.0921,70.09214s70.08289-31.3742,70.08289-70.09214
		c0-38.69944-31.37421-70.09206-70.08289-70.09206S533.51672-38.67336,533.51672,0.02609z M625.39722-41.28072h-9.45886
		l8.35162-12.55733h9.45374L625.39722-41.28072z M581.51434-41.28072l-8.36298-12.55733h9.45374l8.31641,12.55733H581.51434z
		 M631.30194-26.42587l-2.93011-5.86025c-0.98584-2.12847-3.52899-3.83307-5.99841-4.44122h-37.8609
		c-2.38654,0.61738-4.77301,2.36804-5.82336,4.44122l-2.95782,5.8879c-1.30835,2.59832-2.23901,7.09482-2.0824,9.9973
		l3.21576,51.4335c0.19354,3.80543,3.60272,7.42657,8.22827,7.42657h5.63696c-0.91016,2.26945-1.90759,4.76415-2.664,6.65947
		c-2.91614-0.30441-4.8385-0.56942-4.88348-0.5756c-1.96747-0.27694-3.79602,1.10093-4.07147,3.0738
		c-0.27496,1.97385,1.10095,3.79601,3.07379,4.07197c0.45459,0.06361,11.24469,1.55402,21.26263,1.55402
		c10.01849,0,20.80804-1.49041,21.26263-1.55402c1.97284-0.27597,3.34882-2.09813,3.07379-4.07197
		c-0.25195-1.80357-1.79767-3.10903-3.56848-3.10903c-0.16638,0-0.33417,0.01174-0.50299,0.03523
		c-0.04504,0.00618-1.97192,0.27187-4.89398,0.57671c-0.75787-1.88987-1.758-4.38641-2.66864-6.66057h5.91968
		c4.42279,0.02765,8.27429-3.81466,8.27429-7.42657l3.04071-51.52561C633.56866-19.38627,632.5274-23.78143,631.30194-26.42587z
		 M593.31384,49.59526c0.89874-2.24957,1.98151-4.95541,2.85828-7.13611h14.53705l0.40363,1.00784
		c0.79077,1.97489,1.68866,4.21669,2.45526,6.12931c-3.16284,0.24306-6.71423,0.43224-10.12067,0.43224
		C600.03644,50.02854,596.47998,49.83881,593.31384,49.59526z M592.36218-26.28431c2.70837,0.76432,2.46179,4.34494-0.27081,5.01779
		c-2.33484,0.57492-6.16687,1.51848-8.98383,2.2121c-1.96606,0.48411-3.56903-0.36694-3.56903-2.39175v-2.07437
		c0-1.59331,1.29163-2.88495,2.88495-2.88495h9.05524C591.78699-26.4055,592.08301-26.36308,592.36218-26.28431z M615.41644-26.4055
		h9.0553c1.59326,0,2.88495,1.29164,2.88495,2.88495v2.07437c0,2.02482-1.60303,2.72905-3.56909,2.24494
		c-2.81696-0.69362-6.64893-1.63718-8.98383-2.2121c-2.7326-0.67285-2.97919-4.10665-0.27081-4.87097
		C614.81213-26.36308,615.10815-26.4055,615.41644-26.4055z M627.58862-10.67192l-2.49084,41.64758
		c-0.34161,2.58052-2.81293,3.26744-4.95984,3.55637c0,0-6.5235,1.02521-16.69037,1.02521
		c-10.16693,0-16.69037-1.02521-16.69037-1.02521c-2.14697-0.28894-4.61823-0.97585-4.9599-3.55637l-2.49084-41.64758
		c-0.14746-2.2207,1.67017-3.27031,3.77777-4.03583c0,0,10.89655-4.00837,20.36334-4.00837s20.36328,4.00837,20.36328,4.00837
		C625.91846-13.94223,627.73615-12.89262,627.58862-10.67192z M587.53662,29.542l-0.05042-0.00758l-0.05505-0.00758
		c-0.27057-0.03645-0.49048-0.07438-0.66736-0.11034l-0.28595-4.77981h33.93951l-0.28589,4.77981
		c-0.17712,0.03596-0.39703,0.07388-0.6676,0.11034l-0.05505,0.00734l-0.05505,0.00856
		c-0.04614,0.00728-4.09235,0.62245-10.63904,0.86576h-10.53448C591.63342,30.16513,587.58649,29.54983,587.53662,29.542z"/>
	<path class="st0" d="M419.67905,70.11548c-38.7085,0-70.09204-31.37305-70.09204-70.08936
		c0-38.69775,31.38354-70.08936,70.09204-70.08936c38.70874,0,70.08301,31.3916,70.08301,70.08936
		C489.76205,38.74243,458.38779,70.11548,419.67905,70.11548z M461.68735,33.68921c4.41211,0.38599,8.30176-2.87793,8.68774-7.29004
		s-2.87793-8.30176-7.29004-8.6875c-4.41187-0.38599-8.30151,2.87769-8.6875,7.28979S457.27524,33.30322,461.68735,33.68921z
		 M419.77182,13.73071c0.479,1.31665,1.91504,1.91504,3.23169,1.43628s1.91504-1.91504,1.43628-3.23169l-1.55591-4.18921
		c-1.19702,1.19702-2.75293,2.03491-4.66797,2.03491L419.77182,13.73071z M406.24692,33.83862
		c4.29663,0,7.77979-3.48316,7.77979-7.77979c0-4.29688-3.48315-7.77979-7.77979-7.77979
		c-4.29688,0-7.77979,3.48291-7.77979,7.77979C398.46713,30.35547,401.95004,33.83862,406.24692,33.83862z M371.77597-31.63208
		c-0.83765-1.3164-2.27417-2.03467-3.71021-2.03467c-0.83789,0-1.67578,0.23926-2.39404,0.71826
		c-2.03467,1.3164-2.63306,4.06933-1.31641,6.104l13.28564,20.70654c0.71802-1.55591,2.03467-2.75293,3.59058-3.59082
		l3.47095-1.67554L371.77597-31.63208z M417.73715-5.18042c-0.35913-0.95752-1.31665-1.55591-2.27417-1.55591
		c-0.23926,0-0.59839,0-0.83765,0.11963c-1.31665,0.47876-1.91504,1.91504-1.43652,3.23169l0.35913,0.83789h4.78784
		c0.11963,0,0.35889,0,0.47852,0L417.73715-5.18042z M418.57504-0.03369h-9.45557c-1.07715,0-2.1543,0.47876-2.87256,1.31665
		l-4.66797,5.74512l-6.46338-9.69482l8.61768-4.06958c1.19702-0.47876,2.03491-1.55591,2.39404-2.87256
		c0.35889-1.31665,0-2.6333-0.71826-3.71045l-10.05396-13.76441c-0.83789-1.19678-2.27417-1.79541-3.59058-1.79541
		c-0.95752,0-1.79541,0.2395-2.6333,0.83789c-1.91504,1.43628-2.3938,4.18921-0.95752,6.10425l6.58301,9.33569l-12.32812,5.86499
		c-1.07715,0.47876-1.91504,1.43628-2.27417,2.63306c-0.35913,1.19702-0.2395,2.39404,0.35913,3.47119l8.01904,14.36279
		l-5.50562-0.47876l-5.38599-6.22388c-1.31665-1.43628-3.59082-1.67578-5.14673-0.35913
		c-1.43628,1.31665-1.67578,3.59058-0.35913,5.14673l6.34375,7.4209c0.59839,0.83765,1.55591,1.19678,2.51343,1.31641
		l9.21606,0.71826c2.27417,0.23926,4.54834-0.35913,6.34375-1.55615l6.94189-4.54809
		c0.83789-0.47876,1.55615-1.07715,2.15454-1.79541l5.02686-6.10425h7.66016c2.03491,0,3.94995-1.55591,3.94995-3.59058
		C422.28549,1.64184,420.60971-0.03369,418.57504-0.03369z M442.27377-23.61279c-0.35913-0.83765-0.95752-1.67554-1.79541-2.1543
		l-10.65234-7.06177c-0.71826-0.47876-1.67578-0.71826-2.51367-0.71826c-1.43628,0-2.87256,0.71826-3.83008,2.03491
		c-1.31641,2.03467-0.83789,4.90723,1.31665,6.34351l9.45557,6.22388l3.59058,9.45557
		c0.2395-0.35913,0.59863-0.71802,1.07739-1.07715l6.46313-5.0271L442.27377-23.61279z M475.18857,0.5647l-8.37842-3.47095
		c-0.47876-0.11963-0.95728-0.2395-1.43628-0.2395c-1.31641,0-2.51343,0.71826-3.23145,1.79541l-3.59082,5.62549l-5.62549-10.17383
		l6.94214-5.38599c0.83765-0.71802,1.55591-1.67554,1.67554-2.87256l2.15454-14.48242
		c0.35913-2.3938-1.31665-4.78784-3.83008-5.14673c-0.2395,0-0.47876,0-0.71826,0c-2.27417,0-4.18921,1.67578-4.5481,3.94971
		l-1.91504,12.68726l-11.72974,9.21606c-1.67554,1.31665-2.15454,3.47119-1.43628,5.38623l5.50586,13.64453l-4.42871-0.71802
		l-4.06934-6.46338c-1.07715-1.79517-3.47119-2.27417-5.2666-1.19678c-1.79517,1.07715-2.27393,3.47095-1.19678,5.26636
		l4.90723,7.89941c0.59863,0.83789,1.55615,1.55615,2.6333,1.67578l9.33594,1.55591c2.03467,0.35913,4.30884,0,6.22388-1.07715
		l6.46313-3.35132c1.55615-0.83789,2.75293-2.03467,3.71045-3.47095l3.35132-5.38623l5.38599,2.27417
		c2.03491,0.83789,4.18945-0.11963,5.0271-2.03467C477.82187,4.15552,476.98398,1.88135,475.18857,0.5647z"/>
	<path class="st1" d="M525.58777-17.99976c-1.3396,5.79834-2.07104,11.82642-2.07104,18.02588
		c0,6.18091,0.72729,12.19165,2.05884,17.97412h-27.8721c1.33154-5.78247,2.05859-11.79321,2.05859-17.97412
		c0-6.19946-0.73145-12.22754-2.0708-18.02588H525.58777z"/>
	<path class="st1" d="M781.57166,66.75024h-50.90771l48.74976-48.75h-97.78052c1.33154-5.78247,2.05859-11.79321,2.05859-17.97412
		c0-6.19946-0.73145-12.22754-2.0708-18.02588h97.79688l-48.75391-48.74976l50.90918-0.00024l66.76123,66.74707L781.57166,66.75024z
		"/>
	<ellipse class="st1" cx="286.08231" cy="0.01399" rx="7.2" ry="18"/>
	<g>
		<path class="st1" d="M-543.89319-40.44897h-54.23926v84.71973h21.11914v-66.83984h33.12012V-40.44897z"/>
		<path class="st1" d="M-518.35803,29.99145h-18.36035v14.2793h18.36035V29.99145z M-518.35803-40.44897h-18.36035v62.63965
			h18.36035V-40.44897z"/>
		<path class="st1" d="M-465.77505,22.19067h17.40039V-38.8894c0-15.99902-10.36133-24-31.08008-24
			c-8.7207,0-15.68066,1.76074-20.87988,5.28027c-5.20117,3.52148-7.7998,8.60059-7.7998,15.24023v1.91992h19.0791
			c0-2.71875,0.82031-5.09961,2.46094-7.13965c1.63867-2.04004,4.61914-3.06055,8.93945-3.06055
			c7.2793,0,10.91992,3.32129,10.91992,9.95996v8.52051c-1.91992-1.28125-3.40137-2.20117-4.43945-2.76074
			c-1.04102-0.56055-2.64062-1.13965-4.80078-1.73926c-2.15918-0.60059-4.55957-0.90039-7.19922-0.90039
			c-2.24121,0-4.46094,0.25879-6.66016,0.78027c-2.20117,0.51953-4.48145,1.47949-6.83984,2.87988
			c-2.36133,1.39844-4.44043,3.17969-6.24023,5.33984s-3.28125,5.0791-4.44043,8.75977
			c-1.16016,3.67871-1.73926,7.83984-1.73926,12.48047c0,9.2793,2.41797,16.69824,7.25977,22.25977
			c4.83887,5.55957,11.05859,8.33984,18.66016,8.33984c6.87891,0,12.67871-2.2793,17.39941-6.83984V22.19067z M-466.73502-7.20874
			c0,1.83887-0.05957,3.43848-0.17969,4.7998c-0.12012,1.35937-0.41992,2.83887-0.90039,4.44043
			c-0.47949,1.59863-1.13965,2.89844-1.97949,3.89941c-0.83984,0.99902-2.02148,1.83984-3.54004,2.52051
			c-1.52051,0.67871-3.32129,1.01953-5.40039,1.01953c-2.48047,0-4.55957-0.62012-6.24023-1.86035
			c-1.67969-1.24121-2.83984-2.86035-3.47949-4.85938c-0.6416-2.00098-1.06152-3.70117-1.25977-5.10059
			c-0.20117-1.40039-0.30078-2.81934-0.30078-4.25977c0-5.28027,0.81934-9.41992,2.45996-12.41992
			c1.63965-3,4.74023-4.5,9.30078-4.5c2.55859,0,4.67969,0.51953,6.35938,1.56055c1.68066,1.03809,2.85938,2.49902,3.54004,4.37988
			c0.67871,1.87793,1.12012,3.55859,1.32031,5.04004C-466.83658-11.07007-466.73502-9.2898-466.73502-7.20874z"/>
		<path class="st1" d="M-379.69986-40.44897h-18.36035v33.83984c0,2.0791-0.08008,3.79883-0.24023,5.16016
			c-0.16113,1.35938-0.52051,2.87988-1.08008,4.55957c-0.56055,1.68066-1.52051,2.94043-2.87988,3.78027
			c-1.36133,0.83984-3.12012,1.25977-5.2793,1.25977c-3.68066,0-6.26074-1.30078-7.74023-3.89941
			c-1.48145-2.60059-2.21973-6.50098-2.21973-11.7002v-33h-18.48047v84.71973h18.48047v-28.7998
			c5.04004,5.59863,10.99805,8.40039,17.87988,8.40039c6.39941,0,11.31934-1.90137,14.75977-5.7002
			c3.43848-3.80078,5.16016-9.06055,5.16016-15.78027V-40.44897z"/>
		<path class="st1" d="M-334.4733,9.35083h-12.24023v-30c0-2,0.39941-3.35938,1.2002-4.08008
			c0.79883-0.71973,1.99902-1.08008,3.59961-1.08008l6.48047,0.12012v-14.27929c-3.20117-0.63965-7.08008-0.96094-11.64062-0.96094
			c-5.68066,0-10.0791,1.26074-13.19922,3.78027c-3.12012,2.52051-4.68066,7.17969-4.68066,13.98047V9.47095h-9.12012v11.28027
			h9.12012v19.55957h18.24023V20.6311h12.24023V9.35083z"/>
		<path class="st1" d="M-291.0358,44.27075h40.08009c2.95898,0,5.71875-0.16113,8.28027-0.47949
			c2.55957-0.32129,5.39941-1.06152,8.51953-2.2207c3.12012-1.16016,5.7793-2.69922,7.98047-4.61914
			c2.19922-1.91992,4.03906-4.60156,5.51953-8.04004c1.47949-3.44141,2.2207-7.48145,2.2207-12.12012
			c0-6.6416-1.56055-11.7207-4.68066-15.24023c-3.12012-3.52148-7.36133-6.24023-12.71973-8.16016l19.55957-33.83984h-23.2793
			l-16.91994,30.24023h-13.2002v-30.24023h-21.36035V44.27075z M-269.79556,28.55102V5.51098h17.51955
			c2.7998,0,5.13965,0.45898,7.02051,1.37988c1.87891,0.91895,3.17969,2.11914,3.90039,3.60059
			c0.71973,1.47852,1.19922,2.71875,1.43945,3.71973c0.24023,0.99902,0.36035,2.01953,0.36035,3.05957
			c0,7.51855-4.2002,11.28027-12.60059,11.28027H-269.79556z"/>
		<path class="st1" d="M-154.62074-40.44897h-18.12012v5.63965c-0.16113-0.16113-0.94141-0.70117-2.33984-1.62012
			c-1.40039-0.91992-2.32129-1.5-2.75977-1.73926c-0.44043-0.24023-1.32031-0.7207-2.64062-1.44043
			c-1.31934-0.71973-2.44043-1.2002-3.35938-1.43945c-0.9209-0.24023-2.12109-0.48047-3.60059-0.7207
			c-1.48047-0.23926-2.98047-0.35938-4.5-0.35938c-6.64062,0-11.71973,1.91992-15.23926,5.75977
			c-3.52148,3.83984-5.28027,8.28027-5.28027,13.32031c0,3.83984,1.21875,7.37988,3.66016,10.61914
			c2.43945,3.24023,5.61914,5.70019,9.54004,7.38086c3.03906,1.27832,11.2793,3.19824,24.71973,5.75977v3.47949
			c0,5.04004-2.36035,7.56055-7.08008,7.56055c-5.60059,0-8.84082-2.44141-9.71973-7.32031h-18.48047
			c0,6.48047,2.52051,11.33984,7.56055,14.58008s11.31934,4.86035,18.83984,4.86035c2.40039,0,4.71973-0.14062,6.95996-0.41992
			c2.23828-0.28125,4.62012-0.82129,7.13965-1.62012c2.52051-0.80078,4.69922-1.8418,6.54004-3.12012
			c1.83984-1.28125,3.36035-3.02051,4.56055-5.21973c1.2002-2.20215,1.7998-4.74023,1.7998-7.62012v-36.60059
			C-156.42055-35.44995-155.82094-38.69019-154.62074-40.44897z M-174.54066-10.44898l-11.87988-3.95996
			c-5.28027-1.67969-7.91992-4.28027-7.91992-7.79981c0-1.44043,0.59961-2.86133,1.7998-4.25977
			c1.2002-1.40137,2.95898-2.10059,5.28027-2.10059c3.59961,0,6.61816,1.45898,9.05957,4.37988
			c2.43945,2.91992,3.66016,6.58008,3.66016,10.98047V-10.44898z"/>
		<path class="st1" d="M-125.36586,29.99145h-18.36035v14.2793h18.36035V29.99145z M-125.36586-40.44897h-18.36035v62.63965
			h18.36035V-40.44897z"/>
		<path class="st1" d="M-94.35805-40.44897h-18.36035v84.71973h18.36035V-40.44897z"/>
		<path class="st1" d="M-48.88051,44.27075h40.08008c2.95898,0,5.71875-0.16113,8.28027-0.47949
			c2.55957-0.32129,5.39941-1.06152,8.51953-2.2207c3.12012-1.16016,5.7793-2.69922,7.98047-4.61914
			c2.19922-1.91992,4.03906-4.60156,5.51953-8.04004c1.47949-3.44141,2.2207-7.48145,2.2207-12.12012
			c0-6.6416-1.56055-11.7207-4.68066-15.24023c-3.12012-3.52148-7.36133-6.24023-12.71973-8.16016l19.55957-33.83984H2.59996
			l-16.91992,30.24023h-13.2002v-30.24023h-21.36035V44.27075z M-27.64028,28.55102V5.51098h17.51953
			c2.7998,0,5.13965,0.45898,7.02051,1.37988c1.87891,0.91895,3.17969,2.11914,3.90039,3.60059
			c0.71973,1.47852,1.19922,2.71875,1.43945,3.71973c0.24023,0.99902,0.36035,2.01953,0.36035,3.05957
			c0,7.51855-4.2002,11.28027-12.60059,11.28027H-27.64028z"/>
		<path class="st1" d="M92.64684-12.96851H47.88707v-0.7207c0-4.24121,1.31934-7.78125,3.95996-10.62012
			c2.63965-2.83984,6.07812-4.25977,10.31934-4.25977c4,0,7.35938,1.09863,10.08008,3.2998
			c2.71875,2.19922,4.63867,4.81934,5.75977,7.86035l13.9209-7.2002c-3.52148-5.9209-7.96191-10.4209-13.32031-13.5
			c-5.36035-3.07812-11.32129-4.62012-17.87989-4.62012c-9.60059,0-17.28027,2.87988-23.04004,8.64062
			c-5.75977,5.75976-8.64062,13.67969-8.64062,23.75977c0,4.23926,0.55957,8.28027,1.68066,12.12012
			c1.11914,3.83984,2.83887,7.47949,5.16016,10.91992c2.31934,3.43848,5.6582,6.19824,10.01953,8.28027
			c4.35938,2.0791,9.45898,3.11914,15.2998,3.11914c5.59864,0,10.51856-1.06055,14.75977-3.17969
			c4.24023-2.12012,7.51953-4.96094,9.84082-8.51953c2.31934-3.56055,4.03809-7.37988,5.15918-11.45996
			c1.12012-4.08008,1.68066-8.44141,1.68066-13.08008V-12.96851z M47.88707-1.44898h25.67969
			c-0.16113,3.59961-1.36133,6.55859-3.60059,8.87988c-2.24023,2.31934-5.20117,3.48047-8.87989,3.48047
			c-3.91992,0-6.95996-1.26074-9.12012-3.78027C49.80699,4.61059,48.44566,1.75024,47.88707-1.44898z"/>
		<path class="st1" d="M119.27379-40.44897h-18.36035v84.71973h18.36035V-40.44897z"/>
		<path class="st1" d="M186.67711-40.44897h-18.12012v5.63965c-0.16113-0.16113-0.94141-0.70117-2.33984-1.62012
			c-1.40137-0.91992-2.32129-1.5-2.76074-1.73926c-0.44043-0.24023-1.31934-0.7207-2.63965-1.44043s-2.44141-1.2002-3.36035-1.43945
			c-0.91992-0.24023-2.12012-0.48047-3.59961-0.7207c-1.48145-0.23926-2.98145-0.35938-4.5-0.35938
			c-6.6416,0-11.7207,1.91992-15.24023,5.75977c-3.52148,3.83984-5.28027,8.28027-5.28027,13.32031
			c0,3.83984,1.21875,7.37988,3.66016,10.61914c2.43945,3.24023,5.62012,5.70019,9.54004,7.38086
			c3.04004,1.27832,11.28027,3.19824,24.7207,5.75977v3.47949c0,5.04004-2.36133,7.56055-7.08008,7.56055
			c-5.60059,0-8.84082-2.44141-9.7207-7.32031h-18.47949c0,6.48047,2.51953,11.33984,7.55957,14.58008
			s11.31934,4.86035,18.83984,4.86035c2.40039,0,4.71973-0.14062,6.95996-0.41992c2.23926-0.28125,4.62012-0.82129,7.14062-1.62012
			c2.51953-0.80078,4.69824-1.8418,6.54004-3.12012c1.83887-1.28125,3.35938-3.02051,4.55957-5.21973
			c1.2002-2.20215,1.7998-4.74023,1.7998-7.62012v-36.60059C184.87633-35.44995,185.47691-38.69019,186.67711-40.44897z
			 M166.75719-10.44898l-11.88086-3.95996c-5.2793-1.67969-7.91992-4.28027-7.91992-7.79981
			c0-1.44043,0.60059-2.86133,1.80078-4.25977c1.19922-1.40137,2.95801-2.10059,5.2793-2.10059
			c3.60059,0,6.61914,1.45898,9.06055,4.37988c2.43945,2.91992,3.66016,6.58008,3.66016,10.98047V-10.44898z"/>
		<path class="st1" d="M229.22789,22.19067h19.67969L226.8275-45.48901c-1.76074-5.28027-3.80078-9.19824-6.12012-11.75977
			c-1.84082-1.91992-3.71973-3.19922-5.63965-3.83984c-1.91992-0.63965-4.40039-0.95996-7.43945-0.95996h-13.32031v14.75977h7.91992
			c4.1582,0,6.24023,1.52051,6.24023,4.55957c0,1.28125-0.44141,3.2793-1.32031,6l-18.24023,58.91992h19.68066l10.31934-44.87988
			L229.22789,22.19067z"/>
	</g>
	<path class="st0" d="M-793.47345,28.9045V16.28375c0,0,6.07904-0.43444,9.95514,0.20511
		c3.5733,0.5896,7.35333,2.46295,7.35333,2.46295v-59.77702h18.74011v81.70265h-14.55396c0,0-2.46936-6.53909-7.5083-9.05856
		S-793.47345,28.9045-793.47345,28.9045z"/>
	<path class="st1" d="M-768.24231,62.11548c34.23267,0,62.08301-27.85327,62.08301-62.08936s-27.85034-62.08936-62.08301-62.08936
		c-34.23755,0-62.09204,27.85327-62.09204,62.08936S-802.47986,62.11548-768.24231,62.11548 M-768.24231,70.11548
		c-38.70874,0-70.09204-31.37305-70.09204-70.08936c0-38.698,31.3833-70.08936,70.09204-70.08936
		s70.08301,31.39136,70.08301,70.08936C-698.1593,38.74243-729.53357,70.11548-768.24231,70.11548L-768.24231,70.11548z"/>
	<path class="st1" d="M-631.24329,0.01391c0,9.94116-3.22339,18-7.19971,18c-0.03687,0-0.07227-0.01221-0.10889-0.01367h-51.66602
		c1.33154-5.78247,2.05859-11.79321,2.05859-17.97412c0-6.19946-0.73145-12.22754-2.0708-18.02588h51.78711v0.01367
		C-634.46667-17.98584-631.24329-9.927-631.24329,0.01391z"/>
	<path class="st1" d="M339.58701,0.02612c0,6.18091,0.72729,12.19165,2.05884,17.97412h-0.12012h-13.06567h-34.39429
		c2.86328-4.5,4.21655-11.39233,4.21655-17.98633c0-6.60767-1.35962-13.5144-4.23462-18.01367h34.40039h13.0896h0.12036
		C340.31845-12.20142,339.58701-6.17334,339.58701,0.02612z"/>
	<path class="st1" d="M293.28232,0.01391c0,9.84985-3.16577,17.84009-7.09155,17.98633h-0.1084v-35.98633
		C290.05869-17.98609,293.28232-9.92725,293.28232,0.01391z"/>
</symbol>
<g id="Poster">
</g>
<g id="Reference">
</g>
<g id="Layer_10" class="st4">
</g>
<g id="Baton_previz">
</g>
<g id="Baton_layout_study" class="st4">
</g>
<g id="Card">
</g>
<g id="Logo_source">
</g>
<g id="Logo_intermediate">
</g>
<g id="Logo_explorations" class="st4">
	<g class="st6">
		
			<rect x="631.63776" y="314.61597" transform="matrix(0.70711 -0.70711 0.70711 0.70711 14.08877 711.24561)" width="467.91202" height="48.0004"/>
	</g>
	<line class="st40" x1="820.24225" y1="41.7243" x2="1151.10596" y2="-289.13943"/>
	<polygon class="st6" points="909.80865,203.9128 909.80865,204.09712 1000.11334,204.09712 1000.11334,294.40182 
		1000.29572,294.40182 1048.11328,246.58443 1048.11328,156.09712 957.62408,156.09712 	"/>
	<line class="st40" x1="328.35339" y1="471.31488" x2="659.21716" y2="140.45114"/>
	<polyline class="st40" points="554.99988,130.36356 669.30475,130.36356 669.30475,244.66841 	"/>
	<g class="st6">
		<line class="st45" x1="1519.28821" y1="461.85077" x2="1519.28821" y2="104.11293"/>
		<g>
			<g>
				<g class="st7">
					<path class="st1" d="M1519.81982,36.20931c38.69409,0,70.05664,31.36255,70.05664,70.06616
						c0,38.68507-31.36255,70.06593-70.05664,70.06593c-38.69434,0-70.06616-31.38086-70.06616-70.06593
						C1449.75366,67.57186,1481.12549,36.20931,1519.81982,36.20931 M1519.81982,28.20931
						c-43.0459,0-78.06616,35.02026-78.06616,78.06616c0,43.04566,35.02026,78.06593,78.06616,78.06593
						c43.04053,0,78.05664-35.02026,78.05664-78.06593C1597.87646,63.22958,1562.86035,28.20931,1519.81982,28.20931
						L1519.81982,28.20931z"/>
				</g>
			</g>
			<g>
				<path class="st13" d="M1449.8739,106.27544c0-38.63714,31.31787-69.94587,69.9458-69.94587s69.93665,31.30873,69.93665,69.94587
					c0,38.61868-31.30872,69.9458-69.93665,69.9458S1449.8739,144.89412,1449.8739,106.27544z"/>
				<g>
					<path class="st1" d="M1508.7627,63.93092h-7.42029c-4.61584,0-8.01794,3.61359-8.21106,7.41111l-3.20898,51.32612
						c-0.15637,2.89642,0.77234,7.38354,2.078,9.97649l2.95166,5.87556c1.0481,2.06885,3.42969,3.8159,5.81116,4.43198
						l-11.3374,17.07501h9.43408l11.10742-16.82674l19.37366-0.02757l11.1167,16.85431h9.43408l-11.34656-17.07501
						c2.46423-0.60687,5.00208-2.30792,5.98584-4.43198l2.92407-5.84799c1.2229-2.6389,2.26184-7.02493,2.078-9.91209
						l-3.0343-51.41809c0-3.6044-3.84351-7.43868-8.25708-7.41111h-7.83411H1508.7627z"/>
					<g>
						<path class="st42" d="M1505.47412,53.39968c0.31616,0.80273,3.24731,8.14864,4.96216,12.40539"/>
						<path class="st42" d="M1528.86902,65.80507c1.71484-4.28106,4.646-11.60266,4.97437-12.40539"/>
					</g>
					<path class="st43" d="M1498.93848,54.29466c0,0,10.85828-1.51741,20.72021-1.51741
						c9.86206,0,20.72034,1.51741,20.72034,1.51741"/>
					<rect x="1494.43896" y="142.95218" width="50.43955" height="3.99437"/>
					<g>
						<path d="M1495.79956,127.28909v2.1405c0,1.77963,1.44263,3.22231,3.22229,3.22231h8.69299
							c2.13867,0,3.68396-2.04517,3.09973-4.10248l0,0c-0.31616-1.11353-1.20532-1.97191-2.32922-2.24866l-8.69312-2.1405
							C1497.76135,123.66016,1495.79956,125.19747,1495.79956,127.28909z"/>
						<path d="M1543.51794,127.28909v2.1405c0,1.77963-1.44263,3.22231-3.22229,3.22231h-8.69299
							c-2.13867,0-3.68396-2.04517-3.09985-4.10248l0,0c0.31628-1.11353,1.20544-1.97191,2.32935-2.24866l8.69312-2.1405
							C1541.55615,123.66016,1543.51794,125.19747,1543.51794,127.28909z"/>
					</g>
					<g>
						<path d="M1519.65869,124.97856c-9.44702,0-20.3208-4-20.3208-4c-2.10327-0.76395-3.91699-1.81139-3.7699-4.02741
							l2.48572-41.56069c0.34094-2.57511,2.80701-3.26058,4.94946-3.54897c0,0,6.50989-1.02302,16.65552-1.02302
							c10.14575,0,16.65552,1.02302,16.65552,1.02302c2.14258,0.28838,4.60864,0.97385,4.94958,3.54897l2.48572,41.56069
							c0.14709,2.21602-1.66675,3.26347-3.7699,4.02741C1539.97961,120.97856,1529.10571,124.97856,1519.65869,124.97856z"/>
						<line class="st44" x1="1496.4032" y1="78.83652" x2="1542.91431" y2="78.83652"/>
						<g>
							<path d="M1519.65869,75.85848c9.56689,0,15.81567,0.95288,15.87305,0.96191l0.05493,0.00854l0.05493,0.00732
								c0.27026,0.03638,0.4895,0.07422,0.66626,0.11011l2.34131,39.14575c-0.1167,0.04712-0.25146,0.09888-0.40625,0.15503
								c-0.10083,0.03687-10.17798,3.69141-18.58423,3.69141s-18.4834-3.65454-18.6001-3.69727
								c-0.14819-0.05371-0.27734-0.10327-0.39014-0.14868l2.34131-39.14624c0.17651-0.03589,0.396-0.07373,0.66626-0.11011
								l0.05493-0.00757l0.05005-0.00757C1503.84302,76.81136,1510.09204,75.85848,1519.65869,75.85848 M1519.65869,70.81844
								c-10.14551,0-16.65552,1.02295-16.65552,1.02295c-2.14233,0.28857-4.6084,0.97388-4.94946,3.54907l-2.4856,41.56079
								c-0.14722,2.21582,1.6665,3.26343,3.76978,4.02734c0,0,10.87378,4,20.3208,4s20.3208-4,20.3208-4
								c2.10327-0.76392,3.91724-1.81152,3.77002-4.02734l-2.4856-41.56079c-0.34106-2.5752-2.80713-3.2605-4.94971-3.54907
								C1536.31421,71.84139,1529.80444,70.81844,1519.65869,70.81844L1519.65869,70.81844z"/>
						</g>
					</g>
				</g>
			</g>
		</g>
		<g>
			<g>
				<path class="st0" d="M1449.75366,281.73264c0-38.70355,31.3717-70.06609,70.06604-70.06609s70.05676,31.36253,70.05676,70.06609
					c0,38.68503-31.36243,70.06598-70.05676,70.06598S1449.75366,320.41766,1449.75366,281.73264z"/>
				<g class="st7">
					<path class="st1" d="M1519.81982,211.6666c38.69409,0,70.05664,31.36255,70.05664,70.06592
						c0,38.68506-31.36255,70.06616-70.05664,70.06616c-38.69434,0-70.06616-31.3811-70.06616-70.06616
						C1449.75366,243.02914,1481.12549,211.6666,1519.81982,211.6666 M1519.81982,203.6666
						c-43.0459,0-78.06616,35.02026-78.06616,78.06592c0,43.0459,35.02026,78.06616,78.06616,78.06616
						c43.04053,0,78.05664-35.02026,78.05664-78.06616C1597.87646,238.68686,1562.86035,203.6666,1519.81982,203.6666
						L1519.81982,203.6666z"/>
				</g>
			</g>
			<path class="st13" d="M1449.8739,281.73264c0-38.63715,31.31787-69.94588,69.9458-69.94588s69.93665,31.30873,69.93665,69.94588
				c0,38.61868-31.30872,69.9458-69.93665,69.9458S1449.8739,320.35132,1449.8739,281.73264z M1522.03796,274.51022l1.45569-3.91913
				c0.44788-1.23172-0.11194-2.57541-1.34375-3.02332c-1.23169-0.44791-2.57544,0.11197-3.02332,1.34369l-1.45569,3.69516l0,0
				C1519.46252,272.60663,1520.91821,273.39047,1522.03796,274.51022z M1513.30396,284.14005l-0.33594,0.78381
				c-0.44788,1.23175,0.11194,2.57544,1.34363,3.02335c0.224,0.11197,0.55994,0.11197,0.78394,0.11197
				c0.89575,0,1.7915-0.55988,2.12744-1.45569l1.00781-2.46344c-0.11194,0-0.33594,0-0.44788,0H1513.30396z M1479.71143,287.4993
				l-12.4292,19.37164c-1.23169,1.90356-0.67175,4.479,1.23181,5.71072c0.67175,0.44788,1.45557,0.67184,2.2395,0.67184
				c1.34363,0,2.68738-0.67184,3.47119-1.90356l12.09326-18.92377l-3.24731-1.56766
				C1481.61499,290.07471,1480.3833,288.95496,1479.71143,287.4993z M1536.03479,290.63458l-3.35925,8.84601l-8.84595,5.82269
				c-2.01562,1.34369-2.4635,4.0311-1.23181,5.93466c0.89587,1.23172,2.2395,1.90359,3.58325,1.90359
				c0.78381,0,1.67957-0.22397,2.35144-0.67188l9.96582-6.60651c0.78381-0.44791,1.34363-1.23172,1.67957-2.01553l2.91138-7.50232
				l-6.04663-4.70294C1536.59473,291.30643,1536.25879,290.97052,1536.03479,290.63458z M1572.76257,276.07785
				c-0.78381-1.7916-2.79944-2.68738-4.703-1.90356l-5.03882,2.12753l-3.13525-5.03888
				c-0.89587-1.34369-2.01562-2.46344-3.47131-3.24725l-6.04663-3.13531c-1.7915-1.00778-3.91907-1.34369-5.82263-1.00778
				l-8.73401,1.45569c-1.00781,0.11197-1.90356,0.78381-2.4635,1.56766l-4.59094,7.39032
				c-1.00781,1.67963-0.55994,3.91913,1.11975,4.92691c1.67957,1.00778,3.91907,0.55988,4.92688-1.11975l3.80713-6.04666
				l4.14307-0.67184l-5.15088,12.76514c-0.67175,1.7916-0.22388,3.80716,1.34375,5.03888l10.97351,8.62204l1.79163,11.86935
				c0.33594,2.1275,2.12756,3.69516,4.255,3.69516c0.224,0,0.44788,0,0.67188,0c2.35144-0.33594,3.91907-2.57541,3.58313-4.81491
				l-2.0155-13.54895c-0.11194-1.11975-0.78381-2.01556-1.56763-2.68741l-6.49451-5.03888l5.26282-9.51785l3.35925,5.26282
				c0.67175,1.00778,1.7915,1.67963,3.02332,1.67963c0.44788,0,0.89575-0.11197,1.34363-0.22394l7.83826-3.24728
				C1572.65063,279.99698,1573.43445,277.86945,1572.76257,276.07785z M1517.78296,274.9581h-7.16638l-4.703-5.71069
				c-0.55981-0.67184-1.23169-1.23172-2.0155-1.67963l-6.49463-4.25507c-1.67957-1.11972-3.80713-1.6796-5.93457-1.45566
				l-8.62207,0.67184c-0.89587,0.11197-1.79163,0.44791-2.35156,1.23172l-5.93457,6.94244
				c-1.23181,1.45569-1.00781,3.58319,0.33594,4.81491c1.45557,1.23172,3.58313,1.00778,4.81482-0.33591l5.03894-5.82269
				l5.15076-0.44791l-7.5022,13.43698c-0.55994,1.00778-0.67188,2.12753-0.33594,3.24728
				c0.33594,1.11972,1.11975,2.01553,2.12744,2.46344l11.53345,5.48676l-6.15857,8.73404
				c-1.34375,1.7916-0.89587,4.36703,0.89575,5.71072c0.78381,0.55988,1.56763,0.78381,2.4635,0.78381
				c1.23169,0,2.57532-0.55988,3.35913-1.67963l9.40588-12.87711c0.67188-1.00778,1.00781-2.2395,0.67188-3.47122
				s-1.11975-2.2395-2.2395-2.68738l-8.06213-3.80716l6.04663-9.06995l4.36707,5.37479
				c0.67175,0.78381,1.67957,1.23172,2.68738,1.23172h8.84595c1.90356,0,3.47119-1.56766,3.47119-3.47122
				S1519.68652,274.9581,1517.78296,274.9581z M1506.47351,250.0997c4.01965,0,7.27832,3.25864,7.27832,7.27835
				c0,4.01974-3.25867,7.27838-7.27832,7.27838c-4.01978,0-7.27844-3.25864-7.27844-7.27838
				C1499.19507,253.35834,1502.45374,250.0997,1506.47351,250.0997z M1558.34009,250.23961
				c4.12769-0.3611,7.76648,2.69231,8.12756,6.81996c0.36108,4.12769-2.69226,7.76654-6.81995,8.12766
				c-4.12769,0.36108-7.76648-2.69232-8.12756-6.82001C1551.15894,254.23956,1554.2124,250.60071,1558.34009,250.23961z"/>
		</g>
	</g>
	<g class="st6">
		<path d="M1661.35864,111.97933h-35.71289V61.1473h16.05664v38.01562h19.65625V111.97933z"/>
		<path d="M1679.06177,71.01156h-14.83203V61.1473h14.83203V71.01156z M1679.06177,111.97933h-14.83203v-37.2959h14.83203V111.97933
			z"/>
		<path d="M1683.15161,112.48324h13.46387v0.57617c0,2.83203,1.94434,4.24805,5.83203,4.24805
			c2.30371,0,4.04395-0.46777,5.21973-1.4043c1.17578-0.93555,1.76465-2.53223,1.76465-4.78809v-4.75195
			c-1.48926,2.54492-4.80078,3.81641-9.93652,3.81641c-2.92773,0-5.50781-0.52734-7.74023-1.58398
			c-2.23145-1.05566-3.95898-2.47168-5.18359-4.24805c-1.22363-1.77539-2.12402-3.67188-2.69922-5.68848
			c-0.57617-2.01562-0.86523-4.15137-0.86523-6.40723c0-5.42383,1.44043-9.87598,4.32031-13.35645
			c2.88086-3.47949,7.2959-5.21973,13.24805-5.21973c4.65527,0,8.06445,1.51172,10.22461,4.53613v-3.52832h12.81543v35.92773
			c0,10.27148-7.08105,15.4082-21.23926,15.4082c-2.83398,0-5.25586-0.14355-7.27246-0.43164s-4.00879-0.85352-5.97559-1.69238
			c-1.96875-0.84082-3.45703-2.13672-4.46484-3.8877c-1.00781-1.75293-1.51172-3.94922-1.51172-6.58789V112.48324z
			 M1709.07153,92.035c0-5.375-1.82422-8.06348-5.47168-8.06348c-4.32031,0-6.47949,2.87988-6.47949,8.63965
			c0,3.02441,0.53906,5.07617,1.61914,6.15625s2.48438,1.62012,4.21289,1.62012
			C1707.03052,100.38754,1709.07153,97.60433,1709.07153,92.035z"/>
		<path d="M1769.51489,111.97933h-14.83203V90.66781c0-3.55176-1.77539-5.32812-5.32812-5.32812
			c-3.64844,0-5.4707,1.87207-5.4707,5.61523v21.02441H1729.052V61.1473h14.75977v17.28027
			c2.6875-3.55176,6.64746-5.32812,11.87891-5.32812c1.67969,0,3.26367,0.20508,4.75293,0.6123
			c1.4873,0.4082,2.95215,1.0791,4.3916,2.01562c1.43945,0.93555,2.58008,2.35254,3.41992,4.24805
			c0.83984,1.89648,1.25977,4.18848,1.25977,6.87598V111.97933z"/>
		<path d="M1625.64575,133.14731h28.58398c2.30469,0,4.46484,0.25195,6.48047,0.75586s3.92383,1.33203,5.72461,2.48438
			c1.79883,1.15137,3.22656,2.84375,4.2832,5.07617c1.05566,2.23145,1.58398,4.88477,1.58398,7.95605
			c0,3.4082-0.81641,6.25195-2.44727,8.53125c-1.63281,2.28027-4.29688,4.11621-7.99219,5.50879l12.45508,20.51953h-18
			l-9.86328-17.92773h-4.67969v17.92773h-16.12891V133.14731z M1641.77466,155.61118h6.69531
			c1.44043,0,2.65234-0.0957,3.63672-0.28809c0.98242-0.19141,1.91895-0.75586,2.80762-1.69141
			c0.8877-0.93652,1.33203-2.24316,1.33203-3.9248c0-1.34277-0.24121-2.43555-0.71973-3.27539
			c-0.48047-0.83984-1.17773-1.44043-2.08789-1.7998c-0.91211-0.36035-1.72852-0.58789-2.44824-0.68457
			c-0.71973-0.0957-1.6084-0.14355-2.66406-0.14355h-6.55176V155.61118z"/>
		<path d="M1714.52954,183.97934h-14.61621v-2.87988c-1.39258,0.91211-2.49609,1.58398-3.31152,2.01562
			c-0.81738,0.43262-2.0166,0.82812-3.60059,1.18848c-1.58398,0.35938-3.4082,0.54004-5.47168,0.54004
			c-3.8877,0-7.0918-1.06836-9.6123-3.2041c-2.51953-2.13574-3.7793-5.07617-3.7793-8.82031
			c0-4.12793,1.70312-7.34375,5.11133-9.64746c1.96875-1.34375,5.40039-2.35156,10.29688-3.02441
			c4.89551-0.67188,8.11133-1.27148,9.64746-1.7998c-0.09668-1.4873-0.46777-2.56738-1.11621-3.24023
			c-0.64746-0.67188-1.95605-1.00781-3.92383-1.00781c-1.63281,0-2.79688,0.27637-3.49219,0.82812s-1.14062,1.42871-1.33203,2.62793
			c-8.01562,0.19238-12.67188,0.3125-13.96777,0.35938c0.19141-0.95898,0.37207-1.71484,0.54004-2.26758
			c0.16797-0.55078,0.46875-1.31934,0.90039-2.30371c0.43164-0.9834,0.92383-1.78809,1.47559-2.41211
			c0.55176-0.62305,1.33203-1.31934,2.34082-2.08789c1.00781-0.76758,2.15918-1.36816,3.45508-1.7998
			c1.29688-0.43262,2.92773-0.80371,4.89648-1.11621c1.9668-0.31152,4.15039-0.46777,6.55176-0.46777
			c2.44824,0,4.61914,0.16797,6.5166,0.50391c1.89453,0.33594,3.74414,0.93555,5.54297,1.7998
			c1.80078,0.86426,3.19141,2.18457,4.17578,3.95996c0.98438,1.77637,1.47656,3.95996,1.47656,6.55176v21.0957
			c0,1.29688,0.08398,2.20898,0.25195,2.73633C1713.65356,182.63657,1714.00122,183.25961,1714.52954,183.97934z
			 M1699.12231,167.99496v-1.36719c-0.625,0.28711-1.99219,0.68359-4.10449,1.1875s-3.8291,1.10449-5.14746,1.7998
			c-1.32129,0.69629-1.98047,1.62012-1.98047,2.77246c0,0.71973,0.29883,1.37988,0.90039,1.97949
			c0.59961,0.60059,1.52344,0.90039,2.77148,0.90039c1.91992,0,3.66016-0.69531,5.2207-2.08789
			C1698.34106,171.78793,1699.12231,170.05942,1699.12231,167.99496z"/>
		<path d="M1733.43677,143.01157h-14.83203v-9.86426h14.83203V143.01157z M1733.43677,183.97934h-14.83203v-37.2959h14.83203
			V183.97934z"/>
		<path d="M1753.83325,183.97934h-14.9043v-50.83203h14.9043V183.97934z"/>
		<path d="M1625.64575,205.14731h28.58398c2.30469,0,4.46484,0.25195,6.48047,0.75586s3.92383,1.33203,5.72461,2.48438
			c1.79883,1.15137,3.22656,2.84375,4.2832,5.07617c1.05566,2.23145,1.58398,4.88477,1.58398,7.95605
			c0,3.4082-0.81641,6.25195-2.44727,8.53125c-1.63281,2.28027-4.29688,4.11621-7.99219,5.50879l12.45508,20.51953h-18
			l-9.86328-17.92773h-4.67969v17.92773h-16.12891V205.14731z M1641.77466,227.61118h6.69531
			c1.44043,0,2.65234-0.0957,3.63672-0.28809c0.98242-0.19141,1.91895-0.75586,2.80762-1.69141
			c0.8877-0.93652,1.33203-2.24316,1.33203-3.9248c0-1.34277-0.24121-2.43555-0.71973-3.27539
			c-0.48047-0.83984-1.17773-1.44043-2.08789-1.7998c-0.91211-0.36035-1.72852-0.58789-2.44824-0.68457
			c-0.71973-0.0957-1.6084-0.14355-2.66406-0.14355h-6.55176V227.61118z"/>
		<path d="M1714.93286,239.99496h-25.99219c0,0.625,0.06055,1.23633,0.17969,1.83594
			c0.11914,0.60156,0.36035,1.34473,0.7207,2.23242c0.35938,0.88867,0.98242,1.59668,1.87207,2.12402
			c0.8877,0.52832,2.00293,0.79199,3.34766,0.79199c0.81543,0,1.55957-0.1084,2.23145-0.32422s1.23633-0.46777,1.69336-0.75586
			c0.45508-0.28809,0.875-0.64746,1.25977-1.08008c0.38281-0.43164,0.67188-0.79199,0.86328-1.08008
			s0.38379-0.62305,0.57617-1.00781l0.28809-0.57617l12.16797,5.1123c-1.68066,2.73633-4.13965,5.12402-7.37988,7.16406
			c-3.24023,2.03906-7.33301,3.05957-12.27539,3.05957c-2.88086,0-5.50879-0.4082-7.88477-1.22363s-4.33203-1.89551-5.86719-3.24023
			c-1.53711-1.34277-2.84473-2.91602-3.9248-4.71582s-1.84863-3.63574-2.30371-5.50781
			c-0.45703-1.87207-0.68359-3.76758-0.68359-5.68848c0-3.45605,0.62305-6.52734,1.87109-9.21582
			c1.24805-2.6875,2.8916-4.78809,4.93164-6.2998s4.22461-2.63965,6.55273-3.38379s4.71582-1.11621,7.16406-1.11621
			c6.57617,0,11.65137,1.95605,15.22852,5.86816c3.57422,3.91211,5.36328,8.81934,5.36328,14.72363V239.99496z
			 M1689.08521,232.14731h10.7998c-0.14355-1.82324-0.69629-3.21484-1.65625-4.17578
			c-0.95996-0.95996-2.15918-1.44043-3.59961-1.44043c-1.72754,0-3.08496,0.66016-4.06836,1.98047
			C1689.57642,229.83188,1689.08521,231.04379,1689.08521,232.14731z"/>
		<path d="M1733.34302,255.97934h-14.9043v-50.83203h14.9043V255.97934z"/>
		<path d="M1777.60083,255.97934h-14.61621v-2.87988c-1.39258,0.91211-2.49707,1.58398-3.31152,2.01562
			c-0.81738,0.43262-2.0166,0.82812-3.60059,1.18848c-1.58398,0.35938-3.40918,0.54004-5.47168,0.54004
			c-3.88867,0-7.0918-1.06836-9.6123-3.2041s-3.78027-5.07617-3.78027-8.82031c0-4.12793,1.70312-7.34375,5.1123-9.64746
			c1.96777-1.34375,5.39941-2.35156,10.2959-3.02441c4.89648-0.67188,8.11133-1.27148,9.64844-1.7998
			c-0.09766-1.4873-0.46875-2.56738-1.11621-3.24023c-0.64746-0.67188-1.95605-1.00781-3.9248-1.00781
			c-1.63184,0-2.7959,0.27637-3.49121,0.82812c-0.69629,0.55176-1.14062,1.42871-1.33203,2.62793
			c-8.0166,0.19238-12.67188,0.3125-13.96777,0.35938c0.19141-0.95898,0.37109-1.71484,0.53906-2.26758
			c0.16797-0.55078,0.46875-1.31934,0.90039-2.30371c0.43164-0.9834,0.92383-1.78809,1.47656-2.41211
			c0.55078-0.62305,1.33203-1.31934,2.33984-2.08789c1.00781-0.76758,2.16016-1.36816,3.45605-1.7998
			c1.2959-0.43262,2.92676-0.80371,4.89551-1.11621c1.96777-0.31152,4.15137-0.46777,6.55273-0.46777
			c2.44727,0,4.61914,0.16797,6.51562,0.50391c1.89551,0.33594,3.74414,0.93555,5.54395,1.7998s3.19141,2.18457,4.17578,3.95996
			c0.9834,1.77637,1.47559,3.95996,1.47559,6.55176v21.0957c0,1.29688,0.08398,2.20898,0.25195,2.73633
			C1776.72388,254.63657,1777.07153,255.25961,1777.60083,255.97934z M1762.19263,239.99496v-1.36719
			c-0.625,0.28711-1.99219,0.68359-4.10352,1.1875c-2.11328,0.50391-3.8291,1.10449-5.14844,1.7998
			c-1.32031,0.69629-1.98047,1.62012-1.98047,2.77246c0,0.71973,0.2998,1.37988,0.90039,1.97949
			c0.59961,0.60059,1.52344,0.90039,2.77148,0.90039c1.91992,0,3.66016-0.69531,5.2207-2.08789
			C1761.41138,243.78793,1762.19263,242.05942,1762.19263,239.99496z"/>
	</g>
</g>
<g id="Icons">
</g>
<g id="Banner">
</g>
<g id="og">
</g>
<g id="White_finalized">
	<rect class="st66" width="1768.66565" height="232.2072"/>
	<g class="st4">
		<g class="st6">
			<path class="st26" d="M1206.97192,116.10214c0-32.48264,26.33032-58.80421,58.80652-58.80421
				s58.79883,26.32158,58.79883,58.80421c0,32.46713-26.32263,58.80415-58.79883,58.80415
				S1206.97192,148.56927,1206.97192,116.10214z"/>
			<g class="st7">
				<path class="st1" d="M1265.77856,57.29794c32.47607,0,58.79883,26.32153,58.79883,58.8042
					c0,32.46705-26.32275,58.80421-58.79883,58.80421c-32.47632,0-58.80664-26.33716-58.80664-58.80421
					C1206.97192,83.61947,1233.30225,57.29794,1265.77856,57.29794 M1265.77856,48.90804
					c-37.05225,0-67.19653,30.14307-67.19653,67.19409s30.14429,67.1941,67.19653,67.1941
					c37.0481,0,67.18872-30.14307,67.18872-67.1941S1302.82666,48.90804,1265.77856,48.90804L1265.77856,48.90804z"/>
			</g>
		</g>
		<path class="st67" d="M1207.07275,116.09119c0-32.42823,26.28528-58.70571,58.70569-58.70571
			c32.42053,0,58.698,26.27748,58.698,58.70571c0,32.41273-26.27747,58.70564-58.698,58.70564
			C1233.35803,174.79683,1207.07275,148.50392,1207.07275,116.09119z M1284.02734,150.68771h-7.92224l6.99487,10.51741h7.91797
			L1284.02734,150.68771z M1247.27332,150.68771l-7.00452,10.51741h7.91809l6.96533-10.51741H1247.27332z M1288.9729,138.24603
			l-2.4541,4.90825c-0.82581,1.7827-2.95581,3.2104-5.02405,3.71974h-31.71045c-1.99878-0.51707-3.99756-1.98335-4.87732-3.71974
			l-2.47729-4.93141c-1.09583-2.17621-1.87537-5.94226-1.74414-8.37325l2.69336-43.07816
			c0.16211-3.18723,3.01746-6.22012,6.8916-6.22012h4.72131c-0.76233-1.90077-1.59778-3.99022-2.23132-5.57764
			c-2.44238,0.25495-4.05249,0.47692-4.09009,0.48209c-1.64795,0.23196-3.17944-0.92208-3.41016-2.57446
			c-0.23022-1.65319,0.92212-3.17934,2.57446-3.41048c0.38074-0.05328,9.41797-1.30157,17.80859-1.30157
			c8.39099,0,17.42773,1.24829,17.80847,1.30157c1.65247,0.23114,2.80481,1.75729,2.57446,3.41048
			c-0.21106,1.51058-1.50562,2.60397-2.98877,2.60397c-0.13928,0-0.27991-0.00984-0.42126-0.02951
			c-0.03772-0.00517-1.65161-0.22771-4.099-0.48302c-0.63477,1.58286-1.47241,3.67384-2.23511,5.57856h4.95801
			c3.70435-0.02316,6.93018,3.19497,6.93018,6.22012l2.54675,43.1553
			C1290.87134,132.35002,1289.99927,136.03119,1288.9729,138.24603z M1257.15588,74.57449
			c0.75281,1.88412,1.65967,4.15041,2.39404,5.97685h12.17554l0.33801-0.84412c0.66223-1.65407,1.41431-3.53168,2.0564-5.13361
			c-2.64905-0.20358-5.62354-0.36202-8.47656-0.36202C1262.7865,74.2116,1259.80774,74.37051,1257.15588,74.57449z
			 M1256.35889,138.12747c2.26843-0.64017,2.06189-3.63911-0.22681-4.20265c-1.95557-0.48152-5.16504-1.2718-7.52441-1.85274
			c-1.64673-0.40547-2.98926,0.30733-2.98926,2.0032v1.7374c0,1.33447,1.08179,2.41629,2.41626,2.41629h7.58423
			C1255.87708,138.22897,1256.12512,138.19345,1256.35889,138.12747z M1275.66797,138.22897h7.58423
			c1.33447,0,2.41626-1.08182,2.41626-2.41629v-1.7374c0-1.69588-1.34253-2.28572-2.98926-1.88025
			c-2.35925,0.58095-5.56885,1.37123-7.52441,1.85275c-2.2887,0.56354-2.49524,3.43951-0.22681,4.07968
			C1275.16187,138.19345,1275.40979,138.22897,1275.66797,138.22897z M1285.86279,125.05131l-2.08618-34.88195
			c-0.28613-2.16132-2.35596-2.73665-4.15417-2.97865c0,0-5.46375-0.85867-13.979-0.85867s-13.979,0.85867-13.979,0.85867
			c-1.79822,0.242-3.86804,0.81733-4.15417,2.97865l-2.08618,34.88195c-0.12354,1.85995,1.3988,2.73905,3.16406,3.38021
			c0,0,9.12634,3.35721,17.0553,3.35721s17.0553-3.35721,17.0553-3.35721
			C1284.46399,127.79036,1285.98633,126.91125,1285.86279,125.05131z M1252.31726,91.37012l-0.04224,0.00635l-0.04614,0.00636
			c-0.22656,0.03053-0.41077,0.06229-0.55896,0.09241l-0.2395,4.00333h28.42603l-0.23938-4.00333
			c-0.14832-0.03013-0.33252-0.06188-0.5592-0.09241l-0.04614-0.00615l-0.04602-0.00717
			c-0.0387-0.0061-3.42761-0.52134-8.91077-0.72512h-8.82312C1255.74854,90.84821,1252.35901,91.36356,1252.31726,91.37012z"/>
		<path class="st60" d="M1200.31702,131.20374c-1.12207-4.86134-1.73486-9.91529-1.73486-15.11256
			c0-5.18945,0.61084-10.23608,1.72974-15.09058h-23.38696c1.11694,4.85132,1.72705,9.89404,1.72705,15.07959
			c0,5.20117-0.61377,10.25879-1.7373,15.12354H1200.31702z"/>
		<path class="st60" d="M1418.47717,60.07775h-42.71094l40.92261,40.92285h-85.45142
			c1.11865,4.85449,1.72974,9.90112,1.72974,15.09058c0,5.19727-0.61279,10.25122-1.73486,15.11256h85.41626l-40.88232,40.87891
			h42.71216l56.01196-56.00001L1418.47717,60.07775z"/>
		<path class="st67" d="M66.74947,91.85157v10.58868c0,0,5.10025,0.36449,8.35227-0.17209
			c2.99797-0.49467,6.16935-2.06638,6.16935-2.06638v50.15231h15.72278V81.8064H84.78324c0,0-2.07178,5.48623-6.29941,7.60004
			C74.25621,91.52025,66.74947,91.85157,66.74947,91.85157z"/>
		<g class="st6">
			<path class="st1" d="M87.91817,63.98788c28.7207,0,52.08691,23.36841,52.08691,52.09229s-23.36621,52.09229-52.08691,52.09229
				c-28.7251,0-52.09473-23.36841-52.09473-52.09229S59.19307,63.98788,87.91817,63.98788 M87.91817,57.27596
				c-32.47632,0-58.80664,26.32178-58.80664,58.8042c0,32.46729,26.33032,58.80421,58.80664,58.80421
				c32.47607,0,58.79883-26.33691,58.79883-58.80421C146.717,83.59774,120.39424,57.27596,87.91817,57.27596L87.91817,57.27596z"/>
		</g>
		<path class="st67" d="M1052.75769,116.08028c0-32.42823,26.28516-58.70571,58.70569-58.70571
			c32.42041,0,58.69788,26.27748,58.69788,58.70571c0,32.41273-26.27747,58.70564-58.69788,58.70564
			C1079.04285,174.78592,1052.75769,148.49301,1052.75769,116.08028z M1114.1521,109.60321l1.30542-3.51466
			c0.40173-1.10461-0.10034-2.30964-1.20496-2.71132s-2.30969,0.10042-2.7113,1.20503l-1.30554,3.31383l0,0
			C1111.84241,107.89609,1113.14795,108.59902,1114.1521,109.60321z M1106.31946,118.23926l-0.30127,0.70293
			c-0.40173,1.10461,0.10034,2.30963,1.20496,2.71131c0.20093,0.10042,0.5022,0.10042,0.703,0.10042
			c0.80334,0,1.60669-0.5021,1.90796-1.30544l0.90381-2.20922c-0.10046,0-0.30127,0-0.40173,0H1106.31946z M1076.19373,121.25182
			l-11.14661,17.37251c-1.10449,1.70712-0.60242,4.01675,1.10461,5.12137c0.60254,0.40167,1.30554,0.60251,2.00842,0.60251
			c1.20508,0,2.41003-0.60251,3.11304-1.70712l10.84521-16.97082l-2.91211-1.40587
			C1077.90088,123.56146,1076.79626,122.55727,1076.19373,121.25182z M1126.70447,124.06356l-3.01257,7.93311l-7.93311,5.22179
			c-1.8075,1.20502-2.20923,3.61508-1.10461,5.3222c0.80334,1.10461,2.00842,1.70712,3.21338,1.70712
			c0.703,0,1.50635-0.20084,2.10889-0.60251l8.93726-5.92473c0.70288-0.40167,1.20508-1.1046,1.50635-1.80754l2.61084-6.72809
			l-5.42261-4.2176C1127.20654,124.66608,1126.90527,124.36481,1126.70447,124.06356z M1159.64197,111.00908
			c-0.703-1.6067-2.5105-2.41006-4.21765-1.70712l-4.5188,1.90797l-2.81177-4.51886
			c-0.80334-1.20503-1.8075-2.20922-3.11304-2.91216l-5.42261-2.81174c-1.60669-0.90377-3.51465-1.20502-5.2218-0.90377
			l-7.83264,1.30545c-0.90381,0.10042-1.70715,0.70293-2.20923,1.40587l-4.11719,6.62766
			c-0.90381,1.50629-0.50208,3.51467,1.00415,4.41844c1.50635,0.90378,3.51477,0.5021,4.41846-1.00419l3.41431-5.42263
			l3.71545-0.60252l-4.61926,11.44778c-0.60254,1.6067-0.20081,3.41425,1.20508,4.51886l9.84106,7.73227l1.60669,10.64441
			c0.30127,1.90797,1.90796,3.31384,3.81592,3.31384c0.20081,0,0.40161,0,0.60254,0
			c2.10876-0.30127,3.51465-2.30965,3.21338-4.31802l-1.80762-12.15071c-0.10034-1.00419-0.70288-1.80754-1.40576-2.41006
			l-5.82434-4.51886l4.71973-8.53562l3.01257,4.7197c0.60242,0.90378,1.60669,1.50629,2.7113,1.50629
			c0.40161,0,0.80334-0.10042,1.20496-0.20084l7.02942-2.91216C1159.5415,114.52375,1160.24451,112.61578,1159.64197,111.00908z
			 M1110.33618,110.00489h-6.42688l-4.21753-5.12137c-0.50208-0.60252-1.10461-1.10461-1.80762-1.50629l-5.82422-3.81593
			c-1.50635-1.00419-3.41431-1.50629-5.32227-1.30544l-7.7323,0.60252c-0.80334,0.10042-1.60669,0.40168-2.10876,1.10461
			l-5.32214,6.22598c-1.10461,1.30545-0.90381,3.21341,0.30127,4.31802c1.30542,1.10461,3.21338,0.90377,4.31799-0.30126
			l4.5188-5.22179l4.61926-0.40168l-6.72803,12.05029c-0.50208,0.90378-0.60254,1.90797-0.30127,2.91216
			s1.00415,1.80754,1.90796,2.20922l10.34314,4.92054l-5.52307,7.83268c-1.20496,1.6067-0.80334,3.91635,0.80347,5.12137
			c0.70288,0.50211,1.40576,0.70294,2.20911,0.70294c1.10461,0,2.30969-0.50211,3.01257-1.50629l8.4353-11.54819
			c0.60242-0.90378,0.90369-2.00838,0.60242-3.11299c-0.30115-1.10461-1.00415-2.00838-2.0083-2.41006l-7.23022-3.41425
			l5.42261-8.13394l3.91638,4.82011c0.60254,0.70293,1.50635,1.10461,2.41003,1.10461h7.93311
			c1.70715,0,3.11304-1.40587,3.11304-3.11299C1113.65002,111.31034,1112.04333,110.00489,1110.33618,110.00489z
			 M1100.19385,87.71185c3.60486,0,6.52722,2.92235,6.52722,6.52724s-2.92236,6.52724-6.52722,6.52724
			s-6.52722-2.92234-6.52722-6.52724S1096.58899,87.71185,1100.19385,87.71185z M1146.70789,87.83733
			c3.70166-0.32384,6.96497,2.41446,7.28882,6.11616c0.32385,3.70169-2.41443,6.96503-6.11621,7.28886
			c-3.70166,0.32384-6.96497-2.41446-7.28882-6.11616C1140.26782,91.42449,1143.0061,88.16116,1146.70789,87.83733z"/>
		<g class="st6">
			<path class="st1" d="M282.44855,150.34135h-46.28043V78.05467h18.02124v57.03061h28.25919V150.34135z"/>
			<path class="st1" d="M304.74878,90.23843h-15.66632V78.05467h15.66632V90.23843z M304.74878,150.34135h-15.66632V96.89413
				h15.66632V150.34135z"/>
			<path class="st1" d="M350.12735,96.89413h14.84583v52.11562c0,13.65173-8.84103,20.47816-26.51849,20.47816
				c-7.44067,0-13.38013-1.50233-17.81613-4.50473c-4.43826-3.00468-6.65567-7.33868-6.65567-13.00313v-1.6387h16.28055
				c0,2.3194,0.69901,4.35118,2.09937,6.09187c1.39807,1.74071,3.94095,2.61163,7.62747,2.61163
				c6.21106,0,9.31772-2.83394,9.31772-8.49838v-7.26993c-1.6387,1.09209-2.90268,1.87822-3.78851,2.35493
				c-0.88809,0.47786-2.25293,0.97292-4.09561,1.48515c-1.84271,0.51109-3.89053,0.76779-6.14346,0.76779
				c-1.91144,0-3.80569-0.22118-5.68277-0.6658c-1.87823-0.44348-3.82407-1.26283-5.83633-2.45807
				c-2.01346-1.19293-3.78851-2.71246-5.3241-4.5563c-1.53558-1.8427-2.79956-4.334-3.78851-7.47391
				c-0.99011-3.13876-1.48401-6.68892-1.48401-10.64819c0-7.91853,2.06384-14.24877,6.19385-18.99416
				c4.12888-4.7431,9.43579-7.11522,15.92188-7.11522c5.86957,0,10.81778,1.94468,14.84695,5.83633V96.89413z M349.30798,121.97903
				c0-1.56881-0.05154-2.93364-0.15353-4.09563c-0.10315-1.15971-0.3587-2.42139-0.76779-3.78852
				c-0.41025-1.36368-0.97293-2.47296-1.69028-3.3267c-0.71622-0.85374-1.72467-1.56995-3.01959-2.15096
				c-1.29837-0.5787-2.83395-0.86977-4.60788-0.86977c-2.11658,0-3.8905,0.52943-5.3241,1.58714
				c-1.43359,1.05886-2.42368,2.44088-2.96915,4.14606c-0.54776,1.70747-0.90646,3.15824-1.07605,4.35233
				c-0.17075,1.19523-0.25555,2.40536-0.25555,3.63496c0,4.50474,0.69904,8.03657,2.0994,10.59663
				c1.39804,2.56006,4.04407,3.84007,7.93457,3.84007c2.18417,0,3.99362-0.44348,5.42722-1.33159
				c1.43359-0.88582,2.43973-2.13261,3.02075-3.73695c0.5787-1.60318,0.95456-3.03677,1.12531-4.30076
				C349.22092,125.27364,349.30798,123.75525,349.30798,121.97903z"/>
			<path class="st1" d="M424.08139,150.34135h-15.66516v-28.87342c0-1.77509-0.06876-3.2419-0.20514-4.40275
				c-0.13751-1.16085-0.44461-2.45807-0.92133-3.89165c-0.47787-1.43359-1.29724-2.50849-2.45694-3.22471
				c-1.16199-0.71737-2.66318-1.07491-4.50589-1.07491c-3.13989,0-5.34128,1.11043-6.60413,3.3267
				c-1.26398,2.21971-1.89426,5.54755-1.89426,9.98354v28.1572h-15.76831V78.05467h15.76831v24.57265
				c4.30078-4.77633,9.38535-7.16679,15.25607-7.16679c5.46045,0,9.65808,1.62267,12.59402,4.86343
				c2.93478,3.24304,4.40274,7.73059,4.40274,13.46379V150.34135z"/>
			<path class="st1" d="M463.18356,107.84943h-10.44418v25.59715c0,1.70746,0.34149,2.86717,1.02448,3.4814
				c0.68182,0.61423,1.70517,0.92134,3.07114,0.92134l5.52924-0.10199v12.18491c-2.7308,0.54549-6.04031,0.81822-9.93198,0.81822
				c-4.84738,0-8.60037-1.07491-11.26242-3.22472s-3.99365-6.12627-3.99365-11.92822v-27.85007h-7.78101v-9.62486h7.78101V81.43294
				h15.5632v16.79164h10.44418V107.84943z"/>
			<path class="st1" d="M499.22263,78.05467h34.19864c2.52454,0,4.87952,0.13751,7.06482,0.4091
				c2.1842,0.27388,4.60785,0.9053,7.2699,1.89426c2.66205,0.9901,4.93109,2.30336,6.80927,3.94207
				c1.87592,1.63757,3.44586,3.92603,4.7099,6.85967c1.26166,2.93593,1.89423,6.3841,1.89423,10.34222
				c0,5.66559-1.3316,9.99958-3.99365,13.00312c-2.66205,3.00468-6.28094,5.32409-10.85327,6.96281l16.68964,28.87342h-19.86395
				l-14.43671-25.80227h-11.26239v25.80227h-18.22641V78.05467z M517.34589,91.4669v19.65881h14.94891
				c2.38818,0,4.38556-0.39191,5.98993-1.17689c1.60315-0.78384,2.71362-1.80832,3.32782-3.0723
				c0.61426-1.26169,1.02332-2.3194,1.22845-3.17314s0.30713-1.72351,0.30713-2.61163c0-6.41504-3.58337-9.62486-10.75134-9.62486
				H517.34589z"/>
			<path class="st1" d="M616.13153,150.34135h-15.46118v-4.81186c-0.13751,0.13751-0.80328,0.59819-1.99622,1.38202
				c-1.19525,0.78497-1.98138,1.28003-2.35498,1.48401c-0.37701,0.20512-1.12646,0.61423-2.25293,1.2296
				c-1.12646,0.61424-2.08331,1.02335-2.86719,1.22847c-0.78497,0.20398-1.80945,0.4091-3.07111,0.61423
				c-1.26398,0.20512-2.54401,0.30711-3.84009,0.30711c-5.66675,0-10.00073-1.63872-13.00311-4.91499
				c-3.0047-3.27628-4.50592-7.06479-4.50592-11.36555c0-3.27628,1.04053-6.297,3.1239-9.06104
				c2.08105-2.76404,4.79462-4.86342,8.13965-6.297c2.59332-1.09095,9.62488-2.72966,21.09241-4.91499v-2.96916
				c0-4.30076-2.01459-6.45056-6.04144-6.45056c-4.77863,0-7.54266,2.08334-8.29327,6.24544h-15.76831
				c0-5.52808,2.14984-9.67528,6.45056-12.43932c4.30078-2.76518,9.65814-4.1472,16.07544-4.1472
				c2.04785,0,4.02686,0.12032,5.93835,0.35869c1.91028,0.2395,3.94208,0.70017,6.09186,1.38201
				c2.15094,0.68299,4.0097,1.57111,5.58081,2.66205c1.56879,1.09209,2.86713,2.57725,3.8905,4.45432
				c1.02448,1.87821,1.53558,4.04406,1.53558,6.50098v31.2295C614.59485,146.07611,615.10706,148.84015,616.13153,150.34135z
				 M599.13477,124.74421l-10.13708,3.37827c-4.5047,1.43358-6.75769,3.65329-6.75769,6.65569
				c0,1.22845,0.51227,2.44087,1.53558,3.63496c1.02448,1.19522,2.52454,1.79112,4.50592,1.79112
				c3.07111,0,5.64722-1.24451,7.73059-3.73695c2.08105-2.49016,3.12268-5.61401,3.12268-9.36816V124.74421z"/>
			<path class="st1" d="M641.60376,90.23843H625.9386V78.05467h15.66516V90.23843z M641.60376,150.34135H625.9386V96.89413h15.66516
				V150.34135z"/>
			<path class="st1" d="M668.57263,150.34135h-15.66516V78.05467h15.66516V150.34135z"/>
			<path class="st1" d="M704.30457,78.05467h34.19867c2.52454,0,4.87946,0.13751,7.06476,0.4091
				c2.1842,0.27388,4.60791,0.9053,7.26996,1.89426c2.66205,0.9901,4.93103,2.30336,6.80927,3.94207
				c1.87592,1.63757,3.44586,3.92603,4.70984,6.85967c1.26172,2.93593,1.89423,6.3841,1.89423,10.34222
				c0,5.66559-1.33154,9.99958-3.99359,13.00312c-2.66205,3.00468-6.28101,5.32409-10.85333,6.96281l16.68964,28.87342h-19.86395
				l-14.43671-25.80227h-11.26239v25.80227h-18.22638V78.05467z M722.4278,91.4669v19.65881h14.94897
				c2.38812,0,4.38556-0.39191,5.98987-1.17689c1.60321-0.78384,2.71362-1.80832,3.32782-3.0723
				c0.61426-1.26169,1.02338-2.3194,1.22852-3.17314c0.20508-0.85374,0.30707-1.72351,0.30707-2.61163
				c0-6.41504-3.58337-9.62486-10.75128-9.62486H722.4278z"/>
			<path class="st1" d="M825.57495,126.89401h-38.19116v0.61423c0,3.61892,1.12653,6.63964,3.3783,9.06219
				c2.25293,2.42369,5.18774,3.63382,8.80664,3.63382c3.4115,0,6.27869-0.93739,8.6004-2.81561
				c2.3194-1.87592,3.95807-4.11166,4.91498-6.7061l11.87665,6.14345c-3.0047,5.05251-6.79321,8.89143-11.36554,11.5191
				c-4.57355,2.62653-9.65924,3.94208-15.2561,3.94208c-8.19128,0-14.74384-2.45807-19.65881-7.37305
				c-4.91382-4.91385-7.37189-11.67152-7.37189-20.27305c0-3.61663,0.47668-7.0648,1.43359-10.34107
				c0.95569-3.27628,2.42255-6.38181,4.40271-9.31774c1.97906-2.93364,4.82794-5.28857,8.54999-7.0648
				c3.71973-1.77393,8.07092-2.66205,13.05469-2.66205c4.77631,0,8.9751,0.9053,12.59399,2.71362
				c3.61664,1.80946,6.41504,4.23315,8.39526,7.26992c1.97906,3.03792,3.44586,6.29701,4.40277,9.77841
				c0.95569,3.48026,1.43353,7.20231,1.43353,11.16043V126.89401z M787.38379,117.06519h21.9118
				c-0.13751-3.0723-1.16199-5.59683-3.07233-7.57704c-1.91144-1.97906-4.43829-2.96916-7.57703-2.96916
				c-3.34503,0-5.93835,1.07491-7.78101,3.22471C789.02252,111.8935,787.86053,114.33553,787.38379,117.06519z"/>
			<path class="st1" d="M848.80573,150.34135h-15.66516V78.05467h15.66516V150.34135z"/>
			<path class="st1" d="M906.83099,150.34135h-15.46118v-4.81186c-0.13751,0.13751-0.80328,0.59819-1.99622,1.38202
				c-1.19525,0.78497-1.98138,1.28003-2.35492,1.48401c-0.37708,0.20512-1.12653,0.61423-2.25299,1.2296
				c-1.12646,0.61424-2.08331,1.02335-2.86713,1.22847c-0.78497,0.20398-1.80951,0.4091-3.07117,0.61423
				c-1.26398,0.20512-2.54401,0.30711-3.84009,0.30711c-5.66675,0-10.00073-1.63872-13.00311-4.91499
				c-3.0047-3.27628-4.50592-7.06479-4.50592-11.36555c0-3.27628,1.04053-6.297,3.1239-9.06104
				c2.08105-2.76404,4.79462-4.86342,8.13971-6.297c2.59326-1.09095,9.62482-2.72966,21.09235-4.91499v-2.96916
				c0-4.30076-2.01459-6.45056-6.04144-6.45056c-4.77863,0-7.54266,2.08334-8.29327,6.24544H859.7312
				c0-5.52808,2.14984-9.67528,6.45062-12.43932c4.30072-2.76518,9.65808-4.1472,16.07538-4.1472
				c2.04785,0,4.02692,0.12032,5.93835,0.35869c1.91028,0.2395,3.94208,0.70017,6.09186,1.38201
				c2.15094,0.68299,4.0097,1.57111,5.58081,2.66205c1.56879,1.09209,2.86719,2.57725,3.8905,4.45432
				c1.02448,1.87821,1.53558,4.04406,1.53558,6.50098v31.2295C905.29431,146.07611,905.80652,148.84015,906.83099,150.34135z
				 M889.83423,124.74421l-10.13708,3.37827c-4.5047,1.43358-6.75769,3.65329-6.75769,6.65569
				c0,1.22845,0.51227,2.44087,1.53558,3.63496c1.02448,1.19522,2.52454,1.79112,4.50592,1.79112
				c3.07111,0,5.64722-1.24451,7.73059-3.73695c2.08105-2.49016,3.12268-5.61401,3.12268-9.36816V124.74421z"/>
			<path class="st1" d="M943.64819,96.89413h16.79279l-18.84064,57.74798c-1.50232,4.50475-3.24304,7.84863-5.22211,10.03397
				c-1.56995,1.63756-3.1731,2.72966-4.81183,3.27628c-1.63757,0.54547-3.75531,0.81935-6.34857,0.81935h-11.36444v-12.59401
				h6.75769c3.54785,0,5.3241-1.29723,5.3241-3.89052c0-1.09323-0.37585-2.79842-1.12646-5.12012l-15.56317-50.27293h16.79163
				l8.80548,38.29314L943.64819,96.89413z"/>
		</g>
		<g class="st6">
			<path class="st1" d="M198.74527,100.98864c-0.02417,0-0.04736,0.01074-0.07153,0.01196h-45.29419
				c1.11719,4.85132,1.72729,9.89404,1.72729,15.07959c0,5.20117-0.61353,10.25879-1.7373,15.12354h45.37573v-0.01147
				c2.5022,0,4.53052-6.76148,4.53052-15.10181C203.27579,107.74987,201.24747,100.98864,198.74527,100.98864z"/>
		</g>
		<path class="st60" d="M996.05432,101.0006c2.43506,3.38135,3.17749,10.42407,3.17749,15.08984
			c0,4.67651-0.74585,11.74121-3.19434,15.11329h49.96704c-1.12378-4.86475-1.73755-9.92237-1.73755-15.12354
			c0-5.18555,0.61011-10.22827,1.72729-15.07959H996.05432z"/>
		<path class="st60" d="M992.69397,131.1803v0.00024c0.02344,0.00122,0.04639,0.01172,0.07007,0.01172
			c2.50195,0,4.53052-6.76124,4.53052-15.10181s-2.02856-15.10181-4.53052-15.10181c-2.5022,0-4.53052,6.76123-4.53052,15.10181
			c0,0.51855,0.00781,1.03125,0.02319,1.53638c0.0061,0.20093,0.01855,0.39478,0.0271,0.59326
			c0.0127,0.30005,0.02295,0.60278,0.04102,0.89722c0.01538,0.25195,0.0376,0.49512,0.05664,0.74219
			c0.01807,0.23218,0.03271,0.46826,0.05371,0.6958c0.02612,0.28198,0.05908,0.55322,0.09009,0.82788
			c0.02051,0.18237,0.03784,0.37012,0.0603,0.54907c0.03809,0.30151,0.08252,0.59082,0.12622,0.88208
			c0.02124,0.1416,0.03931,0.28882,0.06177,0.42798c0.05298,0.32739,0.1123,0.64136,0.17212,0.95361
			c0.01733,0.09155,0.03271,0.18848,0.05078,0.27881c0.06885,0.34277,0.14331,0.67114,0.22021,0.99316
			c0.01245,0.05176,0.02319,0.10767,0.03564,0.15894c0.08521,0.34741,0.17554,0.67993,0.26953,1.00073
			c0.0061,0.02002,0.01123,0.04248,0.01709,0.0625C990.34534,129.41174,991.45984,131.11731,992.69397,131.1803z"/>
	</g>
	
		<use xlink:href="#WhiteLogo"  width="1686.6687" height="140.1842" id="XMLID_00000077283730358255506910000008604214656134741667_" x="-838.33435" y="-70.06598" transform="matrix(1 0 0 -1 884.33289 116.1036)" style="overflow:visible;"/>
</g>
<g id="White_baton_bigger">
</g>
<g id="Hori_source">
</g>
</svg>
