<?xml version="1.0" encoding="UTF-8"?>
<svg id="Icons_Aki" data-name="Icons Aki" xmlns="http://www.w3.org/2000/svg" xmlns:xlink="http://www.w3.org/1999/xlink" version="1.1" viewBox="0 0 866.29039 72.0005">
  <defs>
    <style>
      .cls-1 {
        fill-rule: evenodd;
      }

      .cls-1, .cls-2 {
        fill: #fff;
        stroke-width: 0px;
      }
    </style>
    <symbol id="_1_circle" data-name="1 circle" viewBox="0 0 140.17676 140.17773">
      <g>
        <path class="cls-1" d="M44.86214,41.21048v12.62076s6.07903.43444,9.95515-.20511c3.57331-.5896,7.35331-2.46295,7.35331-2.46295v59.77702h18.74013V29.23754h-14.55396s-2.46938,6.53909-7.50832,9.05856c-5.03894,2.51947-13.9863,2.91438-13.9863,2.91438Z"/>
        <g id="Line_1" data-name="Line 1">
          <path class="cls-2" d="M70.09277,8c34.2334,0,62.08398,27.85254,62.08398,62.08887s-27.85059,62.08887-62.08398,62.08887c-34.23828,0-62.09277-27.85254-62.09277-62.08887S35.85449,8,70.09277,8M70.09277,0C31.38379,0,0,31.37305,0,70.08887c0,38.69727,31.38379,70.08887,70.09277,70.08887s70.08398-31.3916,70.08398-70.08887C140.17676,31.37305,108.80225,0,70.09277,0h0Z"/>
        </g>
      </g>
    </symbol>
    <symbol id="LightRailKnockout" viewBox="0 0 72 72">
      <path class="cls-1" d="M0,36.00002C0,16.1141,16.11989,0,36.00237,0s35.99763,16.1141,35.99763,36.00002c0,19.87642-16.11516,35.99998-35.99763,35.99998S0,55.87644,0,36.00002ZM47.19312,57.2156h-4.85817l4.28947,6.44957h4.85555l-4.28684-6.44957ZM24.65442,57.2156l-4.29532,6.44957h4.85555l4.27137-6.44957h-4.8316ZM50.22586,49.586l-1.50494,3.00988c-.50636,1.0932-1.81255,1.9687-3.08085,2.28105h-19.44578c-1.22574-.31709-2.45144-1.21625-2.99095-2.28105l-1.51914-3.02408c-.67201-1.33452-1.15-3.64397-1.06955-5.13471l1.65165-26.41676c.09939-1.9545,1.8504-3.81436,4.22611-3.81436h2.89523c-.46747-1.16561-.97977-2.44692-1.36826-3.42037-1.49775.15635-2.48512.29246-2.50821.29564-1.01052.14224-1.94967-.56545-2.09116-1.57873-.14124-1.01379.56545-1.94967,1.57874-2.09141.23347-.03267,5.77538-.79816,10.92072-.79816s10.68725.76549,10.92072.79816c1.01329.14174,1.71997,1.07762,1.57874,2.09141-.12943.92633-.92332,1.59683-1.83281,1.59683-.08545,0-.17165-.00603-.25835-.01809-.02312-.00317-1.01281-.13963-2.51361-.2962-.38925.97066-.9029,2.2529-1.37062,3.42093h3.04039c2.2716-.0142,4.24976,1.95925,4.24976,3.81436l1.56174,26.46407c.09465,1.486-.44014,3.7434-1.06955,5.1016ZM30.71474,10.5408c.46163,1.1554,1.01775,2.54515,1.46806,3.66518h7.46638l.2073-.51764c.40615-1.01432.86731-2.16573,1.26105-3.14807-1.62447-.12484-3.44852-.222-5.19808-.222-1.75189,0-3.57854.09745-5.20471.22254ZM30.22596,49.5133c1.39107-.39256,1.26441-2.2316-.13907-2.57718-1.19922-.29528-3.16738-.77991-4.61419-1.13616-1.00981-.24865-1.83311.18846-1.83311,1.22843v1.06542c0,.81834.6634,1.48174,1.48174,1.48174h4.65087c.15836,0,.3104-.02179.45376-.06224ZM42.0669,49.57554h4.65087c.81834,0,1.48174-.6634,1.48174-1.48174v-1.06542c0-1.03997-.82331-1.40167-1.83311-1.15302-1.44681.35625-3.41497.84087-4.61419,1.13616-1.40348.34558-1.53015,2.10921-.13907,2.50178.14336.04046.2954.06224.45376.06224ZM48.31866,41.49462l-1.27933-21.39061c-.17548-1.32538-1.44475-1.67819-2.54744-1.82659,0,0-3.35054-.52656-8.57234-.52656s-8.57234.52656-8.57234.52656c-1.10272.1484-2.372.50121-2.54748,1.82659l-1.27933,21.39061c-.07574,1.14057.85782,1.67967,1.94031,2.07284,0,0,5.5966,2.05874,10.45884,2.05874s10.45881-2.05874,10.45881-2.05874c1.08249-.39318,2.01605-.93227,1.94031-2.07284ZM27.74751,20.84035l-.02589.0039-.02827.0039c-.13897.01872-.25194.0382-.34279.05667l-.14686,2.45496h17.43171l-.14683-2.45496c-.09097-.01847-.20394-.03795-.34291-.05667l-.02827-.00377-.02827-.0044c-.02369-.00374-2.10187-.3197-5.46432-.44466h-5.41063c-3.36251.125-5.44107.44102-5.46667.44504Z"/>
    </symbol>
    <symbol id="RelayKnockout" viewBox="0 0 72 72">
      <path class="cls-1" d="M36.00269,0C16.12012,0,0,16.11401,0,36c0,19.87646,16.12012,36,36.00269,36s35.99731-16.12354,35.99731-36C72,16.11401,55.88476,0,36.00269,0ZM57.59023,18.83373c2.19847-.19231,4.13641,1.43394,4.32873,3.63228.19232,2.19822-1.43391,4.13627-3.63238,4.32858s-4.13641-1.43382-4.32873-3.63216,1.43391-4.13639,3.63238-4.3287ZM36.35522,28.10082c.24609-.67623.98389-.98358,1.65967-.73775.67627.24596.98389.98358.73779,1.65981l-1.104,3.01227c-.61475-.61471-1.41406-1.0451-2.39746-1.0451l1.104-2.88923ZM29.10264,18.63445c2.20663,0,3.99576,1.7889,3.99576,3.99576,0,2.20674-1.78913,3.99563-3.99576,3.99563-2.20711,0-3.99624-1.7889-3.99624-3.99563,0-2.20686,1.78913-3.99576,3.99624-3.99576ZM11.39917,52.2589c-.43066.67611-1.16846,1.04498-1.90576,1.04498-.43066,0-.86084-.12292-1.22949-.36887-1.04541-.67611-1.35254-2.08996-.67627-3.13494l6.82373-10.63436c.36865.79915,1.04492,1.41385,1.84424,1.844l1.78271.86067-6.63916,10.38853ZM34.58716,39.49832c-.18457.49167-.67627.79902-1.16797.79902-.12305,0-.30713,0-.43018-.0614-.67627-.24596-.98389-.98346-.73779-1.65969l.60254-1.25468h2.70459l-.97119,2.17675ZM35.4353,36.03076h-4.85645c-.55322,0-1.10645-.24596-1.4751-.67623l-2.39746-2.95063-3.31982,4.97907,4.42627,2.08996c.61475.24596,1.04492.79927,1.22949,1.47537.18408.67611,0,1.35233-.36914,1.90552l-5.16357,7.06915c-.43018.61471-1.16797.92206-1.84424.92206-.4917,0-.92236-.12292-1.35254-.43027-.9834-.73763-1.22949-2.15148-.4917-3.13494l3.38086-4.79475-6.33154-3.01215c-.55371-.24583-.98389-.7375-1.16797-1.35221-.18457-.61471-.12305-1.22942.18408-1.78261l4.11865-7.3765-2.82764.24583-2.76611,3.19646c-.67627.73763-1.84424.86067-2.64355.18444-.73779-.67623-.86084-1.84413-.18457-2.64315l3.2583-3.81129c.30713-.43027.79932-.61471,1.29102-.67623l4.7334-.36875c1.16797-.12292,2.33594.18444,3.2583.79915l3.56543,2.33579c.43018.24596.79932.55331,1.10645.92206l2.58203,3.13506h3.93408c1.04541,0,2.02881.79902,2.02881,1.84413,0,1.04498-.86035,1.90565-1.90576,1.90565ZM47.60718,48.14037c-.18408.43027-.4917.86054-.92188,1.10638l-5.47119,3.62685c-.36914.24583-.86084.36875-1.29102.36875-.73779,0-1.47559-.36875-1.96729-1.04486-.67627-1.0451-.43018-2.52035.67627-3.2581l4.85645-3.19634,1.84424-4.85615c.12305.18431.30713.36875.55322.55319l3.31982,2.58175-1.59863,4.11852ZM64.46548,35.04724l-4.30322,1.78261c-.24609.06152-.4917.12292-.73779.12292-.67627,0-1.29102-.36875-1.65967-.92206l-1.63591-2.52029-3.05053,5.53238,3.56543,2.76619c.43066.36875.79932.86054.86084,1.47525l1.10645,7.4379c.18457,1.22942-.67627,2.45883-1.96729,2.64327h-.36865c-1.16797,0-2.15137-.86067-2.33594-2.02856l-.98389-6.51584-6.02441-4.73335c-.86035-.67611-1.10645-1.78261-.7373-2.76607l3.01221-7.42525-2.27441.36875-2.30229,3.65597c-.55322.92206-1.5072,1.13105-2.42956.57774-.92188-.55319-1.14978-1.51203-.59607-2.43409l2.52051-4.057c.30713-.43027.79883-.79915,1.35205-.86067l4.52861-.9516c1.04541-.18444,2.21338,0,3.19678.55319l3.31982,1.72121c.79883.43027,1.41357,1.04498,1.90576,1.78261l1.72119,2.76619,2.76611-1.1679c1.04492-.43027,1.9849.02717,2.36684.90217s.19754,1.7344-.81566,2.29435Z"/>
    </symbol>
    <symbol id="lrr_body_simple" data-name="lrr body simple" viewBox="0 0 790.22314 72.00004">
      <g>
        <g>
          <path class="cls-2" d="M75.15995,56.78816h-27.85786V13.27527h10.84702v34.32961h17.01085v9.18329Z"/>
          <path class="cls-2" d="M88.27508,20.60926h-9.43007v-7.33399h9.43007v7.33399ZM88.27508,56.78816h-9.43007V24.61582h9.43007v32.17234Z"/>
          <path class="cls-2" d="M115.28228,24.61582h8.93703v31.37133c0,8.21726-5.32169,12.32664-15.96306,12.32664-4.47905,0-8.05426-.90433-10.72463-2.712-2.67138-1.80867-4.00556-4.41735-4.00556-7.82754v-.98609h9.79923c0,1.39638.42082,2.61921,1.26346,3.66699.84164,1.04778,2.37294,1.57193,4.5919,1.57193,3.73822,0,5.60859-1.70585,5.60859-5.11553v-4.37622c-.98609.65806-1.74698,1.13054-2.28065,1.41794-.53418.2879-1.35575.58533-2.46523.8933-1.10898.30847-2.34184.46245-3.6981.46245-1.15061,0-2.29119-.13292-3.42073-.40076-1.13055-.26684-2.30122-.75988-3.51302-1.47914-1.2123-.71825-2.28015-1.63312-3.20505-2.7426-.9239-1.10948-1.68529-2.60868-2.28015-4.4991-.59587-1.88942-.8938-4.02662-.8938-6.41009,0-4.76594,1.2424-8.57638,3.72869-11.43284,2.4858-2.85545,5.67981-4.28343,9.58406-4.28343,3.53358,0,6.51242,1.17067,8.93703,3.51301v-2.95827ZM114.78923,39.71565c0-.94446-.0306-1.76604-.09279-2.46523-.06119-.69819-.21568-1.45807-.46195-2.28065-.24627-.82107-.58534-1.48867-1.01669-2.00278-.43135-.51311-1.03826-.94496-1.8187-1.29456-.78045-.34859-1.70535-.52364-2.7732-.52364-1.274,0-2.34184.3185-3.20505.9555-.86271.6375-1.45908,1.4691-1.7871,2.49582-.32953,1.02772-.54521,1.90096-.64703,2.61971-.10332.71925-.15448,1.44804-.15448,2.18786,0,2.712.42082,4.83817,1.26346,6.379.84214,1.54083,2.43464,2.31124,4.77648,2.31124,1.31462,0,2.40404-.26684,3.26674-.80151.86321-.53317,1.46861-1.28352,1.8182-2.24955.34859-.96452.5748-1.82773.67813-2.58861.10182-.75938.15398-1.67375.15398-2.7426Z"/>
          <path class="cls-2" d="M159.49091,56.78816h-9.42957v-17.38048c0-1.06785-.04113-1.95112-.12339-2.65031-.08276-.69819-.26784-1.47914-.55474-2.34184-.2879-.86321-.78095-1.51023-1.47914-1.94159-.69919-.43135-1.60253-.64703-2.712-.64703-1.88993,0-3.21508.66809-3.97547,2.00278-.76038,1.33569-1.13957,3.33897-1.13957,6.00934v16.94913h-9.49177V13.27527h9.49177v14.79187c2.58812-2.87551,5.64871-4.31452,9.1828-4.31452,3.28731,0,5.81423.97656,7.58077,2.92768,1.76654,1.95212,2.65031,4.65359,2.65031,8.1049v22.00297Z"/>
          <path class="cls-2" d="M182.71976,31.21049h-6.28621v15.4083c0,1.02722.20514,1.72541.61643,2.09557.41029.36966,1.02622.55474,1.8488.55474l3.32844-.06169v7.33399c-1.64416.32853-3.6364.49355-5.97875.49355-2.91815,0-5.17724-.64753-6.77926-1.94159-1.60303-1.29456-2.40404-3.68756-2.40404-7.18051v-16.76405h-4.68419v-5.79366h4.68419v-10.04599h9.36838v10.10768h6.28621v5.79366Z"/>
          <path class="cls-2" d="M205.03023,13.27527h20.58556c1.51926,0,2.93721.08276,4.25284.24627,1.31412.16502,2.7732.54521,4.37572,1.14058,1.60253.59587,2.96831,1.38635,4.09885,2.37244,1.12954.98609,2.07451,2.36341,2.83489,4.12944.75988,1.76754,1.14058,3.84254,1.14058,6.22501,0,3.41119-.80151,6.01987-2.40404,7.82754-1.60253,1.80867-3.78086,3.20505-6.53299,4.19114l10.046,17.38048h-11.957l-8.69025-15.53168h-6.77926v15.53168h-10.9709V13.27527ZM215.93894,21.34908v11.83359h8.99872c1.43801,0,2.63978-.23574,3.60581-.70872.96503-.47198,1.63312-1.08841,2.00328-1.8493.36916-.75938.61593-1.39638.73932-1.91049.12339-.51311.18458-1.03725.18458-1.57143,0-3.8616-2.15676-5.79366-6.47129-5.79366h-9.06041Z"/>
          <path class="cls-2" d="M275.09445,56.78816h-9.30669v-2.89658c-.08276.08276-.48352.36013-1.20177.83211-.71976.47248-1.19224.77041-1.41795.8933-.22571.12339-.67763.37016-1.35575.73982-.67763.36966-1.25343.61643-1.72591.73932-.47248.12339-1.08891.24677-1.8488.37016-.76038.12289-1.5308.18458-2.31125.18458-3.4107,0-6.01988-.98609-7.82755-2.95827-1.80867-1.97218-2.7115-4.25283-2.7115-6.84144,0-1.97218.62596-3.79038,1.8799-5.4541,1.25293-1.66422,2.88605-2.92768,4.89936-3.79088,1.5614-.65656,5.79367-1.64265,12.69682-2.95827v-1.7871c0-2.58861-1.2128-3.88317-3.6364-3.88317-2.87652,0-4.54074,1.25393-4.99266,3.75979h-9.49126c0-3.32843,1.29456-5.82426,3.88268-7.48847,2.58912-1.66422,5.81423-2.49632,9.67635-2.49632,1.23287,0,2.4246.07223,3.57521.21568,1.14961.14445,2.37244.42182,3.667.83211,1.29456.41129,2.41307.94597,3.35903,1.60252.94496.65806,1.72541,1.55136,2.34235,2.6809.61593,1.13105.9239,2.43463.9239,3.91377v18.79842c0,2.4246.30847,4.08882.9249,4.99215ZM264.86336,41.37986l-6.10214,2.03388c-2.7115.8627-4.06776,2.19839-4.06776,4.00606,0,.73982.30847,1.46961.9249,2.18786.61593.71976,1.51977,1.07888,2.7115,1.07888,1.8493,0,3.39966-.74935,4.65359-2.24955,1.25293-1.4997,1.8799-3.37959,1.8799-5.63968v-1.41744Z"/>
          <path class="cls-2" d="M290.12007,20.60926h-9.43007v-7.33399h9.43007v7.33399ZM290.12007,56.78816h-9.43007V24.61582h9.43007v32.17234Z"/>
          <path class="cls-2" d="M306.04551,56.78816h-9.42957V13.27527h9.42957v43.51289Z"/>
          <path class="cls-2" d="M329.40376,13.27527h20.58556c1.51977,0,2.93721.08276,4.25234.24627,1.31512.16502,2.7737.54521,4.37622,1.14058,1.60253.59587,2.96781,1.38635,4.09835,2.37244,1.13004.98609,2.07451,2.36341,2.83539,4.12944.75988,1.76754,1.14008,3.84254,1.14008,6.22501,0,3.41119-.80101,6.01987-2.40354,7.82754-1.60253,1.80867-3.78086,3.20505-6.53299,4.19114l10.046,17.38048h-11.9565l-8.69025-15.53168h-6.78026v15.53168h-10.9704V13.27527ZM340.31297,21.34908v11.83359h8.99822c1.43801,0,2.63978-.23574,3.60531-.70872.96503-.47198,1.63362-1.08841,2.00328-1.8493.37016-.75938.61643-1.39638.73982-1.91049.12289-.51311.18508-1.03725.18508-1.57143,0-3.8616-2.15777-5.79366-6.4718-5.79366h-9.05991Z"/>
          <path class="cls-2" d="M402.09372,42.67392h-22.98909v.37016c0,2.17833.67763,3.99653,2.03338,5.4546,1.35625,1.45857,3.12229,2.18786,5.30062,2.18786,2.05444,0,3.77985-.56427,5.17724-1.69481,1.39638-1.12954,2.38247-2.47526,2.95828-4.03715l7.14942,3.69809c-1.80867,3.04103-4.08882,5.35228-6.84145,6.93373-2.75263,1.58096-5.81423,2.37294-9.1828,2.37294-4.93096,0-8.87533-1.47914-11.83411-4.43791-2.95828-2.95827-4.43742-7.02602-4.43742-12.20325,0-2.17732.2874-4.25283.86321-6.22501.5748-1.97218,1.45757-3.84154,2.65031-5.60858,1.19073-1.76604,2.90611-3.18348,5.14614-4.25283,2.23902-1.06785,4.85824-1.60202,7.85814-1.60202,2.87552,0,5.40244.54471,7.58077,1.63312,2.17733,1.08891,3.86161,2.54799,5.05435,4.37572,1.19073,1.82873,2.074,3.79038,2.64981,5.88595.5753,2.09557.86321,4.33559.86321,6.71806v.43135ZM379.10462,36.75737h13.18936c-.08326-1.8488-.69919-3.36856-1.8493-4.5608-1.15061-1.19123-2.67138-1.7876-4.5608-1.7876-2.01331,0-3.57471.64753-4.68419,1.94159-1.10898,1.29456-1.80817,2.76366-2.09507,4.40681Z"/>
          <path class="cls-2" d="M415.7696,56.78816h-9.43007V13.27527h9.43007v43.51289Z"/>
          <path class="cls-2" d="M450.38817,56.78816h-9.30618v-2.89658c-.08326.08276-.48352.36013-1.20177.83211-.71976.47248-1.19274.77041-1.41795.8933-.22621.12339-.67763.37016-1.35575.73982s-1.25393.61643-1.72591.73932c-.47298.12339-1.08891.24677-1.8493.37016-.76038.12289-1.5308.18458-2.31125.18458-3.4107,0-6.01938-.98609-7.82705-2.95827-1.80867-1.97218-2.712-4.25283-2.712-6.84144,0-1.97218.62596-3.79038,1.8799-5.4541,1.25293-1.66422,2.88605-2.92768,4.89987-3.79088,1.5614-.65656,5.79367-1.64265,12.69632-2.95827v-1.7871c0-2.58861-1.2123-3.88317-3.6364-3.88317-2.87602,0-4.54024,1.25393-4.99216,3.75979h-9.49126c0-3.32843,1.29406-5.82426,3.88268-7.48847s5.81373-2.49632,9.67635-2.49632c1.23287,0,2.4241.07223,3.57471.21568,1.14961.14445,2.37294.42182,3.6675.83211,1.29406.41129,2.41307.94597,3.35853,1.60252.94496.65806,1.72591,1.55136,2.34235,2.6809.61643,1.13105.9244,2.43463.9244,3.91377v18.79842c0,2.4246.30847,4.08882.9244,4.99215ZM440.15708,41.37986l-6.10163,2.03388c-2.712.8627-4.06776,2.19839-4.06776,4.00606,0,.73982.30847,1.46961.9244,2.18786.61643.71976,1.51977,1.07888,2.712,1.07888,1.8493,0,3.39916-.74935,4.65309-2.24955,1.25293-1.4997,1.8799-3.37959,1.8799-5.63968v-1.41744Z"/>
          <path class="cls-2" d="M472.24321,24.61582h10.1077l-11.34056,34.76096c-.90434,2.712-1.95212,4.72431-3.14336,6.03993-.94546.98609-1.91049,1.64315-2.89658,1.97218-.98609.32853-2.26009.49305-3.82148.49305h-6.84145v-7.58076h4.06776c2.1362,0,3.20505-.78095,3.20505-2.34184,0-.65806-.22621-1.68428-.67763-3.08166l-9.36838-30.26186h10.1082l5.30012,23.05075,5.30062-23.05075Z"/>
        </g>
        <use width="72" height="72" transform="translate(628.46538)" xlink:href="#LightRailKnockout"/>
        <use width="72" height="72" transform="translate(533.99699 .00004)" xlink:href="#RelayKnockout"/>
        <g>
          <path class="cls-2" d="M755.93311,1.71661h-26.14675l25.05156,25.05187h-50.29598c.6839,2.96987,1.05732,6.05699,1.05732,9.23153,0,3.18411-.37568,6.28034-1.06359,9.25843h50.27767s-25.02698,25.02494-25.02698,25.02494h26.1475l34.28928-34.28186L755.93311,1.71661Z"/>
          <path class="cls-2" d="M624.38909,26.76848h-14.3154c.6839,2.96987,1.05732,6.05699,1.05732,9.23153,0,3.18411-.37568,6.28034-1.06359,9.25843h14.32793c-.68816-2.97808-1.06384-6.07432-1.06384-9.25843,0-3.17454.37342-6.26166,1.05757-9.23153Z"/>
          <path class="cls-2" d="M497.68599,26.76848l-5.84132,18.48996h38.08243c-.68816-2.97808-1.06384-6.07432-1.06384-9.25843,0-3.17454.37342-6.26166,1.05757-9.23153h-32.23484Z"/>
          <path class="cls-2" d="M31.2668,45.25844v-18.48996H.00627c.6839,2.96987,1.05732,6.05699,1.05732,9.23153,0,3.18411-.37568,6.28034-1.06359,9.25843h31.2668Z"/>
        </g>
      </g>
    </symbol>
  </defs>
  <use width="140.17676" height="140.17773" transform="scale(.51364)" xlink:href="#_1_circle"/>
  <use width="790.22314" height="72.00004" transform="translate(76.06725 .00023)" xlink:href="#lrr_body_simple"/>
</svg>