<?xml version="1.0" encoding="UTF-8"?>
<svg id="Layer_1" data-name="Layer 1" xmlns="http://www.w3.org/2000/svg" width="788.5976" height="818.2198085" xmlns:xlink="http://www.w3.org/1999/xlink" viewBox="0 0 788.5976 818.2198085">
  <defs>
    <style>
      .cls-1 {
        letter-spacing: -.0014134em;
      }

      .cls-2 {
        letter-spacing: .0008077em;
      }

      .cls-3 {
        letter-spacing: -.0022211em;
      }

      .cls-4, .cls-5, .cls-6, .cls-7, .cls-8, .cls-9, .cls-10, .cls-11, .cls-12, .cls-13, .cls-14 {
        fill: none;
      }

      .cls-4, .cls-5, .cls-9, .cls-10, .cls-12 {
        stroke: #e74c3c;
      }

      .cls-4, .cls-9, .cls-12 {
        stroke-linejoin: round;
      }

      .cls-4, .cls-9, .cls-12, .cls-13 {
        stroke-linecap: round;
      }

      .cls-4, .cls-13 {
        stroke-width: 2.0000005px;
      }

      .cls-15 {
        letter-spacing: -.0059205em;
      }

      .cls-5, .cls-7, .cls-8, .cls-10, .cls-11, .cls-13, .cls-14 {
        stroke-miterlimit: 10;
      }

      .cls-5, .cls-11, .cls-12 {
        stroke-width: 1.4000003px;
      }

      .cls-16, .cls-6, .cls-17 {
        stroke-width: 0px;
      }

      .cls-16, .cls-18, .cls-19 {
        fill: #00bdff;
      }

      .cls-20 {
        letter-spacing: .0125734em;
      }

      .cls-21 {
        letter-spacing: .0112916em;
      }

      .cls-22 {
        letter-spacing: -.0209963em;
      }

      .cls-23 {
        clip-path: url(#clippath);
      }

      .cls-24 {
        font-size: 16.0000095px;
      }

      .cls-24, .cls-25, .cls-18 {
        font-family: HelveticaNeue, 'Helvetica Neue';
      }

      .cls-24, .cls-17 {
        fill: #7f7f7f;
      }

      .cls-7 {
        stroke-dasharray: 0 0 3.9451926 3.9451926;
      }

      .cls-7, .cls-8, .cls-9, .cls-10, .cls-14 {
        stroke-width: 1.0000002px;
      }

      .cls-7, .cls-8, .cls-14 {
        stroke: #cecece;
      }

      .cls-26 {
        letter-spacing: -.0268557em;
      }

      .cls-27 {
        clip-path: url(#clippath-1);
      }

      .cls-25, .cls-28 {
        fill: #e74c3c;
      }

      .cls-25, .cls-18 {
        font-size: 14.5095196px;
      }

      .cls-29 {
        letter-spacing: .0046387em;
      }

      .cls-30 {
        letter-spacing: -.1229998em;
      }

      .cls-31 {
        letter-spacing: -.0572515em;
      }

      .cls-11, .cls-13 {
        stroke: #00bdff;
      }

      .cls-28, .cls-19 {
        font-family: Helvetica-Bold, Helvetica;
        font-size: 24.0000095px;
        font-weight: 700;
      }

      .cls-32 {
        letter-spacing: -.0069997em;
      }

      .cls-33 {
        opacity: .2;
      }

      .cls-34 {
        letter-spacing: -.014235em;
      }

      .cls-35 {
        letter-spacing: -.003357em;
      }

      .cls-36 {
        letter-spacing: -.0888089em;
      }

      .cls-37 {
        letter-spacing: .000061em;
      }

      .cls-38 {
        letter-spacing: -.0083619em;
      }

      .cls-39 {
        letter-spacing: -.0148071em;
      }

      .cls-14 {
        stroke-dasharray: 0 0 4.1102047 4.1102047;
      }
    </style>
    <clipPath id="clippath">
      <rect class="cls-6" x="103.2948087" y="561.9410897" width="123.9427924" height="13.8498949"/>
    </clipPath>
    <clipPath id="clippath-1">
      <rect class="cls-6" x="103.2948087" y="216.5694975" width="123.9427924" height="13.8498949"/>
    </clipPath>
  </defs>
  <g>
    <line class="cls-8" x1="225.6541555" y1="505.9725952" x2="225.6541555" y2="507.9725952"/>
    <line class="cls-14" x1="225.6541555" y1="512.0828247" x2="225.6541555" y2="641.5542603"/>
    <line class="cls-8" x1="225.6541555" y1="643.6093597" x2="225.6541555" y2="645.6093597"/>
  </g>
  <g>
    <line class="cls-8" x1="225.5258596" y1="83.539856" x2="225.5258596" y2="85.539856"/>
    <line class="cls-7" x1="225.5258596" y1="89.4850464" x2="225.5258596" y2="371.5663147"/>
    <line class="cls-8" x1="225.5258596" y1="373.5389099" x2="225.5258596" y2="375.5389099"/>
  </g>
  <g class="cls-33">
    <g id="AG-DETAILS">
      <g id="POLYLINE">
        <path class="cls-9" d="M563.0882962,78.659705c3.3851236.0296269,6.7581252.1377121,10.1366185.3434515,3.230953.1964135,6.4547399.5469892,9.6631901.9672497,3.1804557.416418,6.3532096.9299461,9.4975002,1.5658161,3.2298145.6534252,6.4459665,1.374886,9.6286323,2.2324097,3.3071677.8909848,6.5819876,1.8878615,9.8261342,2.9856908,3.114086,1.0539372,6.1798849,2.2406389,9.2192966,3.4920863,2.9483961,1.2135912,5.8550684,2.5401984,8.712382,3.9551339,2.9099539,1.4418249,5.7969363,2.9450887,8.6010067,4.584968,2.9390869,1.7188816,5.8418748,3.4926304,8.6706581,5.3887296,2.7904081,1.8703064,5.5017216,3.8470487,8.1735884,5.8819482,2.5670549,1.9553446,5.0474473,4.029197,7.4719178,6.1573725,2.4030393,2.1089627,4.7517639,4.2876103,7.0022399,6.5578761,2.3410228,2.36134,4.6310795,4.7704147,6.8223518,7.2727485,2.2565705,2.5769579,4.4171024,5.2323656,6.5046344,7.9470272,1.9833228,2.5791429,3.8541988,5.2438933,5.6641299,7.9470189,1.7830751,2.6625403,3.4756034,5.3898262,5.0699501,8.1692335,1.6228769,2.829871,3.1881576,5.6965099,4.6189575,8.6289827,1.4994467,3.0740191,2.9220759,6.1820602,4.2266997,9.344416,1.2728118,3.0838975,2.4173044,6.2155297,3.4975704,9.3712887,1.036399,3.027942,1.943809,6.103602,2.7673026,9.1957204.829521,3.1135161,1.5828274,6.2533859,2.194554,9.4173824.6353009,3.2863385,1.2020889,6.5825555,1.634932,9.9023802.4405449,3.3741227.7433944,6.7592288.9788027,10.1531084.2244248,3.240814.2907945,6.4947881.2907945,9.7421654,0,3.2051512-.1042092,6.4141365-.3264238,9.6116026-.2271037,3.26988-.5233899,6.5364784-.963399,9.7855133-.4603018,3.3988188-1.0166421,6.7811623-1.6903852,10.1443183-.6484944,3.2353223-1.4297283,6.4399209-2.2790732,9.6275085-.8262394,3.1019968-1.7786549,6.1738226-2.8183356,9.210538-1.046244,3.0570248-2.1649521,6.0959336-3.420753,9.0733952-1.3095797,3.1047427-2.6806402,6.1798501-4.1768052,9.1995713-1.5021926,3.0317762-3.1244668,5.9966135-4.8076859,8.9307438-1.6102861,2.8079208-3.3554548,5.5412342-5.1560767,8.2295757-1.7847494,2.6652694-3.6534153,5.2801086-5.6191244,7.815351-2.0195549,2.6043915-4.0934245,5.1659875-6.2747849,7.6370368-2.2664154,2.5676236-4.6135327,5.0601041-7.0374004,7.4795846-2.3267576,2.3223704-4.7512281,4.5432776-7.2217087,6.7109417-2.396476,2.103471-4.8751941,4.1191745-7.4115756,6.0509281-2.5835301,1.9679522-5.2120657,3.887115-7.9267279,5.6718305-2.8447227,1.8703064-5.7228647,3.6846572-8.6778242,5.3772187-2.9149099,1.6700587-5.8896262,3.2221454-8.8989003,4.7133542-2.8913356,1.4325074-5.8506482,2.7344185-8.8342049,3.9622581-2.9702961,1.2229171-5.9796372,2.3640943-9.0278223,3.3779568-3.140942,1.0446029-6.3022436,2.0217311-9.5023892,2.870473-3.3105163.877808-6.6494959,1.6338601-10.0088351,2.3009727-3.1914392.6336934-6.4097344,1.125807-9.6351956,1.5482693-3.1771741.4158655-6.3724307.7219966-9.570969.9162167-3.1947209.1942201-6.3894417.2968219-9.5901901.309982-.3121587.001105-.6249201,0-.9370788,0H226.2565421c-.4378158,0-.8756316-.001105-1.3134474-.0049225-3.3099303-.0285303-6.6176839-.1278169-9.9199291-.3615508-3.4163663-.2414022-6.8206775-.6073397-10.2145578-1.0643598-3.2243562-.4339815-6.4289388-1.0105809-9.6176321-1.6557936-3.1404062-.6353342-6.2627131-1.3809386-9.3520863-2.232393-3.1447929-.866858-6.2742324-1.8006215-9.3548321-2.8759648-3.2292787-1.1274478-6.4278505-2.3333539-9.5803284-3.6599779-3.0751248-1.2942428-6.0926365-2.7119158-9.0816179-4.1927103-2.8841863-1.4286565-5.7085829-2.9845941-8.4863331-4.6096473-2.7651427-1.6179206-5.4946225-3.3093771-8.1417932-5.1154903-2.7645902-1.8867816-5.4880258-3.8284136-8.1324673-5.8808516-2.6883253-2.0859242-5.286673-4.2766268-7.8427946-6.5211083-2.4408955-2.1435205-4.778645-4.4077589-7.0653698-6.7142233-2.2565537-2.2762934-4.4417734-4.6288684-6.5348306-7.0560508-2.1407834-2.4820328-4.2300065-5.0107119-6.2051-7.6277277-2.0661761-2.7377001-4.0522448-5.5313558-5.9417559-8.3941605-1.8258705-2.7673355-3.5343299-5.6070681-5.1829913-8.4824972-1.5888549-2.7711864-3.0668872-5.609814-4.4598811-8.484138-1.4088999-2.9077767-2.7541676-5.8528906-3.9584247-8.8522856-1.2558343-3.1266762-2.4469314-6.2758886-3.5107389-9.4738905-1.06765-3.2106262-2.0025272-6.4585727-2.8732195-9.7273645-.8333803-3.1277812-1.5180818-6.2972696-2.1325542-9.474443-.6084365-3.1491789-1.1230614-6.3219657-1.5115017-9.5062549-.3994071-3.2709851-.7296902-6.5507436-.920612-9.840933-.1986069-3.4191114-.286391-6.8415212-.2677392-10.2661244.0175552-3.2874436.1755683-6.5715888.4037938-9.8502589.2221979-3.1985544.5672903-6.3927388,1.011142-9.5682547.4471417-3.1985544.961214-6.3943796,1.6289045-9.5556303.7033533-3.3313273,1.4714522-6.6451078,2.3767024-9.9281646.8931867-3.2380681,1.9136547-6.4349817,3.0015974-9.6121384,1.0451557-3.0531739,2.2302168-6.0608066,3.4838578-9.0333289,1.2487017-2.9593622,2.5818893-5.8885366,4.0330404-8.754623,1.4950432-2.953318,3.0520779-5.8731665,4.7276203-8.7288386,1.7331471-2.954423,3.5716336-5.8424429,5.4880341-8.6805515,1.8302572-2.7108274,3.7806714-5.3393457,5.7842952-7.9234362,1.9531517-2.5188007,3.9973776-4.971759,6.1206142-7.3484609,2.1726121-2.4332099,4.3989864-4.8230802,6.7301475-7.105962,2.443633-2.3931603,4.943774-4.7237768,7.5328125-6.960029,2.5248287-2.1808409,5.1347125-4.2552375,7.78848-6.2764244,2.5604916-1.9504054,5.2087673-3.7905407,7.8981976-5.5582536,2.6773585-1.7594837,5.404645-3.4542301,8.1983013-5.0244329,2.9176558-1.6398792,5.8671402-3.2183113,8.8802652-4.6765947,3.0718264-1.4873578,6.1974149-2.8512771,9.3548321-4.1449589,2.996114-1.2278563,6.0509294-2.3163513,9.1227558-3.3384682,3.0411028-1.011686,6.1195092-1.9257177,9.2237168-2.7234434,3.1744282-.8163775,6.368044-1.5663602,9.5896544-2.1742525,3.3702892-.63587,6.7553793-1.1768317,10.159138-1.5976364,3.2901901-.4070921,6.5929878-.6775687,9.9018298-.8789214,2.8123248-.1711732,5.6317822-.2282338,8.4490294-.239753.3560591-.0016492.712135,0,1.0687467,0h335.8639182c.2040651-.0016659.4081972-.0016659.6128651-.0016659Z"/>
      </g>
      <g id="POLYLINE-2" data-name="POLYLINE">
        <path class="cls-9" d="M563.0882962,73.7801168c3.4460016.0301711,6.8804839.1366071,10.320458.3456449,3.2720741.1991593,6.5391922.5382158,9.7893663.9639597,3.2567374.4262881,6.5118005.9266477,9.73177,1.5778879,3.4284548.6934831,6.8376885,1.4555375,10.2189277,2.3525583,3.2660466.8662971,6.4937179,1.8604363,9.6988195,2.9269894,3.0981466,1.0303462,6.1628739,2.1786392,9.1819929,3.4218573,3.0745723,1.2657125,6.1222886,2.6010931,9.1085241,4.0643157,3.157953,1.5471642,6.2638014,3.1881402,9.3218984,4.9240328,2.8918714,1.6415284,5.7129528,3.407048,8.4913058,5.2329098,2.7146622,1.7841714,5.3782914,3.6577678,7.96296,5.6257367,2.6971154,2.0541039,5.3470152,4.1658125,7.9129985,6.3823078,2.6416622,2.2823377,5.1884914,4.6634262,7.688038,7.099382,2.3487246,2.2883736,4.5943116,4.6875698,6.7778821,7.1328514,2.1764714,2.4370524,4.296418,4.9344554,6.298895,7.5174408,2.1270457,2.7431919,4.194352,5.5269858,6.1524262,8.3936247,1.9350356,2.8326169,3.7526685,5.7387527,5.510495,8.6838499,1.668954,2.7964183,3.2249255,5.6652337,4.6952391,8.5702813,1.4944907,2.9527655,2.929175,5.9434038,4.2173905,8.9921911,1.3638944,3.2287422,2.6565301,6.4816113,3.8256685,9.7866184,1.1230614,3.173875,2.1177365,6.3899929,3.0405502,9.626956.8898632,3.1223062,1.6694898,6.2819161,2.3410228,9.4579845.6912899,3.2720734,1.3079724,6.560622,1.7923843,9.8705516.508589,3.4767245.8942834,6.9655207,1.1883595,10.4663721.2770651,3.296217.4092688,6.6050582.4668651,9.9117062.0565248,3.2523333.0175468,6.5128874-.1519605,9.7613697-.1777449,3.4108906-.4274183,6.8162894-.8141843,10.2107047-.3944679,3.4613543-.924488,6.9002226-1.5257669,10.3308533-.5651137,3.2243555-1.277232,6.4272966-2.0650962,9.6039175-.7873284,3.1766209-1.6541531,6.3417058-2.6603475,9.4563269-1.0698183,3.3115871-2.2055375,6.5979257-3.4728576,9.8392922-1.2454201,3.184306-2.6148062,6.3148331-4.0522364,9.4168299-1.3677788,2.9516772-2.856242,5.8528906-4.4253401,8.7025017-1.5954182,2.8968267-3.2578089,5.7612387-5.0425584,8.5461545-1.8955219,2.9582739-3.8662539,5.8627355-5.9395877,8.69922-1.9740136,2.7003965-4.0549823,5.3201581-6.1952216,7.8905276-2.0771512,2.4951929-4.2421034,4.9245853-6.4876234,7.2694585-2.3278962,2.431569-4.71004,4.8099285-7.1855435,7.0922494-2.5775026,2.3761493-5.2400602,4.6486253-7.9541866,6.8662173-2.5632374,2.0941618-5.2285409,4.0687108-7.928938,5.9812433-2.6570659,1.8818256-5.3733354,3.6917898-8.1549701,5.384887-2.9297108,1.7830747-5.8945822,3.5035972-8.9285691,5.1045403-3.058097,1.613534-6.1732546,3.1047427-9.3224342,4.5306533-2.990053,1.3540492-6.0427253,2.5786071-9.1189049,3.7219609-3.0728979,1.1422488-6.1792821,2.2148462-9.3246443,3.1409413-3.3478199.9859016-6.7120481,1.9037591-10.1141828,2.6861314-3.3044218.7598695-6.6335564,1.3907836-9.9780947,1.9471238-3.2045658.5332682-6.434983.9453162-9.6686819,1.2552983-3.3093777.3171146-6.6286674.5601576-9.9523103.6611186-1.8313623.0554197-3.6632603.0888725-5.4951583.0905133-.5842678.0005358-1.1680669,0-1.7523347,0H226.2805684c-.442755,0-.8849575-.001105-1.3277125-.0049225-3.4158305-.0296353-6.8283626-.1327729-10.2364912-.3708935-3.4619076-.2414022-6.9084617-.6210691-10.3489715-1.0714924-3.2408147-.4241031-6.466795-.9924983-9.6692009-1.6404234-3.2133727-.6501351-6.4185245-1.3765184-9.5792234-2.2477631-3.3647975-.927736-6.7065564-1.9218751-10.0099066-3.050428-3.2232511-1.1016635-6.3987677-2.3284315-9.5484998-3.6248508-3.0059924-1.237718-5.968637-2.594513-8.881906-4.0374346-2.9714179-1.4719877-5.9110239-3.0136602-8.7809618-4.6765863-3.0411028-1.7622128-6.02625-3.6116907-8.9532317-5.5577094-2.7920154-1.856577-5.5044842-3.8289494-8.1714285-5.8594539-2.5829943-1.9668806-5.1039889-4.0248103-7.5443318-6.1661542-2.5297679-2.2203379-5.0101688-4.4960955-7.3972937-6.8711398-2.4847876-2.4727236-4.8719125-5.0326454-7.2047228-7.6485561-2.191264-2.4568177-4.2695035-5.0183802-6.2862958-7.6194901-1.9970438-2.5758612-3.9282536-5.2109595-5.7420523-7.9195936-1.9163922-2.8611639-3.7696963-5.760703-5.5105285-8.733242-1.7402797-2.9725391-3.3582174-6.0097735-4.9136029-9.0827043-1.4807781-2.9247877-2.8381092-5.9159786-4.1114987-8.9362356-1.2766795-3.0262845-2.4886217-6.0882318-3.5524376-9.1968254-1.1323873-3.3093938-2.1962032-6.6368702-3.1299836-10.0082637-.9019601-3.2561674-1.6733491-6.5441635-2.3717631-9.8497064-.6753755-3.1947202-1.2316907-6.4196115-1.6837717-9.6532929-.4603102-3.2923828-.8471013-6.5979257-1.0917936-9.9138995-.2589574-3.5068956-.4114789-7.0159845-.4575643-10.532206-.0433396-3.3252998.0554113-6.6511353.2282338-9.9714958.1689799-3.2440956.4405533-6.4892963.834477-9.7141876.4109263-3.3647968.8953801-6.7191793,1.5125984-10.0532525.6358701-3.432824,1.4050657-6.8332836,2.2450261-10.2211357.7889441-3.1826484,1.7260146-6.3329324,2.7338665-9.4524928,1.0045536-3.1096819,2.0897672-6.2001595,3.3071928-9.2330408,1.293138-3.2210571,2.6521183-6.4113906,4.1378272-9.5490503,1.4676096-3.100356,3.0581138-6.1370714,4.7122585-9.1414057,1.5707556-2.8523737,3.2616599-5.6443886,5.0260748-8.3810004,1.7934977-2.7810481,3.6506444-5.5291792,5.6317738-8.1812969,2.0979964-2.8079291,4.253045-5.5664828,6.5150821-8.244385,2.1726121-2.5720187,4.445616-5.054604,6.773487-7.486173,2.2455786-2.3448816,4.578933-4.6134982,6.9814282-6.7970766,2.4749091-2.2494207,5.0019396-4.4417725,7.6139999-6.5315392,2.743745-2.1945535,5.5604565-4.2892511,8.433676-6.3115347,2.7047838-1.9037758,5.4946225-3.6890439,8.3195549-5.4084781,2.7788553-1.691448,5.6125778-3.3039021,8.5022558-4.7983925,3.0339702-1.5691061,6.0997691-3.0718257,9.2242526-4.4533001,3.1859475-1.4083555,6.4223587-2.6866839,9.687317-3.9002667,3.068528-1.1406163,6.1924757-2.1435289,9.3323461-3.0679832,3.1398537-.9244543,6.3087901-1.7748455,9.5057044-2.4792953,3.398267-.7488944,6.8080532-1.428104,10.2463697-1.971259,3.3774218-.5332766,6.7707495-.9321394,10.1739557-1.2580274,3.2386213-.309982,6.4942369-.4904812,9.7460183-.5749753,1.5422253-.0400495,3.0844507-.0658339,4.6277644-.0658339h336.6243236c.2130394.0021013.4248064.0021013.6360376.0021013Z"/>
      </g>
      <g id="POLYLINE-3" data-name="POLYLINE">
        <path class="cls-9" d="M563.0882962,68.8999761c3.4794878.0301711,6.9485279.1316762,10.4224571.342899,3.2303502.1964135,6.4624417.502553,9.6714278.9228135,3.4772777.4553709,6.9413619.9875508,10.3851534,1.651951,3.3516374.6468451,6.6763518,1.4165847,9.9819121,2.2664233,3.1694723.8147283,6.3213977,1.7293042,9.4267103,2.7623962,3.3433998,1.112086,6.6571977,2.2971469,9.9292718,3.6056548,3.1502512,1.2602207,6.2512106,2.6378526,9.3164067,4.0906443,2.9384842,1.3924411,5.846295,2.8715697,8.6816416,4.4648194,3.1091301,1.7474119,6.1749289,3.5595694,9.1771039,5.4858313,2.8057448,1.8000857,5.5439813,3.7049582,8.230649,5.6784106,2.6576016,1.9520546,5.2740822,3.9765316,7.7906398,6.1090853,2.7157338,2.301542,5.3705895,4.6612329,7.9552582,7.1092604,2.4167686,2.2894702,4.7407804,4.6804372,7.0006325,7.1240697,2.2356751,2.4173039,4.4126823,4.8960467,6.4832702,7.4565461,2.2526861,2.7848906,4.4148923,5.6317726,6.5057729,8.5401018,1.9125329,2.660347,3.7159007,5.4057322,5.4435895,8.1895261,1.7649925,2.8446887,3.4597309,5.7354711,5.0392767,8.6871315,1.6761201,3.1321847,3.2391906,6.3153689,4.7325428,9.5386193,1.3820439,2.9829533,2.6395191,6.0306355,3.8114034,9.1013562,1.1971329,3.1371071,2.3124925,6.3044021,3.3143337,9.5095533,1.0594375,3.3905812,1.9860687,6.8151843,2.8403026,10.2617377.7806981,3.1491789,1.437966,6.3362308,1.9981237,9.5314868.5903623,3.3669901,1.1000229,6.747157,1.4824357,10.1443183.391722,3.4805587.6528477,6.9699074.8350128,10.4669246.1701101,3.264405.2205404,6.542506.1634798,9.8107452-.0598064,3.44436-.201922,6.8848692-.469611,10.3204391-.2698991,3.4673986-.6742789,6.9199795-1.1554091,10.3637703-.447711,3.2051512-1.0056586,6.4037055-1.6744458,9.5698955-.7253119,3.4311832-1.5257669,6.8431621-2.457354,10.2249698-.9063385,3.2912777-1.9334283,6.5458044-3.0383402,9.7750823-1.0599733,3.0959693-2.2175925,6.1672593-3.4893328,9.1825603-1.3693861,3.246289-2.8095622,6.4580202-4.3693511,9.6176468-1.5021926,3.0421904-3.1173677,6.0262488-4.8055428,8.9691525-1.617921,2.8211143-3.3186869,5.6048915-5.128685,8.3069289-1.9843944,2.9631964-4.0308722,5.8781057-6.1853766,8.7211535-2.0135274,2.6570653-4.126308,5.2383848-6.3033151,7.7626772-2.1539687,2.497403-4.3759144,4.9476238-6.6983188,7.2903204-2.5061769,2.5281098-5.0661327,4.990955-7.7083976,7.376447-2.4710833,2.2307521-5.0359281,4.3611125-7.6485912,6.4234624-2.5840659,2.0398471-5.2252593,4.017142-7.9393187,5.8819566-2.9522136,2.0283279-5.9587418,3.9622581-9.021259,5.8199401-2.8013246,1.6991248-5.6795335,3.2824876-8.5894875,4.7879615-2.9736447,1.5378216-5.9878078,3.0016051-9.0542095,4.3463116-3.2534557,1.4270157-6.5491041,2.7365951-9.8787745,3.9737773-3.0816713,1.1449946-6.2177243,2.1611008-9.3713241,3.0893725-3.2205053.9485979-6.4657234,1.8138151-9.738869,2.5621318-3.4624768.7916814-6.9490637,1.4484134-10.4521259,2.0310737-3.2002126.5327324-6.4294913.9387195-9.6582342,1.2481657-3.4026704.325888-6.8124399.5700361-10.2288396.6863338-1.9185604.0652981-3.8393979.0943642-5.7590299.096005-.6029532.0005358-1.2059063,0-1.8088595,0H226.3305466c-.4471417,0-.8937309-.0005358-1.3408726-.0049225-3.5315924-.0307404-7.0582289-.1393697-10.5821362-.3807384-3.3763167-.2315238-6.7422192-.5886879-10.0971383-1.0275919-3.2506764-.4257439-6.4975186-.945852-9.7114438-1.5959872-3.4695926-.7017039-6.9177876-1.4813303-10.3418389-2.3838177-3.2578089-.8591562-6.4816126-1.8439862-9.6779743-2.9072409-3.0954174-1.029802-6.1732881-2.1429847-9.1907998-3.3850894-3.3072011-1.3617175-6.5776344-2.7942249-9.8025264-4.3424607-2.985683-1.4330432-5.9176207-2.9829533-8.8045528-4.6052606-2.8869321-1.6228766-5.7409473-3.3192555-8.5110292-5.1352472-2.9796555-1.9531513-5.8973113-3.9814792-8.7661441-6.0942593-2.6674801-1.9641348-5.2521152-4.0484181-7.7785931-6.1891928s-5.0002904-4.3490575-7.3841253-6.6489587c-2.5742125-2.4836736-5.0562542-5.0496564-7.4850779-7.6760148-2.2153992-2.3953704-4.3309507-4.8927734-6.3746325-7.4356841-2.1100598-2.6257892-4.1564874-5.304788-6.0964707-8.0594991-2.0387425-2.8946166-3.9704965-5.8556029-5.8369607-8.8632691-1.7287604-2.7859873-3.3477948-5.6482227-4.8790451-8.5466903-1.5806257-2.9922625-3.0877407-6.0223978-4.4807263-9.1068479-1.4538887-3.2193996-2.7843387-6.4870863-4.043463-9.7866184-1.1543375-3.0262845-2.197844-6.103602-3.1393095-9.2023171-1.0023603-3.2978578-1.9268148-6.61713-2.726734-9.9704075-.8059467-3.3812552-1.4846123-6.7882949-2.0848279-10.2118097-.5645528-3.2183113-1.0177221-6.4640645-1.3573311-9.7141876-.3615509-3.4569676-.6430027-6.919427-.7944275-10.3923005-.1503281-3.4438075-.1711733-6.8898084-.1113752-10.3357925.0559639-3.2380681.2156179-6.4838046.4965172-9.7103535.3061395-3.5184148.6901848-7.0258629,1.2053622-10.5201342.4937713-3.3483383,1.1126388-6.6758314,1.8121495-9.9863135.678113-3.2073445,1.4500545-6.4037055,2.3487246-9.5572879.97054-3.4042938,2.0162481-6.7811623,3.1837458-10.1240256,1.1104454-3.1810076,2.3443295-6.3181147,3.6533819-9.4217691,1.2679061-3.0059918,2.6181046-5.9872875,4.0917418-8.8983626,1.6157444-3.190886,3.2989635-6.3395124,5.0941104-9.4338409,1.6618298-2.864998,3.4355706-5.6668913,5.2784521-8.4183041,1.8428731-2.7514211,3.7570804-5.4644419,5.7837427-8.084731,2.1797447-2.8178076,4.42971-5.5686762,6.7597744-8.2641418,2.1660237-2.5056322,4.445616-4.9201902,6.7773296-7.2722044,2.3317136-2.3520141,4.7259711-4.6458711,7.2047228-6.8426179,2.676806-2.3728593,5.4287802-4.6469677,8.2361574-6.8634631,2.5610441-2.0217311,5.2158999-3.9359295,7.9102694-5.7749681,2.7826895-1.8988366,5.6125778-3.729646,8.5104767-5.4490801,3.0449369-1.8066658,6.1474869-3.5014122,9.2917441-5.1275705,2.9121808-1.5060097,5.8923721-2.89681,8.9016629-4.1970802,3.1063842-1.3425215,6.2451496-2.6082256,9.4283512-3.756527,3.3231071-1.1982294,6.6846062-2.2697134,10.0724589-3.2676867,3.1069367-.9151284,6.256133-1.7144949,9.4190253-2.4118122,3.3659025-.7417618,6.7471585-1.4050654,10.152558-1.9405353,3.4339298-.5398566,6.8837656-.9502387,10.3434798-1.2816184,3.2528697-.3116228,6.5238555-.5102297,9.7904546-.5952763,1.7101086-.0444362,3.4202172-.0779057,5.1314141-.0779057h336.6072289c.2234202-.0000251.4478449-.0000251.6722697-.0000251Z"/>
      </g>
      <g id="POLYLINE-4" data-name="POLYLINE">
        <path class="cls-9" d="M563.0882962,64.0198395c3.5305209.0307236,7.050527.1294787,10.5750204.3434473,3.315941.2018968,6.6363023.5036496,9.9308791.9348811,3.5946805.4707327,7.1690683,1.0292453,10.7324726,1.6974881,3.3148695.6216091,6.6083748,1.3776318,9.8744213,2.2176004,3.3060961.8498386,6.5924353,1.7869173,9.8381892,2.8441445,3.4360897,1.1192186,6.8261692,2.3558567,10.1909332,3.673138,3.0723622,1.2031602,6.1101665,2.520994,9.0920489,3.9337362,3.2413337,1.5361891,6.4432206,3.1469856,9.5879801,4.8741048,3.0224677,1.6601803,5.9829188,3.4295424,8.8966902,5.2729593,2.8205457,1.7841714,5.600506,3.6484419,8.293737,5.6202534,2.9506062,2.1599874,5.8298198,4.3978888,8.6602774,6.7131434,2.5868117,2.1155511,5.0874969,4.348505,7.5207408,6.6379752,2.5221163,2.3734118,4.9838235,4.8099117,7.3555866,7.3336516,2.4365255,2.5923197,4.775874,5.2696693,7.0516656,8.0035353,2.1221567,2.5489718,4.1696392,5.1736643,6.1101665,7.8641823,2.1182723,2.9368595,4.1630759,5.9187077,6.1096308,8.9729867,1.8193072,2.8545671,3.5321282,5.7793548,5.1643143,8.744192,1.6360705,2.9714173,3.1941851,5.9889284,4.637107,9.0591133,1.5493412,3.296217,2.9812796,6.6385277,4.3380749,10.0181421,1.2316907,3.0679916,2.3470503,6.1924744,3.3631566,9.3378192,1.0890394,3.3713768,2.0969081,6.7669139,2.980208,10.1986329.8717807,3.3856419,1.6195953,6.8003667,2.2828907,10.2321024.6298091,3.2578083,1.1708128,6.543611,1.5729155,9.8381871.4416835,3.6177182.7911458,7.235989,1.0385421,10.8718233.2277064,3.3483383.3154403,6.7114942.3154403,10.0669651,0,3.4383158-.0888725,6.8771841-.3023137,10.3094556-.2227504,3.5875472-.5754945,7.1613817-1.0111504,10.729172-.3999596,3.2742667-.9135045,6.5452518-1.5394962,9.7838725-.6852623,3.5441992-1.4484137,7.0686583-2.3443044,10.566228-.8487421,3.3137805-1.8132797,6.5973731-2.8650154,9.8524523-1.0309073,3.1919743-2.1484769,6.3620152-3.388941,9.4793822-1.350232,3.393327-2.8013246,6.7350853-4.3364676,10.0483132-1.4001265,3.0218978-2.9297108,5.9933318-4.5361125,8.9109869-1.6854292,3.0603065-3.4460016,6.0778176-5.3141317,9.0305998-1.8867485,2.9818482-3.880519,5.8912658-5.9444766,8.7529654-1.9432733,2.694369-3.9738116,5.33881-6.0997858,7.8927042-2.3251503,2.7925841-4.7117143,5.5236874-7.1898967,8.1807527-2.2949457,2.4600993-4.6864657,4.8346078-7.1361178,7.1399673-2.4858842,2.3393815-5.0343207,4.6157083-7.6639279,6.7932508-2.783242,2.3053929-5.6405556,4.5092556-8.5527196,6.6478536-2.659276,1.9531513-5.3969767,3.8157893-8.1857104,5.5802122-3.0312411,1.9180242-6.1036032,3.7636512-9.245081,5.4962622-3.0350585,1.6744454-6.1288519,3.2375156-9.2604847,4.7215918-3.0092741,1.4264464-6.065228,2.7788547-9.1666562,3.9929984-3.3949686,1.3293363-6.8129757,2.5665185-10.2727066,3.7175742-3.1711466,1.0544814-6.3949335,1.974549-9.6307755,2.8062799-3.3538475.8624713-6.7295949,1.6398876-10.130591,2.2949452-3.493753.6726379-7.0066601,1.2185304-10.5338323,1.6799371-3.2890851.4306664-6.6012087.7576594-9.9122608.9590121-3.6221392.2205403-7.2414655.3461806-10.8707038.3659375-.3335899.0016408-.666577.0005358-1.0001669.0005358H226.3536019c-.4674344,0-.934333-.001105-1.4012148-.0049225-3.6133323-.0312761-7.2200846-.147038-10.8257318-.388976-3.4065046-.2282421-6.8047715-.5837654-10.1898617-1.0264869-3.3357147-.4367274-6.663761-.9633988-9.9643653-1.6168491-3.5650452-.7055548-7.0982784-1.5241257-10.6172465-2.429359-3.2177594-.8273443-6.411392-1.7847156-9.56387-2.8331694-3.3477865-1.113752-6.6665069-2.3081053-9.9413268-3.6221049-3.258914-1.3074028-6.466795-2.7338492-9.6390298-4.2376823-2.9939207-1.418778-5.9565652-2.9286386-8.8456907-4.552051-3.1832016-1.7891022-6.3153702-3.6500994-9.3948817-5.6131292-2.8287833-1.8028316-5.5900751-3.7203201-8.2937705-5.7058525-2.7569051-2.0250127-5.4595039-4.1241305-8.0869344-6.3153689-2.7722669-2.3125255-5.453468-4.7243377-8.0819952-7.1981328-2.414006-2.2713709-4.7528522-4.6354317-7.00337-7.0686416-2.4326662-2.6301759-4.8011393-5.3152022-7.0730465-8.0863886-2.177543-2.6559603-4.2590809-5.3898095-6.2681965-8.175261-1.9624776-2.7212584-3.860218-5.5001131-5.6328705-8.3491885-1.9257181-3.0943285-3.7598179-6.2325239-5.5176611-9.4250675-1.6009267-2.9072409-3.0838982-5.8885199-4.4790855-8.8994677-1.469803-3.1716817-2.8606036-6.3784569-4.1339931-9.6340886-1.2909446-3.3000679-2.4600915-6.6434669-3.548595-10.0148605-1.0160812-3.1458973-1.9394391-6.3318441-2.7344107-9.5408294-.8761757-3.5348733-1.6700591-7.083476-2.341592-10.6627855-.6254475-3.3340731-1.1269039-6.6928424-1.5383828-10.0598325-.4103822-3.3598575-.7318835-6.7334444-.9261037-10.1130589-.2079328-3.6155249-.2935236-7.2299615-.2935236-10.8515139,0-3.3170621.1250878-6.6434669.355515-9.9522915.2468856-3.5485859.5777129-7.0884152,1.0374789-10.6167085.4471417-3.4344816,1.0188187-6.8508472,1.6755424-10.2513068.6342293-3.280311,1.3562344-6.554042,2.2164958-9.78332.9414655-3.5332325,1.9679694-7.0329955,3.0970666-10.5108083,1.0308905-3.1749633,2.1951065-6.3131755,3.438869-9.4102499,1.2849087-3.1996594,2.6510216-6.3664019,4.1312472-9.481023,1.540032-3.2402615,3.1947209-6.4196115,4.9251305-9.5616746,1.5916008-2.8902299,3.2846984-5.7360069,5.0727127-8.5093866,1.9580909-3.0367154,3.9842091-6.0229504,6.1167717-8.9406139,2.0145989-2.7563603,4.1312472-5.4386492,6.3159227-8.0622366,2.1577945-2.5917672,4.3863621-5.131413,6.7114956-7.5750538,2.5083786-2.6362034,5.0902679-5.1884735,7.7401928-7.682034,2.4101718-2.2680725,4.9174454-4.445615,7.479042-6.5408651,2.7311207-2.2340589,5.5149152-4.3995296,8.3760629-6.4646086,2.8474351-2.0552006,5.7678367-4.0028685,8.734868-5.8803074,2.7997005-1.7715555,5.6592074-3.4684952,8.5757749-5.0414355,3.2139252-1.7336993,6.46132-3.3856503,9.766311-4.9382979,3.052622-1.4346924,6.165603-2.7481311,9.3060092-3.9776282,3.1733232-1.2426656,6.3812209-2.4024863,9.626958-3.443255,3.4328248-1.1005668,6.8969424-2.0787916,10.387916-2.9763649,3.2100911-.8251509,6.4585741-1.5383825,9.7180406-2.1385938,3.5233548-.6495868,7.0582289-1.2157845,10.6150531-1.6541444,3.4086979-.4202564,6.8316442-.7176183,10.2595465-.9261035,3.275925-.1991552,6.5551316-.2841934,9.8365316-.2984586.3571642-.001645.7148809,0,1.0720451,0h335.7898131c.2293807.0043909.4615073.0043909.6930311.0043909Z"/>
      </g>
      <g id="POLYLINE-5" data-name="POLYLINE">
        <path class="cls-9" d="M563.0882962,59.139703c3.5782053.031272,7.1471013.1261887,10.7192791.3434473,3.3927585.2062877,6.7888656.5063913,10.1602598.942562,3.6923263.4778652,7.3605426,1.0555822,11.0221286,1.7304051,3.3121236.6106339,6.6105179,1.3501982,9.8722112,2.189066,3.5474649.9123867,7.0708197,1.9070659,10.5580093,3.0301312,3.315941,1.0676498,6.5951812,2.248324,9.838725,3.5178707,3.2199695,1.2607733,6.4075243,2.6109715,9.541903,4.072545,3.3253172,1.5504543,6.5918995,3.2106345,9.8201066,4.9520105,2.9621255,1.5976364,5.8825271,3.2956728,8.7266471,5.095206,3.1426163,1.9882616,6.2270335,4.0500506,9.2555287,6.2078446,2.761275,1.9668723,5.4518271,4.0434622,8.0759425,6.1897369,2.7679053,2.26423,5.4776115,4.5975923,8.1028655,7.0258629,2.6252539,2.4282706,5.1632428,4.9470713,7.6364692,7.5300651,2.3509347,2.4551601,4.6403887,4.981085,6.8196059,7.5904156,2.3865641,2.857313,4.6875373,5.7727748,6.9172518,8.7540705,2.0173448,2.6971065,3.9370438,5.4798037,5.7617757,8.3096747,1.9855329,3.0784058,3.8958557,6.200712,5.6937987,9.3932389,1.7095393,3.0356104,3.315941,6.128298,4.8346088,9.2632118,1.5082201,3.1118753,2.9313851,6.267651,4.2404291,9.4683987,1.3886072,3.3955204,2.6598117,6.8327479,3.8475685,10.3028755,1.0895752,3.1842892,2.0809687,6.413584,2.9478603,9.6659172.9573715,3.5930389,1.8214503,7.2014312,2.5802484,10.8416355.6951073,3.3362665,1.2618953,6.7054667,1.7337164,10.0801252.4926495,3.5239066.8937476,7.0593324,1.1713485,10.6073826.2792752,3.5655969.4317715,7.1377907.493788,10.713266.0587349,3.3982662.0247128,6.8080518-.1470046,10.2030364-.1881926,3.7181267-.4778486,7.4208832-.8652174,11.1236398-.3499981,3.3494433-.8300568,6.696124-1.4116458,10.0132029-.632555,3.6078398-1.3496293,7.1981328-2.1972998,10.7620889-.8059467,3.3889403-1.7265503,6.7504387-2.7399108,10.0834235-1.0056586,3.3083055-2.1029356,6.5918981-3.3154053,9.8304853-1.2914972,3.4509233-2.6993255,6.8513829-4.1899318,10.2205999-1.355121,3.0630524-2.8150539,6.0926185-4.379263,9.0541741-1.736998,3.2879794-3.5518851,6.5238541-5.4666281,9.712011-1.7545448,2.9215061-3.6259566,5.7798906-5.57144,8.5773971-2.0310742,2.9215061-4.1367557,5.789769-6.3416904,8.5828889-2.2159182,2.807385-4.5290134,5.5335659-6.9112243,8.2010454-2.2642053,2.5352424-4.6041566,5.0150986-7.0351903,7.3912479-2.6625576,2.6021814-5.3892748,5.1237279-8.1873178,7.5794405-2.5314255,2.221443-5.1560767,4.3523391-7.8351095,6.3927221-2.9143741,2.2192329-5.8781069,4.3682451-8.9203315,6.4097331-2.8929429,1.9410962-5.851251,3.7839439-8.8577792,5.5429085-2.9845613,1.7463068-6.0196867,3.4114431-9.1085241,4.9662757-3.2912952,1.6563294-6.6330206,3.1974661-10.0153984,4.6590395-3.0745723,1.3288005-6.2034592,2.5615961-9.3624837,3.6736737-3.5074153,1.2344364-7.0374004,2.3777902-10.6073681,3.4185756-3.2720741.9535204-6.5864078,1.7814339-9.9138681,2.5149498-3.4745319.765897-6.9682848,1.4418166-10.483402,1.9954109-3.532664.5563067-7.0824059.9875424-10.6419259,1.3282648-3.3834493.3242472-6.7849812.5563067-10.1832984.6495994-1.9762237.0543147-3.9518447.096005-5.9291399.0965743H226.3775446c-.4729261,0-.9452997-.001105-1.41769-.0049225-3.7076965-.0323812-7.4066197-.1558114-11.1066311-.3966779-3.4185596-.2227504-6.8332851-.573887-10.2299112-1.0182827-3.4970179-.4575558-6.9814282-1.0084043-10.4438883-1.6788321-3.5414541-.685798-7.0543947-1.4967005-10.5475784-2.3948012-3.2786709-.8427144-6.5447007-1.7792238-9.7575376-2.8479703-3.5370674-1.1762708-7.032997-2.4392374-10.5036779-3.798209-3.1431521-1.2305854-6.2457021-2.5912314-9.2950257-4.0368654-3.2874443-1.5581477-6.534839-3.195256-9.7235156-4.9481596-3.0773181-1.6914564-6.0948298-3.4899013-9.0618611-5.3673402-2.9033906-1.8368536-5.7585108-3.7576237-8.5384544-5.7766089-2.9950173-2.1753659-5.9110323-4.4456318-8.7760225-6.7888641-2.6021903-2.1287196-5.1385467-4.3545492-7.5871188-6.6588371-2.6894219-2.5308557-5.3102724-5.1237279-7.8532088-7.8021909-2.3585947-2.4847787-4.6272202-5.0606399-6.8190283-7.6935616-2.2565537-2.7102749-4.4406767-5.4803563-6.527698-8.3234041-2.1342034-2.9077767-4.1630675-5.8885199-6.1178684-8.9197603-1.8346439-2.8446887-3.5968738-5.7502888-5.2301734-8.7156618-1.7978844-3.2649408-3.5074488-6.5661138-5.1330633-9.919927-1.4719963-3.037268-2.8260374-6.1431157-4.0835126-9.2747479-1.3556819-3.376316-2.6279747-6.7828031-3.7790222-10.2342957-1.1109896-3.331344-2.105129-6.7005275-3.0087299-10.093302-.884405-3.319808-1.6766391-6.6681463-2.3470754-10.0384348-.7220051-3.6303426-1.3216683-7.2771436-1.8335472-10.9425965-.4652494-3.3296864-.8163777-6.6862623-1.0495424-10.0400756-.2562116-3.6841047-.4197081-7.3671211-.4679869-11.0605517-.0449888-3.4256915.0389529-6.8574272.2172587-10.2781962.1837976-3.5217132.4603102-7.0384872.8586206-10.5431895.4070922-3.583713.9414655-7.1498624,1.5647197-10.7022825.5848455-3.3340731,1.263511-6.6637596,2.0776954-9.9500981.8970209-3.6177182,1.8829311-7.2019838,2.9670396-10.7681332.9815151-3.229278,2.0963472-6.4284016,3.2989635-9.5819673,1.2969805-3.3993713,2.6757093-6.7641681,4.1740426-10.0795894,1.4462119-3.1996594,3.0037991-6.3483026,4.6436787-9.4530453,1.6047693-3.0378037,3.2967702-6.0339171,5.0924612-8.9631083,1.935044-3.1557673,3.9704965-6.240209,6.0833022-9.2791178,1.9191381-2.7602029,3.9403254-5.4627927,6.0465427-8.0836343,2.3185451-2.8852907,4.7018359-5.7091342,7.1827725-8.4567128,2.2905674-2.5369,4.6733056-4.9948059,7.1213253-7.379737,2.5259338-2.4611876,5.1166048-4.8559971,7.7890241-7.1575392,2.7459383-2.3651826,5.5725199-4.6305092,8.4556179-6.8256069,2.6795519-2.0403829,5.4254902-4.0132911,8.2405441-5.8632964,3.1151743-2.0475155,6.272039-4.0089044,9.4892459-5.8912825,2.9132691-1.7046165,5.9038913-3.2967695,8.9279998-4.7945499,3.2600023-1.6151915,6.5567725-3.1491873,9.9084098-4.5663161,3.2342179-1.3672092,6.5156346-2.6213941,9.8277582-3.7872507,3.2408147-1.1406205,6.5172755-2.1918118,9.8244766-3.1228504,3.5628518-1.0029126,7.1520573-1.8851198,10.7664779-2.682293,3.2830576-.7236542,6.6017612-1.3353848,9.9276142-1.8297085,3.6610669-.5442475,7.3287139-.99907,11.0150128-1.3320948,3.4042945-.3072362,6.8223183-.4943237,10.2386846-.5832045,1.6590756-.0433437,3.3187204-.0696765,4.978901-.0696765h336.5139865c.2389578-.0000126.4787192-.0000126.7179449-.0000126Z"/>
      </g>
      <g id="POLYLINE-6" data-name="POLYLINE">
        <path class="cls-9" d="M563.0882962,54.2601106c3.6418291.0318203,7.2749518.1250878,10.9107534.346189,3.4843768.2117753,6.9660747.5272407,10.4301589.9584722,3.7340502.4646968,7.4455976,1.0550297,11.1455588,1.7369893,3.3642282.6199599,6.7218931,1.3447107,10.035691,2.1967469,3.6753153.9453037,7.3160729,1.9805849,10.9371405,3.1157178,3.2583447,1.0215644,6.4898335,2.1682208,9.6697534,3.4130797,3.5118355,1.374886,6.9798041,2.8397536,10.410402,4.4066664,3.1475723,1.4374299,6.2467904,2.9966659,9.2917608,4.6387385,3.2468255,1.7512544,6.4465023,3.5848013,9.5824883,5.5280825,3.036197,1.8812815,6.0081675,3.8651564,8.9224746,5.9291387,2.8935457,2.0491647,5.7304996,4.1806218,8.4913058,6.4048022,2.8918714,2.3300639,5.700362,4.7555971,8.4485104,7.253,2.5484365,2.3157988,5.0381382,4.7122575,7.4236307,7.1959395,2.6208338,2.7283826,5.1621712,5.5193007,7.6331875,8.3842904,2.2280402,2.5835379,4.3765171,5.2521141,6.4196463,7.9843309,2.2708356,3.0361629,4.4511245,6.1249997,6.5611592,9.2752836,1.9185604,2.8644372,3.7241383,5.817211,5.4391693,8.8072968,1.8533292,3.2309356,3.622675,6.5052023,5.2823198,9.8403805,1.5735182,3.1629083,3.0405502,6.3812195,4.413218,9.6357294,1.394099,3.3049904,2.698187,6.6484062,3.8882208,10.0329431,1.2130724,3.4492825,2.3070008,6.9375263,3.308842,10.453212.9540898,3.3461449,1.8121412,6.7252068,2.5489723,10.1256664.7949632,3.6709446,1.4736623,7.359436,2.0579301,11.0698776.5321633,3.3790619.963399,6.7872066,1.260221,10.1953513.3303082,3.7932865.5618321,7.5838272.6935,11.3891856.1184743,3.4158298.1064193,6.8481013-.012055,10.2639311-.1311321,3.769143-.3554899,7.52896-.7028091,11.2849429-.3203963,3.4652052-.761477,6.9227253-1.3024806,10.3599361-.5689312,3.6116907-1.2316907,7.2069062-2.0178806,10.7774591-.7713889,3.5035972-1.6601806,6.9803217-2.6438723,10.4301567-.9666807,3.392222-2.0316099,6.7586596-3.2073117,10.0839761-1.2377183,3.5014206-2.593442,6.9561948-4.0363639,10.3774829-1.3425302,3.1820959-2.778286,6.3378716-4.3370034,9.4201116-1.7090035,3.3801669-3.4970346,6.70766-5.3810372,9.9928935-1.7046503,2.9719698-3.5195374,5.8945809-5.4260427,8.7409104-2.1051457,3.1436872-4.2897878,6.2215739-6.5606234,9.2478584-2.0667035,2.7547112-4.2481309,5.434815-6.4963968,8.0424881-2.4250063,2.8117717-4.9179896,5.5615604-7.5070114,8.2235481-2.459564,2.5286791-5.0019061,4.9783307-7.6123591,7.3506626-2.6565301,2.4140223-5.3794299,4.7556138-8.1785444,7.0033769-2.8628053,2.2987961-5.8029638,4.4966313-8.7990443,6.6182183-2.8380925,2.009676-5.73934,3.9436062-8.7041443,5.7612387-3.2150135,1.9718031-6.4799885,3.8453911-9.799747,5.6355984-3.0054567,1.6212358-6.0740014,3.151389-9.1847388,4.5602886-3.4569851,1.5658161-6.9452463,3.0350579-10.4789818,4.4187423-3.1854117,1.2470607-6.4311656,2.3739727-9.6955378,3.3971779-3.583697,1.1230612-7.1898967,2.154504-10.8328644,3.0701849-3.3922227.8525929-6.8179316,1.5872138-10.2573699,2.2208737-3.578741.6594778-7.1734215,1.2240221-10.7857157,1.665672-3.5963548.4394733-7.2058362.7560186-10.8213451.9754873-3.471786.2112311-6.9473894.3023137-10.4258057.3165788-.3626559.0016408-.7253119,0-1.0879678,0H226.4036304c-.492683,0-.9853492-.001105-1.4780322-.0054917-3.7834089-.032917-7.5552985-.1679-11.3315749-.4032412-3.4372282-.2145128-6.8749922-.5645443-10.2891651-1.011686-3.6819121-.4816994-7.3484708-1.0550171-10.9952559-1.7567546-3.4641009-.6666104-6.9073566-1.4456675-10.3237229-2.3240448-3.4767252-.8937475-6.9287543-1.8834664-10.3445848-2.9878758-3.4937362-1.1296579-6.9446603-2.379431-10.3632367-3.71811-3.2380688-1.2678891-6.4476073-2.6301759-9.5951461-4.1092961-3.4136371-1.6042248-6.7723903-3.3033495-10.0921991-5.0935568-3.0054399-1.6212358-5.969742-3.3450399-8.8555691-5.17091-3.2073452-2.0288637-6.3504973-4.1367213-9.448108-6.3302033-2.7920238-1.9772949-5.5160119-4.0703516-8.1637435-6.2363749-2.9072332-2.3777902-5.7491849-4.8252652-8.5154159-7.3660328-2.5758617-2.3662709-5.0710635-4.8258344-7.4894646-7.3523034-2.5166078-2.628535-4.9629867-5.3223347-7.316098-8.0984436-2.3426887-2.7634845-4.589364-5.6065324-6.7586777-8.5071765-2.0974439-2.8041033-4.1158854-5.6718305-6.0322776-8.6026457-2.0447784-3.1272455-3.983665-6.317579-5.8424525-9.5583762-1.706266-2.9758207-3.3335297-6.0114144-4.8296612-9.0986103-1.6535922-3.4119789-3.2188645-6.853593-4.6925016-10.346776-1.3320908-3.1574165-2.554464-6.3740702-3.6638044-9.6159725-1.2234615-3.5738178-2.3498213-7.1712434-3.3752201-10.8070777-.9420097-3.3390124-1.7583874-6.7213727-2.4754575-10.1152522-.7620588-3.6067515-1.4313985-7.2310498-1.9761944-10.8772983-.5250474-3.516774-.9326838-7.0516473-1.2410208-10.5936532-.3083329-3.5420059-.5184632-7.0944427-.6073441-10.6490729-.0921709-3.6857455-.0598022-7.3709553.0680315-11.05506.1201528-3.4575201.3401574-6.9199795.6885398-10.362682.3813036-3.7675022.8717849-7.5152474,1.4610254-11.2553076.5310833-3.3713768,1.1757311-6.7378311,1.9394349-10.0647717.851488-3.7088008,1.8011828-7.3824745,2.8441451-11.0413474.9403689-3.2989628,2.0189856-6.5705004,3.1859475-9.7959443,1.2711961-3.5134756,2.6301764-6.9902001,4.1038136-10.4241292,1.3809221-3.2183113,2.8743162-6.3910812,4.4560386-9.5155808,1.636037-3.2314881,3.3576649-6.4179707,5.1868254-9.5446636,1.8291605-3.1261404,3.7636604-6.1886402,5.779356-9.1979221,1.9526075-2.9154618,3.9918942-5.7766173,6.1244484-8.5631487,2.2768464-2.9747157,4.6497146-5.8687881,7.0955409-8.7052476,2.2450261-2.6032864,4.5761955-5.148424,6.9962375-7.5898631,2.6718668-2.6954573,5.4040925-5.3141139,8.2125664-7.8669282,2.5270304-2.2966028,5.1489692-4.5065181,7.8290736-6.6226134,2.9604512-2.3366523,5.9757695-4.5904597,9.0607644-6.7603255,2.8304241-1.9904633,5.7409473-3.8783248,8.696476-5.6773139,3.1491796-1.9163918,6.345558-3.7504911,9.6039195-5.4759612,3.1585055-1.6727962,6.3746241-3.2364189,9.6302564-4.7106083,3.225997-1.4610209,6.4947894-2.8320727,9.8052722-4.0901001,3.4750844-1.3211196,6.9907541-2.5215424,10.5382525-3.6330842,3.2858034-1.0297936,6.6110871-1.9685131,9.9594429-2.7733672,3.6786137-.8844048,7.3709568-1.6684095,11.0912777-2.3542075,3.354919-.6183148,6.7433243-1.1247103,10.1333536-1.5087555,3.7675029-.4268406,7.5344534-.7488902,11.3189673-.978769,3.1349145-.1909259,6.2819174-.2424989,9.4217711-.2551148.415313-.001645.8300903,0,1.2454034,0h335.5610854c.2490037.0021473.4964.0021473.7433275.0021473Z"/>
      </g>
      <g id="POLYLINE-7" data-name="POLYLINE">
        <line class="cls-9" x1="225.5291038" y1="409.698773" x2="123.089517" y2="409.698773"/>
      </g>
      <g id="POLYLINE-8" data-name="POLYLINE">
        <line class="cls-9" x1="225.5291038" y1="404.8191932" x2="123.089517" y2="404.8191932"/>
      </g>
      <g id="POLYLINE-9" data-name="POLYLINE">
        <line class="cls-9" x1="225.5291038" y1="399.9390441" x2="123.089517" y2="399.9390441"/>
      </g>
      <g id="POLYLINE-10" data-name="POLYLINE">
        <line class="cls-9" x1="225.5291038" y1="395.058895" x2="123.089517" y2="395.058895"/>
      </g>
      <g id="POLYLINE-11" data-name="POLYLINE">
        <line class="cls-9" x1="225.5291038" y1="380.4190505" x2="123.089517" y2="380.4190505"/>
      </g>
      <g id="POLYLINE-12" data-name="POLYLINE">
        <line class="cls-9" x1="225.5291038" y1="385.2991661" x2="123.089517" y2="385.2991661"/>
      </g>
      <g id="POLYLINE-13" data-name="POLYLINE">
        <line class="cls-9" x1="225.5291038" y1="390.1787794" x2="123.089517" y2="390.1787794"/>
      </g>
      <g id="POLYLINE-14" data-name="POLYLINE">
        <line class="cls-9" x1="163.0896633" y1="414.5789221" x2="163.0896633" y2="375.5389014"/>
      </g>
      <g id="POLYLINE-15" data-name="POLYLINE">
        <path class="cls-9" d="M563.0882962,49.3799741c3.6862988.0318203,7.3654986.1217978,11.0463056.3456407,3.6111557.2194562,7.2178912.5426025,10.8087543.9848049,3.7049841.4564675,7.3923545,1.0325353,11.0633166,1.7090074,3.5173273.6479418,7.0181793,1.4017712,10.4888938,2.2680725,3.6780612.9184226,7.3210288,1.9569938,10.9382121,3.0904818,3.3626209,1.053933,6.6983188,2.2132053,9.9868681,3.4800145,3.583697,1.3803735,7.1169637,2.8726706,10.6150699,4.4565901,3.1782456,1.4396274,6.3246794,2.978554,9.3981801,4.6305051,3.381775,1.8170884,6.7087665,3.7153808,9.9879397,5.7113275,2.990053,1.8198342,5.9357032,3.7378752,8.7919452,5.7612555,3.1475723,2.2285671,6.2314537,4.5279158,9.2588104,6.9177778,2.7184796,2.1462747,5.3772198,4.3913004,7.9404572,6.7208201,2.8765347,2.6142615,5.6767877,5.2954537,8.4133499,8.0562091,2.4386686,2.4595468,4.7967694,5.018397,7.0587646,7.6414319,2.5187677,2.9209535,4.9492657,5.9022493,7.3127912,8.9499398,2.1451953,2.7662304,4.189396,5.6257367,6.1370895,8.534066,2.1364219,3.189781,4.177341,6.4311391,6.1392326,9.7306461,1.7836109,2.9988592,3.4580566,6.0756242,5.033785,9.1885878,1.7342522,3.426244,3.3779576,6.8914492,4.9130336,10.4120574,1.4083641,3.230383,2.7113805,6.5128874,3.9101208,9.8266679,1.2876797,3.5595694,2.4787182,7.1493099,3.5573768,10.7779949,1.0204596,3.4333766,1.9246549,6.9051618,2.7256457,10.3961514.8350128,3.6380276,1.5707724,7.2968837,2.1868521,10.9787951.5947156,3.5502435,1.0731669,7.121868,1.4472751,10.7017468.3851587,3.6824639.6693229,7.375342.8300568,11.0748168.1591266,3.6632595.1986404,7.3309057.1349495,10.9963586-.0630881,3.6330884-.2293137,7.2656243-.515688,10.8882818-.2940761,3.7236017-.7110467,7.4351484-1.2278733,11.1340707-.4943238,3.5370667-1.0967412,7.0615258-1.8077879,10.5612888-.7527036,3.7027565-1.6305788,7.3758945-2.603287,11.0270822-.9118302,3.4223931-1.9284723,6.8223169-3.0570255,10.1794453-1.2130724,3.6084091-2.5357787,7.1728842-3.9545905,10.7050452-1.3095797,3.2610899-2.7201539,6.4914729-4.2437107,9.6582321-1.6684182,3.4673986-3.4289906,6.8810183-5.2850657,10.2513068-1.6771916,3.0455056-3.4520291,6.053674-5.3366345,8.9757158-2.094698,3.2479298-4.2596502,6.4371583-6.5205738,9.5715363-2.0348916,2.8211143-4.1701749,5.5873448-6.3960051,8.2608518-2.4699448,2.9664781-5.0080006,5.8616639-7.6288343,8.6959049-2.3602439,2.5522534-4.8198079,5.0310046-7.3512334,7.4132149-2.8188714,2.6526786-5.7019693,5.220838-8.6553214,7.7231969-2.6466182,2.2422714-5.3887391,4.3923887-8.1840361,6.4459652-3.1113401,2.2850668-6.2780665,4.4752336-9.5045993,6.5940748-2.9253576,1.9207701-5.9373776,3.7307343-8.9877728,5.4446934-3.3340906,1.873588-6.7120481,3.6539169-10.1453919,5.3382407-3.1623732,1.5515509-6.3866959,2.9939033-9.643969,4.3347924-3.5162557,1.4473083-7.0664665,2.8013575-10.661147,4.0412856-3.3521732,1.1559781-6.7466059,2.2033269-10.164613,3.1458973-3.6292383,1.0007025-7.2820509,1.9043284-10.965068,2.6872364-3.5250291.7494553-7.0763114,1.3831152-10.6403185,1.912566-3.6610502.5442517-7.3358298.9875424-11.0232671,1.3096129-3.6358016.3171146-7.2820509.5157214-10.9305102.6106214-1.6815448.0439004-3.3631566.068044-5.0453042.068044H226.4293813c-.498158,0-.9963327-.001105-1.4950432-.0049225-3.8563754-.0334527-7.7006958-.1733582-11.5504912-.4076279-3.4937362-.2123362-6.9918424-.5623677-10.4619876-1.0166419-3.8064474-.4981746-7.588768-1.1027685-11.3634036-1.8044724-3.4306314-.6375108-6.8475502-1.4088996-10.2266128-2.2773984-3.7192158-.9562662-7.4077247-2.0069302-11.0660458-3.1755326-3.3571124-1.0725974-6.6835179-2.2582108-9.9649179-3.5431109-3.5249956-1.3798336-7.0088534-2.8529263-10.4471699-4.4357533-3.2539748-1.4977721-6.4591266-3.1080244-9.6116046-4.8088234-3.2852509-1.7720912-6.5205738-3.6325192-9.6944495-5.597759-3.0603071-1.8949857-6.0602553-3.8909324-8.9976679-5.9713648-3.0218984-2.1397031-5.9850954-4.3616818-8.8714834-6.6813064-2.8578577-2.2965861-5.6405556-4.6864647-8.3535686-7.1520558-2.6888778-2.4436241-5.3091758-4.9651706-7.8438829-7.5695621-2.6049362-2.677358-5.1193423-5.4386659-7.5585969-8.2674486-2.3322661-2.7047832-4.5838723-5.4819971-6.7455093-8.3250449-2.2867248-3.0081684-4.4686629-6.0909776-6.571046-9.2297424-1.9707069-2.9423345-3.8558313-5.9494314-5.6345197-9.0124837-1.9120055-3.2918303-3.7181191-6.6374394-5.4375536-10.0335123-1.5872141-3.1349138-3.0849949-6.3263524-4.4598811-9.5605863-1.5054658-3.5414701-2.909979-7.1158237-4.2190314-10.7341112-1.1828678-3.2693275-2.2724597-6.5875115-3.2259928-9.9314463-1.0594208-3.7164691-2.0283157-7.4477727-2.8929722-11.2147223-.7785173-3.3905812-1.4484053-6.8201235-1.9899112-10.256246-.6007598-3.8130434-1.1022162-7.6304568-1.5038166-11.4698371-.3615509-3.4575201-.6024048-6.9413772-.7225576-10.4153558-.1344179-3.8689989-.162944-7.7292244-.0954651-11.5998642.0603506-3.4679511.2529215-6.9474047.5535777-10.4027315.3346698-3.8459604.7774206-7.6705063,1.313439-11.4934282.4860946-3.465741,1.1126388-6.9232611,1.8362931-10.346776.7905891-3.7417178,1.68103-7.4549052,2.6795519-11.1466783.9200678-3.4004596,1.9624818-6.7751348,3.1030983-10.1075671,1.2311466-3.5974256,2.5555607-7.1586358,3.9951842-10.6786915,1.3419693-3.2819518,2.7942171-6.5238541,4.3402766-9.7147402,1.6415288-3.3878353,3.3724826-6.7295935,5.2126182-10.0137554,1.7616774-3.1436956,3.62815-6.2308831,5.5813017-9.2588252,2.0058255-3.1102344,4.096681-6.1650492,6.2874008-9.1490908,2.1599878-2.9423512,4.415989-5.8133684,6.7509926-8.6180159,2.3350036-2.8046391,4.7501147-5.5439885,7.2519049-8.2010454,2.537453-2.6949131,5.1626902-5.304788,7.8581481-7.8411354,2.6241405-2.4694252,5.3217917-4.8642264,8.094067-7.1668651,2.8962664-2.4052321,5.8687894-4.7128017,8.9033037-6.9413688,2.8578577-2.0990926,5.7826544-4.1147878,8.7672491-6.0295388,3.2007651-2.0535514,6.4629608-4.0012193,9.7778303-5.8643931,3.0707381-1.7260142,6.2001608-3.3631559,9.3778707-4.8839791,3.4498358-1.6514027,6.9397211-3.1996594,10.4762527-4.6557453,3.2358755-1.3320948,6.5227672-2.5747603,9.8425759-3.6808147,3.6621552-1.2201712,7.3435316-2.3487199,11.0649407-3.3746752,3.3439523-.9217126,6.7301475-1.7419285,10.1300552-2.4299198,3.7943756-.7675462,7.5959006-1.4396274,11.4248508-2.0085668,3.4383165-.5107822,6.9079091-.9058025,10.3736509-1.1768275,3.8487071-.3012044,7.6935632-.4992629,11.552132-.6002114,1.3359334-.0345662,2.6735076-.0384045,4.0099935-.0384045h336.3412477c.2545624.0005525.5091247.0005525.7642899.0005525Z"/>
      </g>
      <g id="POLYLINE-16" data-name="POLYLINE">
        <line class="cls-9" x1="728.3815147" y1="301.2016828" x2="732.8589594" y2="303.1427791"/>
      </g>
      <g id="POLYLINE-17" data-name="POLYLINE">
        <line class="cls-9" x1="717.2732596" y1="322.7297116" x2="713.0969901" y2="320.2054192"/>
      </g>
      <g id="POLYLINE-18" data-name="POLYLINE">
        <line class="cls-9" x1="697.3395729" y1="342.2310534" x2="693.6022411" y2="339.093963"/>
      </g>
      <g id="POLYLINE-19" data-name="POLYLINE">
        <line class="cls-9" x1="674.8393672" y1="358.1772292" x2="671.6391545" y2="354.4931413"/>
      </g>
      <g id="POLYLINE-20" data-name="POLYLINE">
        <line class="cls-9" x1="649.418157" y1="370.7624592" x2="646.8724664" y2="366.5988484"/>
      </g>
      <g id="POLYLINE-21" data-name="POLYLINE">
        <line class="cls-9" x1="621.4447599" y1="379.204371" x2="619.6720656" y2="374.6577783"/>
      </g>
      <g id="POLYLINE-22" data-name="POLYLINE">
        <line class="cls-9" x1="591.5274868" y1="382.680543" x2="590.6364851" y2="377.882703"/>
      </g>
      <g id="POLYLINE-23" data-name="POLYLINE">
        <line class="cls-9" x1="211.2496853" y1="74.4357437" x2="211.696827" y2="79.295575"/>
      </g>
      <g id="POLYLINE-24" data-name="POLYLINE">
        <line class="cls-9" x1="195.8395371" y1="71.6673115" x2="196.7414889" y2="76.4635106"/>
      </g>
      <g id="POLYLINE-25" data-name="POLYLINE">
        <line class="cls-9" x1="180.6877854" y1="70.2101248" x2="182.0094537" y2="74.907573"/>
      </g>
      <g id="POLYLINE-26" data-name="POLYLINE">
        <line class="cls-9" x1="165.8794853" y1="69.9215405" x2="167.5879364" y2="74.4927958"/>
      </g>
      <g id="POLYLINE-27" data-name="POLYLINE">
        <line class="cls-9" x1="151.4672939" y1="70.6753741" x2="153.5296275" y2="75.0984947"/>
      </g>
      <g id="POLYLINE-28" data-name="POLYLINE">
        <line class="cls-9" x1="137.4956642" y1="72.3531095" x2="139.8800516" y2="76.6110928"/>
      </g>
      <g id="POLYLINE-29" data-name="POLYLINE">
        <line class="cls-9" x1="123.990933" y1="74.8477666" x2="126.6688441" y2="78.9274441"/>
      </g>
      <g id="POLYLINE-30" data-name="POLYLINE">
        <line class="cls-9" x1="225.5291038" y1="78.659705" x2="225.5291038" y2="83.5398457"/>
      </g>
      <g id="POLYLINE-31" data-name="POLYLINE">
        <line class="cls-9" x1="563.0882962" y1="375.5389014" x2="563.0882962" y2="380.4190505"/>
      </g>
    </g>
    <g id="AG-SPORTS">
      <g id="POLYLINE-32" data-name="POLYLINE">
        <path class="cls-12" d="M563.0882962,83.5398457c3.3154053.0285303,6.6215014.1289304,9.9308791.339609,3.191975.203546,6.3735023.5546743,9.5441131.9694431,3.1211851.4087329,6.2287078.9387195,9.3136608,1.5625261,3.1135502.6298341,6.21605,1.3375823,9.279103,2.1819376,3.1195778.8602612,6.2204702,1.7819781,9.2802415,2.8375561,3.1552071,1.088495,6.2747849,2.2763018,9.3515672,3.5688953,3.0049209,1.2618699,5.9511069,2.6493718,8.87037,4.096136,2.8375567,1.4056096,5.6109537,2.9439921,8.3436985,4.5427251,2.7157338,1.5888546,5.3837831,3.2660459,7.9827169,5.0397947,2.6450108,1.8050166,5.2603528,3.6621628,7.7747673,5.6465819,2.5852044,2.0403829,5.1259391,4.1301496,7.5838288,6.323054,2.4721549,2.2055286,4.8526914,4.5081589,7.1783775,6.866209,2.257642,2.2889177,4.406119,4.6842714,6.5052372,7.1180338,2.0568586,2.3849311,4.0198887,4.8538038,5.9055656,7.3753503,1.8917045,2.5292149,3.7230667,5.1100153,5.4348161,7.7648705,1.7572907,2.7245401,3.4597309,5.4836379,5.040884,8.3151665,1.6261586,2.9127159,3.1623732,5.8742715,4.5948474,8.8868434,1.3973806,2.9390528,2.6691209,5.9318846,3.8815906,8.9510365,1.1866852,2.9549588,2.2351393,5.9669949,3.2134062,8.9965777.9666807,2.9933675,1.8357155,6.0218621,2.5928393,9.075036.766433,3.0910301,1.4747338,6.2029054,2.0250466,9.340565.5689312,3.2446482,1.0737027,6.4969814,1.445132,9.7706956.3741752,3.3000679.6205,6.6116383.7812339,9.9287004.1552422,3.2018528.1646183,6.4091973.1086294,9.6137959-.0548505,3.1667425-.2380871,6.3334849-.5130091,9.4887081-.2737835,3.1442397-.6298091,6.2851978-1.1208513,9.4031173-.5020257,3.1875876-1.0698183,6.3642085-1.7720916,9.5144925-.7263834,3.2605541-1.5559714,6.4975172-2.4968677,9.7026684-.9189963,3.1305271-1.9674503,6.217723-3.0767824,9.2851453-1.0785917,2.9818482-2.2999017,5.9143378-3.5826254,8.8133411-1.2799779,2.8924065-2.6576016,5.7442277-4.1350814,8.5411985-1.4851815,2.8117717-3.0295668,5.5982948-4.7067584,8.3009013-1.7304347,2.7887332-3.515653,5.5390576-5.4117776,8.2185922-1.9235164,2.7190483-3.9518447,5.3612792-6.0487528,7.9481239-2.0228366,2.4951929-4.1565125,4.8976959-6.3373372,7.2551934-2.1397035,2.3135971-4.3759144,4.5410675-6.6703243,6.7005275-2.3092108,2.1731558-4.6799024,4.2870745-7.1350463,6.2950762-2.4919118,2.0387421-5.0260831,4.0259154-7.644171,5.9011442-2.7091705,1.9399912-5.4748657,3.8009549-8.3052563,5.5598861-2.783242,1.7287601-5.6323179,3.3395481-8.5148801,4.89495-2.7947613,1.5076505-5.6635941,2.8803515-8.5554654,4.1899644-2.8650154,1.2975244-5.7777152,2.498508-8.7255755,3.5941439-2.9922631,1.1120777-6.0119849,2.1643824-9.0750379,3.066334-3.1393346.9244543-6.294006,1.7858206-9.4843067,2.5171598-3.2435438.7433943-6.5123362,1.3649992-9.7970681,1.8971958-3.1711466.5135113-6.3625858.883869-9.5594498,1.1900001-3.1371245.3001036-6.2885142.4723902-9.4382296.5541301-1.3875357.0361986-2.7750044.0565248-4.1630759.0565248H226.2346923c-.4180589,0-.8361178-.001105-1.2547293-.0049225-3.2270853-.0279945-6.451994-.1228945-9.6719468-.3538825-3.3318805-.2391921-6.6555401-.5837654-9.9643653-1.0434979-3.2320245-.4487824-6.4393697-1.0319786-9.6368365-1.6788321-3.1080418-.6287374-6.188089-1.405618-9.2440094-2.2477631-3.0493404-.8405044-6.0728796-1.7847156-9.0563693-2.8348102-2.9994124-1.0555864-5.9829021-2.1736916-8.9027512-3.4355866-3.0125725-1.3019111-5.9955264-2.6630928-8.925254-4.1444231-2.9719704-1.5032638-5.8835987-3.1206487-8.7507907-4.8148509-2.7656785-1.6338601-5.4556613-3.3916862-8.1083237-5.2016504-2.603287-1.7764779-5.1347125-3.6605137-7.6079724-5.6131292-2.4891659-1.9646705-4.9284205-3.9990259-7.2760401-6.1321322-2.3827299-2.1654875-4.7210319-4.3792286-6.9605746-6.6933949-2.3174485-2.3942654-4.5646679-4.8565413-6.720269-7.3978447-2.1193941-2.498508-4.1312472-5.0798275-6.0931806-7.7028708-1.902127-2.5429442-3.681368-5.1786118-5.4018908-7.8466272-1.7046169-2.643336-3.3203612-5.3475834-4.8378905-8.1028303-1.540032-2.7964015-3.0246443-5.6284659-4.3671661-8.5258283-1.3759829-2.9692239-2.6916237-5.9631607-3.883809-9.0113787-1.2119422-3.099251-2.3070259-6.2413141-3.3165187-9.4118907-.9793217-3.0762124-1.8176413-6.1946678-2.5939611-9.3274049-.7587646-3.060859-1.3891514-6.1557233-1.9334032-9.2610185s-1.0045536-6.2303306-1.3326434-9.3663494c-.3357665-3.2100904-.6078924-6.4272966-.7340769-9.6532929-.1294745-3.3247472-.1684358-6.6522403-.0833891-9.9786284.0839416-3.2720734.3028495-6.5348376.5864947-9.7953917.2765126-3.1810076.7093892-6.3493909,1.2059063-9.5029565.4893846-3.1069361,1.0890477-6.199607,1.792401-9.2654052.7104858-3.0943285,1.486814-6.1782093,2.4101718-9.2165823.9524323-3.1338255,1.9663202-6.2462533,3.1091301-9.3164215,1.1620143-3.1233945,2.4375971-6.2029054,3.8026133-9.2429192,1.3189308-2.9379645,2.7645902-5.8155702,4.2684068-8.6624522,1.4813223-2.8046391,3.0833457-5.546726,4.7555981-8.2416475,1.6612773-2.677358,3.4010128-5.3108155,5.2444385-7.866384,1.878536-2.6049272,3.8102984-5.1725676,5.8550684-7.6502137,2.1199383-2.5681761,4.3073597-5.0803884,6.5907945-7.5048248,2.2505178-2.3898703,4.592654-4.6842714,6.9825248-6.9336921,2.3163434-2.1797442,4.7413329-4.2459115,7.2030736-6.2594134,2.4485806-2.0025267,4.9701109-3.9189269,7.5514644-5.7469904,2.587381-1.8324502,5.2191983-3.6100415,7.9278329-5.2587025,2.7865404-1.6958431,5.6043402-3.3351698,8.4907366-4.8570938,2.9549594-1.5575868,5.9636977-3.0125719,9.0152315-4.3709993,2.9489319-1.3128946,5.9494326-2.4990438,8.9740769-3.62321,2.9588103-1.0994701,5.9664436-2.0716591,8.9938338-2.9631964,3.0383569-.8948274,6.1052441-1.701879,9.1984682-2.3838344,3.1299752-.6896405,6.2753207-1.3167288,9.4442571-1.7995332,3.2830576-.5003596,6.5776344-.9151284,9.8864596-1.2026161,3.282505-.2852943,6.5699493-.4356224,9.8634211-.5212048,1.0627192-.0274336,2.1270792-.0290744,3.1903342-.0290744h336.5684184c.2022569-.0000586.401433-.0000586.6006091-.0000586Z"/>
      </g>
      <g id="POLYLINE-33" data-name="POLYLINE">
        <path class="cls-12" d="M563.0882962,44.4998376c3.7488511.0323686,7.4905362.1207011,11.2333598.3483865,3.7384034.2271371,7.4702435.5623552,11.1883543,1.0149802,3.6846245.4487866,7.3555866,1.0149802,11.0057203,1.6881622,3.7170392.6852496,7.4137187,1.4747419,11.0830735,2.3816411,3.5699676.8827598,7.1142178,1.8785398,10.6233075,2.9785582,3.6352658,1.1395238,7.2381839,2.3788952,10.7988424,3.7334843,3.4092337,1.2969803,6.780628,2.7014973,10.1031993,4.205862,3.5003163,1.5850162,6.9550913,3.2633,10.3550158,5.0540556,3.1991411,1.6854163,6.349928,3.4695919,9.4382296,5.3492242,3.303886,2.010756,6.5496399,4.1087519,9.7306314,6.3093413,2.9533521,2.0425846,5.846295,4.182271,8.6646306,6.4069956,3.0531411,2.4101713,6.0366977,4.8987925,8.9466517,7.4806813,2.6828503,2.3805444,5.2932363,4.8527071,7.8180985,7.4000381,2.739375,2.7634929,5.3980482,5.5972065,7.9782967,8.5104749,2.3657356,2.6713221,4.646952,5.4287791,6.8332683,8.24878,2.3942659,3.0877401,4.6947033,6.2363749,6.9183234,9.4497469,2.021765,2.9214977,3.9436071,5.9258403,5.7645216,8.9768209,2.0091072,3.366446,3.9128667,6.7817148,5.7436932,10.2480084,1.6612522,3.1447922,3.20403,6.3674902,4.6431345,9.6198234,1.5833632,3.5787738,3.0592356,7.1926411,4.4544061,10.8493206,1.265177,3.3154213,2.408531,6.6917373,3.4405098,10.0861694,1.1400724,3.7504911,2.172587,7.521275,3.1156934,11.3260975.8525596,3.4388683,1.5828274,6.9232611,2.1950898,10.4131624.6797706,3.8772198,1.2536577,7.7610364,1.7309705,11.668444.4274183,3.5019564.7335495,7.0341005.917322,10.5574546.2052037,3.9315344.3083413,7.8575939.3083413,11.7946201,0,3.5288458-.1190771,7.073045-.3637275,10.5936532-.2732477,3.9249544-.6419311,7.832362-1.1186412,11.7381121-.4284899,3.5068956-.9711008,7.015432-1.6414953,10.4850239-.7483504,3.8728331-1.5871806,7.7171526-2.5363815,11.5455495-.8482064,3.4213048-1.8061136,6.8321953-2.8896613,10.1865779-1.2097238,3.7455687-2.5012209,7.4532644-3.9046291,11.1313249-1.2607568,3.3038853-2.6296072,6.5803789-4.1103685,9.7921101-1.6431696,3.5634036-3.3730016,7.0768792-5.2060382,10.5464879-1.6629265,3.1480739-3.4284548,6.2539216-5.2976565,9.284057-2.0469466,3.3192555-4.177341,6.5770637-6.4031711,9.7789165-2.0420577,2.9368762-4.1800869,5.8172277-6.4086628,8.6152701-2.418376,3.0366987-4.9190611,5.9993593-7.5054041,8.8945117-2.4002934,2.6877722-4.8889235,5.305893-7.4565142,7.8351079-2.7464741,2.7047832-5.5692299,5.3245448-8.4660572,7.8669198-2.7251099,2.3915195-5.5269703,4.7034757-8.3980132,6.9183219-3.0345227,2.3404865-6.1359509,4.5871781-9.30107,6.7471403-3.0158374,2.0579297-6.0970399,4.0264512-9.235236,5.8934759-3.2710025,1.9460187-6.6012087,3.7877948-9.9819121,5.5363117-3.2687924,1.6903514-6.5902252,3.2830569-9.955592,4.7709505-3.4712502,1.5350757-6.9923949,2.954423-10.5497717,4.276091-3.461941,1.2865409-6.9638646,2.4710828-10.4982029,3.544216-3.6012438,1.0934258-7.2371123,2.0711233-10.8981625,2.9450804-3.6264924.865753-7.2787692,1.6267275-10.9514056,2.2702659-3.690719.6468535-7.4021995,1.1751992-11.1247304,1.5970922-3.7213924.421893-7.4549068.7362617-11.1955203.9321227-3.2161521.1684357-6.4360546.2386564-9.6565599.2512807-.4608376.0016408-.9217421,0-1.3825797,0H226.4547973c-.5042023,0-1.0084045-.0005358-1.51259-.0049225-3.9496513-.034022-7.8861258-.174999-11.8286446-.4153297-3.5085371-.2134077-7.0242236-.5530251-10.5091697-1.0089401-3.9178227-.5129755-7.810966-1.125807-11.6969767-1.8423119-3.4564158-.6369751-6.9068041-1.3946345-10.3105628-2.2697301-3.8250993-.983725-7.6145524-2.059604-11.3836962-3.2407973-3.3691842-1.0561222-6.7180757-2.2274705-10.0055199-3.5145807-3.6616195-1.433579-7.2782334-2.9511414-10.8603063-4.5734487-3.2216103-1.4588276-6.411392-3.0251794-9.5243562-4.7045808-3.4542225-1.8631738-6.8563403-3.8004191-10.209066-5.8413378-3.0378044-1.8489087-6.0333742-3.7971375-8.9356765-5.8528906-3.1859475-2.2560007-6.3137294-4.5761946-9.377879-6.9951393-2.8013497-2.2115645-5.5439896-4.5158524-8.1906245-6.9106536-2.8847388-2.610419-5.6970636-5.287777-8.4364135-8.0512615-2.5237404-2.5456901-4.9750501-5.175866-7.3270647-7.8817542-2.5412956-2.9242519-4.9975445-5.9132327-7.3715093-8.9746108-2.2082666-2.8479703-4.3336966-5.7689406-6.3537789-8.7529654-2.1709629-3.2067752-4.2448158-6.4717496-6.2292436-9.7970326-1.848909-3.0981459-3.6051031-6.2588776-5.2548611-9.4678629-1.7600282-3.4240674-3.4136288-6.8980293-4.9712159-10.4186374-1.469803-3.3225706-2.8408509-6.6933949-4.1005236-10.1015229-1.332095-3.6045582-2.5500732-7.2469558-3.6670987-10.9233754-1.0594208-3.4860504-2.0113089-7.0077636-2.8562127-10.5525154-.884405-3.7098891-1.6442705-7.4477727-2.302635-11.2037388-.6347735-3.6199116-1.1609176-7.2606851-1.5734973-10.9129612-.4246473-3.7581762-.7269443-7.52896-.9239062-11.3057881-.1931193-3.7060549-.2776093-7.4186899-.2452406-11.129684.032917-3.7461045.1859867-7.4905513.4454925-11.2278824.2600541-3.7367785.6265442-7.4669603,1.1126388-11.1812528.4811554-3.679718,1.0786252-7.3451709,1.7830751-10.9881377.7170701-3.7109941,1.5389311-7.4005906,2.4781991-11.0621925.9134836-3.5623153,1.9399874-7.0977411,3.0707297-10.5969516,1.172441-3.6292375,2.4430888-7.2250223,3.8311435-10.7774591,1.3266075-3.3938796,2.7574576-6.7493504,4.289252-10.0554458,1.6151919-3.4860504,3.3247479-6.926007,5.1440384-10.3105606,1.7117494-3.1848418,3.525004-6.3197639,5.4309736-9.3915897,2.0392867-3.2863469,4.1658134-6.5134315,6.3932843-9.6757873,2.0782395-2.950028,4.2546942-5.8369679,6.5150821-8.6492837,2.4255337-3.0180636,4.9300613-5.9664424,7.5251274-8.8402138,2.4035834-2.6619962,4.8987936-5.2504649,7.4675144-7.7533596,2.7870846-2.7157583,5.6449423-5.3481275,8.579609-7.9036877,2.7036871-2.3542075,5.4957108-4.6200867,8.3475327-6.7921458,3.0954174-2.3574975,6.2511855-4.6195341,9.4694974-6.8058584,2.9527744-2.0058251,5.9878329-3.9084959,9.0684495-5.710775,3.3697367-1.971259,6.7882963-3.8366261,10.2556956-5.6301276,3.159058-1.6338433,6.395486-3.1486348,9.659875-4.5597319,3.5924871-1.5520993,7.2189795-2.9966617,10.887179-4.3600284,3.325853-1.2360814,6.7120481-2.3503649,10.1157901-3.3527292,3.7718896-1.1109936,7.5640719-2.1133536,11.3886354-3.0262887,3.4344823-.8196675,6.9128484-1.5164364,10.3956011-2.0957984,3.8827123-.6462968,7.7720215-1.1861576,11.6832641-1.6294567,3.505808-.3972136,7.0401295-.6726295,10.5651252-.8256993,3.0603071-.1327687,6.1178684-.2183595,9.1809214-.2287821.516274-.001645,1.0330839,0,1.5493579,0h335.1753072c.2615945.0032942.5227201.0032942.783377.0032942Z"/>
      </g>
      <g id="POLYLINE-34" data-name="POLYLINE">
        <line class="cls-12" x1="225.5291038" y1="375.5389014" x2="123.089517" y2="375.5389014"/>
      </g>
      <g id="POLYLINE-35" data-name="POLYLINE">
        <line class="cls-12" x1="123.089517" y1="375.5389014" x2="123.089517" y2="414.5789221"/>
      </g>
      <g id="POLYLINE-36" data-name="POLYLINE">
        <line class="cls-12" x1="225.5291038" y1="414.5789221" x2="123.089517" y2="414.5789221"/>
      </g>
      <g id="POLYLINE-37" data-name="POLYLINE">
        <path class="cls-12" d="M563.0882962,83.5398457c3.3154053.0285303,6.6215014.1289304,9.9308791.339609,3.191975.203546,6.3735023.5546743,9.5441131.9694431,3.1211851.4087329,6.2287078.9387195,9.3136608,1.5625261,3.1135502.6298341,6.21605,1.3375823,9.279103,2.1819376,3.1195778.8602612,6.2204702,1.7819781,9.2802415,2.8375561,3.1552071,1.088495,6.2747849,2.2763018,9.3515672,3.5688953,3.0049209,1.2618699,5.9511069,2.6493718,8.87037,4.096136,2.8375567,1.4056096,5.6109537,2.9439921,8.3436985,4.5427251,2.7157338,1.5888546,5.3837831,3.2660459,7.9827169,5.0397947,2.6450108,1.8050166,5.2603528,3.6621628,7.7747673,5.6465819,2.5852044,2.0403829,5.1259391,4.1301496,7.5838288,6.323054,2.4721549,2.2055286,4.8526914,4.5081589,7.1783775,6.866209,2.257642,2.2889177,4.406119,4.6842714,6.5052372,7.1180338,2.0568586,2.3849311,4.0198887,4.8538038,5.9055656,7.3753503,1.8917045,2.5292149,3.7230667,5.1100153,5.4348161,7.7648705,1.7572907,2.7245401,3.4597309,5.4836379,5.040884,8.3151665,1.6261586,2.9127159,3.1623732,5.8742715,4.5948474,8.8868434,1.3973806,2.9390528,2.6691209,5.9318846,3.8815906,8.9510365,1.1866852,2.9549588,2.2351393,5.9669949,3.2134062,8.9965777.9666807,2.9933675,1.8357155,6.0218621,2.5928393,9.075036.766433,3.0910301,1.4747338,6.2029054,2.0250466,9.340565.5689312,3.2446482,1.0737027,6.4969814,1.445132,9.7706956.3741752,3.3000679.6205,6.6116383.7812339,9.9287004.1552422,3.2018528.1646183,6.4091973.1086294,9.6137959-.0548505,3.1667425-.2380871,6.3334849-.5130091,9.4887081-.2737835,3.1442397-.6298091,6.2851978-1.1208513,9.4031173-.5020257,3.1875876-1.0698183,6.3642085-1.7720916,9.5144925-.7263834,3.2605541-1.5559714,6.4975172-2.4968677,9.7026684-.9189963,3.1305271-1.9674503,6.217723-3.0767824,9.2851453-1.0785917,2.9818482-2.2999017,5.9143378-3.5826254,8.8133411-1.2799779,2.8924065-2.6576016,5.7442277-4.1350814,8.5411985-1.4851815,2.8117717-3.0295668,5.5982948-4.7067584,8.3009013-1.7304347,2.7887332-3.515653,5.5390576-5.4117776,8.2185922-1.9235164,2.7190483-3.9518447,5.3612792-6.0487528,7.9481239-2.0228366,2.4951929-4.1565125,4.8976959-6.3373372,7.2551934-2.1397035,2.3135971-4.3759144,4.5410675-6.6703243,6.7005275-2.3092108,2.1731558-4.6799024,4.2870745-7.1350463,6.2950762-2.4919118,2.0387421-5.0260831,4.0259154-7.644171,5.9011442-2.7091705,1.9399912-5.4748657,3.8009549-8.3052563,5.5598861-2.783242,1.7287601-5.6323179,3.3395481-8.5148801,4.89495-2.7947613,1.5076505-5.6635941,2.8803515-8.5554654,4.1899644-2.8650154,1.2975244-5.7777152,2.498508-8.7255755,3.5941439-2.9922631,1.1120777-6.0119849,2.1643824-9.0750379,3.066334-3.1393346.9244543-6.294006,1.7858206-9.4843067,2.5171598-3.2435438.7433943-6.5123362,1.3649992-9.7970681,1.8971958-3.1711466.5135113-6.3625858.883869-9.5594498,1.1900001-3.1371245.3001036-6.2885142.4723902-9.4382296.5541301-1.3875357.0361986-2.7750044.0565248-4.1630759.0565248H226.2346923c-.4180589,0-.8361178-.001105-1.2547293-.0049225-3.2270853-.0279945-6.451994-.1228945-9.6719468-.3538825-3.3318805-.2391921-6.6555401-.5837654-9.9643653-1.0434979-3.2320245-.4487824-6.4393697-1.0319786-9.6368365-1.6788321-3.1080418-.6287374-6.188089-1.405618-9.2440094-2.2477631-3.0493404-.8405044-6.0728796-1.7847156-9.0563693-2.8348102-2.9994124-1.0555864-5.9829021-2.1736916-8.9027512-3.4355866-3.0125725-1.3019111-5.9955264-2.6630928-8.925254-4.1444231-2.9719704-1.5032638-5.8835987-3.1206487-8.7507907-4.8148509-2.7656785-1.6338601-5.4556613-3.3916862-8.1083237-5.2016504-2.603287-1.7764779-5.1347125-3.6605137-7.6079724-5.6131292-2.4891659-1.9646705-4.9284205-3.9990259-7.2760401-6.1321322-2.3827299-2.1654875-4.7210319-4.3792286-6.9605746-6.6933949-2.3174485-2.3942654-4.5646679-4.8565413-6.720269-7.3978447-2.1193941-2.498508-4.1312472-5.0798275-6.0931806-7.7028708-1.902127-2.5429442-3.681368-5.1786118-5.4018908-7.8466272-1.7046169-2.643336-3.3203612-5.3475834-4.8378905-8.1028303-1.540032-2.7964015-3.0246443-5.6284659-4.3671661-8.5258283-1.3759829-2.9692239-2.6916237-5.9631607-3.883809-9.0113787-1.2119422-3.099251-2.3070259-6.2413141-3.3165187-9.4118907-.9793217-3.0762124-1.8176413-6.1946678-2.5939611-9.3274049-.7587646-3.060859-1.3891514-6.1557233-1.9334032-9.2610185s-1.0045536-6.2303306-1.3326434-9.3663494c-.3357665-3.2100904-.6078924-6.4272966-.7340769-9.6532929-.1294745-3.3247472-.1684358-6.6522403-.0833891-9.9786284.0839416-3.2720734.3028495-6.5348376.5864947-9.7953917.2765126-3.1810076.7093892-6.3493909,1.2059063-9.5029565.4893846-3.1069361,1.0890477-6.199607,1.792401-9.2654052.7104858-3.0943285,1.486814-6.1782093,2.4101718-9.2165823.9524323-3.1338255,1.9663202-6.2462533,3.1091301-9.3164215,1.1620143-3.1233945,2.4375971-6.2029054,3.8026133-9.2429192,1.3189308-2.9379645,2.7645902-5.8155702,4.2684068-8.6624522,1.4813223-2.8046391,3.0833457-5.546726,4.7555981-8.2416475,1.6612773-2.677358,3.4010128-5.3108155,5.2444385-7.866384,1.878536-2.6049272,3.8102984-5.1725676,5.8550684-7.6502137,2.1199383-2.5681761,4.3073597-5.0803884,6.5907945-7.5048248,2.2505178-2.3898703,4.592654-4.6842714,6.9825248-6.9336921,2.3163434-2.1797442,4.7413329-4.2459115,7.2030736-6.2594134,2.4485806-2.0025267,4.9701109-3.9189269,7.5514644-5.7469904,2.587381-1.8324502,5.2191983-3.6100415,7.9278329-5.2587025,2.7865404-1.6958431,5.6043402-3.3351698,8.4907366-4.8570938,2.9549594-1.5575868,5.9636977-3.0125719,9.0152315-4.3709993,2.9489319-1.3128946,5.9494326-2.4990438,8.9740769-3.62321,2.9588103-1.0994701,5.9664436-2.0716591,8.9938338-2.9631964,3.0383569-.8948274,6.1052441-1.701879,9.1984682-2.3838344,3.1299752-.6896405,6.2753207-1.3167288,9.4442571-1.7995332,3.2830576-.5003596,6.5776344-.9151284,9.8864596-1.2026161,3.282505-.2852943,6.5699493-.4356224,9.8634211-.5212048,1.0627192-.0274336,2.1270792-.0290744,3.1903342-.0290744h336.5684184c.2022569-.0000586.401433-.0000586.6006091-.0000586Z"/>
      </g>
    </g>
  </g>
  <g class="cls-33">
    <path class="cls-5" d="M227.802471,675.6476563c-56.0830078,0-103.4628906-45.7275391-103.4628906-99.8544922s47.3798828-99.8554688,103.4628906-99.8554688h187.1386719c55.0605469,0,99.8554688,44.7949219,99.8554688,99.8554688,0,55.0595703-44.7949219,99.8544922-99.8554688,99.8544922h-187.1386719Z"/>
    <path class="cls-10" d="M227.802471,670.6476563c-53.3720703,0-98.4628906-43.4384766-98.4628906-94.8544922,0-51.4169922,45.0908203-94.8554688,98.4628906-94.8554688h187.1386719c52.3037109,0,94.8554688,42.5517578,94.8554688,94.8554688,0,52.3027344-42.5517578,94.8544922-94.8554688,94.8544922h-187.1386719Z"/>
    <path class="cls-10" d="M227.802471,665.6476563c-50.6621094,0-93.4628906-41.1484375-93.4628906-89.8544922,0-48.7070312,42.8007812-89.8554688,93.4628906-89.8554688h187.1386719c49.546875,0,89.8554688,40.3085938,89.8554688,89.8554688,0,49.5458984-40.3085938,89.8544922-89.8554688,89.8544922h-187.1386719Z"/>
    <path class="cls-10" d="M227.802471,660.6476563c-47.9521484,0-88.4628906-38.8583984-88.4628906-84.8544922s40.5107422-84.8554688,88.4628906-84.8554688h187.1386719c46.7890625,0,84.8554688,38.0664062,84.8554688,84.8554688s-38.0664062,84.8544922-84.8554688,84.8544922h-187.1386719Z"/>
    <path class="cls-10" d="M227.802471,655.6476563c-45.2412109,0-83.4628906-36.5693359-83.4628906-79.8544922,0-43.2861328,38.2216797-79.8554688,83.4628906-79.8554688h187.1386719c44.0322266,0,79.8554688,35.8232422,79.8554688,79.8554688s-35.8232422,79.8544922-79.8554688,79.8544922h-187.1386719Z"/>
    <path class="cls-10" d="M227.802471,650.6476563c-19.8603516,0-39.7646484-7.9472656-54.6103516-21.8046875-15.3818359-14.3564453-23.8525391-33.1972656-23.8525391-53.0498047s8.4707031-38.6933594,23.8525391-53.0507812c14.8457031-13.8574219,34.7509766-21.8046875,54.6103516-21.8046875h187.1386719c41.2753906,0,74.8554688,33.5800781,74.8554688,74.8554688,0,41.2744141-33.5800781,74.8544922-74.8554688,74.8544922h-187.1386719Z"/>
    <path class="cls-5" d="M414.9415594,645.6481281c38.5799108,0,69.855108-31.2751906,69.855108-69.8550933s-31.2751972-69.8550933-69.855108-69.8550933h-187.139169c-38.5799108,0-73.4627134,31.2751906-73.4627134,69.8550933s34.8828026,69.8550933,73.4627134,69.8550933h187.139169Z"/>
  </g>
  <path class="cls-5" d="M414.9415594,645.6481281c38.5799108,0,69.855108-31.2751906,69.855108-69.8550933s-31.2751972-69.8550933-69.855108-69.8550933h-187.139169c-38.5799108,0-73.4627134,31.2751906-73.4627134,69.8550933s34.8828026,69.8550933,73.4627134,69.8550933h187.139169Z"/>
  <line class="cls-4" x1="79.961363" y1="230.4234927" x2="225.5258584" y2="230.4234927"/>
  <text class="cls-25" transform="translate(132.745281 243.8969563)"><tspan class="cls-3" x="0" y="0">3</tspan><tspan class="cls-32" x="8.0351562" y="0">6</tspan><tspan class="cls-1" x="16.0009766" y="0">.</tspan><tspan x="20.0141602" y="0">5</tspan></text>
  <text class="cls-18" transform="translate(132.745281 224.5102375)"><tspan class="cls-2" x="0" y="0">3</tspan><tspan class="cls-34" x="8.0791016" y="0">0</tspan><tspan class="cls-39" x="15.9399414" y="0">.</tspan><tspan x="19.7587891" y="0">4</tspan></text>
  <line class="cls-4" x1="154.8975193" y1="575.7930348" x2="225.5258584" y2="575.7930348"/>
  <g class="cls-23">
    <line class="cls-13" x1="103.911652" y1="575.7909846" x2="225.5258584" y2="575.7909846"/>
  </g>
  <text class="cls-25" transform="translate(179.1027029 589.2663391)"><tspan class="cls-36" x="0" y="0">1</tspan><tspan class="cls-30" x="6.7788086" y="0">7</tspan><tspan class="cls-1" x="13.0615234" y="0">.</tspan><tspan x="17.074707" y="0">5</tspan></text>
  <text class="cls-18" transform="translate(178.6378592 569.8796204)"><tspan class="cls-2" x="0" y="0">3</tspan><tspan class="cls-34" x="8.0791016" y="0">0</tspan><tspan class="cls-39" x="15.9399414" y="0">.</tspan><tspan x="19.7587891" y="0">4</tspan></text>
  <text class="cls-28" transform="translate(356.7941092 114.2192219)"><tspan x="0" y="0">400m</tspan></text>
  <text class="cls-19" transform="translate(356.7960623 229.2621906)"><tspan x="0" y="0">192m</tspan></text>
  <text class="cls-19" transform="translate(356.7960623 575.7917297)"><tspan x="0" y="0">192m</tspan></text>
  <text class="cls-28" transform="translate(356.7941092 532.4909485)"><tspan x="0" y="0">200m</tspan></text>
  <g>
    <g>
      <circle class="cls-11" cx="225.5258584" cy="230.4214425" r="122.2310368"/>
      <g class="cls-33">
        <path class="cls-16" d="M220.7149108,203.5635957l1.9539948,16.7691953-7.5357453-15.1076631c-1.8165925-4.2292115,4.7894862-6.1955567,5.5817505-1.6615321h0Z"/>
        <path class="cls-16" d="M199.9366683,221.2828688l15.4996541,6.6923247-16.8514008-1.0275242c-4.5706893-.5414005-2.9709725-7.2457204,1.3517466-5.6648005h0Z"/>
        <path class="cls-16" d="M204.8930726,248.136917l13.5454895-10.0768706-9.3156554,14.0799691c-2.7540737,3.6875577-7.7603362-1.049705-4.2298341-4.0030985h0Z"/>
        <path class="cls-16" d="M230.6275494,257.2716923l-1.9539948-16.7691953,7.5357453,15.1074933c1.8165713,4.2289193-4.7895207,6.1958567-5.5817505,1.661702h0Z"/>
        <path class="cls-16" d="M251.4057919,239.5524192l-15.4996541-6.6924945,16.8514008,1.0276941c4.5706136.541518,2.9711144,7.2451796-1.3517466,5.6648005h0Z"/>
        <path class="cls-16" d="M246.4493877,212.6982011l-13.5454895,10.0768706,9.3154856-14.0797992c2.7541041-3.6877935,7.7604009,1.0497094,4.2300039,4.0029287h0Z"/>
        <path class="cls-16" d="M194.6147711,197.017672l19.3155912,22.2887836-23.3185207-18.0587806c-3.2477095-2.7253466,1.0977086-7.3251492,4.0029295-4.230003h0Z"/>
        <path class="cls-16" d="M181.2178905,240.6132319l28.9603941-5.5832779-27.2986918,11.1650272c-3.9842278,1.4497049-5.7950211-4.6132349-1.6617023-5.5817493h0Z"/>
        <path class="cls-16" d="M212.2742646,274.0132038l9.6448029-27.8722314-3.9800013,29.2239777c-.7366673,4.175382-6.8928385,2.7117749-5.6648017-1.3517463h0Z"/>
        <path class="cls-16" d="M256.7275193,263.8174462l-19.3154213-22.2887836,23.3185207,18.0589505c3.2476696,2.7255038-1.0979245,7.3252231-4.0030993,4.2298332h0Z"/>
        <path class="cls-16" d="M270.1245697,220.2218863l-28.9603941,5.5834477,27.2986918-11.1650272c3.9841348-1.4500622,5.7947667,4.6134788,1.6617023,5.5815795h0Z"/>
        <path class="cls-16" d="M239.0681956,186.8220842l-9.6448029,27.8720615,3.9800013-29.2238079c.7365962-4.1753203,6.8923938-2.7120763,5.6648017,1.3517463h0Z"/>
        <circle class="cls-16" cx="225.6689113" cy="230.4201088" r="6.6593454"/>
      </g>
    </g>
    <g class="cls-27">
      <line class="cls-13" x1="103.911652" y1="230.4193924" x2="225.5258584" y2="230.4193924"/>
    </g>
  </g>
  <g>
    <circle class="cls-11" cx="225.5258584" cy="575.7930348" r="122.2310368"/>
    <g class="cls-33">
      <path class="cls-16" d="M220.7149108,548.935188l1.9539948,16.7691953-7.5357453-15.1076631c-1.8165925-4.2292115,4.7894862-6.1955567,5.5817505-1.6615321h0Z"/>
      <path class="cls-16" d="M199.9366683,566.654461l15.4996541,6.6923247-16.8514008-1.0275242c-4.5706893-.5414005-2.9709725-7.2457204,1.3517466-5.6648005h0Z"/>
      <path class="cls-16" d="M204.8930726,593.5085093l13.5454895-10.0768706-9.3156554,14.0799691c-2.7540737,3.6875577-7.7603362-1.049705-4.2298341-4.0030985h0Z"/>
      <path class="cls-16" d="M230.6275494,602.6432845l-1.9539948-16.7691953,7.5357453,15.1074933c1.8165713,4.2289193-4.7895207,6.1958567-5.5817505,1.661702h0Z"/>
      <path class="cls-16" d="M251.4057919,584.9240115l-15.4996541-6.6924945,16.8514008,1.0276941c4.5706136.541518,2.9711144,7.2451796-1.3517466,5.6648005h0Z"/>
      <path class="cls-16" d="M246.4493877,558.0697934l-13.5454895,10.0768706,9.3154856-14.0797992c2.7541041-3.6877935,7.7604009,1.0497094,4.2300039,4.0029287h0Z"/>
      <path class="cls-16" d="M194.6147711,542.3892643l19.3155912,22.2887836-23.3185207-18.0587806c-3.2477095-2.7253466,1.0977086-7.3251492,4.0029295-4.230003h0Z"/>
      <path class="cls-16" d="M181.2178905,585.9848241l28.9603941-5.5832779-27.2986918,11.1650272c-3.9842278,1.4497049-5.7950211-4.6132349-1.6617023-5.5817493h0Z"/>
      <path class="cls-16" d="M212.2742646,619.3847961l9.6448029-27.8722314-3.9800013,29.2239777c-.7366673,4.175382-6.8928385,2.7117749-5.6648017-1.3517463h0Z"/>
      <path class="cls-16" d="M256.7275193,609.1890384l-19.3154213-22.2887836,23.3185207,18.0589505c3.2476696,2.7255038-1.0979245,7.3252231-4.0030993,4.2298332h0Z"/>
      <path class="cls-16" d="M270.1245697,565.5934786l-28.9603941,5.5834477,27.2986918-11.1650272c3.9841348-1.4500622,5.7947667,4.6134788,1.6617023,5.5815795h0Z"/>
      <path class="cls-16" d="M239.0681956,532.1936764l-9.6448029,27.8720615,3.9800013-29.2238079c.7365962-4.1753203,6.8923938-2.7120763,5.6648017,1.3517463h0Z"/>
      <circle class="cls-16" cx="225.6689113" cy="575.791701" r="6.6593454"/>
    </g>
  </g>
  <g>
    <text class="cls-24" transform="translate(160.0866507 753.1770142)"><tspan x="0" y="0">0</tspan></text>
    <text class="cls-24" transform="translate(254.4167288 753.1770142)"><tspan class="cls-26" x="0" y="0">2</tspan><tspan x="8.4659051" y="0">5</tspan></text>
    <text class="cls-24" transform="translate(354.2682913 753.1770142)"><tspan class="cls-38" x="0" y="0">5</tspan><tspan x="8.7618065" y="0">0</tspan></text>
    <text class="cls-24" transform="translate(550.0954397 753.1770142)"><tspan class="cls-31" x="0" y="0">1</tspan><tspan class="cls-20" x="7.9795721" y="0">0</tspan><tspan class="cls-37" x="17.0763429" y="0">0</tspan></text>
    <text class="cls-24" transform="translate(586.2048147 774.6516235)"><tspan class="cls-35" x="0" y="0">m</tspan><tspan class="cls-15" x="13.5938861" y="0">e</tspan><tspan class="cls-22" x="22.0910415" y="0">t</tspan><tspan class="cls-29" x="26.7951902" y="0">e</tspan><tspan class="cls-21" x="35.4612926" y="0">r</tspan><tspan x="40.9701368" y="0">s</tspan></text>
    <g>
      <g>
        <path class="cls-17" d="M363.8044241,776.5988281v-4.5664062h198.5644531v4.5664062h-198.5644531ZM163.8063772,776.5988281v-4.5664062h98.5654297v4.5664062h-98.5654297ZM263.8054007,770.5988281v-4.5664062h98.5654297v4.5664062h-98.5654297Z"/>
        <path class="cls-17" d="M264.52293,766.7495728l97.1307373.0000305v3.1315231l-97.1307373-.0000992v-3.1314545M164.5237845,772.7494965l97.1307373.0000534v3.1314697h-97.1307373v-3.1315231M364.5219534,772.7494965l98.5646973.0000534h98.5648193v3.1315765h-197.1295166v-3.1316299M163.0895804,765.3152847v12h133.3321533-33.3330078v-6l99.9990234.0001068v6h199.9980469v-6.0001068h-99.9991455l-99.9987793-.0000534v-5.9998398h199.9979248l-399.9962158-.0001068h0ZM263.0886038,771.3152847l-99.9987793-.0000534v-5.9998398l99.9987793.0000534v5.9998398h0Z"/>
      </g>
      <path class="cls-17" d="M164.3508108,766.5764618l397.473877.0000992v9.477684l-397.473877-.0000992v-9.477684M163.0897024,765.3153v12l399.9960938.0001068v-12l-399.9960938-.0001068h0Z"/>
    </g>
  </g>
  <g id="POLYLINE-38" data-name="POLYLINE">
    <path class="cls-12" d="M563.0882962,83.5398457c3.3154053.0285303,6.6215014.1289304,9.9308791.339609,3.191975.203546,6.3735023.5546743,9.5441131.9694431,3.1211851.4087329,6.2287078.9387195,9.3136608,1.5625261,3.1135502.6298341,6.21605,1.3375823,9.279103,2.1819376,3.1195778.8602612,6.2204702,1.7819781,9.2802415,2.8375561,3.1552071,1.088495,6.2747849,2.2763018,9.3515672,3.5688953,3.0049209,1.2618699,5.9511069,2.6493718,8.87037,4.096136,2.8375567,1.4056096,5.6109537,2.9439921,8.3436985,4.5427251,2.7157338,1.5888546,5.3837831,3.2660459,7.9827169,5.0397947,2.6450108,1.8050166,5.2603528,3.6621628,7.7747673,5.6465819,2.5852044,2.0403829,5.1259391,4.1301496,7.5838288,6.323054,2.4721549,2.2055286,4.8526914,4.5081589,7.1783775,6.866209,2.257642,2.2889177,4.406119,4.6842714,6.5052372,7.1180338,2.0568586,2.3849311,4.0198887,4.8538038,5.9055656,7.3753503,1.8917045,2.5292149,3.7230667,5.1100153,5.4348161,7.7648705,1.7572907,2.7245401,3.4597309,5.4836379,5.040884,8.3151665,1.6261586,2.9127159,3.1623732,5.8742715,4.5948474,8.8868434,1.3973806,2.9390528,2.6691209,5.9318846,3.8815906,8.9510365,1.1866852,2.9549588,2.2351393,5.9669949,3.2134062,8.9965777.9666807,2.9933675,1.8357155,6.0218621,2.5928393,9.075036.766433,3.0910301,1.4747338,6.2029054,2.0250466,9.340565.5689312,3.2446482,1.0737027,6.4969814,1.445132,9.7706956.3741752,3.3000679.6205,6.6116383.7812339,9.9287004.1552422,3.2018528.1646183,6.4091973.1086294,9.6137959-.0548505,3.1667425-.2380871,6.3334849-.5130091,9.4887081-.2737835,3.1442397-.6298091,6.2851978-1.1208513,9.4031173-.5020257,3.1875876-1.0698183,6.3642085-1.7720916,9.5144925-.7263834,3.2605541-1.5559714,6.4975172-2.4968677,9.7026684-.9189963,3.1305271-1.9674503,6.217723-3.0767824,9.2851453-1.0785917,2.9818482-2.2999017,5.9143378-3.5826254,8.8133411-1.2799779,2.8924065-2.6576016,5.7442277-4.1350814,8.5411985-1.4851815,2.8117717-3.0295668,5.5982948-4.7067584,8.3009013-1.7304347,2.7887332-3.515653,5.5390576-5.4117776,8.2185922-1.9235164,2.7190483-3.9518447,5.3612792-6.0487528,7.9481239-2.0228366,2.4951929-4.1565125,4.8976959-6.3373372,7.2551934-2.1397035,2.3135971-4.3759144,4.5410675-6.6703243,6.7005275-2.3092108,2.1731558-4.6799024,4.2870745-7.1350463,6.2950762-2.4919118,2.0387421-5.0260831,4.0259154-7.644171,5.9011442-2.7091705,1.9399912-5.4748657,3.8009549-8.3052563,5.5598861-2.783242,1.7287601-5.6323179,3.3395481-8.5148801,4.89495-2.7947613,1.5076505-5.6635941,2.8803515-8.5554654,4.1899644-2.8650154,1.2975244-5.7777152,2.498508-8.7255755,3.5941439-2.9922631,1.1120777-6.0119849,2.1643824-9.0750379,3.066334-3.1393346.9244543-6.294006,1.7858206-9.4843067,2.5171598-3.2435438.7433943-6.5123362,1.3649992-9.7970681,1.8971958-3.1711466.5135113-6.3625858.883869-9.5594498,1.1900001-3.1371245.3001036-6.2885142.4723902-9.4382296.5541301-1.3875357.0361986-2.7750044.0565248-4.1630759.0565248H226.2346923c-.4180589,0-.8361178-.001105-1.2547293-.0049225-3.2270853-.0279945-6.451994-.1228945-9.6719468-.3538825-3.3318805-.2391921-6.6555401-.5837654-9.9643653-1.0434979-3.2320245-.4487824-6.4393697-1.0319786-9.6368365-1.6788321-3.1080418-.6287374-6.188089-1.405618-9.2440094-2.2477631-3.0493404-.8405044-6.0728796-1.7847156-9.0563693-2.8348102-2.9994124-1.0555864-5.9829021-2.1736916-8.9027512-3.4355866-3.0125725-1.3019111-5.9955264-2.6630928-8.925254-4.1444231-2.9719704-1.5032638-5.8835987-3.1206487-8.7507907-4.8148509-2.7656785-1.6338601-5.4556613-3.3916862-8.1083237-5.2016504-2.603287-1.7764779-5.1347125-3.6605137-7.6079724-5.6131292-2.4891659-1.9646705-4.9284205-3.9990259-7.2760401-6.1321322-2.3827299-2.1654875-4.7210319-4.3792286-6.9605746-6.6933949-2.3174485-2.3942654-4.5646679-4.8565413-6.720269-7.3978447-2.1193941-2.498508-4.1312472-5.0798275-6.0931806-7.7028708-1.902127-2.5429442-3.681368-5.1786118-5.4018908-7.8466272-1.7046169-2.643336-3.3203612-5.3475834-4.8378905-8.1028303-1.540032-2.7964015-3.0246443-5.6284659-4.3671661-8.5258283-1.3759829-2.9692239-2.6916237-5.9631607-3.883809-9.0113787-1.2119422-3.099251-2.3070259-6.2413141-3.3165187-9.4118907-.9793217-3.0762124-1.8176413-6.1946678-2.5939611-9.3274049-.7587646-3.060859-1.3891514-6.1557233-1.9334032-9.2610185s-1.0045536-6.2303306-1.3326434-9.3663494c-.3357665-3.2100904-.6078924-6.4272966-.7340769-9.6532929-.1294745-3.3247472-.1684358-6.6522403-.0833891-9.9786284.0839416-3.2720734.3028495-6.5348376.5864947-9.7953917.2765126-3.1810076.7093892-6.3493909,1.2059063-9.5029565.4893846-3.1069361,1.0890477-6.199607,1.792401-9.2654052.7104858-3.0943285,1.486814-6.1782093,2.4101718-9.2165823.9524323-3.1338255,1.9663202-6.2462533,3.1091301-9.3164215,1.1620143-3.1233945,2.4375971-6.2029054,3.8026133-9.2429192,1.3189308-2.9379645,2.7645902-5.8155702,4.2684068-8.6624522,1.4813223-2.8046391,3.0833457-5.546726,4.7555981-8.2416475,1.6612773-2.677358,3.4010128-5.3108155,5.2444385-7.866384,1.878536-2.6049272,3.8102984-5.1725676,5.8550684-7.6502137,2.1199383-2.5681761,4.3073597-5.0803884,6.5907945-7.5048248,2.2505178-2.3898703,4.592654-4.6842714,6.9825248-6.9336921,2.3163434-2.1797442,4.7413329-4.2459115,7.2030736-6.2594134,2.4485806-2.0025267,4.9701109-3.9189269,7.5514644-5.7469904,2.587381-1.8324502,5.2191983-3.6100415,7.9278329-5.2587025,2.7865404-1.6958431,5.6043402-3.3351698,8.4907366-4.8570938,2.9549594-1.5575868,5.9636977-3.0125719,9.0152315-4.3709993,2.9489319-1.3128946,5.9494326-2.4990438,8.9740769-3.62321,2.9588103-1.0994701,5.9664436-2.0716591,8.9938338-2.9631964,3.0383569-.8948274,6.1052441-1.701879,9.1984682-2.3838344,3.1299752-.6896405,6.2753207-1.3167288,9.4442571-1.7995332,3.2830576-.5003596,6.5776344-.9151284,9.8864596-1.2026161,3.282505-.2852943,6.5699493-.4356224,9.8634211-.5212048,1.0627192-.0274336,2.1270792-.0290744,3.1903342-.0290744h336.5684184c.2022569-.0000586.401433-.0000586.6006091-.0000586Z"/>
  </g>
</svg>