<svg enable-background="new 0 0 456.88104 286.54581" viewBox="0 0 456.88104 286.54581" xmlns="http://www.w3.org/2000/svg"><path d="m206.89769 60.75232c-.97461-.52051-1.34277-1.73242-.82227-2.70703.51807-.96973 1.71973-1.34082 2.69385-.82812.1377.06836 6.73975 3.29102 21.57617 1.2207.18866-.03381.57507-.08008 1.0777-.06396.89465-.2124 1.77991-.23584 2.63879-.03589 5.10419 1.18799 7.65619 9.63721 6.51428 19.99048-2.27808-2.59631-4.99744-4.20227-8.01593-4.47681-6.10919-.55591-12.00024 4.45435-15.98682 12.54785.18164-2.34924.55511-4.8125 1.14038-7.32715 1.54645-6.64429 4.24963-12.32886 7.33313-16.08228-12.30846.77686-17.88561-2.09692-18.14928-2.23779zm25.19087 40.27356.0226-.62917c.02-.70041.40575-1.33983 1.0162-1.68447.60997-.34463 1.35757-.34344 1.96764.00086 8.7424 4.94676 19.63663 9.23492 38.3428-2.53855.30383-.19084.64651-.29318.99298-.30576.34448-.01251.69223.06379 1.00754.23019.6322.3347 1.03778.98154 1.06372 1.69592.16971 4.67368-7.31271 39.20232-26.9621 40.2598-3.91666.18816-7.26384-1.03006-9.96365-3.68872-1.16185-1.14389-2.37524-2.754-3.48268-5.00644-.09872-.15051-.17401-.30992-.22781-.47606-2.45191-5.2605-4.31133-13.84321-3.77724-27.8576zm29.67999 25.15964c-1.46371-1.18466-4.26031-2.96796-8.02046-3.1528-4.33344-.21081-8.8577 1.69907-13.47107 5.67067.73663 1.2766 1.46912 2.18507 2.10587 2.81178 1.84344 1.81517 4.04811 2.65173 6.73286 2.55424.06978-.00253.13907-.00505.20926-.00955 5.09253-.27415 9.22669-3.64612 12.44354-7.87434zm57.49646-68.33765c.13956-9.65121-2.66595-16.97811-7.8866-18.5089-.01865-.00546-.03784-.00795-.05649-.01328-2.05099-.78075-4.08209-.49133-4.539-.43302-9.24915.78612-18.81454 7.97922-27.17239 19.02449-6.19952 8.19298-9.69464 16.05096-9.84048 16.38114-.44601 1.01059.01242 2.19073 1.02298 2.63723.22623.09888.4603.15419.69333.16738.80875.04578 1.59778-.40643 1.94345-1.19089.11139-.25284 9.45944-21.07822 23.97894-29.07524-3.66714 4.67075-6.95648 11.14967-9.1539 18.64402-4.90927 16.74288-3.27795 29.97397 4.58353 32.2791 7.86151 2.30507 18.97623-7.18867 23.8855-23.93149.10199-.3477.19604-.69389.29169-1.04035l-21.34821 4.3726zm134.69468 178.99625c-.46875 1.12305-1.50488 1.81543-2.8418 1.90234-.38135.02441-.75928.03613-1.13281.03613-6.29004 0-11.44678-3.29492-11.67578-3.44336-.19141-.12598-18.33545-12.03516-26.31836-17.05078-5.6842-3.5708-19.99109-8.59717-27.3941-11.08057-14.38135 33.76123-32.77643 37.93933-41.20355 38.09912-.1748.00391-.35254.00488-.52686.00488-19.34186 0-34.45142-20.06396-39.24445-27.25244l-160.43932 20.65491-5.05151-8.89392c-5.40765-5.13428-15.77271-12.73682-27.84235-10.22534-14.8587 3.10547-26.3111 28.5603-29.49445 38.17188l-4.35662 27.08203-1.75391-.05078c-.58008-.0166-6.21436-.43164-25.12354-9.65918-19.12842-9.33496-29.80664-19.45215-30.25195-19.87793-8.16162-7.43945-17.68457-17.24023-16.50293-21.49512.32812-1.18164 1.27393-2.01172 2.59521-2.27539 6.66016-1.33691 12.08398 1.10742 12.31201 1.21191.24854.12207 19.6499 9.74219 28.21533 13.65039 5.91455 2.69727 20.01673 5.6748 27.86695 7.20496 2.7926-7.67053 14.88843-37.62024 34.85767-41.79285 8.0766-1.68665 16.48413-.15125 24.55951 4.42261l28.32666-70.43872c-5.36603 6.72461-12.63593 14.0896-22.1933 20.4585-17.57422 11.71094-33.40967 13.5791-41.72217 13.5791-2.8772 0-4.83356-.22168-5.66864-.33838-.54712.0813-1.43011.18115-2.46857.18115-1.8623 0-4.22363-.32129-6.04492-1.64355-1.43994-1.04492-2.32715-2.54688-2.56592-4.34375-.40283-3.0332.69092-4.74902 1.6792-5.65527.0752-.06885.15308-.12793.22998-.19067l-8.88721-14.9812c-.84521-1.4248-.37549-3.26465 1.04932-4.11035s3.26514-.37598 4.11084 1.0498l8.73853 14.73059-.62329-17.16711c-.06006-1.65527 1.2334-3.0459 2.88916-3.10645 1.66064-.02637 3.04688 1.2334 3.10693 2.88965l.96344 26.53687c5.20728.39551 22.48132.50769 41.88617-12.42261 23.45947-15.63379 34.36609-37.47997 34.46033-37.69677.00006-.00024.00012-.00024.00018-.00049l22.5976-56.19238c-3.63428-3.0332-7.98682-9.3086-4.49707-16.84864 2.35596-5.08887 9.52344-20.57129 37.81006-17.39355 19.12305 2.15137 28.97705 7.35352 32.64354 9.76074 4.76367-5.75488 23.45947-25.39648 64.92334-37.20605 19.87939-5.66211 33.77637-5.22168 41.30176 1.30957 1.8894 1.63953 3.14862 3.47644 3.99286 5.27368l12.40582 15.27319s4.57629 12.71167-12.71185 27.76257c-9.65924 26.76722-52.42065 147.43713-57.08704 160.60706 5.31311 7.35486 17.28333 21.44775 31.00714 21.44775.12598 0 .25098-.00098.37695-.00293 17.79102-.33789 33.87158-23.36914 43.01611-61.61035l3.48035.83252.05042.02087c.48822.12439 1.69025.51062 4.08484 1.68872l.00079.00037c3.34906 1.64783 9.02686 4.84338 18.33282 11.03369 17.72168 11.78809 26.96436 23.23047 27.34912 23.71191 7.47852 8.60937 16.09913 19.79785 14.40333 23.85742zm-432.76592 14.71386c3.15619-3.78784 6.0835-6.75464 8.12787-8.69702-6.97327-3.396-13.22241-6.49451-13.33264-6.54907-.00391 0-4.1167-1.81543-9.16064-1.01367.95336 2.42065 6.4735 8.96191 14.36541 16.25976zm14.80157 11.32495 10.00018-12.17456c-.62366-.23938-1.20557-.47864-1.72772-.7168-1.95477-.89185-4.46826-2.07837-7.18579-3.37939-.98315.84875-5.14429 4.54468-9.78375 10.11755 2.23083 1.72706 5.14832 3.84925 8.69708 6.1532zm40.68116-4.70288c-4.15686-.76685-14.11457-2.68457-22.43689-4.90442l-11.34503 13.81189c2.58984 1.48022 5.39728 2.98096 8.41962 4.45581 12.5498 6.125 18.99903 8.20703 21.77979 8.9082zm244.54942-116.34985c-6.45459 7.66858-14.70081 16.35132-22.47327 21.26685-15.71484 9.94141-46.27098 16.01855-47.56395 16.27246-.00446.00098-.00885.00049-.01331.00134-.00659.00134-.01233.00427-.01892.00549-.00714.00134-.01416.00073-.0213.00195-.15607.02759-.31335.04077-.47076.04346-.01892.00049-.03839.00537-.05725.00537-.02277 0-.04449-.00537-.06714-.00586-.13513-.00317-.27026-.01404-.40479-.03552-.01587-.00256-.03247-.00183-.04828-.00452-.02704-.00488-.05225-.01538-.0791-.02087-.03687-.00745-.07239-.0177-.10895-.02673-.07721-.0188-.15375-.03882-.22986-.06396-.02551-.00854-.05261-.01233-.07782-.02148-.039-.01416-.0744-.03564-.11267-.05127-.04071-.0166-.08258-.02832-.1228-.04688-.00525-.00232-.0108-.00366-.01599-.0061-.03827-.01794-.07422-.04321-.112-.06299-.0321-.0166-.06689-.02808-.09833-.04602-.03101-.0177-.05835-.04089-.08868-.05957-.03259-.02014-.06702-.03455-.09912-.05603-.0307-.02051-.05383-.04749-.0835-.06897-.03583-.02588-.07343-.04712-.10828-.07483-.0127-.01001-.02673-.01794-.03931-.0282-.05042-.04114-.0932-.09094-.14087-.13538-.0506-.04724-.10126-.09338-.14801-.14355-.02472-.02637-.05298-.04883-.07672-.07617-.01434-.01648-.02606-.03516-.0401-.052-.00696-.00842-.01599-.01392-.02289-.02246l-18.25-22.46973c-1.04443-1.28613-.84863-3.17578.43701-4.2207 1.28613-1.04395 3.17578-.84766 4.22021.4375l10.82941 13.33337-3.117-16.84021c-.30176-1.62891.77441-3.19434 2.40381-3.49609 1.62988-.29785 3.19434.77441 3.49561 2.4043l2.70105 14.59302c2.39343-.021 5.55925.4071 7.05138 2.59253.92334 1.35352.99316 3.07812.19141 4.7334-.39923.82373-.87061 1.70264-1.36157 2.5741 9.91272-2.35852 28.21118-7.32141 38.66187-13.9325 12.71173-8.04028 27.53326-27.93506 31.48004-33.41454l26.9057-79.8833c.09766-.28906.25977-.55176.47461-.76855 12.16797-12.28516 12.41455-22.9043 12.41553-23.00977.00098-.08398.00732-.17871.01855-.26172.03223-.25293.76025-6.45215-4.24658-10.75781-4.43799-3.81738-14.55566-6.99219-37.54102-.44531-46.46582 13.2334-63.83105 37.0293-64.00098 37.26758-.32861.46094-.83789.7627-1.3999.82812-.56104.06152-1.12695-.10938-1.55225-.4834-.07812-.06738-8.84471-7.41699-32.15672-10.04004-2.49365-.28027-4.80518-.41113-6.94482-.41113-17.4126 0-23.61035 8.64453-26.78809 15.50977-3.48291 7.52637 4.0708 12.60645 4.39404 12.81934.79541.52246 1.1123 1.53418.75684 2.41699l-60.70209 150.94686c.23779.16248.47681.31592.71381.48376.31262.22144.61322.44482.91443.66797l164.32872-22.40527zm-69.10161 26.29199.00635.03418c.00592-.01099.01215-.02197.01801-.03296-.00763-.00073-.01673-.00049-.02436-.00122zm165.62249 30.01636c-2.37103-1.81091-4.95496-3.6709-7.75537-5.53369-8.62244-5.73535-13.9494-8.78418-17.10522-10.39746-2.07819 8.0769-4.35876 15.13049-6.77264 21.2854 4.77435 1.60181 12.19446 4.1897 18.55725 6.83228zm3.07885 21.04395c1.15533-.75818 5.73108-3.8584 11.0061-8.70984-1.98383-2.00928-4.59418-4.49927-7.80487-7.25232l-11.52582 10.7417c.58655.32007 1.13177.6344 1.6178.9397 1.82075 1.14379 4.16767 2.64477 6.70679 4.28076zm29.30591 15.59912c-.83075-3.00098-6.90955-11.36206-12.92059-18.38721-3.5849 3.29553-6.84589 5.82959-9.1286 7.48755 6.49292 4.22156 12.31006 8.04004 12.41296 8.10767.03369.02148 4.50977 2.83007 9.63623 2.79199zm-163.49805-101.34278 22.20801-22.208c.78125-.78125.78125-2.04688 0-2.82812-.78027-.78125-2.04785-.78125-2.82812 0l-22.20801 22.208c-.78125.78125-.78125 2.04688 0 2.82812.39014.39062.90234.58594 1.41406.58594s1.02393-.19531 1.41406-.58594zm-1.65039-11.35448 12.50439-12.50391c.78125-.78125.78125-2.04688 0-2.82812s-2.04785-.78125-2.82812 0l-12.50439 12.5039c-.78125.78125-.78125 2.04688 0 2.82812.39062.39062.90234.58594 1.41406.58594s1.02393-.19531 1.41406-.58593zm14.10498 14.10546 12.50391-12.50488c.78125-.78125.78125-2.04688 0-2.82812s-2.04785-.78125-2.82812 0l-12.50391 12.50488c-.78125.78125-.78125 2.04688 0 2.82812.39062.39062.90234.58594 1.41406.58594s1.02393-.19532 1.41406-.58594zm-103.27098 1.71484 20.05273-20.0537c.78125-.78125.78125-2.04688 0-2.82812s-2.04785-.78125-2.82812 0l-20.05273 20.0537c-.78125.78125-.78125 2.04688 0 2.82812.39062.39062.90234.58594 1.41406.58594s1.02393-.19531 1.41406-.58594zm-2.12109-10.88378 11.29102-11.29102c.78125-.78125.78125-2.04688 0-2.82812-.78027-.78125-2.04785-.78125-2.82812 0l-11.29102 11.29102c-.78125.78125-.78125 2.04688 0 2.82812.39014.39062.90234.58594 1.41406.58594s1.02392-.19531 1.41406-.58594zm14.10449 14.10546 11.29102-11.29102c.78125-.78125.78125-2.04687 0-2.82812-.78027-.78125-2.04785-.78125-2.82812 0l-11.29102 11.29101c-.78125.78125-.78125 2.04688 0 2.82812.39014.39062.90234.58594 1.41406.58594s1.02393-.1953 1.41406-.58593z"/></svg>