<svg enable-background="new 0 0 534.26398 416.85361" viewBox="0 0 534.26398 416.85361" xmlns="http://www.w3.org/2000/svg"><path d="m323.35867 12.00495-33.60458 33.60453 63.04932.00023-69.39026 69.39082c9.41931 6.28683 17.2865 14.71142 22.92963 24.56953l71.5383-71.53828-.00275 65.70193 33.6055-33.60545.00946-88.12988z"/><g clip-rule="evenodd" fill-rule="evenodd"><path d="m177.77414 175.65103c0-36.06906 29.23633-65.29682 65.29678-65.29682s65.28821 29.22776 65.28821 65.29682c0 36.05185-29.22775 65.29677-65.28821 65.29677s-65.29678-29.24492-65.29678-65.29677zm85.25549 37.96785h-8.74663l8.05418 12.21121h8.80698zm-40.22444 0-8.10797 12.21121h8.80698l8.06073-12.21121zm46.06429-13.32559-2.72968 5.45934c-.91843 1.98285-3.2876 3.57083-5.58804 4.13736h-35.27069c-2.22324-.57513-4.44643-2.20602-5.42497-4.13736l-2.75542-5.48509c-1.21887-2.42055-2.08586-6.60942-1.93994-9.31334l2.99576-47.9147c.18028-3.54509 3.35625-6.91849 7.6653-6.91849h5.25136c-.8479-2.11418-1.7771-4.43822-2.48175-6.20386-2.71661.28357-4.50751.53046-4.54939.53622-1.83287.258-3.5363-1.02562-3.79292-2.86351-.25618-1.83881 1.0256-3.53631 2.86349-3.7934.42346-.05926 10.47536-1.4477 19.80797-1.4477 9.33305 0 19.38451 1.38844 19.80797 1.4477 1.83789.25709 3.11966 1.95459 2.86349 3.7934-.23474 1.68018-1.67471 2.89632-3.32434 2.89632-.155 0-.31134-.01094-.4686-.03281-.04193-.00577-1.83704-.25328-4.55917-.53726-.70602 1.76057-1.63768 4.08632-2.48602 6.2049h5.51465c4.12021-.02576 7.70819 3.55368 7.70819 6.91849l2.8327 48.00052c.17165 2.69529-.79835 6.78975-1.93995 9.25327zm-35.38922-70.82018c.8373 2.09566 1.84598 4.61638 2.66277 6.64789h13.54251l.37599-.93889c.73668-1.83978 1.57312-3.92821 2.28729-5.70998-2.94647-.22643-6.25491-.40266-9.42827-.40266-3.17757 0-6.49076.17675-9.44029.40364zm1.18417 66.97141c-.2952-1.03952-1.12526-1.84085-2.17451-2.0992l-8.11526-1.99823c-1.89595-.46683-3.72729.96829-3.72729 2.92088v1.99823c0 1.66132 1.34674 3.00812 3.00812 3.00812h8.1152c1.99651 0 3.43909-1.90924 2.89374-3.8298zm30.52963-1.17655c0-1.95259-1.83139-3.38771-3.72736-2.92088l-8.11525 1.99823c-1.04926.25835-1.87932 1.05968-2.17451 2.0992-.54535 1.92056.89723 3.8298 2.89375 3.8298h8.11525c1.66135 0 3.00812-1.3468 3.00812-3.00812zm.21613-9.65083-2.32043-38.79828c-.3183-2.40398-2.62048-3.0439-4.62054-3.31306 0 0-6.07721-.95508-15.54849-.95508-9.47134 0-15.54849.95508-15.54849.95508-2.00011.26917-4.30232.90909-4.62061 3.31306l-2.32043 38.79828c-.13737 2.06877 1.55591 3.04659 3.51932 3.75972 0 0 10.15111 3.73413 18.97021 3.73413s18.97015-3.73413 18.97015-3.73413c1.9634-.71313 3.6567-1.69095 3.51931-3.75972zm-37.31189-37.46271-.04694.00706-.05128.00706c-.25208.03397-.45697.06929-.62175.1028l-.26637 4.45279h31.61757l-.2663-4.45279c-.16501-.03351-.3699-.06883-.62198-.1028l-.0513-.00684-.05127-.00798c-.04297-.00677-3.81236-.57986-9.91116-.80652h-9.81378c-6.09891.22673-9.869.79993-9.91544.80722z"/><path d="m13.59751 339.44623c0-36.12958 29.28658-65.4064 65.409-65.4064s65.40041 29.27682 65.40041 65.4064c0 36.11234-29.27798 65.40631-65.40041 65.40631s-65.409-29.29398-65.409-65.40631z" fill="#fff"/><path d="m13.59751 339.44623c0-36.13104 29.28658-65.40903 65.409-65.40903s65.40041 29.27798 65.40041 65.40903c0 36.1138-29.27798 65.40897-65.40041 65.40897s-65.409-29.29517-65.409-65.40897m41.86366-26.94895v11.7775s5.67287.40543 9.29-.19141c3.33456-.5502 6.86201-2.29837 6.86201-2.29837v55.78311h17.48804v-76.24384h-13.58156s-2.30439 6.1022-7.00666 8.45334c-4.70228 2.35114-13.05183 2.71967-13.05183 2.71967z" fill="#6abf4a"/><path d="m177.66193 339.44623c0-36.12958 29.28658-65.4064 65.40901-65.4064s65.40041 29.27682 65.40041 65.4064c0 36.11234-29.27798 65.40631-65.40041 65.40631s-65.40901-29.29398-65.40901-65.40631z" fill="#fff"/></g><path d="m243.07085 266.57144c5.77681 0 11.39101.69629 16.78322 1.97287v-21.99136c-5.39221 1.27655-11.00641 1.97276-16.78322 1.97276-5.79134 0-11.41931-.69923-16.82401-1.98177v22.00934c5.4047-1.28259 11.03267-1.98184 16.82401-1.98184z"/><path d="m149.8981 322.64279c1.2794 5.39835 1.97704 11.01938 1.97704 16.80331 0 5.78415-.69763 11.40536-1.97714 16.80389h22.27307c-1.27962-5.39853-1.97737-11.01974-1.97737-16.80389 0-5.78394.69769-11.40497 1.97726-16.80331z"/><path clip-rule="evenodd" d="m177.77414 339.44623c0-36.06906 29.23633-65.29681 65.29678-65.29681s65.28821 29.22775 65.28821 65.29681c0 36.05185-29.22775 65.29675-65.28821 65.29675s-65.29678-29.2449-65.29678-65.29675zm67.36761-6.74237 1.35892-3.65863c.41814-1.14984-.10452-2.40424-1.25438-2.82236-1.14986-.41815-2.40425.10452-2.82237 1.25436l-1.35892 3.44958c1.67252.00001 3.03144.73173 4.07675 1.77705zm-8.15351 8.98977-.31358.73172c-.41814 1.14987.10452 2.40427 1.25438 2.82239.20906.10452.52266.10452.73174.10452.83624 0 1.6725-.52264 1.98611-1.35892l.94078-2.29971c-.10452 0-.3136 0-.41812 0zm-31.35968 3.13599-11.60307 18.08408c-1.14986 1.77704-.6272 4.18127 1.14984 5.33115.6272.41812 1.35893.6272 2.09065.6272 1.25439 0 2.50877-.6272 3.24049-1.77707l11.28949-17.66595-3.03143-1.46344c-1.35892-.73173-2.50878-1.77705-3.13597-3.13597zm52.57972 2.92688-3.13596 8.25806-8.25806 5.43567c-1.88158 1.25439-2.29971 3.76318-1.14986 5.54022.83626 1.14984 2.09065 1.77704 3.34503 1.77704.73174 0 1.56799-.20905 2.19519-.6272l9.30336-6.16739c.73172-.41812 1.25439-1.14984 1.56799-1.88159l2.71783-7.00366-5.64474-4.39035c-.4181-.3136-.7317-.6272-.94078-.9408zm34.28659-13.58917c-.73172-1.67252-2.61331-2.50879-4.39035-1.77707l-4.70395 1.98611-2.92691-4.70395c-.83624-1.25439-1.88159-2.29971-3.24051-3.03143l-5.64471-2.92691c-1.67252-.9408-3.65863-1.25439-5.4357-.9408l-8.1535 1.35892c-.9408.10455-1.77707.73175-2.29971 1.46347l-4.28583 6.89914c-.9408 1.56796-.52266 3.65863 1.04532 4.5994 1.56798.9408 3.65863.52267 4.59943-1.04532l3.55411-5.64474 3.86768-.62717-4.80847 11.91666c-.6272 1.67252-.20908 3.55411 1.25436 4.70395l10.24417 8.04898 1.67252 11.08044c.3136 1.98611 1.98611 3.44955 3.97223 3.44955h.6272c2.19519-.3136 3.65863-2.40424 3.34503-4.49487l-1.88159-12.64841c-.10452-1.04535-.73172-1.88159-1.46344-2.50879l-6.0629-4.70395 4.91302-8.88525 3.13599 4.91302c.62717.9408 1.67249 1.56799 2.82236 1.56799.41812 0 .83624-.10455 1.25439-.20908l7.31723-3.03143c1.56801-1.14983 2.29973-3.13595 1.67253-4.80846zm-51.32534-1.04535h-6.69006l-4.39035-5.33112c-.52266-.6272-1.14986-1.14987-1.88158-1.56799l-6.06288-3.97223c-1.56798-1.04532-3.55409-1.56799-5.54021-1.35892l-8.04898.6272c-.83626.10452-1.67252.41812-2.19518 1.14984l-5.54022 6.48102c-1.14986 1.35892-.94078 3.34503.3136 4.49487 1.35892 1.14984 3.34503.9408 4.49489-.3136l4.70395-5.43567 4.80849-.41815-7.00366 12.54388c-.52266.9408-.62718 1.98611-.31358 3.03143.31358 1.04532 1.04532 1.88159 1.9861 2.29971l10.76683 5.1221-5.74928 8.1535c-1.25438 1.67252-.83626 4.07675.83626 5.33115.73174.52267 1.46346.73172 2.29971.73172 1.14986 0 2.40425-.52267 3.13597-1.56799l8.78072-12.02121c.62718-.9408.94078-2.09064.62718-3.24048-.31358-1.14987-1.04532-2.09067-2.09064-2.50879l-7.52632-3.55411 5.64474-8.4671 4.07675 5.01755c.6272.73172 1.56799 1.14984 2.50877 1.14984h8.25806c1.77705 0 3.24049-1.46344 3.24049-3.24048s-1.67252-3.13597-3.44957-3.13597zm-10.55776-23.20615c3.75255 0 6.7946 3.04205 6.7946 6.79459 0 3.75256-3.04205 6.79462-6.7946 6.79462s-6.7946-3.04205-6.7946-6.79462c0-3.75253 3.04205-6.79459 6.7946-6.79459zm48.41924.13062c3.8533-.3371 7.25031 2.51334 7.5874 6.36667.3371 3.8533-2.51337 7.25031-6.36667 7.5874-3.85333.3371-7.25031-2.51337-7.5874-6.36667-.3371-3.85333 2.51333-7.25031 6.36667-7.5874z" fill-rule="evenodd"/><path d="m375.18604 199.06717h-33.33826v-47.4534h14.98895v35.48886h18.3493v11.96454z"/><path d="m391.71341 160.82239h-13.84619v-9.20862h13.84619zm0 38.24478h-13.84619v-34.81697h13.84619z"/><path d="m395.53098 199.53758h12.56897v.53789c0 2.6438 1.81509 3.96568 5.4444 3.96568 2.15103 0 3.77469-.43668 4.87323-1.31094 1.09766-.87337 1.64691-2.36392 1.64691-4.46985v-4.43611c-1.3898 2.37578-4.48169 3.56274-9.27563 3.56274-2.73404 0-5.14218-.49229-7.22577-1.4787-2.08356-.9855-3.69675-2.30739-4.83951-3.9657-1.1423-1.65738-1.98285-3.42781-2.52026-5.31038-.53787-1.88165-.80682-3.87544-.80682-5.98137 0-5.06332 1.34424-9.21954 4.03317-12.46869 2.68848-3.24821 6.81052-4.87279 12.36703-4.87279 4.34586 0 7.52844 1.41124 9.54456 4.23463v-3.29381h11.96411v33.53975c0 9.58878-6.60995 14.38408-19.82803 14.38408-2.64471 0-4.90652-.13402-6.78864-.40295s-3.74188-.79678-5.57886-1.5799c-1.83789-.78493-3.22635-1.99471-4.16718-3.62929-.94128-1.63643-1.41168-3.68674-1.41168-6.15002zm24.19711-19.08911c0-5.01775-1.70343-7.52753-5.108-7.52753-4.03314 0-6.04929 2.68846-6.04929 8.0654 0 2.82339.50415 4.73877 1.51199 5.74707 1.00827 1.00829 2.31924 1.51244 3.9324 1.51244 3.80799 0 5.7129-2.59822 5.7129-7.79738z"/><path d="m476.15445 199.06717h-13.84619v-19.89502c0-3.31569-1.65829-4.97398-4.974-4.97398-3.40594 0-5.108 1.74763-5.108 5.242v19.627h-13.84619v-47.4534h13.77875v16.13171c2.50888-3.31569 6.20609-4.97398 11.09027-4.97398 1.56805 0 3.04675.19144 4.43655.57161 1.388.38107 2.75549 1.00737 4.0997 1.88165 1.34424.87337 2.40814 2.19617 3.19263 3.96568.78357 1.77043 1.17648 3.9101 1.17648 6.41896z"/><path d="m496.82257 165.05701h5.98227v7.52753h-6.18375v13.37579c0 .67189.04422 1.22162.13446 1.64645.08936.42665.43668.86333 1.04156 1.31096.60489.44853 1.46732.67188 2.58774.67188.76169 0 1.59036-.08934 2.48697-.26894v9.47755c-4.16714.49229-7.08035.73935-8.73773.73935-2.33066 0-4.27975-.27988-5.84781-.84053-1.56894-.55977-2.73358-1.35472-3.49481-2.3858-.7626-1.03017-1.28864-2.08313-1.5799-3.15889-.29175-1.07574-.43671-2.30739-.43671-3.69675v-16.87108h-4.70505v-7.52753h4.90652v-10.95625h13.84622v10.95626z"/><path d="m341.84778 218.82819h26.68411c2.15103 0 4.16714.23521 6.04926.70563s3.66302 1.24348 5.34366 2.31924c1.68018 1.07484 3.01303 2.65474 3.99945 4.73877.98502 2.08313 1.4787 4.5601 1.4787 7.42725 0 3.18167-.7626 5.83641-2.28552 7.96422-1.52383 2.12871-4.01083 3.84262-7.46097 5.14264l11.62814 19.15569h-16.80362l-9.20816-16.73616h-4.36911v16.73616h-15.05594zm15.05594 20.97078h6.25122c1.34424 0 2.47516-.08934 3.3941-.26894.91803-.17868 1.79184-.70563 2.62146-1.57899.82867-.87427 1.2435-2.09406 1.2435-3.66393 0-1.25352-.22473-2.27367-.67236-3.05769-.44852-.78403-1.09854-1.34468-1.94913-1.68018-.85147-.3364-1.61316-.54881-2.28503-.63907-.67236-.08934-1.50195-.13402-2.487-.13402h-6.11676z"/><path d="m424.82333 266.28162h-13.64429v-2.68848c-1.30002.85147-2.33063 1.4787-3.09186 1.88165-.7626.40387-1.88211.77307-3.36084 1.10947-1.4787.33551-3.18213.50415-5.10843.50415-3.6293 0-6.62045-.99734-8.97296-2.99112-2.35254-1.9938-3.52856-4.7388-3.52856-8.23407 0-3.85356 1.58994-6.85564 4.77206-9.00623 1.83698-1.25444 5.04099-2.19527 9.61157-2.82339 4.57056-.62723 7.57217-1.18698 9.00668-1.68018-.09027-1.38846-.43668-2.39674-1.04156-3.02487-.60489-.62721-1.82651-.94083-3.66348-.94083-1.52383 0-2.61053.258-3.25961.77309-.65002.51508-1.06482 1.33374-1.2435 2.45326-7.48376.1796-11.82962.29172-13.03986.33548.17868-.89525.34689-1.60086.50415-2.11685.1568-.51418.43713-1.23166.84055-2.1506.40295-.91803.86197-1.66924 1.3775-2.25179.51462-.58163 1.2435-1.23164 2.18478-1.94911.94083-.71655 2.01611-1.27722 3.22635-1.68018 1.20975-.40387 2.73267-.75029 4.57056-1.04202 1.83655-.29082 3.875-.43668 6.1163-.43668 2.28552 0 4.31213.1568 6.08301.47041 1.76953.3136 3.49527.87335 5.17548 1.68018 1.68018.80681 2.97928 2.03937 3.89822 3.69675.91803 1.65831 1.37796 3.69676 1.37796 6.11629v19.69354c0 1.21069.07794 2.06216.2352 2.55447.1568.49412.48136 1.07575.97458 1.74766zm-14.38363-14.92197v-1.27632c-.58301.26804-1.85977.63817-3.83124 1.10858-1.97235.47041-3.57413 1.03108-4.80576 1.68018-1.23303.65001-1.84839 1.51244-1.84839 2.58818 0 .67191.27942 1.28818.84009 1.84793.55975.56067 1.42218.84055 2.58774.84055 1.79184 0 3.41641-.64911 4.87323-1.94913 1.45548-1.29911 2.18433-2.91274 2.18433-4.83997z"/><path d="m442.47339 228.0368h-13.84619v-9.20862h13.84619zm0 38.24482h-13.84619v-34.81699h13.84619z"/><path d="m461.51465 266.28162h-13.91321v-47.45343h13.91321z"/><path d="m341.84778 286.0426h26.68411c2.15103 0 4.16714.23523 6.04926.70563 1.88211.47043 3.66302 1.2435 5.34366 2.31924 1.68018 1.07486 3.01303 2.65475 3.99945 4.73877.98502 2.08313 1.4787 4.56012 1.4787 7.42725 0 3.18167-.7626 5.83643-2.28552 7.96423-1.52383 2.12869-4.01083 3.84262-7.46097 5.14264l11.62814 19.15567h-16.80362l-9.20816-16.73615h-4.36911v16.73615h-15.05594zm15.05594 20.9708h6.25122c1.34424 0 2.47516-.08936 3.3941-.26895.91803-.17868 1.79184-.70563 2.62146-1.57898.82867-.87427 1.2435-2.09406 1.2435-3.66394 0-1.25351-.22473-2.27365-.67236-3.05768-.44852-.78403-1.09854-1.3447-1.94913-1.68018-.85147-.3364-1.61316-.54883-2.28503-.63907-.67236-.08936-1.50195-.13403-2.487-.13403h-6.11676z"/><path d="m425.19983 318.57407h-24.26413c0 .58347.0556 1.15417.16776 1.71393.11121.56155.33594 1.25534.67233 2.08401.33594.82962.9176 1.49057 1.74765 1.98285.82825.49323 1.87027.73935 3.12515.73935.76169 0 1.4559-.10117 2.08359-.30264.6272-.20148 1.15323-.43671 1.5799-.70563.42529-.26895.81683-.60443 1.17603-1.0083.35828-.40295.62723-.73935.80682-1.00827.17822-.26895.35782-.58163.53741-.94083l.26892-.5379 11.35922 4.77252c-1.56897 2.55444-3.86496 4.78345-6.88937 6.6879-3.02487 1.90353-6.84561 2.8562-11.45993 2.8562-2.68893 0-5.14218-.38107-7.36026-1.1423-2.21805-.76123-4.04456-1.7695-5.47766-3.02487-1.43494-1.25351-2.65518-2.7222-3.66348-4.40237s-1.72531-3.39407-2.1506-5.14172c-.42664-1.74762-.63861-3.51715-.63861-5.31036 0-3.22635.58163-6.09351 1.74765-8.6033 1.16464-2.50885 2.69894-4.46982 4.60385-5.88107 1.90399-1.41122 3.9429-2.4642 6.11673-3.15887 2.17294-.69467 4.4024-1.04202 6.6879-1.04202 6.13864 0 10.87695 1.82605 14.21588 5.47812 3.33759 3.6521 5.00726 8.23315 5.00726 13.74503v2.15054zm-24.1301-7.32605h10.08243c-.13446-1.70206-.65002-3.00116-1.54617-3.89822-.89661-.89615-2.01611-1.3447-3.36035-1.3447-1.61316 0-2.87991.61627-3.79794 1.84885-.91895 1.23254-1.37797 2.36391-1.37797 3.39407z"/><path d="m442.38586 333.49603h-13.91321v-47.45343h13.91321z"/><path d="m483.70203 333.49603h-13.64426v-2.68848c-1.30002.8515-2.33066 1.4787-3.09189 1.88165-.76257.40387-1.88211.77307-3.36081 1.1095-1.4787.33548-3.18213.50412-5.10846.50412-3.62927 0-6.62042-.99734-8.97293-2.99112-2.35254-1.9938-3.52856-4.73877-3.52856-8.23407 0-3.85355 1.58994-6.85562 4.77206-9.00623 1.83698-1.25443 5.04099-2.19525 9.61154-2.82339 4.57059-.6272 7.5722-1.18698 9.00671-1.68018-.09027-1.38846-.43671-2.39673-1.04156-3.02487-.60489-.6272-1.82651-.94083-3.66348-.94083-1.52383 0-2.61053.258-3.25964.7731-.64999.51508-1.06479 1.33374-1.2435 2.45325-7.48376.1796-11.82962.29172-13.03983.33548.17868-.89523.34689-1.60086.50415-2.11685.1568-.51416.43713-1.23163.84055-2.1506.40295-.91803.86197-1.66922 1.3775-2.25177.51462-.58163 1.2435-1.23166 2.18478-1.94913.94083-.71655 2.01611-1.27722 3.22635-1.68018 1.20975-.40387 2.73267-.75027 4.57056-1.04202 1.83655-.2908 3.875-.43668 6.1163-.43668 2.28552 0 4.3121.1568 6.08301.47043 1.7695.3136 3.49527.87335 5.17545 1.68018 1.68018.80679 2.97931 2.03937 3.89825 3.69675.91803 1.65829 1.37796 3.69675 1.37796 6.1163v19.69354c0 1.21066.07794 2.06216.2352 2.55444.1568.49412.48135 1.07576.97455 1.74766zm-14.38361-14.92196v-1.27631c-.58301.26804-1.85977.63815-3.83124 1.10858-1.97235.4704-3.57413 1.03107-4.80579 1.68018-1.233.64999-1.84836 1.51242-1.84836 2.58817 0 .67191.27942 1.28818.84009 1.84793.55975.56067 1.42218.84055 2.58771.84055 1.79187 0 3.41644-.64911 4.87326-1.94913 1.45545-1.29911 2.18433-2.91273 2.18433-4.83997z"/><path d="m507.81119 298.67905h14.45108l-12.70346 36.83356c-1.30045 3.76422-2.82294 6.46271-4.57056 8.09912-1.74765 1.63553-4.36911 2.45328-7.86438 2.45328-4.52637 0-7.41632-.15771-8.67029-.47043v-9.88049c.31268 0 .73935.02188 1.27676.06747.53787.04373 1.01877.07748 1.44543.10028.42529.02277.84009.03372 1.24304.03372 1.92633 0 2.89038-.56067 2.89038-1.68018 0-.3136-.35919-1.50058-1.07529-3.56274l-11.02325-31.99359h14.45108l4.90652 22.18054z"/><path d="m362.19131 383.90683h-19.76101v-3.80887c2.86761-1.52338 5.98914-3.86816 9.36545-7.03525 1.82147-1.67288 3.25549-3.32297 4.30164-4.95117 1.0452-1.62823 1.56802-3.42783 1.56802-5.39975 0-1.7923-.50049-3.20355-1.50104-4.23462-1.00098-1.03018-2.39719-1.54617-4.18948-1.54617-2.00201 0-3.45062.55338-4.34677 1.65829-.89615 1.10583-1.34424 2.53989-1.34424 4.30209 0 .95633.17914 2.1506.53787 3.58463h-3.94336c-.35828-1.22433-.53787-2.41953-.53787-3.58463 0-3.07681.94128-5.45169 2.82339-7.12457 1.76224-1.55347 4.07736-2.33017 6.94543-2.33017 2.56857 0 4.73422.74664 6.49734 2.23993 2.1506 1.7923 3.22635 4.22733 3.22635 7.30417 0 4.33218-2.48016 8.54401-7.43863 12.63644-2.1506 1.73303-4.3764 3.34576-6.67651 4.83905h14.47342z"/><path d="m366.06723 368.94022c0-4.57013.96317-8.29697 2.89038-11.1796 1.92679-2.88266 4.56284-4.32397 7.9086-4.32397 3.16617 0 5.78763 1.37384 7.86438 4.1225 2.07584 2.74863 3.11423 6.45267 3.11423 11.11215 0 4.6312-.95679 8.37262-2.86807 11.22519-1.9122 2.85257-4.60065 4.2793-8.06586 4.2793-1.25443 0-2.47971-.25436-3.67398-.76215-1.19516-.50687-2.34567-1.3064-3.45059-2.39673-1.10538-1.09033-2.00153-2.67389-2.68848-4.74973-.68738-2.07675-1.03061-4.51816-1.03061-7.32696zm3.98801.17959c0 3.4953.59714 6.2959 1.79233 8.40179 1.19473 2.10593 2.91272 3.15891 5.15311 3.15891 1.37387 0 2.53897-.40295 3.4953-1.20978.95541-.80682 1.65784-1.87436 2.10593-3.20355.44806-1.32919.76169-2.59912.94083-3.8089.1796-1.20975.26892-2.44232.26892-3.69675 0-.74664-.03009-1.5015-.08932-2.26364-.06018-.76123-.21698-1.75403-.47089-2.97928-.25388-1.22437-.60489-2.28552-1.05295-3.18167-.44809-.89615-1.12772-1.68018-2.03845-2.35208-.91165-.67279-1.96509-1.00827-3.15936-1.00827-4.63076 0-6.94545 4.04773-6.94545 12.14322z"/><path d="m412.17139 383.90683h-19.76102v-3.80887c2.86761-1.52338 5.98911-3.86816 9.36542-7.03525 1.8215-1.67288 3.25552-3.32297 4.30164-4.95117 1.04523-1.62823 1.56805-3.42783 1.56805-5.39975 0-1.7923-.50049-3.20355-1.50104-4.23462-1.00101-1.03018-2.39719-1.54617-4.18951-1.54617-2.00198 0-3.45059.55338-4.34677 1.65829-.89615 1.10583-1.34421 2.53989-1.34421 4.30209 0 .95633.17914 2.1506.53787 3.58463h-3.94336c-.35828-1.22433-.53787-2.41953-.53787-3.58463 0-3.07681.94128-5.45169 2.82339-7.12457 1.76221-1.55347 4.07736-2.33017 6.94543-2.33017 2.56857 0 4.73419.74664 6.49734 2.23993 2.1506 1.7923 3.22635 4.22733 3.22635 7.30417 0 4.33218-2.48016 8.54401-7.43866 12.63644-2.15057 1.73303-4.37637 3.34576-6.67648 4.83905h14.47342v3.4506z"/><path d="m428.34732 383.90683h-4.21231v-22.09119h-6.49734v-2.7778c3.40549 0 5.66046-.88156 6.7663-2.6438.50732-.77673.82141-1.67288.94083-2.68848h3.00253v30.20127z"/></svg>